<?xml version="1.0" encoding="utf-8"?>
<!-- Generator: Adobe Illustrator 22.1.0, SVG Export Plug-In . SVG Version: 6.00 Build 0)  -->
<svg version="1.1" id="Capa_1" xmlns="http://www.w3.org/2000/svg" xmlns:xlink="http://www.w3.org/1999/xlink" x="0px" y="0px"
	 viewBox="0 0 268.8 185" style="enable-background:new 0 0 268.8 185;" xml:space="preserve">
<style type="text/css">
	.st0{fill:#FFFFFF;}
</style>
<g>
	<path class="st0" d="M265.2,83.7l-80-80c-4.9-4.9-12.8-4.9-17.7,0c-4.9,4.9-4.9,12.8,0,17.7L226.2,80H12.5C5.6,80,0,85.6,0,92.5
		C0,99.4,5.6,105,12.5,105h213.7l-58.7,58.7c-4.9,4.9-4.9,12.8,0,17.7c2.4,2.4,5.6,3.7,8.8,3.7s6.4-1.2,8.8-3.7l80-80
		C270.1,96.5,270.1,88.5,265.2,83.7z"/>
</g>
</svg>
