<svg xmlns="http://www.w3.org/2000/svg" viewBox="0 0 325.19 189.05"><defs><style>.cls-1{fill:none;stroke:#fff;stroke-miterlimit:10;}</style></defs><title>ATV</title><g id="Слой_2" data-name="Слой 2"><g id="Слой_1-2" data-name="Слой 1"><path class="cls-1" d="M92,52.57l33.93-7.12"/><path class="cls-1" d="M81,49l3.87-4.63,1.25-5.54,4.75-3.58,8-3.5L106,27l2.25,1.87L113.15,27h5.75l.88.79,8.5-3.79H134l.57,3.79-6.25,2.71L121,31l-.63,2.75h-2.75l-.5,1.37-1.75-1.5H113V38l2.25-.5.87,2.62,9.75,1.25,6.38,2.25,2.25,1.82h3.12l3.5.68L153.65,59l6.13,4.62,57.75-2.87L221.65,42l33.63,1.25v4.12l7.87.5V36.63l-4.37-.25-4.5-4.87-2.25-5-.5-9.13,4.37-9.25L264,2.26l4.5-1.75,6.12.62L271.28,18l-2.63,15.62L267,35.38l-1,9.75L311,46v2.87h2.5v-3l1.87-.12,4.38,5.5V47l2.62,6.12s2.63,5.13,2.25,6.13-1.25,10.12-1.25,10.12h-2.12l-9.75.63-2-.63-2.38,3.38-4.62-.63-.5,2.25,17,.75.5,6.88h5.16v4.12L319,85.51l.25,7.75H279.4l4.88,2.25.87,3.12.25,1.5L287,97.26l3.5,1.25,4.37,3.5,1.75,2.87.38,3.63.87,1.75,2.25-2.25,5.75,5.87,3.25,8.88H311v5l1.25,5.62-2.13,2-.5,2.5h3.25l.38,8.5-1.38,2.25-2,3h-2v1l1.88,1.25v4H307.4l-1,4.75-1.87,2.88h-3.25l-.38,2.5,2,1.5-2.12,2.5-4.25,3.75-3.38,2h-2.37l-2.5,3.75L285,183.88l-7.38,1.75-1-3.37-1.5.75L274,186.76H263l-.38-2h-3.5l-1.5,2.75-2.25-.75-2.25-3-6.37-.25-.25-3.63-2-1.12L243.28,182l-10.13-7.63.5-1.5-1.12-2.5-4.75.63-3.5-6.88-1.13-4,2.5-1.5-.75-1.75-4.87.25-.63-4-1.87-1.5L133.9,151h-20l-1.62,3.62-2.13.38-1.5,2.5,2.5,2.62-3.12,5.5-3.63,3.75-3.5-.75-1,2.88,1.88,2.25-5.25,5.12L91.15,180l-.37-2.13-2.38.63.5,3.87s-2.75,2.13-3.5,2.25-5.62.75-5.62.75l-3.13-.12L78,182.38l-4.5,1.38-.88,4.75-9.12-.75-1.38-3.25L56.53,183v3.25l-8.88-2.38-1-3.25-3.5-3-2.62,2.5-4.25-3.5-4.63-6.25,1.13-2.87-1.13-1.63-4.37,1.5-1.13-2.87-2.25-4.13-1-2.87,2.25-2L25,153.38l-4.63.5V140l2.13-1.13-.75-2-2.25.13v-6.88L5.78,110.51l1.5,6.62.5,3.38-2,1.5L3,115.51V105l-1.88-2L.53,99.38l1.75-2.5,11-33.5,8.37-7.12,1.13-3.69H68.9a31.37,31.37,0,0,1,2.88-2.69c.37-.12,7.5,0,7.5,0Z"/><path class="cls-1" d="M83.28,47l4.37-2.38L89,43A17.61,17.61,0,0,0,92,41.26c.18-.38,1.56-.63,1.56-.63l.62,4.13,5.38.69,2.5-2.69-1.25-2.13-3.13-1.79,1.5-1h1.63l1.87,2.25,4,1.5,12.67-.5,9,1.32"/><polyline class="cls-1" points="119.78 27.8 121.03 31.01 118.94 28.84 115.78 29.41 115.78 33.43 120.11 32.18"/><polyline class="cls-1" points="106.61 27.8 108.93 34.59 113.03 34.59"/><line class="cls-1" x1="88.54" y1="43.59" x2="91.46" y2="35.02"/><polyline class="cls-1" points="99.53 37.88 100.36 32.52 103.11 29.59"/><polyline class="cls-1" points="103.11 37.59 103.11 35.51 107.11 35.51 106.61 33.43 108.93 34.59"/><line class="cls-1" x1="100.78" y1="37.88" x2="113.03" y2="38.01"/><polyline class="cls-1" points="279.4 93.26 275.78 93.26 271.78 91.76 271.78 96.26 271.78 97.01 273.15 100.76 266.03 100.76 266.03 98.26 264.4 97.89 264.4 95.51 264.4 91.76 265.9 90.39 265.9 74.89 302.03 74.39"/><polyline class="cls-1" points="209.78 151.01 209.78 139.26 211.15 133.13 213.53 122.14 218.28 110.39 222.4 101.64 227.65 93.26 233.65 83.39 241.78 78.26 255.03 72.76 269.28 68.76 281.03 66.26 292.78 64.14 304.03 62.76 319.78 62.76 319.78 69.48 321.28 69.39 322.78 64.14 321.9 57.38 319.78 51.26"/><polyline class="cls-1" points="313.53 48.88 316.53 51.26 319.78 62.76"/><path class="cls-1" d="M21.65,56.26l2.13.5H77.53l2.62,1L90,58.88,99.53,62l4.87,6.5,5.42,7.25L115,84.38l7.5,15.25,4.5,10.88L131.4,121l4.13,11.12,3,8.63,2.5,5.75h61.41v-9.67l1.42-4.25.75-6.25s3.58-13.08,3.33-13.16,1.84-6,1.84-6l3.66-8.59,2.75-7.33,4-5.58,3.09-1.17,5.16-9,2.92-4.67,13.58-6.5,6.84-3.5,6.25-2,11.08-2.66,12.17-2.67,10.83-2.25,9.08-1.83,9.84-.55H264.94"/><polyline class="cls-1" points="205.15 151.01 205.15 139.38 207.9 128.38 211.15 117.14 215.53 107.51 219.78 97.26 226.65 85.64 233.53 76.76 247.65 69.76 263.78 63.51 283.21 59.13 295.78 56.76 305.9 55.82 313.53 55.26 316.65 54.63"/><polyline class="cls-1" points="68.9 52.57 92.78 52.57 95.78 53.26 95.78 56.88 77.53 56.76 48.28 61.38 41.15 62.26 35.9 63.01 31.03 65.26 26.28 65.26 20.9 67.64 16.4 67.64 14.53 73.26 19.28 73.26 25.15 69.51 34.28 66.64 44.9 63.88 52.03 62.01 61.15 61.13 80.15 57.76"/><polyline class="cls-1" points="141.03 146.51 141.03 148.51 134.61 151.01 131.18 139.18 125.9 124.84 119.78 111.68 116.61 102.82 119.11 97.7 111.28 97.7 110.11 99.68 102.28 86.84 99.53 83.18 94.44 74.34 90 69.51 87.44 67.18 71.78 67.18 62.11 68.01 46.44 71.18 33.61 78.18 26.2 82.03 20.78 84.84 20.78 94.51 22.94 91.34 26.07 82.39"/><polyline class="cls-1" points="136.99 136.35 126.65 112.76 120.28 100.14 113.03 87.01 104.9 76.01 98.78 69.01 92.65 62.92 64.15 62.92 54.28 64.51 42.78 68.39 31.15 73.26 21.65 76.51 20.78 79.89 22.9 79.76 22.65 82.64"/><path class="cls-1" d="M267.76,34.59c-.32-3.75.68-19.58.68-19.58l1.34-7.89,4.87-6"/><polyline class="cls-1" points="208.76 110.17 170.44 117.68 133.21 125.87"/><polyline class="cls-1" points="129.94 117.01 208.76 90.01 223.28 84.51"/><polyline class="cls-1" points="208.76 90.01 201.28 80.34 168.28 93.68 164.61 93.68 142.44 78.18 138.61 78.18 116.59 87.57"/><polyline class="cls-1" points="120.01 94.51 134.94 90.01 138.61 90.01 156.28 99.63"/><polyline class="cls-1" points="109.82 75.76 136.99 66.34 142.44 66.34 153.65 69.51"/><path class="cls-1" d="M153.65,59V75.76s6.13,0,5.63.22,15.33,8.53,15.33,8.53l3.5-.83,25.17-5.5"/><path class="cls-1" d="M153.65,76.68l19.63,10.89h3.33l24.67-7.23,2.86-2.16,26.74-6.57c-1.69-.52-7.6,0-7.6,0l-2.84-1.43-1.75-2.92-1.16-6.5L224.61,59l.08-13.08h.84l.08-2.84,29.67.17"/><line class="cls-1" x1="255.28" y1="45.63" x2="225.53" y2="45.93"/><polyline class="cls-1" points="224.61 59.01 233.94 54.63 242.69 49.93 235.44 45.78"/><polyline class="cls-1" points="256.36 55.09 249.94 52.76 242.69 49.93"/><polyline class="cls-1" points="256.78 59.01 256.78 53.09 264.94 53.09 264.94 57.18 264.94 48.88 266.03 45.13"/><circle class="cls-1" cx="265.09" cy="139.93" r="20"/><circle class="cls-1" cx="265.09" cy="139.72" r="25"/><polyline class="cls-1" points="249.15 127.84 260.59 134.7 260.59 136.2 259.4 138.38 246.53 132.47"/><polyline class="cls-1" points="246.53 147.01 259.71 141.2 259.4 138.38"/><path class="cls-1" d="M249.86,152.89l11-9.07c.25-.19-1.18-2.62-1.18-2.62"/><path class="cls-1" d="M263.65,145.38l-2.75-1.56Z"/><polyline class="cls-1" points="261.59 159.13 262.78 147.01 263.65 145.38 266.96 145.82 268.96 159.13"/><path class="cls-1" d="M269.22,143.82l-2.25,2Z"/><polyline class="cls-1" points="280.4 151.88 269.71 145.38 269.21 143.82 270.59 141.63 283.8 147.01"/><polyline class="cls-1" points="270.59 141.63 270.34 138.38 283.8 133.12"/><polyline class="cls-1" points="280.09 127.84 268.96 135.32 270.34 138.38"/><polyline class="cls-1" points="268.96 135.32 266.96 133.88 268.54 120.23"/><path class="cls-1" d="M262.28,133.82l4.69.06Z"/><line class="cls-1" x1="262.28" y1="120.23" x2="262.28" y2="133.82"/><ellipse class="cls-1" cx="260.59" cy="132.82" rx="1" ry="1.07"/><ellipse class="cls-1" cx="260.72" cy="146.89" rx="1" ry="1.07"/><ellipse class="cls-1" cx="272.58" cy="140.45" rx="1" ry="1.07"/><polyline class="cls-1" points="104.77 69 124.53 55.76 141.15 46.13"/><polyline class="cls-1" points="100.21 62.92 114.36 55.76 119.44 54.68 125.48 55.21"/><polyline class="cls-1" points="70.9 50.61 80.9 50.93 87.28 52.57 99.53 50.18 109.82 48.01 121.64 46.34 134.53 45.45"/><polyline class="cls-1" points="217.53 151.63 219.03 151.63 219.03 145.38 221.61 144.82 221.11 141.2 217.53 141.2 218.28 132.81 222.11 128.26 222.44 125.43 219.61 124.43 221.36 120.23 223.28 117.34 226.78 118.84 228.44 113.93 228.44 109.68 232.61 104.34 236.44 106.51 240.09 102.82 240.69 98.59 243.86 97.26 248.11 95.68 249.36 97.7 255.78 96.76 256.28 93.68 264.4 93.34"/><polyline class="cls-1" points="225.53 96.65 240.97 92.18 250.19 89.51 253.86 88.76"/><line class="cls-1" x1="253.86" y1="83.93" x2="233.2" y2="84.13"/><line class="cls-1" x1="253.14" y1="73.54" x2="253.14" y2="97.15"/><polyline class="cls-1" points="256.36 72.39 256.36 72.84 256.36 78.89 260.09 78.89 260.09 77.07 264.84 77.01"/><polyline class="cls-1" points="256.78 72.76 270.78 72.76 274.65 71.18 274.19 68.59 270.06 68.59"/><polyline class="cls-1" points="274.19 68.59 303.86 69.01 306.28 66.09 308.61 66.09 312.54 69.94"/><polyline class="cls-1" points="279.03 71.76 296.53 71.34 300.53 71.76 300.53 69.01"/><line class="cls-1" x1="305.78" y1="62.76" x2="306.28" y2="66.09"/><line class="cls-1" x1="310.36" y1="62.76" x2="308.61" y2="66.09"/><path class="cls-1" d="M187.15,115.51V119l-3,4.5-5.25,4.34-4,1.41V127l-3.12-.25v2.5s-4.75,2.85-6.63,2.49a12.73,12.73,0,0,0-4,0l-.62-1.87-3.13-.37v3.31l-6.25,1.06-7.37,1.63-6.6,1.37"/><polyline class="cls-1" points="189.49 113.95 189.49 119.26 188.78 123.01 184.65 125.87 189.49 125.87 190.03 124.89 191.53 124.76 191.53 126.19 204.61 126.34"/><polyline class="cls-1" points="138.53 140.76 140.03 140.76 141.15 143.82 144.65 143.26 144.65 143.82 149.15 143.82 153.03 143.82 154.53 142.29 164.28 142.29 165.15 140.76 166.34 141.2 167.28 138.38 168.15 138.38 168.15 137.51 167.15 137.51 166.9 133.88 169.53 133.12 169.53 136.88 176.61 136.88 202.44 136.84"/><line class="cls-1" x1="211.15" y1="133.13" x2="218.25" y2="133.13"/><line class="cls-1" x1="212.82" y1="126.59" x2="222.24" y2="126.59"/><polyline class="cls-1" points="203.69 133.12 183.78 133.12 183.78 125.87"/><polyline class="cls-1" points="199.61 112.43 193.73 116.09 189.49 118.59"/><polyline class="cls-1" points="24.9 57.57 24.15 59.38 18.53 62.92 16.4 67.64"/><polyline class="cls-1" points="3.03 105.01 5.28 104.76 6.9 94.51 14.53 73.26 15.28 78.18 14.53 82.39"/><polyline class="cls-1" points="11.23 82.45 14.53 81.76 20.78 79.73"/><polyline class="cls-1" points="16 81.09 12.36 90.01 9.94 97.7 5.78 104.59 5.28 109.68 8.53 109.09 11.86 101.59 16.4 93.68 20.78 89.14"/><polyline class="cls-1" points="20.65 80.51 17.53 88.09 10.56 95.74"/><polyline class="cls-1" points="115.78 112.43 115.78 123.51 111.11 123.51 111.11 105.01"/><line class="cls-1" x1="111.11" y1="103.76" x2="96.53" y2="103.76"/><path class="cls-1" d="M83.28,94.51c.62-.5,3.75-20,3.75-20l8.75,6.58,6.94,6.48"/><polyline class="cls-1" points="79.65 93.68 84.65 73.26 87.03 74.51"/><polyline class="cls-1" points="61.03 69 74.9 69.51 84.65 72.51"/><polyline class="cls-1" points="19.53 130.13 24.19 127.93 27.44 121.26 25.11 117.43 27.44 112.93 31.36 114.26 34.19 110.01 32.61 106.43 36.36 103.76 42.44 104.59 47.86 100.09 51.11 98.18 55.61 98.18 57.03 96.09 64.61 96.84 64.94 94.82 71.61 94.82 72.28 96.26 80.44 96.09 81.61 97.7 84.65 95.38 88.69 97.26 88.69 99.93 91.19 102.09 92.36 98.95 109.67 98.95"/><path class="cls-1" d="M93,99.34l4.78,3.17-2,3.75,2,1.92,5.58,5.33,2.33-1,4.13,5.45s-.17,5.41-.15,6.08,0,2.92,0,2.92h3.77l1.17,8.25h-2.67l.84,7.33,2.25,1.08L113.9,151"/><polyline class="cls-1" points="50.33 98.64 21.03 98.64 20.78 98.64 20.78 104.26 35.56 104.26"/><polyline class="cls-1" points="11.57 102.25 11.57 108.14 17.03 108.14 18.59 105.76 18.03 103.07 17.21 102.64 17.03 101.45 18.21 101.76 18.59 99.89 20.78 99.89"/><polyline class="cls-1" points="20.78 104.26 20.65 106.14 18.65 106.14"/><polyline class="cls-1" points="6.23 111.16 9.86 109.68 12.19 112.48 15.28 117.01 20.19 117.01 25.11 117.43"/><polyline class="cls-1" points="19.03 127.93 20.78 125.09 16.4 120.18 15.28 117.01"/><polygon class="cls-1" points="22.21 109.68 29.21 110.51 33.4 110.51 22.21 109.68"/><polyline class="cls-1" points="21.09 108.82 17.28 108.82 17.28 111.64 19.18 111.64 18.65 112.95 20.03 114.95 22.78 114.01 22.78 111.89 19.71 111.39"/><polyline class="cls-1" points="32.28 98.64 40.78 76.2 36.92 76.37"/><polyline class="cls-1" points="35.56 98.07 40.15 88.13 43.47 81.09 44.84 76.2 44.84 74.07 40.78 74.07"/><polyline class="cls-1" points="38.59 98.07 43.47 88.39 46.97 82.14 46.97 77.89 47.9 76.2 47.9 70.88"/><path class="cls-1" d="M50.33,75.09l-1.8-.58.41-2,1.75-.92,2.59.5.91-1.21,4.67-.13L60.36,72l1.58-.08L63,73.26v1.83H58.69c-.25,0-5.66.34-5.66.34l-2.09,1.16L48.53,78"/><polyline class="cls-1" points="48.53 84.93 48.28 88.09 50.09 86.55 53.2 85.42 57.45 84.67 61.62 83.67 61.82 86.7 61.86 80.51 57.69 81.51 53.44 82.26 50.33 83.39 48.53 84.93 48.49 81.6"/><polyline class="cls-1" points="48.87 96.27 50.67 94.73 53.78 93.6 58.03 92.85 62.2 91.85 62.2 89.64 58.03 90.64 53.78 91.39 50.67 92.52 48.87 94.06"/><polyline class="cls-1" points="49.08 96.09 49.08 93.88 48.28 88.09 48.68 91.11"/><polyline class="cls-1" points="48.53 74.51 48.49 77.85 48.53 81.43 50.33 79.89 53.44 78.76 57.69 78.01 61.86 77.01 63.03 75.09 75.69 75.01"/><polyline class="cls-1" points="62.2 89.64 61.82 86.7 57.65 87.7 53.4 88.45 50.29 89.57 48.49 91.11"/><line class="cls-1" x1="61.86" y1="77.01" x2="61.86" y2="80.51"/><line class="cls-1" x1="53.78" y1="93.6" x2="53.36" y2="97.7"/><line class="cls-1" x1="60.24" y1="92.55" x2="59.99" y2="96.09"/><polyline class="cls-1" points="81.86 72.51 75.71 72.23 61.86 71.59"/><line class="cls-1" x1="75.69" y1="95.65" x2="75.71" y2="72.23"/><line class="cls-1" x1="79.65" y1="72.41" x2="78.89" y2="93.93"/><line class="cls-1" x1="61.62" y1="83.67" x2="75.69" y2="83.67"/><line class="cls-1" x1="62.2" y1="85.51" x2="75.71" y2="85.51"/><line class="cls-1" x1="65.78" y1="85.93" x2="65.78" y2="94.51"/><polyline class="cls-1" points="71.86 85.93 71.86 92.96 65.78 92.96"/><polyline class="cls-1" points="75.11 95.65 75.11 93.93 71.86 92.96"/><polyline class="cls-1" points="64.6 83.17 72.84 78.01 61.62 77.97"/><line class="cls-1" x1="73.49" y1="77.97" x2="75.69" y2="78.18"/><polyline class="cls-1" points="72.84 72.51 72.84 73.26 63.03 74.51"/><circle class="cls-1" cx="67.93" cy="140.01" r="20"/><circle class="cls-1" cx="67.93" cy="139.8" r="25"/><polyline class="cls-1" points="52 127.92 63.43 134.77 63.43 136.27 62.25 138.46 49.37 132.55"/><polyline class="cls-1" points="49.37 147.09 62.56 141.27 62.25 138.46"/><path class="cls-1" d="M52.7,153l11-9.07c.25-.19-1.19-2.63-1.19-2.63"/><path class="cls-1" d="M66.5,145.46l-2.75-1.56Z"/><polyline class="cls-1" points="64.43 159.21 65.62 147.09 66.5 145.46 69.81 145.9 71.81 159.21"/><path class="cls-1" d="M72.06,143.9l-2.25,2Z"/><polyline class="cls-1" points="83.25 151.96 72.56 145.46 72.06 143.9 73.43 141.71 86.64 147.09"/><polyline class="cls-1" points="73.43 141.71 73.18 138.46 86.64 133.19"/><polyline class="cls-1" points="82.93 127.92 71.81 135.4 73.18 138.46"/><polyline class="cls-1" points="71.81 135.4 69.81 133.96 71.39 120.31"/><path class="cls-1" d="M65.12,133.9l4.69.06Z"/><line class="cls-1" x1="65.12" y1="120.31" x2="65.12" y2="133.9"/><ellipse class="cls-1" cx="63.43" cy="132.89" rx="1" ry="1.07"/><ellipse class="cls-1" cx="63.56" cy="146.97" rx="1" ry="1.07"/><ellipse class="cls-1" cx="75.42" cy="140.52" rx="1" ry="1.07"/></g></g></svg>