<svg xmlns="http://www.w3.org/2000/svg" viewBox="0 0 557.39 431.2"><defs><style>.cls-1,.cls-2{fill:none;stroke:#fff;stroke-miterlimit:10;}.cls-2{stroke-width:0.5px;}</style></defs><title>engine icon</title><g id="Слой_2" data-name="Слой 2"><g id="Слой_1-2" data-name="Слой 1"><path class="cls-1" d="M525.86,195.85,524,199.06l-3.87-.25-.13,1.38,5.5,3.12,3.63,3.5-1.13,3-3.87,3.38-1.13,5,3,3.62-.87,3.25s-4.5.88-4.13.88-4-2.75-4-2.75l-4.62-2.88-5,3.75-4.75,3.13-4.5,2.62-5.88.75-4.37,4.5-5.5,1.38-3.88,6.37-.37,5.38-5.25,4.37,3.75,2.63,2.5,7.25,2.37,5,17.88,1.37,1.25,2.13-1.13,9.12-2.37,4.13-9.63-.88-.12,1.25,3.25,1.75,4.12,2.25-.37,5.38-1.88,3.5,1.25,4.62-2.5,7.25h-1.62l-3.63,6.5-.62,9.63-.94,4.5-1.69,1.25-5.81.06v1.62l1.94-.06h7.44l.23-2L488,327l5.83-1,6.83-.17.5-5.66.67-6.5v-6.5l2.5-4.67,11,.17,2.67,3.16,2.66,4.67,3.17,10,2.33,10.67.84,7.5.5,10.66-.34,9.17.17,9.33L526,373.69l-3,5.16h-4.5l-7,.67-2.17-3.5-1.83-4.5-2-6.83-.84-7.5-9,.5,3.38,8.25.87,7.5-1.79,3.91-13.33.17-.08,4.58-1.84.67-15.08.17-12.25,15-10.75,11.41-.67,4.5-4.16.5-7.34-.5-.66-3.33-25.67.83-24,2.34-4.5,4.25-12.17,6.41-5.16.42-11.67.75-.33-4.25-2.42-.58,1.75,5.25-4.25.75-.92-5.17-6.5-.5-4.83-3.83-5-.67-7.83,1.5-9.84-1.17-10,.34-6.66-1.5-11.34-1.84-20.08-3.16-10.13-.25s-2.93,1.68-2.81,1.37-.44,4.38-.44,4.38l-.62,7.75-3.5,5.62-6,1.13-5.63-1.63-10.75-1.5-19.12-2.5-19-2.37-15.75-2.13-13.13-1.5-2.87-1.25-2.63-4.12-.5-3.38.63-4.75,2.5-2.87,2.62-2.13-.25-6-17.25.75-.12,5.25-3,.5-.38,3.13-2.37,2.87-5.25.5-2.75-1.25-1.5-3.75-1.13.25-1.5,2.25H104.73l-.5-3.87-3.87.37-.75-4.25v-6.5l-.13-6.5-6.12-.12L93,388.06l-.5,8-1.5,5-2.5,7.25-5.25,1-6.12-.87-3.63-7-2.62-9.13-2.38-15.37-.25-12.63.38-12.37.37-9.88,1.5-6.5,3.75-3.25,6.13-.25,4.12,2.13,3.38,5,1.62,5.5,1.88,7.25h7.25l.12-4.38.13-12.12,2.75-3.57,6.56.07.19-2.88-10.5-.25v2.63l-2.75,4h-6l-3.25-1.92-4-8.67L77,323.69l-3.84-1.84-2.83-5.5H68l-6.34-1.83L60,312.69l-.17-4,1.33-7.34,6.34-10.83.16-4.33-8.33-1.34-.83-5.33L38.36,267l-4,5.17-8,4.83-15.5-2-10-10.5v-12l3.83-6.67,15.5-20.66,8.34-4,8.33-1,4.83,3h12l2.67-3-9.17-34.67,2.67-.71,21.87-6.37,10.5-1.25,19.88.12,2,11.88,1.37.5,6.75-5,.75-2.88,6.5-8.5-.5-5.87,2.88-3.5-3-2.67-.63-5.08v-3.75l5.88-2.88,1.87,2.5,5-.46v-3.25l12-15.83V127l18.66-22.67,17.79-10.79,6.13-1,15.87-10.25,5-.37-.62-7.25V70.44l2.75-2.38,2.62.13,1,1.5,7.38.5,1.12,4,11,11,3.5,1.12,2.13,2.63v-14l2.87-3.63V47.94l1.38-2.63,13-4.75V31.94l8.25-.25v4.62l1.12.38v5.12l2.75-.12-.5,7.75L264,50.69v2.75l2.88.62-2,7.75L264,71.44v2.75l4.25-.63,5,4h2.38l38.92-34.87L302.36,24.85V20.19L340.86.52l4.33.67L348,7.52l8.5-2.17,4-2.33,4.66,1.83-1.83,3.34L367,21.85l3.33,1.84-2.83,2L355,31v2.33l37.66,34.17v-4l4,.17-.16-2.17-1.67-18.67v-6l4-1-.83-3.5-1-2.66v-6h8.66l1,2.66,2.17.84,1.5,2.83,1.17,3h4l1.33,19.5,1-3.67,2.33-3.16,4.17-1.34,8.17,4.5.16,4.34,3.84.83-.5,4.33L424.36,75l4.5.5L451.36,53l2.17-.67,8.66,2.5L462,56.69l-2.34,2.5,1,2.16L459,65.52l4-.5,3.33-1.17,12,5.34h4.33l30.67,16,29.83,22,.5,7.5,3.34,3.66,1.66,5.84h2l1.5-1.34,4.67,2.17-.67,6.67-4.33,5.16-3.33,1.5v11.17l-.84,2.17-15.16,14.83.66,2.33h1.17l1.33-1.16,1.34-1h4.33l2.17-1.67,5,2.83v3.5l-1.34,1.34v2.83l-2.33,4.33h-4l.67,2.34-15.67,13.66-10.33-7.33-6-.83L448,143.52l-3.5-5.83L433.36,130l-.83-3.5-4.84-1.5,6-7.67,5.84.67L436,105.69l3.13-9.5-.25-7.75,5.62-1L454.86,85l6.87-5.85.75-4.13-4.9-3.21-9.85-3.41-11-.75"/><polyline class="cls-2" points="540.86 179.85 534.02 174.19 533.19 168.85"/><polyline class="cls-2" points="448.69 127.69 455.86 134.35 518.52 178.85 529.36 168.02 530.52 172.19 534.02 174.19"/><line class="cls-2" x1="529.69" y1="167.19" x2="532.53" y2="166.52"/><polyline class="cls-2" points="457.58 135.58 466.69 119.35 494.02 116.35 510.86 99.02 542.52 118.02 529.69 136.69 531.11 164.69"/><polyline class="cls-2" points="477.02 71.85 508.36 88.52 507.36 99.02 502.71 98.76 477.02 97.35 464.52 116.85 470.86 116.35 479.36 112.02 493.36 111.19 505.36 99.02"/><polyline class="cls-2" points="548.52 138.35 548.69 124.19 542.52 118.02 543.19 107.19"/><polyline class="cls-2" points="510.86 99.02 510.86 86.94 483.36 71.06 477.36 71.06"/><polygon class="cls-2" points="448.69 110.85 452.44 115.94 461.52 118.19 464.52 116.85 465.27 111.85 464.11 111.19 465.77 108.85 462.19 104.85 459.44 103.85 456.11 105.44 453.36 104.94 450.52 106.35 448.69 108.44 448.69 110.85"/><line class="cls-2" x1="432.78" y1="126.1" x2="448.69" y2="111.27"/><polyline class="cls-2" points="455 133.55 463.02 123.27 460.94 120.02 456.36 119.1 451.27 117.19 448.69 112.02"/><polyline class="cls-2" points="451.67 85.78 450.36 95.06 451.01 103.06 450.52 106.35"/><path class="cls-2" d="M237.36,88.94l.75,6.83,2.75,1.58-3.08,3.5.5,2.84,17.91,15.25,16.48,15.25,6.19.83v2.92l1.83,1h4.67l3.17-1.67,3.25-4.08-.34-3,6.34-7.09v7.27l-1.17,5.13-.75,7.69s-.06,4.75,0,5.25a4.53,4.53,0,0,1-.5,1.62l.42,4.29,1.58,4.17,4.08,4,4.34,1.5h8.58l2.58-1.83,4.75-1.5,3.42-2.59,3.25-.5-.33-3.41,2.75-1.92,1.41-1.33,49.17,1.25v-2l-1.88-1.38v-3.5l1.88-2,1.12-1.12,3.25,2.37,2.63,1.63v-2.25l-2.25-2.5-.88-2.75-.25-4.13-4-2.37-4.75-3.13-3.62-2.58-3.13-1.17-7,2.5-9.62,2.13-9.5,3.12-5.5,3.63-6.75,6.12-4.63,5.13-.25,2.12-4.43,4.25-5.57,5.63L311.11,164"/><polygon class="cls-2" points="334.48 69.06 334.48 67.19 341.73 61.06 370.61 89.56 372.98 91.94 379.73 93.81 382.23 95.19 382.23 97.81 376.98 96.69 369.86 97.81 370.11 100.69 352.86 105.06 340.61 109.94 331.48 114.31 325.86 118.31 321.86 121.81 320.23 120.81 326.86 113.81 333.61 105.94 335.98 99.19 337.61 93.44 338.86 84.69 338.23 76.06 336.73 71.56 334.48 69.06"/><polygon class="cls-2" points="297.11 103.31 318.98 82.19 308.05 105.44 306.11 104.44 303.73 102.06 300.11 104.44 297.11 103.31"/><polyline class="cls-2" points="297.11 103.31 294.02 104.69 294.02 111.6 281.44 123.1 269.44 115.52 262.61 110.1 257.86 104.69 274.44 88.94 270.52 86.19 266.02 82.85 264.52 81.1 262.19 78.1 251.86 88.44 246.44 95.44 247.19 97.44 250.53 101.1 254.11 103.94 257.86 104.69"/><line class="cls-2" x1="240.86" y1="97.35" x2="247.19" y2="97.44"/><polyline class="cls-2" points="269.73 84.87 273.73 82.94 275.73 80.94 274.55 78.94 271.77 78.5 267.98 74.94 262.61 76.69 262.61 77.75"/><polyline class="cls-2" points="237.36 79.9 240.86 81.52 244.03 82.77 251.11 82.19 256.44 79.9 258.27 78.52 258.27 66.85 257.52 61.27 262.61 60.69 263.44 59.6 263.44 55.19 260.61 55.19 260.44 47.94 247.94 47.35 242.44 47.35 240.54 47.35"/><line class="cls-2" x1="304.45" y1="27.92" x2="348.03" y2="7.52"/><line class="cls-2" x1="302.36" y1="24.85" x2="345.19" y2="1.19"/><polyline class="cls-2" points="355.02 31.02 353.94 23.1 353.11 17.27 351.23 12.6 347.61 7.52"/><line class="cls-2" x1="312.34" y1="39.48" x2="353.21" y2="17.99"/><polyline class="cls-2" points="314.52 42.69 335.48 42.69 339.11 48.94 340.11 54.56 341.73 61.06"/><polyline class="cls-2" points="335.48 42.69 341.36 37.85 346.52 35.44 355.02 33.35"/><line class="cls-2" x1="367.02" y1="86.02" x2="389.19" y2="64.34"/><line class="cls-2" x1="334.48" y1="69.06" x2="318.57" y2="82.58"/><polyline class="cls-2" points="394.86 38.02 397.69 43.35 415.87 38.02"/><polyline class="cls-2" points="369.48 125.31 389.19 121.19 388.36 113.69 386.11 107.06 386.36 99.94 387.23 97.06 382.23 97.81"/><polyline class="cls-2" points="388.36 146.19 388.36 148.85 394.19 153.27 398.19 149.73 400.24 148.01 411.36 138.69 413.86 135.52 417.19 129.19 414.02 127.69 410.69 123.1 405.36 121.19 402.77 121.19 400.02 123.1 399.52 119.69 397.69 118.69 397.52 116.85 391.69 116.85 391.69 121.81 390.52 127.69 383.29 133.55"/><polyline class="cls-2" points="397.36 143.69 397.36 138.94 400.24 135.06 396.36 131.85 396.36 127.69 400.24 126.48 402.11 126.1 407.94 126.85 407.44 129.69 404.86 133.19 402.15 135.69"/><polyline class="cls-2" points="387.02 139.85 392.69 140.69 395.36 137.52 396.36 134.35 395.36 131.85 394.86 126.48 390.76 126.48"/><polygon class="cls-2" points="412.3 125.31 418.61 122.79 423.98 120.19 429.11 117.56 432.77 116.19 433.86 112.94 429.73 112.94 428.86 109.44 427.86 106.35 426.23 101.81 423.98 100.56 422.36 96.06 414.36 96.06 412.98 99.02 409.98 99.02 410.48 103.85 409.98 108.31 411.23 111.27 412.98 115.56 413.86 120.94 412.3 125.31"/><polyline class="cls-2" points="409.98 108.31 415.23 109.31 421.11 108.31 424.36 107.69 427.86 106.35"/><polyline class="cls-2" points="426.96 103.85 421.36 106.35 417.98 106.35 410.2 106.35"/><polyline class="cls-2" points="389.19 116.85 402.15 114.69 402.69 109.77 402.69 104.44 394.02 99.69 385.94 99.69"/><polyline class="cls-2" points="430.86 73.52 433.86 75.82 433.86 82.77 432.77 88.94 415.19 91.44 406.19 94.35 386.36 99.94"/><polyline class="cls-2" points="433.86 61.45 417.19 54.02 415.87 56.52 414.61 63.52 406.02 71.85 406.02 78.1 417.86 79.9 423.19 74.94"/><polyline class="cls-2" points="387.23 97.06 396.36 89.56 398.86 82.58 397.61 73.52 394.32 69.56 392.69 67.52"/><path class="cls-2" d="M432.78,128.69l-2.67,3.16-2.25,3.21,4.92,3.29v2.34l34.33,26.16,7,3.09,7.5,3.25s6.42,3.5,4.83,3.5-2.08,8-2.08,8l13,8.75,4.75,2.75,2,2.25,5.58-4.75-23.25-17"/><line class="cls-2" x1="509.69" y1="193.69" x2="519.98" y2="200.19"/><polygon class="cls-2" points="432.77 140.69 430.02 140.69 427.86 143.69 424.52 147.35 423.02 149.02 423.02 154.52 423.02 156.52 427.86 156.52 433.86 150.85 437.19 146.69 432.77 140.69"/><polyline class="cls-2" points="452.45 179.4 452.45 173.69 453.19 170.85 459.36 170.85 468.77 173.02 475.02 175.85 480.36 178.02 482.02 182.19 482.02 186.85"/><polygon class="cls-2" points="467.24 180.85 471.69 179.85 476.19 179.85 477.52 183.85 477.52 187.52 473.52 189.19 469.52 188.52 466.52 186.85 465.77 183.85 465.77 182.35 467.24 180.85"/><polyline class="cls-2" points="427.86 156.52 427.86 159.69 433.86 163.56 442.52 153.27 444.52 156.52 448.69 158.41 454.19 162.69 455.47 164.02 455.47 166.52"/><polyline class="cls-2" points="433.86 163.56 437.19 164.69 444.52 156.52"/><polyline class="cls-2" points="437.19 164.69 444.52 169.69 450.52 173"/><polyline class="cls-2" points="442.65 168.41 438.52 173 456.56 183.48"/><polyline class="cls-2" points="485.6 185.52 483.36 189.19 479.23 192.44 490.23 200.19 494.36 204.31 498.23 208.06 504.48 212.94 511.98 218.06 512.36 220.31"/><polyline class="cls-2" points="472.02 194.52 477.69 192.52 481.02 189.52 483.36 185.52 483.69 176.19 475.02 172.02 465.77 167.85 463.02 166.85 457.23 166.52 452.02 167.19 450.69 171.02 450.19 176.85 454.19 181.35 460.69 187.19 467.69 193.69 472.02 194.52 489.02 206.69 480.69 214.52 426.69 176.02 433.86 168.19 421.92 159.19 421.92 156.52 423.02 156.52 414.19 157.19 411.52 153.27 405.86 152.52 398.52 153.27 393.2 152.52"/><line class="cls-2" x1="417.19" y1="129.19" x2="430.03" y2="140.69"/><polyline class="cls-2" points="426.69 176.02 419.19 173 414.36 167.19 411.19 171.6 405.84 167.72 397.52 161.69 401.19 157.35 401.36 152.52"/><line class="cls-2" x1="419.19" y1="156.52" x2="405.84" y2="167.72"/><polyline class="cls-2" points="411.19 171.6 417.19 177.19 426.69 184.52 438.52 192.52 454.36 203.85 463.86 211.52 475.86 218.85 480.69 221.19 483.19 223.02 487.52 223.02 487.52 220.31 483.86 216.85 480.69 214.52"/><line class="cls-2" x1="423.61" y1="182.14" x2="398.61" y2="211.44"/><line class="cls-2" x1="398.61" y1="211.44" x2="456.56" y2="250.69"/><line class="cls-2" x1="412.11" y1="230.19" x2="418.34" y2="224.8"/><line class="cls-2" x1="432.69" y1="245.19" x2="439.19" y2="238.92"/><line class="cls-2" x1="443.86" y1="257.35" x2="474.98" y2="218.32"/><line class="cls-2" x1="464.69" y1="239.19" x2="477.53" y2="223.02"/><line class="cls-2" x1="492.53" y1="228.52" x2="482.03" y2="223.02"/><line class="cls-2" x1="477.53" y1="223.02" x2="482.03" y2="223.02"/><line class="cls-2" x1="464.69" y1="239.19" x2="466.11" y2="241.19"/><line class="cls-2" x1="478.86" y1="233.69" x2="470.36" y2="241.35"/><line class="cls-2" x1="466.11" y1="241.19" x2="470.36" y2="241.35"/><line class="cls-2" x1="478.86" y1="233.69" x2="481.3" y2="234"/><line class="cls-2" x1="485.86" y1="234.75" x2="481.3" y2="234"/><line class="cls-2" x1="409.68" y1="170.51" x2="389.48" y2="196.79"/><line class="cls-2" x1="389.73" y1="207.94" x2="389.48" y2="196.79"/><path class="cls-2" d="M382.86,214.52a6.72,6.72,0,0,1,6.87-6.58"/><path class="cls-2" d="M382.86,214.52a6.36,6.36,0,0,0,6.31,6.42"/><path class="cls-2" d="M396.92,215.19c0,3.17-3.47,5.75-7.75,5.75"/><path class="cls-2" d="M396.92,215.19a7.21,7.21,0,0,0-7.19-7.25"/><line class="cls-2" x1="398.61" y1="211.44" x2="390.36" y2="222.44"/><line class="cls-2" x1="390.36" y1="230.1" x2="390.36" y2="222.44"/><line class="cls-2" x1="434.61" y1="261.06" x2="390.36" y2="230.1"/><line class="cls-2" x1="443.86" y1="257.35" x2="434.61" y2="261.06"/><polyline class="cls-2" points="396.36 173.85 390.36 169.25 388.36 167.72 380.86 167.72 373.52 171.6 380.36 177.85 390.36 169.25"/><polyline class="cls-2" points="380.36 177.85 389.61 186.85 396.36 173.85"/><polygon class="cls-2" points="471.73 241.27 475.11 244.81 475.11 248.94 470.86 252.06 465.4 248.56 465.4 244.69 468.23 242.05 471.73 241.27"/><polyline class="cls-2" points="372.19 220.94 378.36 197.31 378.36 194.19 373.52 190.19 355.86 215.6 357.02 225.02 357.02 229.19 355.86 232.85 353.69 236.52 349.52 237.83 344.02 237.83 341.52 237.83 338.02 234.37 336.69 231.1 334.69 220.94 331.86 203.69 336.36 202.36 345.19 201.02 351.23 200.35 355.86 232.85"/><polyline class="cls-2" points="352.06 206.18 365.02 190.19 364.02 185.52 315.02 189.19 304.69 198.44 298.86 202.36 300.52 204.19 297.11 206.18 296.36 210.52 297.11 214.01 299.52 216.94 303.69 216.94 307.19 215.6 309.69 213.19 320.23 224.19"/><line class="cls-2" x1="304.69" y1="198.44" x2="327.69" y2="220.31"/><polyline class="cls-2" points="377.69 223.02 380.36 207.02 382.23 195.52 372.52 188.52 364.36 177.85 366.36 172.78 366.19 166.52 359.86 162.85 359.86 158.69 355.86 156.52 350.52 156.52 350.52 159.19 344.52 155.52 338.02 154.85 331.86 156.52 323.69 162.12 318.98 163.56 312.86 167.02 310.86 173.85 310.36 181.19 312.86 183.48 314.52 186.85 315.02 189.19"/><circle class="cls-2" cx="321.78" cy="180.86" r="5.42"/><circle class="cls-2" cx="358.78" cy="175.36" r="5.42"/><polyline class="cls-2" points="366.25 168.81 359.36 165.44 355.73 164.27 347.98 161.31 343.73 158.69 339.73 158.69 333.98 160.56 328.23 164.02 322.86 167.72 317.23 168.81 310.86 172.06"/><polyline class="cls-2" points="287.86 326.35 283.19 326.35 278.86 325.69 275.02 329.52 272.02 330.52 265.86 330.52 263.52 328.1 262.02 325.69 259.19 326.69 257.02 329.52 256.36 332.85 251.69 333.85 245.69 333.85 242.03 336.19 238.86 338.19 235.03 338.19 232.53 335.69 229.53 334.19 217.69 334.02 211.86 331.94 207.53 328.19 205.03 323.85 203.03 316.35 203.86 312.35 200.19 306.85 197.19 303.02 195.53 296.19 195.53 288.35 195.53 285.35 198.19 280.35 199.36 276.19 198.86 269.69 199.69 263.35 202.69 259.02 204.86 253.35 206.36 248.19 206.69 243.19 204.86 240.52 205.19 238.85 207.36 236.85 213.86 236.85 216.53 240.52 216.36 244.52 216.19 246.52 220.03 245.58 221.19 248.69 221.36 253.52 224.36 254.85 226.69 256.35 228.69 254.02 232.86 249.35 234.69 248.52 236.53 244.52 241.69 244.02 246.03 240.85 259.48 229.81 265.23 225.94 279.73 225.94 279.73 223.56 282.61 222.31 289.61 222.31 289.61 223.69 291.36 224.19 291.36 220.81 296.36 218.19 303.11 218.19 306.23 221.06 306.23 226.81 308.73 229.19 316.36 230.44 329.36 232.19 336.19 234.02 341.52 237.83"/><polyline class="cls-2" points="353.69 236.52 357.86 236.52 361.36 230.1 370.36 234.19 374.52 236.52 373.86 242.05 380.52 242.05 388.36 246.66 385.02 254.35 388.36 254.35 391.69 249.52 395.52 248.52 398.86 247.35 401.19 246.66 404.36 244.19 411.19 244.68"/><path class="cls-2" d="M203.86,312.35l3.37-5.16h5.38l2.75-.63,4-2.37v-7.75s-1.38-1.25-1.75-1.25a15.79,15.79,0,0,1-2.63-2L215,286l4.33-4.67,5.67-6.66,3.83-2.67,1.83-1,2-4.33,2-4.67,4.34-2.5,6.33-1,3.67-5.33,5.66-3,6.17-6,.83-6,5.67-2H280l2.83-3.67h5.83l3,3.33h2.17v-4.66l3.5-1.09,5.12,1,5.13,1.13v5.64l2,3,5.62,3.75,4.63-.37,7.33.62,7.42.77h5.5l8.5-.89,2.87-2.64,2.88.18,3.12,3.35,3.13-1.14,3-2.21h5.5l2.5,1.58,1.92,3-.67,5.75-.75,2.85,4,.78,6.75.62,3.15,7.25,1.6,7.61,2.12,7.52,5.57.37,4.43,2.31,4.5,2.82,4.19,2.93,2.77.32,5.92-9.75,3.42-6-2.5-4,2.66-1.17v-2.33l5.17-5.48.67-3.8"/><polyline class="cls-2" points="411.19 287.94 414.19 289.35 417.69 292.35 419.36 299.35 425.36 311.94 425.98 317.81 426.53 320.44 428.48 327.94 428.48 336.44 427.61 343.19 427.73 349.81 425.86 357.02 423.02 361.02 420.86 365.02 417.69 370.85 414.19 374.69 410.19 378.35 405.52 382.35 401.36 386.35 396.86 389.35 387.19 392.19 378.02 397.19 370.61 398.69 361.61 398.69 351.98 398.69 342.48 396.56 330.73 395.69 323.73 394.31 315.11 393.06 308.86 392.19 301.36 383.52 297.19 377.19 294.36 373.19 290.69 366.52 290.69 358.69 289.69 347.69 288.69 337.35 288.69 329.85 287.69 318.02 287.69 311.19 286.69 306.52 286.11 304.52 272.94 300.02 266.19 296.94 257.27 293.44 248.94 291.85 240.28 287.94 236.53 287.27 227.86 287.27 222.19 287.27 220.36 284.02 217.68 283.16"/><polyline class="cls-2" points="285.48 308.56 274.86 304.94 267.11 301.56 257.23 297.69 249.11 293.69 239.48 290.56 236.53 287.27"/><polyline class="cls-2" points="279.39 302.22 283.86 296.56 291.11 289.81 299.23 283.16 303.98 279.06 313.73 278.19 331.61 278.19 367.48 278.19 375.36 278.19 383.61 278.94 392.73 283.16 401.36 288.81 408.61 293.69 414.23 298.69 418.36 302.94 424.9 310.98"/><polyline class="cls-2" points="232.36 269.31 235.86 271.23 241.98 271.23 245.11 268.44 245.11 263.69 243.36 260.56 236.92 260.56"/><circle class="cls-2" cx="238.9" cy="265.73" r="3.13"/><polygon class="cls-2" points="209.99 295.08 216.43 295.08 218.18 298.21 218.18 302.96 215.05 305.75 208.93 305.75 205.43 303.83 205.43 297.92 209.99 295.08"/><circle class="cls-2" cx="211.97" cy="300.25" r="3.13"/><polygon class="cls-2" points="298.74 233.63 305.17 233.63 306.92 236.76 306.92 241.51 303.8 244.3 297.67 244.3 294.17 242.38 294.17 237.81 295.48 233.63 298.74 233.63"/><circle class="cls-2" cx="300.72" cy="238.8" r="3.13"/><polyline class="cls-2" points="212.61 283.16 208.84 283.16 208.84 285.06 207.36 285.06 205.43 284.11 203.86 280.94"/><polyline class="cls-2" points="207.36 285.06 208.23 288.06 208.84 293.44 204.36 297.12 203.86 298.94 202.73 302.19 200.61 303.37 200.11 297.92 197.98 297.12 197.98 290.56 197.98 285.44 200.92 281.81 203.23 277.44 205.43 275.56 210.61 275.56 213.36 277.06 215.09 280.44 215.09 282.19 212.61 283.16 212.98 285.81 215.09 285.31"/><polyline class="cls-2" points="207.11 274.85 207.11 271.23 208.84 267.77 213.78 267.77 216.94 268.85 219.28 270.44 219.28 273.69 217.68 276.35 216.61 278.19 214.25 278.79"/><polyline class="cls-2" points="203.86 275.56 204.69 271.23 206.54 267.02 209.53 264.77 212.61 263.94 216.78 264.77 220.94 265.73 220.94 262.1 222.94 260.56 226.69 256.35"/><polyline class="cls-2" points="229.53 334.19 229.53 329.1 232.86 326.44 239.19 325.94 242.61 328.35 243.11 333.1 242.03 336.19"/><circle class="cls-2" cx="237.11" cy="331.69" r="3.83"/><circle class="cls-2" cx="358.86" cy="340.06" r="26"/><circle class="cls-2" cx="358.52" cy="339.8" r="17.73"/><polyline class="cls-2" points="275.86 328.69 277.44 332.52 277.94 336.19 283.36 335.52 287.02 333.27 287.61 328.69 284.69 326.35"/><circle class="cls-2" cx="454.9" cy="300.39" r="21.71"/><polyline class="cls-2" points="481.48 267.44 477.52 267.52 475.86 264.69 466.86 263.19 462.19 268.52 447.52 268.52 446.52 263.19 443.19 261.02 454.9 252.06 462.34 251.02 465.4 248.56"/><polyline class="cls-2" points="443.19 261.02 439.23 261.02 435.94 262.69 434.52 264.35 434.52 271.23 431.69 275.02 426.53 282.19 424.9 286.02 422.69 280.69 417.36 281.35 415.22 286.02 418.02 291.02 420.19 291.02 419.86 300.39 421.99 304.88 425.36 311.94 426.53 314.06 430.02 316.35 433.19 319.52 437.02 322.1 440.69 325.35 445.69 325.35 452.36 326.35 457.36 326.35 461.19 325.02 465.4 323.19 469.52 321.02 474.61 318.02 478.86 314.06 481.48 310.02 482.02 307.85 487.27 307.35 488.86 306.52 493.73 302.06"/><polyline class="cls-2" points="462.19 268.52 470.25 270.19 474.61 272.35 479.77 275.19 482.02 278.19 484.36 282.35 483.58 288.35 483.58 293.69 481.48 296.69 479.77 301.69 482.02 306.02"/><line class="cls-2" x1="424.9" y1="286.02" x2="420.19" y2="291.02"/><polyline class="cls-2" points="221.36 253.52 232.36 245.58 252.69 228.35 271.77 210.52 286.69 197.52 292.69 192.52 302.52 182.35 306.92 177.19 310.36 181.19"/><polyline class="cls-2" points="265.23 225.94 291.36 203.02 306.92 191.35 310.86 188.19 311.86 185.52 308.86 185.52 308.19 182.19 306.92 178.69"/><polygon class="cls-2" points="289.94 194.81 265.86 172.69 262.61 174.94 217.36 216.31 239.73 237.83 242.03 233.63 222.48 215.19 263.11 178.06 284.61 195.44 289.94 194.81"/><polyline class="cls-2" points="230.21 247.13 219.28 236.31 218.22 246.02"/><polyline class="cls-2" points="119.48 173.31 124.69 177.19 132.03 176.19 136.19 180.86 140.53 183.35 145.69 186.28 150.86 182.69 155.19 185.52 155.19 190.19 150.86 191.52 150.86 194.52 152.86 198.44 148.36 200.19 146.03 203.85 137.34 212.69 137.94 217.27 140.78 218.19 152.78 206.6 155.69 208.6 156.61 212.19 162.19 216.6 167.03 217.6 171.61 215.6 177.11 210.06 179.36 207.69 180.23 208.69 177.48 212.06 172.61 216.94 167.73 219.69 163.98 220.56 167.61 224.56 171.48 225.94 173.36 223.81 176.48 225.19 180.73 225.94 184.98 226.81 184.98 223.69 188.86 223.44 190.36 220.69 194.19 221.02 197.86 221.69 199.86 223.35 201.03 224.19 201.86 226.81 205.36 226.81 205.36 229.35 206.36 232.19 208.03 233.63 212.36 235.67 212.36 232.35 215.28 233.63 218.22 236.31"/><polygon class="cls-2" points="201.11 193.19 195.53 196.56 202.55 203.01 207.23 198.81 201.11 193.19"/><polyline class="cls-2" points="201.38 192.56 239.48 157.94 241.03 153.52 250.53 161.19 246.44 163.6 207.23 198.81"/><line class="cls-2" x1="246.44" y1="163.6" x2="240.13" y2="157.29"/><polygon class="cls-2" points="205.69 207.35 211.36 203.69 249.19 169.02 252.53 165.37 259.52 171.02 253.65 174.52 238.9 191.52 232.61 192.19 231.69 196.35 218.22 208.69 215.28 213.85 205.69 207.35"/><line class="cls-2" x1="211.36" y1="203.69" x2="218.22" y2="208.69"/><line class="cls-2" x1="249.19" y1="169.02" x2="254.17" y2="174"/><polyline class="cls-2" points="287.89 137.6 290.86 140.69 291.86 144.52 291.86 147.69 293.02 149.69 295.36 150.06"/><polyline class="cls-2" points="136.19 180.86 137.11 176.16 139.11 174 141.98 171.51 142.86 171.51 143.61 166.06 146.23 163.6 149.61 159.94 152.23 156.69 154.48 156.69 155.36 151.81 157.98 148.81 161.86 145.06 166.48 142.06 169.86 139.94 172.86 138.31 176.86 136.06 180.86 134.56 183.61 130.94 184.23 126.48 185.36 123.1 190.23 119.19 195.61 114.69 199.11 110.31 202.73 110.31 203.61 106.94 208.98 103.31 215.11 98.94 218.22 96.81 221.73 95.94 225.11 92.94 229.36 89.69 232.61 87.94 236.23 88.94"/><polyline class="cls-2" points="150.86 182.69 156.69 177.19 159.86 177.19 164.03 178.69 164.03 180.86 156.86 189.61 155.19 190.19"/><polyline class="cls-2" points="156.86 176.16 156.86 171.51 155.69 167.85 157.44 164.02 162.86 160.45 170.36 156.35 174.53 152.52 178.36 149.02 181.86 145.85 188.03 145.02 193.03 146.35 196.53 146.52 197.36 143.52 195.53 138.69 197.36 135.19 197.36 130.85 199.53 127.52 202.36 123.1 206.53 118.35 211.36 114.19 217.36 110.19 222.19 107.52 226.69 102.35 229.36 98.52 233.53 95.35 237.36 94.35"/><polyline class="cls-2" points="164.73 180.86 166.61 182.56 169.48 183.69 170.11 186.44 170.11 189.61 164.73 193.19 164.03 195.94 161.48 198.1 159.11 201.19 156.48 203.01 155.11 203.69 152.78 206.6"/><polyline class="cls-2" points="164.03 195.94 167.36 195.19 170.11 195.94 172.36 198.1 175.61 200.69 176.73 203.01 178.61 205.26 179.36 207.69"/><path class="cls-2" d="M165.61,180.86c.42-.92-.67-2.92-.67-2.92l6.75-6.09,3.09.84,3.16,3.47,4.42,1V183L174,189.61h-3.42"/><path class="cls-2" d="M155.69,172.69c-.83-.13-6.08,0-6.08,0l-5.38-.84"/><polyline class="cls-2" points="155.69 156.06 157.98 159.06 158.81 163.12"/><polyline class="cls-2" points="168.85 140.57 172.86 143.31 173.65 147.81 174.53 152.52"/><polyline class="cls-2" points="175.08 137.06 177.98 143.56 185.11 143.56 188.03 145.02 189.48 139.94 192.73 136.19 187.86 130.19 183.91 128.81"/><line class="cls-2" x1="192.73" y1="136.92" x2="196.53" y2="136.92"/><polyline class="cls-2" points="160.11 206.19 167.11 200.81 173.65 204.81 173.65 209.81 170.11 212.94 164.94 212.31 160.73 210.44 160.73 206.6"/><polyline class="cls-2" points="186.73 198.81 233.73 155.84 237.36 152.52 245.73 145.02 254.17 141.81 257.73 136.92 258.98 131.69 257.98 127.56 254.17 124.44 249.86 123.1 243.29 123.1 240.13 124.44 238.23 125.94 234.61 124.44 231.86 121.69 229.48 119.56 225.36 121.81 222.23 124.44 220.48 126.48 221.36 129.56 223.61 131.69 225.95 134.4 226.48 135.94 223.98 137.6 224.61 141.19 227.48 142.69 230.36 145.02 232.61 146.54 234.23 148.94 233.98 151.81 234.19 155.42"/><polyline class="cls-2" points="236.23 124.06 239.11 121.31 242.73 118.31 245.73 116.56 250.11 116.56 252.73 116.56 254.98 119.56 257.73 123.1 260.36 125.31 260.36 128.81 260.36 131.06 258.13 135.26"/><polyline class="cls-2" points="254.88 140.84 258.98 143.44 260.36 145.94 264.11 139.94 269.61 136.92 275.48 138.31 280.11 142.69 282.23 145.94 282.86 150.81 282.36 157.29 278.23 160.45 274.36 164.02"/><polygon class="cls-2" points="267.36 151.07 271.77 150.06 274.23 151.07 275.23 153.52 274.11 156.06 272.73 157.81 271.3 158.44 268.87 157.29 267.36 155.31 266.36 153.52 267.36 151.07"/><polyline class="cls-2" points="190.36 220.69 185.11 216.19 181.48 213.85 179.36 209.76"/><polyline class="cls-2" points="198.57 222.28 197.86 217.56 195.53 216.69 192.73 217.31 191.36 213.85 191.36 211.06 188.86 208.69 186.73 206.6 181.36 206.19 180.23 208.69"/><polyline class="cls-2" points="173.11 190.19 176.11 193.73 179.36 196.06 182.36 197.31 186.73 199.81 188.36 204.81 187.73 206.87"/><polyline class="cls-2" points="196.53 189.19 183.91 176.69 189.4 174 194.63 167.44 198.57 162.31 200.36 160.45 212.61 171.85 214.79 167.56 201.38 158.44 200.73 157.29 205.69 156.44 206.23 152.52 205.69 149.56 207.23 148.31 211.36 148.31 213.61 148.31 217.36 146.54 221.36 146.54 222.86 150.06 224.22 153.52 221.36 156.06 219.28 158.44 222.86 160.45 214.79 167.56"/><polyline class="cls-2" points="252.9 142.29 255.36 146.54 259.52 151.31 263.23 146.54 267.11 143.83 270.48 142.56 274.61 143.83 277.11 146.94 280.48 150.47 280.48 155.44 279.35 159.59"/><polyline class="cls-2" points="283.61 148.19 286.48 150.06 285.98 154.85 282.86 161.44 279.61 163.6 285.11 168.44 286.48 166.94 292.23 166.81 293.36 172.69 291.63 174.81 300.48 182.69 301.42 183.49"/><polyline class="cls-2" points="280.48 175.44 286.73 169.69 285.63 167.87"/><line class="cls-2" x1="285.11" y1="180.19" x2="291.63" y2="174"/><polyline class="cls-2" points="203.86 82.58 209.11 91.44 213.61 91.44 218.22 96.81"/><line class="cls-2" x1="152.78" y1="116.19" x2="169.86" y2="139.94"/><line class="cls-2" x1="168.85" y1="100.01" x2="187.17" y2="121.64"/><line class="cls-2" x1="185.61" y1="92.56" x2="198.86" y2="109.56"/><line class="cls-2" x1="194.63" y1="86.74" x2="208.09" y2="103.91"/><line class="cls-2" x1="131.03" y1="151.6" x2="142.86" y2="171.51"/><line class="cls-2" x1="138.58" y1="138.38" x2="152.23" y2="156.69"/><line class="cls-2" x1="143.61" y1="132.44" x2="155.36" y2="151.81"/><line class="cls-2" x1="221.36" y1="146.54" x2="226.73" y2="142.29"/><path class="cls-2" d="M173.11,154.25s12.25,7.84,11.75,7.31,5.5-1.11,5.5-1.11l-.21-.36-8.29-14.24"/><line class="cls-2" x1="201.38" y1="158.44" x2="190.36" y2="160.45"/><polyline class="cls-2" points="197.36 135.19 209.36 139.19 208.61 144.42 208.09 148.31"/><polyline class="cls-2" points="220.86 146.54 213.78 145.85 209.36 139.19"/><polyline class="cls-2" points="216.19 246.52 209.53 249.69 205.43 251.39"/><polyline class="cls-2" points="137.34 212.69 133.53 212.94 132.19 211.69 125.03 211.69 122.86 216.21 117.69 218.19 114.86 214.23 105.19 214.23 97.03 216.52 93.94 217.02 93.94 214.52 65.48 215.19 63.23 218.81 63.23 227.83 76.11 227.83 76.11 230.94 85.98 230.94 92.86 223.84 92.86 219.85 83.23 219.85 76.73 227.73"/><path class="cls-2" d="M137.34,218.19l-.4,1.66H134v1.67l1.65.76,2.85,1.41,1.83-1.41v-1.59l2.5-1.17,2.5-.33,1,3.09,7.17,1.41h3.91s-2.25-3.5.92-2.75a30.16,30.16,0,0,0,6.58.68v3.73l3.91,3,2.84-1.66,2-1.67,4.54,2.17-1.5,2.91-5,4.25h4.67l1.83.67v3.5l1.17,2.33-2.17,2.84-2,2.83,3.5.61,2,.56,5.48-.56h3.19l3.79,2.56,1,3.83V257l.67,3.54,1.67,3.13,2.82,2.27"/><polyline class="cls-1" points="134.03 219.85 131.98 221.9 131.98 225.27 134.54 227.83 140.36 227.83 142.97 225.22 142.97 221.85 141.44 220.32"/><polyline class="cls-2" points="143.77 219.4 144.98 223.84 147.73 229.94 149.96 231.52 154.19 231.52 158.81 230.1 163.19 230.1 165.69 233.02 166.69 238.35 165.86 240.19 166.69 243.85 168.85 246.52 171.69 249.52 175.69 253.52 177.53 254.69 184.86 254.69 189.4 254.69 191.73 256.35 191.73 258.94 191.73 261.56 191.73 265.73 193.11 267.77 194.86 269.56 196.98 272.44 198.57 275.56 199.19 276.77"/><line class="cls-2" x1="189.4" y1="247.13" x2="189.4" y2="254.06"/><line class="cls-2" x1="191.73" y1="256.35" x2="193.19" y2="249.69"/><line class="cls-2" x1="165.69" y1="233.02" x2="167.73" y2="227.83"/><line class="cls-2" x1="163.19" y1="230.1" x2="164.94" y2="225.35"/><line class="cls-2" x1="179.36" y1="247.31" x2="179.36" y2="254.06"/><line class="cls-2" x1="195.23" y1="261.25" x2="192.46" y2="265.96"/><line class="cls-2" x1="152.78" y1="223.84" x2="150.86" y2="230.94"/><line class="cls-2" x1="92.86" y1="223.84" x2="100.29" y2="217.02"/><polyline class="cls-2" points="137.72 215.6 135.48 215.6 132.73 217.02 130.73 218.81 129.23 222.28 122.23 222.28 116.48 223.84 122.86 231.85 150.86 231.85 190.36 272.56 195.22 280.94 195.53 285.35"/><line class="cls-2" x1="150.86" y1="231.85" x2="149.36" y2="245.02"/><line class="cls-2" x1="193.84" y1="295.44" x2="195.23" y2="280.94"/><polyline class="cls-2" points="116.48 244.3 112.73 239.81 110.73 238.44 102.86 238.44 91.86 237.69 85.48 239.44 67.86 239.31 63.23 234.56 59.36 231.85 55.61 230.1 51.48 230.1 48.61 231.85 45.48 235.31 45.48 237.2 44.48 237.2 44.48 240.06 37.86 239.94 31.11 239.69 25.86 239.69 22.11 240.31 14.61 240.56 10.36 242.07 7.11 245.81 3.61 247.74"/><circle class="cls-2" cx="19.55" cy="260" r="7"/><polyline class="cls-2" points="37.98 265.96 37.36 260.56 34.98 253 31.86 246.81 24.98 243.44 12.55 244.19 8.11 246.69 3.61 251.31 0.11 253"/><polyline class="cls-2" points="95.36 217.02 101.03 210.85 106.03 206.6 111.53 201.44 117.86 196.52 127.53 192.35 136.19 187.02 142.97 189.19 145.41 190.19 147.19 189.19 150.11 187.02 155.69 187.02"/><polyline class="cls-2" points="122.61 176.16 121.36 178.44 119.48 181.44 118.11 185.44 118.11 192.19 117.86 196.52"/><polyline class="cls-2" points="103.72 208.56 102.73 200.81 101.86 194.56 104.11 189.19"/><polygon class="cls-2" points="37.98 262.52 42.19 262.52 45.69 261.52 47.69 260 50.36 256.19 50.36 260.85 51.52 264.19 53.52 267.61 55.69 271.19 58.52 274.19 60.86 276.77 60.86 278.19 54.27 273.27 51.11 271.85 46.19 269.85 42.77 268.1 39.44 265.96 37.74 263.85 37.98 262.52"/><path class="cls-2" d="M87.11,239l2.75,1.53,3,2.42,3.71,2.91,3.72,2.5v5.75l2.65,1.75,2.42,2.17,2.33,2.33-.91,3.17L104.11,267l-1.92,2.19-1.9,2.66-1.85,1.75-2.83-1.5-2.17-1.91L90,268.27l-2.5-.66-2.25,1.74L81,268.1s-2.25-2.16-2.67-2.5L73,261.44,70.69,260l-2.91-3.71L64.53,253l-3.17-4.06-1.31-1.75-4.94-.25-2.5-.75v5.16l-1.17,2.5-1.08,2.34"/><circle class="cls-2" cx="94.53" cy="260.35" r="4.83"/><polyline class="cls-2" points="70.44 257.94 72.19 255.52 75.28 252.19 77.36 250.48 83.78 250.48 89.69 250.48 91.36 250.1 94.94 250.48 99.86 250.48"/><path class="cls-2" d="M117.11,254.7a16.45,16.45,0,0,0-16.49-16.42"/><path class="cls-2" d="M117.11,254.7a17,17,0,0,1-16.82,17.15"/><path class="cls-2" d="M110.28,255.19c0-7-8-12.69-18-12.69"/><path class="cls-2" d="M110.28,255.19c0,6.52-2.76,11.81-6.17,11.81"/><line class="cls-2" x1="462.34" y1="251.02" x2="466.86" y2="263.19"/><line class="cls-2" x1="472.86" y1="252.56" x2="475.86" y2="264.69"/><polyline class="cls-2" points="60.86 278.19 67.69 283.85 70.44 280.02 67.86 275.56 63.23 271.23 56.86 265.19 54.86 258.69 56.86 254.06 59.02 250.69 62.65 250.69"/><line class="cls-2" x1="53.53" y1="267.61" x2="56.86" y2="265.19"/><line class="cls-2" x1="60.86" y1="276.19" x2="64.39" y2="272.31"/><polyline class="cls-2" points="67.69 283.85 70.44 290.69 73.86 301.35 77.19 310.85 79.03 316.19 82.03 321.19 87.69 324.85 92.86 328.19 97.86 328.81"/><path class="cls-2" d="M68.65,282.52s46.88-.08,47.21,0l4.75,6.08,2.92,3.75v4.21l.58,4.5v3.88l1.12,4.12v3.38l.75,4v7.5l.63,4v2.75l-9.5.5-4.81.62h-2.5l-1-3"/><circle class="cls-2" cx="65.47" cy="310.52" r="4.19"/><circle class="cls-2" cx="86.23" cy="302.81" r="2.96"/><polygon class="cls-2" points="80.03 305.27 80.03 300.44 83.28 297.1 89.69 297.1 92.32 300.1 92.32 305.27 89.69 308.19 82.78 308.19 80.03 305.27"/><circle class="cls-2" cx="108.31" cy="299.52" r="2.96"/><polygon class="cls-2" points="102.1 301.98 102.1 297.14 105.35 293.81 111.77 293.81 114.4 296.81 114.4 301.98 111.77 304.89 104.85 304.89 102.1 301.98"/><circle class="cls-2" cx="95.4" cy="314.88" r="2.96"/><polygon class="cls-2" points="89.19 317.34 89.19 312.51 92.44 309.18 98.86 309.18 101.49 312.18 101.49 317.34 98.86 320.26 91.94 320.26 89.19 317.34"/><polyline class="cls-2" points="77.48 304.89 77.48 298.69 81.86 295.56 87.23 293.81 90.86 295.06 96.61 301.69 101.3 305.77 106.23 311.93 105.35 316.94 102.1 319.06 97.63 322.81 91.36 322.81 85.15 317.84 80.48 311.93 76.61 304.89"/><polyline class="cls-2" points="100.29 297.1 97.86 294.31 98.36 289.94 112.11 289.94 118.11 293.52 118.11 298.31 114.4 301.98"/><path class="cls-2" d="M122.86,231.85l-.25,3-6.13,3v6.47l30.13-.11,2.75.83,1.5,2.29,41.6,46.13,1.38,2v7.93l-4.44-3.12s-2.92-5.06-3-5.17-4.63-4-4.63-4l-3.87-2.87-4.13-4.34v-5.06l-7-2-4.83,4.17h-3.13l-6.62.62-7.13,3.5-5.5,4.41-4.5,4.84-4.12.77-2.38,2.83L126.61,302l-.88,4.35.88,4.23,2.5,1.79,4.92,1.71v5.63l.95,2.5,2.63,3.75,2.62,3.75,3.54,3,5.09,1.62,1.25,1.88"/><polyline class="cls-2" points="193.84 303.37 194.53 310.31 193.19 314.88 190.86 317.84 188.86 318.81 187.98 320.94 187.23 324.94 182.98 324.94 178.48 324.94 171.49 325.44 168.48 326.56 166.69 331.06 165.23 334.19 162.86 337.19 161.48 339.94"/><path class="cls-2" d="M149.36,331.69l-5.59-3.84L140,323.94s-2.75-3.75-2.75-4.25-1-5.63-1-5.63v-2.14l1.75-3.36.13-3.67,2-6.33,2.69-1.46,2.31-2.79,3.37-.5,3.25-1.12h5.63l1.75,2.75,2.37,1.66,5.21,1.71,3.92-.9h4.12l2.13,2.51,4.87,3.64.63,4.5s-1.75,1.63-1.75,2.38.25,3.94.25,3.94a17.16,17.16,0,0,1,1.5,3c0,.47,1.87,1.1,1.87,1.1l4.63-.13"/><polyline class="cls-2" points="137.73 297.12 139.98 295.08 142.61 291.31 147.73 288.19 153.98 286.19 159.36 286.19 160.86 286.19 165.36 284.02 168.11 285.06 171.49 287.27 173.23 290.57 176.11 293.81 180.23 295.95 183.11 299.35 184.61 301.31 185.36 304.19 186.48 306.33 188.86 309.18 191.73 312.35 191.73 316.73"/><polyline class="cls-2" points="126.61 304.02 132.36 302.48 139.11 304.02"/><circle class="cls-2" cx="166.5" cy="290.51" r="3.95"/><ellipse class="cls-2" cx="131.42" cy="308.19" rx="4.81" ry="4.17"/><circle class="cls-2" cx="186.04" cy="313.6" r="4.43"/><polyline class="cls-2" points="126.61 330.69 128.61 328.81 134.73 329.75 136.86 330.69 137.73 335.52 140.61 336.19 145.86 336.19 149.48 336.19"/><polyline class="cls-2" points="187.23 324.94 186.04 325.94 180.11 327.85 175.36 327.85 172.36 328.81 170.45 331.69 168.23 335.52 163.98 339.94 160.73 344.06 157.86 348.31 157.86 358.19 157.86 365.69 160.48 371.06 163.86 375.81 163.73 379.19 159.98 380.06 160.23 376.06 157.86 371.81 153.98 366.31 146.61 360.94 141.86 357.19 136.23 357.44 131.42 362.31 130.36 367.94 130.36 373.69 134.36 377.94 139.98 383.06 142.11 386.44 142.73 390.31 147.98 391.44 154.61 391.44 157.86 387.56 162.55 385.81 167.98 386.44 171.23 389.19 172.73 391.44 175.36 390.81 178.01 388.94 174.48 384.56 169.11 381.19 161.48 381.19 157.61 382.06 159.98 380.06"/><circle class="cls-2" cx="135.94" cy="371.58" r="4.52"/><polyline class="cls-2" points="160.15 377.45 156.98 374.19 152.86 371.58 150.11 373.06 144.61 367.06 140.45 364.31 136.23 363.19 133.23 364.44 130.36 367.94"/><polyline class="cls-2" points="93.36 384.19 89.19 384.19 83.28 383.56 81.36 378.94 81.98 373.19 81.98 366.19 82.78 360.69 84.98 358.19 90.23 355.06 98.61 351.94"/><path class="cls-2" d="M76.61,367.06C76.61,390.23,80.37,409,85,409"/><path class="cls-2" d="M76.61,367.06c0-19.35,1.68-35,3.75-35"/><path class="cls-2" d="M98.85,336.19h8.84a48.72,48.72,0,0,0,6.71-.67c2-.5,7.13,0,7.13,0l4.33-.67,5.56-1.16,4.52,3.16.29,4.84h13.25l3.88,2.16,4.5,4.46,14.67-4.79"/><path class="cls-2" d="M104.73,368.06c0-17.62,1-31.87,2.25-31.87"/><path class="cls-2" d="M104.73,368.06c0,17.62,2.3,31.88,5.13,31.88H116v-7.75"/><path class="cls-2" d="M110.36,360.81c0,17.34,2.51,31.38,5.62,31.38"/><path class="cls-2" d="M128.35,359.69c0,.62-8,1.12-18,1.12"/><path class="cls-2" d="M131.42,351.94c0-2-2.88-3.63-6.44-3.63"/><path class="cls-2" d="M125,348.31c0-7.14-2.24-12.91-5-12.91"/><path class="cls-2" d="M125,348.31c0,2-6.13,3.63-13.71,3.63"/><path class="cls-2" d="M110.36,360.81c0-4.91.41-8.87.91-8.87"/><path class="cls-2" d="M110.81,339.94v12"/><path class="cls-2" d="M110.81,339.94c0-2.51,2.78-4.54,6.22-4.54"/><circle class="cls-2" cx="118.2" cy="343.05" r="4.28"/><line class="cls-2" x1="113.17" y1="362.77" x2="125.78" y2="362.77"/><polyline class="cls-2" points="110.61 360.81 113.17 363.19 113.92 382.6 115.98 391.85"/><line class="cls-2" x1="113.92" y1="382.6" x2="112.05" y2="383.26"/><path class="cls-2" d="M125,354.66l3.37,5c1.7,0,3.07-3.47,3.07-7.75"/><line class="cls-2" x1="152.86" y1="371.58" x2="152.86" y2="365.77"/><path class="cls-2" d="M129.86,349.57a5,5,0,0,1-4.88,5.09"/><path class="cls-2" d="M125,354.66c0,.94-6.54,1.71-14.62,1.71"/><polyline class="cls-2" points="116.78 390.02 127.42 389.6 126.78 382.19 131.03 380.44 137.1 380.44"/><polyline class="cls-2" points="135.98 395.31 132.53 393.44 129.19 392.19 127.42 389.6"/><path class="cls-2" d="M172.53,358.69c0-15.85-.44-28.68-1-28.68"/><path class="cls-2" d="M172.53,358.69c0,13.45-.22,24.34-.49,24.34"/><line class="cls-2" x1="163.86" y1="375.81" x2="172.35" y2="377.45"/><path class="cls-2" d="M187.61,354.66c0-16.43-.17-29.72-.38-29.72"/><path class="cls-2" d="M153.48,400.56l14.3-5.25L182.86,388l4.37-.92c.21,0,.38-14.51.38-32.44"/><polyline class="cls-2" points="187.44 387.1 226.48 364.06 233.92 359.44 239.05 359.44 244.61 359.44 247.23 359.44 249.92 363.75 247.67 411.81"/><ellipse class="cls-2" cx="156.48" cy="410.71" rx="7.12" ry="6.73"/><ellipse class="cls-2" cx="241.08" cy="367.06" rx="7.12" ry="6.73"/><ellipse class="cls-2" cx="237.14" cy="422.35" rx="7.12" ry="6.73"/><line class="cls-2" x1="161.48" y1="385.62" x2="154.23" y2="399.94"/><path class="cls-2" d="M187.61,368.67c0-8.49,6.2-15.36,13.87-15.36l4,3.06c-8.68,0-15.7,12.44-15.7,27.82"/><path class="cls-2" d="M205.43,365.1a11.82,11.82,0,0,0-5.24,1.25c-5.51,2.75-9.41,9.69-9.41,17.84l1.93-.2c0-10.07,13.49-18.22,30.15-18.22l3.83-2.07"/><path class="cls-2" d="M205.43,365.1c0-.77,9.67-1.4,21.63-1.4"/><line class="cls-2" x1="199.35" y1="366.82" x2="202.76" y2="370.23"/><line class="cls-2" x1="191.73" y1="357.74" x2="195.86" y2="362.13"/><polyline class="cls-2" points="279.39 411.81 280.69 407.69 276.69 405.35 272.86 403.99 271.52 380.52 268.52 378.35 264.52 377.61 261 373.79 257.52 364.4 255.03 362.13 255.03 354.66 257.52 348.31 256.86 343.35 255.03 336.19 256.36 332.85"/><polyline class="cls-2" points="265.86 330.52 268.52 334.69 271.36 339.8 275.86 340.06 282.52 342.19 285.48 347.19 287.02 354.66 289.69 358.19 290.69 366.52 309.36 397.85 312.36 403.02 310.86 408.85 308.69 413.02 303.88 417.01"/><line class="cls-2" x1="289.11" y1="415" x2="271.53" y2="380.52"/><polyline class="cls-2" points="233.96 337.12 219.98 338.19 219.98 341 220.86 350.94 223.98 350.94 222.98 354.66 223.61 358.69 227.73 361.06 232.48 358.69 235.48 356.44 235.48 352.44 232.36 350.69 238.98 350.69 239.61 352.56 242.36 350.81 245.23 351.19 244.61 344.35 253.48 344.35 256.11 344.35 256.11 336.19"/><line class="cls-2" x1="243.11" y1="335.52" x2="255.03" y2="335.52"/><polygon class="cls-2" points="252.36 408.19 263.02 402.35 268.52 397.76 269.86 389.02 263.36 389.02 259.02 391.44 256.11 394.52 249.92 397.76 252.36 408.19"/><polyline class="cls-2" points="247.19 358.19 247.19 351.52 252.69 353.31 255.03 355.69"/><circle class="cls-2" cx="288.92" cy="397.83" r="5.4"/><circle class="cls-2" cx="295.42" cy="410.33" r="5.4"/><polyline class="cls-2" points="287.61 391.44 281.73 382.85 284.67 394.51"/><ellipse class="cls-2" cx="355.67" cy="409.81" rx="9.81" ry="9.25"/><path class="cls-2" d="M340.79,409.81c0-6.62,2.27-12,5.07-12"/><ellipse class="cls-2" cx="390.66" cy="402.75" rx="8.82" ry="6.06"/><path class="cls-2" d="M404.44,401.77a8.33,8.33,0,0,0-8.08-8.58"/><path class="cls-2" d="M404.44,401.77c0,5.74-2.83,10.38-6.33,10.38"/><path class="cls-2" d="M467.86,382.94,442.36,388l-24.17,1.83-17.48-3.07-4.35,6.41-7.13,2.87-8,3.75-3.25,4-6.12,6-2.63,5.25L364,420.31h-9.12c-7.78,0-14.07-4.7-14.07-10.5"/><path class="cls-2" d="M495.73,357.69,491.36,355s-6.17-.5-7,0-5.5,2.51-5.5,2.51l-5.58-5.18h-3.42l-1-10.33v-5.83l-2.17-3.5H453l-2.84,2.5-.66,4.87v8l.45,4,.32,4.5-5.27,1-3,2.32-5.67,3.67-6.67,4.33L424.9,371l-8.08.78"/><path class="cls-2" d="M478.86,357.53c0,11.05,2.68,20,6,20"/><path class="cls-2" d="M491.36,355c0,12.34,3.05,22.33,6.83,22.33"/><polyline class="cls-2" points="449.86 350.96 445.73 350.31 438.61 346.56 438.61 341.94 440.48 339.8 439.23 337.06 436.98 335.31 436.98 332.69 445.86 332.69 451.61 328.44 467.86 328.44 472.36 333.69 476.92 332.87"/><polyline class="cls-2" points="438.61 346.56 440.48 349.19 440.48 351.56 427.2 351.86"/><polyline class="cls-2" points="436.44 334.44 430.52 334.02 428.48 335.94"/><path class="cls-2" d="M491.78,355c0-12.28-2.46-22.21-5.48-22.21"/><path class="cls-2" d="M512.86,342c0-8.94-5.44-16.17-12.17-16.17"/><path class="cls-2" d="M512.86,342c0,8.38-3.65,15.17-8.17,15.17"/><path class="cls-2" d="M518.69,343.91c0-22.85-4.92-41.34-11-41.34"/><path class="cls-2" d="M518.69,343.91c0,19.46-1.33,35.21-3,35.21"/></g></g></svg>