<?xml version="1.0" encoding="utf-8"?>
<!-- Generator: Adobe Illustrator 22.1.0, SVG Export Plug-In . SVG Version: 6.00 Build 0)  -->
<svg version="1.1" id="Capa_1" xmlns="http://www.w3.org/2000/svg" xmlns:xlink="http://www.w3.org/1999/xlink" x="0px" y="0px"
	 viewBox="0 0 20 20" style="enable-background:new 0 0 20 20;" xml:space="preserve">
<style type="text/css">
	.st0{fill:#333333;}
	.st1{fill:#FFFFFF;}
</style>
<circle class="st0" cx="10" cy="10" r="10"/>
<g>
	<path class="st1" d="M13.7,1.8l-2,0C9.4,1.8,8,3.3,8,5.7v1.8h-2c-0.2,0-0.3,0.1-0.3,0.3v2.6c0,0.2,0.1,0.3,0.3,0.3h2v6.5
		c0,0.2,0.1,0.3,0.3,0.3h2.6c0.2,0,0.3-0.1,0.3-0.3v-6.5h2.4c0.2,0,0.3-0.1,0.3-0.3l0-2.6c0-0.1,0-0.2-0.1-0.2
		c-0.1-0.1-0.1-0.1-0.2-0.1h-2.4V5.9c0-0.7,0.2-1.1,1.1-1.1l1.4,0c0.2,0,0.3-0.1,0.3-0.3V2.1C14,2,13.9,1.8,13.7,1.8z"/>
</g>
</svg>
