<svg xmlns="http://www.w3.org/2000/svg" viewBox="0 0 741.03 486"><defs><style>.cls-1,.cls-2,.cls-3{fill:none;stroke:#fff;stroke-miterlimit:10;}.cls-2{stroke-width:0.5px;}.cls-3{stroke-width:0.75px;}</style></defs><title>independent suspension</title><g id="Слой_2" data-name="Слой 2"><g id="Слой_1-2" data-name="Слой 1"><polyline class="cls-1" points="189.52 247.5 155.52 234.5 151.52 234.5 149.52 236.5 148.52 237.5 149.52 241.5 144.52 239.5 142.52 243.5 147.52 247.5 148.52 249.5 150.52 251.5 143.52 262.5 144.52 265.5 136.52 278.5 136.52 281.5 139.52 284.5 139.52 285.5 136.52 285.5 131.52 288.5 129.52 294.5 129.52 301.5 131.52 303.5 124.52 331.5 113.52 336.5 110.52 335.5 94.52 342.5 93.52 340.5 88.52 342.5 75.52 348.5 75.52 351.5 73.52 353.5 76.52 360.5 79.52 360.5 82.52 368.5 77.52 368.5 75.52 371.5 67.52 371.5 67.52 382.5 56.52 392.5 33.52 393.5 33.52 406.5 25.52 406.5 24.52 407.5 2.02 407 1.02 408 1.02 416 0.52 422.5 2.52 424.5 23.52 424.5 25.52 426.5 33.52 426.5 33.52 406.5"/><polyline class="cls-1" points="150.52 241.5 153.52 240.5 184.52 253.5 190.52 255.5 193.52 253.5 193.52 250.5 191.52 247.5 186.52 242.5"/><polyline class="cls-1" points="163.52 231.5 159.52 226.5 157.52 222.5 156.52 221.5 156.52 217.5 158.52 215.5 161.52 214.5 163.52 214.5 167.52 214.5 172.52 216.5 202.52 228.5"/><polyline class="cls-1" points="167.52 224.5 165.52 222.5 163.52 220.5 169.52 222.5 202.52 235.5 205.52 234.5 207.52 232.5 207.52 229.5 206.52 227.5 199.52 221.5 175.52 210.5 170.52 204.5 169.52 200.5 169.52 197.5 172.52 194.5 176.52 194.5 184.52 195.5 213.52 207.5 215.52 207.5"/><polyline class="cls-1" points="180.52 204.5 174.52 200.5 178.52 200.5 182.52 201.5 205.52 210.5 212.52 213.5 214.52 214.5 218.52 213.5 219.52 209.5 210.52 201.5"/><polyline class="cls-1" points="188.52 190.5 184.52 185.5 182.52 181.5 181.52 180.5 181.52 176.5 183.52 174.5 186.52 173.5 188.52 173.5 192.52 173.5 197.52 175.5 227.52 187.5"/><polyline class="cls-1" points="192.52 183.5 190.52 181.5 188.52 179.5 194.52 181.5 227.52 194.5 230.52 193.5 232.52 191.5 232.52 188.5 231.52 186.5 224.52 180.5 200.52 169.5 195.52 163.5 194.52 159.5 194.52 156.5 197.52 153.5 201.52 153.5 209.52 154.5 238.52 166.5 240.52 166.5"/><polyline class="cls-1" points="205.52 163.5 199.52 159.5 203.52 159.5 207.52 160.5 230.52 169.5 237.52 172.5 239.52 173.5 243.52 172.5 244.52 168.5 235.52 160.5 227.52 154.5"/><polyline class="cls-1" points="211.52 149.5 207.52 144.5 205.52 140.5 204.52 139.5 204.52 135.5 206.52 133.5 209.52 132.5 211.52 132.5 215.52 132.5 220.52 134.5 250.52 146.5"/><polyline class="cls-1" points="215.52 142.5 213.52 140.5 211.52 138.5 217.52 140.5 250.52 153.5 253.52 152.5 255.52 150.5 255.52 147.5 254.52 145.5 247.52 139.5 223.52 128.5 218.52 122.5 217.52 118.5 217.52 115.5 220.52 112.5 224.52 112.5 232.52 113.5 261.52 125.5 263.52 125.5"/><polyline class="cls-1" points="228.52 122.5 222.52 118.5 226.52 118.5 230.52 119.5 253.52 128.5 260.52 131.5 262.52 132.5 266.52 131.5 267.52 127.5 258.52 119.5 252.52 114.5"/><line class="cls-1" x1="221.52" y1="148.5" x2="215.14" y2="142.13"/><line class="cls-1" x1="218.52" y1="154.5" x2="211.52" y2="149.19"/><polyline class="cls-1" points="241.52 113.5 232.52 103.5 229.52 96.5 230.52 92.5 233.52 91.5 238.52 91.5 273.52 105.5"/><polyline class="cls-1" points="244.52 107.5 238.52 101.5 235.52 97.5 242.52 98.5 250.52 101.5 271.52 111.5 274.52 111.5 275.52 109.5 274.52 105.5 272.37 105.04"/><polyline class="cls-1" points="250.52 95.5 243.52 90.5 239.52 86.5 239.52 82.5 241.52 80.5 243.52 80.5 274.52 99.5 277.52 102.5 277.52 103.5 275.52 104.5 272.52 104.5"/><polyline class="cls-1" points="252.52 84.5 253.52 82.5 251.52 81.5 251.52 79.5 251.52 78.5 245.52 74.5 245.52 72.5 246.52 71.5 246.52 69.5 250.52 69.5 261.52 73.5 265.52 73.5 263.52 68.5 263.52 62.5 267.52 56.5 272.52 54.5 276.52 55.5 281.52 57.5 284.52 62.5 284.52 68.5 282.52 73.5 279.52 76.5 274.52 77.5 270.52 76.5 264.52 73.5"/><polyline class="cls-1" points="274.52 77.5 274.52 81.5 281.52 88.5 284.52 91.5 284.52 94.5 282.52 95.5 279.52 94.5 275.52 92.5 273.52 94.5 270.52 92.5 268.52 95.5"/><line class="cls-1" x1="184.52" y1="244.5" x2="192.93" y2="231.72"/><line class="cls-1" x1="196.35" y1="226.03" x2="205.52" y2="211.5"/><line class="cls-1" x1="208.52" y1="204.5" x2="216.77" y2="190.5"/><polyline class="cls-1" points="220.15 184.55 225.52 175.5 224.52 172.5 222.52 172.5 224.52 168.5"/><line class="cls-1" x1="161.52" y1="235.5" x2="169.52" y2="222.5"/><polyline class="cls-1" points="172.52 216.5 176.43 210.92 181.52 202.5"/><line class="cls-1" x1="185.52" y1="194.5" x2="193.52" y2="181.5"/><line class="cls-1" x1="196.35" y1="175.03" x2="203.52" y2="163.5"/><line class="cls-1" x1="216.77" y1="157.5" x2="225.06" y2="143.47"/><line class="cls-1" x1="229.52" y1="136.5" x2="235.52" y2="123.5"/><line class="cls-1" x1="240.52" y1="116.81" x2="248.91" y2="100.9"/><line class="cls-1" x1="248.52" y1="118.5" x2="256.52" y2="106.5"/><line class="cls-2" x1="137.36" y1="277.13" x2="158.52" y2="289.5"/><polyline class="cls-2" points="153.52 251.5 153.52 254.5 156.52 254.5 158.52 259.5 162.52 259.5 164.52 266.5 166.52 266.5 168.52 272.5"/><line class="cls-2" x1="185.52" y1="262.86" x2="150.52" y2="242.5"/><line class="cls-2" x1="180.52" y1="256.5" x2="152.39" y2="240.88"/><polyline class="cls-2" points="162.52 251.5 160.52 252.5 164.52 256.5 167.52 253.5"/><polyline class="cls-2" points="172.52 258.5 171.52 260.5 175.52 262.5 178.52 260.5"/><polyline class="cls-2" points="181.52 260.53 179.52 263.5 175.52 262.5"/><polygon class="cls-2" points="180.52 263.5 179.52 265.5 183.52 267.5 184.52 266.5 180.52 263.5"/><polygon class="cls-2" points="152.52 245.5 150.52 247.5 156.52 249.5 156.52 247.5 152.52 245.5"/><polyline class="cls-2" points="158.52 260.5 154.52 267.5 156.52 269.5 158.52 269.5 161.52 262.5 160.52 260.5 159.52 260.5"/><polygon class="cls-2" points="130.52 300.5 132.52 300.5 133.52 294.5 135.52 290.5 138.52 289.5 141.52 288.5 144.52 289.5 147.52 292.5 149.52 291.5 147.52 288.5 145.52 286.5 139.52 286.5 134.52 287.5 131.52 291.5 130.52 300.5"/><path class="cls-2" d="M133.52,298.5l4,4s5,1,4,1,4-2,4-2l2-3v-3l-1-2-3-3h-5l-3,2-2,6"/><polyline class="cls-2" points="136.52 294.5 136.27 295 135.52 296.5 137.52 298.5 138.52 299.5 143.52 300.5 145.52 295.5 143.52 291.5 138.52 291.5"/><line class="cls-2" x1="143.52" y1="292.5" x2="139.52" y2="299.5"/><line class="cls-2" x1="173.52" y1="288.5" x2="184.52" y2="304.5"/><polyline class="cls-1" points="82.52 366.5 86.52 365.5 93.52 364.5 101.52 359.5 101.52 356.5 105.52 358.5 110.52 358.5 111.52 356.5 112.52 353.5 281.52 277.5 281.52 275.5 278.52 273.5 276.52 270.5 277.52 266.5 275.52 265.5 264.52 269.5 187.52 302.5 175.52 284.5 172.52 287.5 160.52 289.5 166.52 278.5 167.52 278.5 174.52 264.5 179.52 268.5 181.52 268.5 184.52 270.5 187.52 265.5 185.52 263.5 185.52 260.5 181.52 256.5 183.52 253.5"/><polyline class="cls-1" points="111.52 356.5 282.52 284.5 282.52 282.5 280.52 280.5 278.88 278.69"/><polyline class="cls-2" points="113.52 337.5 110.52 338.5 112.52 343.5 104.52 347.5 107.52 353.5 111.52 352.5 109.52 357.5"/><polyline class="cls-2" points="76.52 351.5 90.52 346.5 86.52 352.5 85.52 355.5 83.52 357.5 81.06 359.14 80.52 359.5"/><polyline class="cls-2" points="97.52 342.5 93.52 345.5 89.52 350.5 88.52 353.5 93.52 351.5 95.52 352.5 98.52 354.5 101.52 356.5"/><line class="cls-2" x1="95.52" y1="353.5" x2="80.52" y2="359.5"/><line class="cls-2" x1="96.52" y1="354.5" x2="81.52" y2="360.5"/><polyline class="cls-2" points="82.52 363.5 87.52 361.5 93.52 358.5 98.52 356.5 91.52 357.5 85.52 360.5 81.52 363.5"/><polyline class="cls-2" points="99.52 357.5 92.52 360.5 83.52 363.5"/><polyline class="cls-2" points="83.52 364.5 89.52 362.5 98.52 359.5 99.52 357.5"/><line class="cls-1" x1="225.52" y1="159.5" x2="232.52" y2="146.5"/><line class="cls-1" x1="236.52" y1="139.5" x2="238.66" y2="135.44"/><polyline class="cls-1" points="239.52 134.5 244.52 125.5 272.52 103.5 265.52 98.5 249.52 89.5 243.52 86.5"/><line class="cls-1" x1="253.52" y1="95.5" x2="254.52" y2="93.5"/><line class="cls-1" x1="259.52" y1="98.5" x2="261.52" y2="97.5"/><polyline class="cls-2" points="254.52 82.5 255.52 82.5 257.52 80.5 261.52 81.5 263.52 83.5 261.52 85.5 270.52 91.5 274.52 91.5 274.52 89.5 268.52 84.5 264.52 82.5 266.52 80.5 263.52 78.5 261.52 80.5 259.52 76.5 260.52 74.5 255.52 74.5 255.52 76.5 258.52 79.5 260.52 80.5"/><polyline class="cls-2" points="251.52 77.5 248.52 74.5 247.82 73.1 247.52 72.5 248.52 71.5 252.52 72.5 254.52 73.5 253.52 75.5 250.52 74.5"/><polyline class="cls-2" points="253.52 78.5 255.52 79.5 255.52 80.5 253.52 80.5 253.52 78.5"/><polyline class="cls-2" points="276.52 91.5 276.52 90.5 279.52 93.5"/><polygon class="cls-2" points="281.52 93.5 283.52 91.5 275.52 85.5 274.52 88.5 281.52 93.5"/><polyline class="cls-2" points="274.52 87.5 274.52 85.5 267.52 81.5"/><polygon class="cls-2" points="277.52 85.5 277.26 85.3 272.52 81.5 267.52 78.5 265.52 78.5 271.52 82.5 277.52 85.5"/><polyline class="cls-2" points="261.52 77.5 261.52 75.5 265.52 75.5 269.52 76.5 267.52 77.5 260.52 77.5"/><polyline class="cls-2" points="269.52 77.5 272.52 79.5 270.52 79.5 268.52 78.5 269.52 77.5"/><line class="cls-1" x1="123.52" y1="332.5" x2="187.52" y2="302.5"/><path class="cls-1" d="M94.57,363.84l0,4.66h3a1,1,0,0,1,1,1h6v13h-2v1h-6v7h-8l-2-1h-8l-3,3h-1v-7l1-1v-13"/><polyline class="cls-2" points="82.44 368.3 84.43 368.3 94.52 368.3"/><polyline class="cls-2" points="74.52 389.5 76.52 389.5 76.52 388.5 78.52 386.5 80.52 385.5 84.52 385.5 84.52 384.63 84.52 369.5"/><polyline class="cls-2" points="96.52 388.5 90.52 388.5 90.52 385.5 90.7 385.5 96.52 385.5"/><polyline class="cls-2" points="90.52 385.5 84.52 385.5 93.52 382.5 96.52 382.5 96.52 380.5"/><line class="cls-2" x1="90.52" y1="388.5" x2="76.52" y2="388.5"/><circle class="cls-2" cx="96.52" cy="375.5" r="3.5"/><circle class="cls-2" cx="96.52" cy="375.5" r="6"/><polyline class="cls-1" points="74.52 392.5 74.52 408.5 75.52 409.5 75.52 422.5 67.52 422.5 67.52 408.5 67.52 405.5 68.52 404.5 68.52 384.5 67.52 382.5"/><polyline class="cls-1" points="73.52 422.5 73.52 427.5 69.52 429.5 67.52 430.5 56.52 430.5 55.52 428.5 55.52 392.54"/><polyline class="cls-2" points="68.52 385.5 71.52 383.5 72.52 383.5 74.52 385.5"/><line class="cls-2" x1="67.52" y1="408.5" x2="73.52" y2="408.5"/><polyline class="cls-1" points="33.52 439.5 33.52 439.17 33.52 426.5"/><line class="cls-1" x1="52.52" y1="441.5" x2="53.52" y2="438.5"/><polyline class="cls-1" points="33.52 439.5 52.52 441.5 61.52 457.5 88.52 458.5 88.52 446.5 84.52 445.5 81.52 443.5 75.52 443.5 73.52 442.5 71.52 441.5 70.52 440.5 85.52 441.5 87.52 442.5 88.52 441.5 89.52 440.5 91.52 438.5 91.52 432.5 96.52 427.5 91.52 418.5 91.52 395.5 90.52 394.5 87.52 393.5 85.52 395.5 74.52 395.5"/><circle class="cls-2" cx="78.52" cy="450.5" r="3.5"/><circle class="cls-2" cx="78.52" cy="450.5" r="6"/><line class="cls-2" x1="71.52" y1="441.5" x2="71.52" y2="457.5"/><polyline class="cls-2" points="53.52 438.5 66.52 440.5 68.52 439.5 68.52 430.5"/><polyline class="cls-1" points="66.52 457.69 66.52 463.5 59.52 466.5 61.52 472.5 61.52 474.5 59.52 475.5 61.52 483.5 63.52 482.5 65.52 483.5 65.52 485.5 69.52 485.5 83.52 480.5 84.52 480.5 84.52 476.5 87.52 475.5 97.52 472.5 100.52 469.5 100.52 467.5 103.52 461.5 107.52 459.5 108.52 460.5 111.52 460.5 283.52 382.5"/><polyline class="cls-2" points="66.52 463.5 79.52 460.5 79.52 463.5 60.27 468.75"/><polyline class="cls-2" points="79.52 463.5 81.02 465 61.52 470.5"/><polyline class="cls-2" points="81.52 465.5 81.52 468.5 61.52 473.94"/><line class="cls-2" x1="68.52" y1="472.5" x2="70.52" y2="478.5"/><polyline class="cls-2" points="63.52 482.5 85.52 473.5 87.52 475.5 72.52 477.5 82.52 472.5 92.52 469.5 94.52 468.5 97.52 466.5 97.52 463.5 99.52 462.5 100.52 458.5 103.52 455.5 112.52 451.5"/><polyline class="cls-2" points="86.52 473.5 92.52 470.5 97.52 468.5 99.52 466.5 102.52 460.5 103.52 457.5 113.52 452.5"/><path class="cls-2" d="M80.6,468.75s4.92-3.25,4.92-2.25,4-4,4-4l5-7,3-2,13-5"/><polyline class="cls-2" points="106.52 444.5 97.52 448.5 93.52 450.5 91.52 453.5 85.52 463.5 81.77 467.25 92.71 453.12 95.52 449.5 96.52 453.5"/><line class="cls-2" x1="92.52" y1="453.5" x2="96.52" y2="453.5"/><line class="cls-2" x1="96.52" y1="454.44" x2="99.52" y2="462.5"/><line class="cls-2" x1="95.52" y1="455.5" x2="97.52" y2="462.5"/><polyline class="cls-1" points="111.52 404.5 115.52 418.5 115.52 421.5 113.52 424.5 106.52 428.5 104.52 432.5 104.52 435.5 106.52 442.5 108.52 446.5 111.52 447.5 115.52 448.5 265.52 369.5"/><line class="cls-1" x1="109.52" y1="459.5" x2="282.52" y2="369.5"/><polyline class="cls-1" points="110.52 454.5 110.52 456.5 113.52 457.5"/><polyline class="cls-1" points="91.52 405.13 114.52 394.5 117.52 391.5 118.52 390.5 121.52 390.5 122.52 389.5 125.52 388.5 126.52 386.5 218.52 342.5 221.52 342.5 230.52 338.5 231.52 336.5 233.52 335.5 234.52 335.5 238.52 334.5 269.52 319.5"/><line class="cls-1" x1="92.52" y1="419.5" x2="112.52" y2="410.5"/><polyline class="cls-1" points="112.52 405.5 119.52 406.5 120.52 405.5 125.52 405.5 127.52 403.5 128.52 402.5 133.52 400.5 224.52 357.5 225.52 355.5 236.52 350.5 238.52 350.5 240.52 348.5 242.52 348.5 244.52 346.5 280.52 327.5"/><line class="cls-2" x1="219.52" y1="342.5" x2="225.52" y2="355.5"/><line class="cls-2" x1="231.03" y1="337.47" x2="237.02" y2="350.5"/><line class="cls-2" x1="234.52" y1="335.5" x2="240.52" y2="347.5"/><line class="cls-2" x1="238.52" y1="334.5" x2="244.52" y2="346.5"/><line class="cls-2" x1="147.95" y1="376.25" x2="154.61" y2="390.53"/><polyline class="cls-2" points="142.75 378.73 149.52 393.5 126.58 387 133.01 400.7"/><line class="cls-2" x1="121.52" y1="390.5" x2="127.52" y2="403.5"/><line class="cls-2" x1="118.08" y1="390.94" x2="125.52" y2="405.5"/><line class="cls-2" x1="114.52" y1="394.5" x2="120.52" y2="405.5"/><line class="cls-2" x1="113.51" y1="411.49" x2="122.52" y2="407.5"/><line class="cls-2" x1="114.52" y1="414.63" x2="127.52" y2="407.5"/><polyline class="cls-2" points="126.52 408.5 139.52 434.5 127.52 407.5 112.52 407.5"/><line class="cls-2" x1="127.52" y1="407.5" x2="134.52" y2="406.5"/><line class="cls-2" x1="128.52" y1="407.5" x2="142.52" y2="433.5"/><line class="cls-2" x1="130.19" y1="407.12" x2="144.21" y2="433.39"/><line class="cls-2" x1="132.45" y1="406.8" x2="145.27" y2="432.83"/><polyline class="cls-2" points="134.27 406.5 147.52 402.5 168.52 394.5 163.52 396.5 174.26 417.56"/><line class="cls-2" x1="165.52" y1="395.5" x2="177.06" y2="416.09"/><line class="cls-2" x1="168.03" y1="394.69" x2="178.52" y2="414.5"/><polyline class="cls-1" points="168.52 394.5 211.52 369.5 213.52 369.5 212.52 368.5 232.52 355.5 247.52 345.5"/><polyline class="cls-2" points="150.52 428.5 144.52 417.5 144.52 411.5 146.52 408.5 148.52 405.5 150.52 404.5 154.52 404.5 158.52 404.5 161.52 407.5 168.52 421"/><path class="cls-2" d="M147.52,429.5l-4-6-.84-2.5s-2.16-3.5-2.16-4.5v-6l2-4,4-3,7-2h4l3,3,5,4,3,6,2.31,4.87"/><line class="cls-2" x1="145.27" y1="418.88" x2="142.52" y2="420.5"/><line class="cls-2" x1="162.78" y1="409.94" x2="165.52" y2="408.5"/><polyline class="cls-2" points="237.52 385 230.52 371.5 227.52 368.5 223.52 368.5 219.52 368.5 217.52 369.5 215.52 372.5 213.52 375.5 213.52 381.5 219.52 392.5 220.18 393.5"/><path class="cls-2" d="M239.83,383.37l-2.31-4.87-3-6-5-4-3-3h-4l-7,2-4,3-2,4v6c0,1,2.16,4.5,2.16,4.5l.84,2.5,4,6,1,1.27"/><line class="cls-2" x1="214.27" y1="382.88" x2="211.52" y2="384.5"/><line class="cls-2" x1="231.78" y1="373.94" x2="234.52" y2="372.5"/><line class="cls-2" x1="197.52" y1="378.5" x2="208.52" y2="399.5"/><line class="cls-2" x1="199.21" y1="376.65" x2="210.25" y2="398.61"/><line class="cls-2" x1="200.52" y1="376.5" x2="211.52" y2="398.25"/><line class="cls-2" x1="202.07" y1="374.99" x2="213.52" y2="397.5"/><line class="cls-1" x1="232.52" y1="355.5" x2="245.52" y2="380.5"/><line class="cls-2" x1="204.52" y1="164.5" x2="224.52" y2="175.5"/><polyline class="cls-2" points="222.52 171.5 208.52 163.5 204.52 163.5"/><circle class="cls-1" cx="274.52" cy="66" r="6.5"/><line class="cls-2" x1="248.52" y1="345.5" x2="261.49" y2="371.62"/><line class="cls-2" x1="249.52" y1="343.5" x2="263.39" y2="370.62"/><polyline class="cls-1" points="266.52 21.5 270.52 25.5 269.52 35.5 268.52 35.5 267.52 36.5 260.52 30.5 258.52 25.5 257.52 21.5 259.52 18.5 262.52 18.5 265.52 21.5 267.52 12.5 272.52 3.5 300.52 1.5 300.52 4.5 298.52 4.5 298.52 14.5 301.52 15.5 305.52 16.5 313.52 0.5 324.52 0.5 311.52 28.5 324.52 50.5 363.52 50.5 363.52 45.5 365.52 40.5 368.52 39.5 369.52 39.5"/><polyline class="cls-2" points="268.52 34.5 263.52 30.5 261.52 28.5 259.52 24.5 259.52 20.5 262.52 19.5"/><polygon class="cls-2" points="261.52 22.5 263.52 22.5 264.52 24.5 264.52 25.5 264.52 27.5 263.52 27.5 261.52 25.5 261.52 22.5"/><polyline class="cls-2" points="264.52 25 262.52 25 261.27 23.75"/><line class="cls-2" x1="262.45" y1="26.44" x2="262.45" y2="24.5"/><polyline class="cls-1" points="295.52 2.5 290.52 7.5 287.52 13.5 285.52 17.5 284.52 23.5"/><line class="cls-1" x1="292.52" y1="6.5" x2="292.52" y2="18.5"/><line class="cls-1" x1="288.52" y1="12.5" x2="288.52" y2="20.5"/><polyline class="cls-1" points="283.52 44.5 285.52 44.5 291.52 40.5 304.52 32.5 306.52 28.5 306.52 25.5 305.52 22.5 302.52 18.5 299.52 17.5 294.52 17.5"/><polyline class="cls-1" points="305.52 16.5 308.52 20.5 309.52 22.5 309.52 26.5 308.52 28.5 304.52 32.5"/><line class="cls-1" x1="309.52" y1="26.5" x2="311.52" y2="28.5"/><polyline class="cls-1" points="306.2 30.81 321.52 55.5 323.52 53.5 324.52 50.5"/><line class="cls-1" x1="298.85" y1="35.99" x2="311.52" y2="57.5"/><polyline class="cls-1" points="296.96 37.15 309.52 57.5 283.52 57.5"/><line class="cls-1" x1="291.52" y1="40.5" x2="289.39" y2="57.5"/><polyline class="cls-1" points="266.91 15.21 269.52 12.5 271.52 11.5 277.52 11.5 279.52 12.5 281.52 15.5 282.52 19.5 283.52 24.5 294.52 17.5 295.02 17.12 298.52 14.5"/><line class="cls-1" x1="283.52" y1="57.5" x2="283.62" y2="24.5"/><line class="cls-1" x1="265.52" y1="58.5" x2="265.46" y2="34.74"/><polyline class="cls-1" points="321.52 55.5 321.52 57.5 309.52 57.5"/><polyline class="cls-1" points="369.52 57.81 336.58 57.59 322.52 57.5"/><polyline class="cls-1" points="336.52 57.5 336.52 55.5 334.52 53.5 333.52 52.5 331.52 52.5 329.52 54.5 328.52 55.5 328.52 57.5"/><polyline class="cls-1" points="283.52 76.5 291.02 76.5 369.52 76.5"/><polyline class="cls-1" points="291.52 126.88 289.52 130.5 286.52 159.5 301.52 180.5 306.52 140.5 309.52 134.5 309.52 76.5"/><polyline class="cls-1" points="309.22 135.1 307.52 134.5 307.52 130.5 305.52 128.5 301.52 129.5 296.52 129.5 293.52 127.5 291.52 127.5 291.52 76.5"/><line class="cls-1" x1="283.52" y1="72.5" x2="283.52" y2="89.5"/><line class="cls-1" x1="286.52" y1="76.5" x2="283.52" y2="89.5"/><polyline class="cls-1" points="283.52 95 283.52 129.5 285.52 157.5"/><line class="cls-1" x1="288.78" y1="137.65" x2="284.87" y2="148.41"/><line class="cls-1" x1="265.7" y1="108.85" x2="265.52" y2="125.5"/><polyline class="cls-1" points="265.7 131.7 265.52 145.5 266.52 150.5 269.52 164.5 274.52 173.5 289.52 196.5 295.52 190.5 307.52 190.5 301.52 180.5"/><polyline class="cls-1" points="267.52 128.92 270.52 128.5 277.52 128.5 281.52 128.5 283.52 130.5"/><polyline class="cls-2" points="271.52 154.5 268.52 154.5 270.52 158.5 280.52 153.5 278.52 150.5 276.52 150.5 277.52 153.5"/><polyline class="cls-2" points="280.52 153.5 286.52 165.5 285.52 167.5 281.52 170.5 278.52 170.5 271.52 159.5"/><line class="cls-2" x1="281.52" y1="169.5" x2="273.85" y2="156.83"/><line class="cls-2" x1="284.52" y1="167.5" x2="277.52" y2="154.5"/><polyline class="cls-1" points="307.52 190.5 319.52 191.5 321.52 192.5 321.52 194.5 321.52 206.5 321.52 208.5 320.52 210.5 320.52 212.5 319.52 213.5 317.52 214.5 316.52 211.5 316.52 210.5 316.52 198.5 315.52 196.5 298.52 196.5 297.52 198.5 302.52 201.5 302.52 203.5 302.52 206.5 301.52 210.5 300.52 213.5 299.52 214.5 297.52 213.5 297.52 209.5 297.52 207.5 295.52 205.5 292.52 202.5 291.52 202.5 290.52 200.5 290.06 195.96"/><polyline class="cls-2" points="316.52 198.5 320.02 195 321.52 195"/><polyline class="cls-2" points="315.52 196.5 318.52 193.5 319.52 191.5"/><polyline class="cls-2" points="318.52 193.5 319.52 193.5 320.35 195"/><line class="cls-2" x1="297.52" y1="207.5" x2="302.52" y2="202.5"/><line class="cls-2" x1="296.52" y1="205.5" x2="301.51" y2="200.9"/><line class="cls-2" x1="291.52" y1="202.5" x2="296.52" y2="198.5"/><polyline class="cls-2" points="290.47 200.03 294.52 196.13 294.52 191.63"/><line class="cls-2" x1="296.52" y1="198.5" x2="297.52" y2="198.5"/><line class="cls-2" x1="294.52" y1="196.5" x2="297.76" y2="198.02"/><polyline class="cls-1" points="283.61 187.44 283.52 205.5 283.52 207.5 284.52 208.5 284.52 210.5 264.52 228.5 230.52 228.5 229.52 233.5 226.52 240.5 226.52 244.5 226.52 246.5 228.52 248.5 231.52 250.5 262.52 258.5 265.52 258.5"/><line class="cls-1" x1="265.52" y1="234.5" x2="229.52" y2="234.5"/><circle class="cls-2" cx="234.02" cy="243" r="3.5"/><polyline class="cls-2" points="283.52 205.5 274.52 205.5 270.52 206.5 268.52 207.5 267.52 210.5 267.52 218.5 270.87 230.95 274.52 244.5 278.52 244.5"/><polyline class="cls-2" points="280.52 222.5 277.52 223.5 274.52 225.5 271.52 228.5 270.71 230.38"/><line class="cls-1" x1="280.52" y1="235.5" x2="280.52" y2="213.68"/><polyline class="cls-1" points="278.52 244.5 278.52 240.5 278.52 239.5 280.52 236.5 280.52 235.5"/><polyline class="cls-2" points="284.52 210.81 290.52 210.5 290.52 207.5 293.52 204.5"/><polyline class="cls-2" points="284.52 210.5 284.52 213.04 284.52 213.5 290.52 213.5 290.52 210.5"/><polyline class="cls-2" points="280.52 236.25 283.52 234.5 283.52 213.5 284.52 213.5"/><polyline class="cls-2" points="291.52 232.5 287.52 232.5 284.52 233.5 283.52 234.5"/><polyline class="cls-2" points="278.52 244.5 279.52 247.5 281.52 249.5 284.52 251.5 288.52 251.5 291.52 251.5 293.52 250.5"/><polyline class="cls-1" points="278.52 244.5 278.52 249.5 281.52 249.5"/><polyline class="cls-2" points="280.52 249.5 282.52 252.5 284.52 253.5 289.52 253.5 291.52 252.5 293.28 250.62"/><polyline class="cls-1" points="294.52 204.5 294.52 212.5 292.52 212.5 290.52 214.5 290.52 231.5 290.52 232.5 295.52 237.5 297.52 235.5 295.52 233.5 295.52 232.5 300.52 232.5 300.52 250.5 289.52 250.5 288.52 250.5 287.52 249.5 285.52 247.5 283.52 244.5 283.52 238.5 284.52 237.5 285.52 235.5 287.52 233.5 289.52 232.5"/><polyline class="cls-2" points="294.52 212.5 294.52 213.5 293.52 213.5 292.52 214.5 292.52 225.5 296.52 225.5 296.52 216.5 292.52 216.5"/><line class="cls-2" x1="292.52" y1="221.5" x2="296.52" y2="221.5"/><polyline class="cls-1" points="299.52 214.5 299.52 218.5 300.52 219.5 300.52 222.5 298.52 222.5 296.52 224.04"/><polyline class="cls-2" points="300.52 222.5 301.52 223.5 301.52 232.5 300.52 232.5"/><polyline class="cls-2" points="294.52 225.5 293.52 227.5 292.52 229.5 292.52 230.5 294.52 232.5 295.72 232.5"/><polyline class="cls-2" points="296.52 224.5 300.52 224.5 300.52 225.5 300.52 226.5 296.52 226.5 296.52 225.5"/><polyline class="cls-2" points="300.52 226.5 300.52 229.5 293.52 229.5 293.52 227.71"/><line class="cls-2" x1="300.52" y1="231.5" x2="293.52" y2="231.5"/><line class="cls-2" x1="300.52" y1="229.5" x2="300.52" y2="231.5"/><polyline class="cls-2" points="274.52 244.5 274.52 264.5 272.52 265.5 266.52 265.5 265.52 264.5 265.72 146.5"/><line class="cls-2" x1="275.52" y1="244.5" x2="275.52" y2="265.5"/><line class="cls-2" x1="278.52" y1="249.5" x2="278.52" y2="266.5"/><polyline class="cls-2" points="279.52 249.5 279.52 266.5 279.52 268.5 281.52 271.5 284.52 273.5 285.52 274.5 288.52 274.5 290.52 273.5 293.52 271.5 293.52 269.5"/><polyline class="cls-1" points="281.52 276.42 284.52 277.5 289.52 277.5 292.52 275.5 294.52 273.5 296.52 270.5 297.52 268.5 297.52 265.5"/><polyline class="cls-1" points="282.52 284.5 285.52 285.5 289.52 285.5 293.52 283.5 296.52 279.5 297.52 277.5 297.52 268.5"/><polyline class="cls-1" points="281.52 268.5 286.52 272.5 292.52 268.5 292.52 262.5 287.52 259.5 281.52 262.5 281.52 268.5"/><polyline class="cls-1" points="300.52 250.5 300.52 293.5 304.52 295.5 314.52 295.5 317.52 293.5"/><polyline class="cls-2" points="298.7 250.5 298.52 264.5 298.52 266.5"/><line class="cls-2" x1="300.52" y1="266.5" x2="298.52" y2="266.5"/><line class="cls-2" x1="298.52" y1="264.5" x2="300.52" y2="264.5"/><line class="cls-2" x1="298.52" y1="252.5" x2="300.52" y2="252.5"/><polyline class="cls-1" points="318.02 215 318.02 220 317.02 221 317.02 223 316.02 224 315.52 290.5 319.52 294.5 368.52 294.5"/><polyline class="cls-1" points="321.52 208.5 339.52 205.5 369.52 205.5"/><line class="cls-1" x1="349.52" y1="205.5" x2="349.52" y2="210.5"/><line class="cls-1" x1="320.52" y1="210.5" x2="368.52" y2="210.5"/><line class="cls-1" x1="319.52" y1="213.5" x2="368.52" y2="213.5"/><line class="cls-1" x1="317.52" y1="220.5" x2="368.52" y2="220.5"/><line class="cls-1" x1="316.52" y1="224.04" x2="369.52" y2="224.04"/><polyline class="cls-2" points="315.93 235.5 313.52 234.5 306.52 234.5 303.52 235.5 301.52 237.5 300.52 238.04"/><polyline class="cls-1" points="316.52 208.5 314.52 201.5 311.52 197.5 310.52 196.5"/><polygon class="cls-1" points="321.52 232.5 323.52 229.5 326.52 227.5 331.52 227.5 334.52 228.5 337.52 232.5 337.52 238.5 336.52 241.5 333.52 243.5 331.52 245.5 326.52 245.5 323.52 242.5 321.52 239.5 321.52 232.5"/><polyline class="cls-2" points="325.52 243.5 325.52 238.5 327.52 236.5 330.52 236.5 332.52 238.5 332.52 243.5"/><polygon class="cls-1" points="321.52 278.5 323.52 275.5 326.52 273.5 331.52 273.5 334.52 274.5 337.52 278.5 337.52 284.5 336.52 287.5 333.52 289.5 331.52 291.5 326.52 291.5 323.52 288.5 321.52 285.5 321.52 278.5"/><polyline class="cls-2" points="325.52 289.5 325.52 284.5 327.52 282.5 330.52 282.5 332.52 284.5 332.52 289.5"/><circle class="cls-2" cx="330.02" cy="254" r="3.5"/><polygon class="cls-1" points="372.52 238.5 394.52 238.5 395.52 237.5 399.52 237.5 399.52 235.5 397.52 233.5 394.52 232.5 372.52 232.5 368.52 232.5 346.52 232.5 343.52 233.5 341.52 235.5 341.52 237.5 345.52 237.5 346.52 238.5 368.52 238.5 372.52 238.5"/><polyline class="cls-1" points="341.52 237.5 341.52 271.5 341.52 272.5 341.52 273.5 344.52 275.5 345.52 276.5 355.52 276.5"/><line class="cls-1" x1="346.52" y1="238.5" x2="346.52" y2="276.5"/><polyline class="cls-1" points="346.52 245.5 368.52 245.5 372.52 245.5"/><polyline class="cls-1" points="346.52 250.25 368.52 250.5 372.52 250.5 394.52 250.25"/><polyline class="cls-2" points="346.52 252.63 351.45 252.6 368.52 252.5 372.52 252.5 389.58 252.6 394.52 252.63"/><polyline class="cls-2" points="351.52 252.5 352.52 253.5 353.52 254.5 369.52 254.5 371.52 254.5"/><polyline class="cls-2" points="346.52 257.5 368.52 257.5 372.52 257.5 394.52 257.5"/><polyline class="cls-2" points="346.52 259.19 357.52 259.19 358.52 260.5 369.52 260.5 371.93 260.5"/><line class="cls-2" x1="357.05" y1="259.19" x2="357.05" y2="275.5"/><line class="cls-2" x1="355.36" y1="276.5" x2="357.05" y2="275.28"/><polyline class="cls-2" points="346.52 263.88 357.05 263.88 362.67 263.88"/><polyline class="cls-2" points="346.52 268.06 357.05 268.06 362.67 268.06"/><polyline class="cls-2" points="362.67 260.5 362.67 261.53 362.67 271.5 357.52 271.5 357.05 271.5"/><line class="cls-2" x1="357.05" y1="261.5" x2="362.52" y2="261.5"/><polyline class="cls-2" points="362.67 264.42 368.52 264.42 369.52 264.42 371.93 264.42"/><polyline class="cls-2" points="362.52 266.5 369.52 266.5 372.52 266.5"/><polyline class="cls-2" points="362.52 271.5 369.52 271.5 371.52 271.5 378.52 271.5"/><polyline class="cls-1" points="357.05 275.06 360.52 273.5 364.52 273.5 369.52 273.5 372.35 273.5"/><polyline class="cls-1" points="357.52 281.5 357.52 288.5 356.52 290.5 352.52 290.5 350.52 288.5 350.52 281.5 351.52 278.5 353.52 276.5"/><polyline class="cls-1" points="357.52 281.5 364.52 279.5 369.52 279.5"/><line class="cls-1" x1="350.52" y1="259.5" x2="350.52" y2="276.5"/><polyline class="cls-1" points="294.52 311.5 294.52 293.5 295.02 293.5 300.52 293.5"/><line class="cls-1" x1="294.52" y1="311.5" x2="369.52" y2="311.5"/><polyline class="cls-1" points="294.52 295.25 292.52 295.25 292.52 297.5 283.52 297.5 283.52 332.5"/><path class="cls-1" d="M269.52,319.5v-21l2-1,1,1,1-1,2,1,3-1v17s3,18,4,18-3,3-3,3l-12,7-2,4,2,21-2.63,2.5-13.37-26.5"/><polyline class="cls-1" points="283.52 297.5 281.52 297.5 278.52 297.5"/><line class="cls-1" x1="274.52" y1="298.5" x2="274.52" y2="320.5"/><path class="cls-1" d="M269.52,341.5a10.07,10.07,0,0,0,1,3l2-1h1l1-5"/><polyline class="cls-1" points="273.52 343.5 276.52 342.5 278.52 343.5 278.52 336.5"/><polyline class="cls-1" points="278.52 343.5 280.52 343.5 281.52 343.5 281.52 334.5"/><polyline class="cls-1" points="282.52 343.5 283.52 344.5 283.52 331.81"/><line class="cls-1" x1="295.52" y1="344.5" x2="283.52" y2="344.5"/><line class="cls-1" x1="297.52" y1="266" x2="297.52" y2="250.5"/><polyline class="cls-1" points="265.52 291.66 265.52 320.5 265.52 321.5"/><polyline class="cls-2" points="265.52 313.5 253.52 308.5 251.52 312.5 250.52 315.5 250.52 321.5 251.52 324.5 254.12 326.95"/><line class="cls-2" x1="251.52" y1="312.5" x2="265.52" y2="318.38"/><line class="cls-2" x1="250.68" y1="315" x2="265.52" y2="321.25"/><polyline class="cls-2" points="256.8 325.65 254.52 323.5 254.52 320.5 255.52 319.5 258.52 321.5 258.52 324.5"/><polyline class="cls-2" points="267.52 359.5 268.52 357.5 270.52 361.5"/><polyline class="cls-2" points="267.52 362.5 269.52 362.5 279.52 356.5"/><polyline class="cls-2" points="268.52 357.5 269.52 355.5 271.52 353.5 274.52 353.5 278.52 351.5 281.52 350.5 283.52 348.5 283.52 344.5"/><polyline class="cls-1" points="258.52 382.5 258.52 385.5 260.52 387.5 263.52 389.5 266.52 389.5 270.52 386.5 270.52 375.5"/><path class="cls-1" d="M295.52,347.5a10.07,10.07,0,0,1-3-1h-4l-3,1L281,352l-1.5,4.5v2l1,3,7,15,3,4"/><polyline class="cls-1" points="294.52 349.5 292.52 348.5 287.52 348.5 283.52 352.5 282.52 355.5 282.52 358.5 283.52 360.5 291.52 375.5"/><polyline class="cls-1" points="279.52 371.5 279.52 375.5 286.52 387.5 291.52 395.5"/><polyline class="cls-1" points="282.52 383.5 288.52 397.5 291.52 398.5"/><polyline class="cls-1" points="282.52 369.5 289.52 384.5 291.52 384.5"/><polyline class="cls-2" points="249.52 398.5 249.52 401.5 265.52 402.5 265.52 398.5 249.52 398.5 252.54 396.55"/><line class="cls-2" x1="265.52" y1="395.5" x2="255.52" y2="395.5"/><line class="cls-2" x1="265.52" y1="397.5" x2="251.07" y2="397.5"/><polyline class="cls-1" points="265.52 390.5 265.52 403.5 270.52 408.5 276.52 408.5 279.52 408.5 282.52 405.5 283.52 402.5 283.52 386.5"/><polyline class="cls-2" points="266.52 390.5 268.52 392.5 272.52 393.5 277.52 393.5 280.52 391.5 283.52 388.5"/><polyline class="cls-1" points="299.52 311.5 294.52 351.5 291.52 350.5 289.52 350.5 284.52 353.5 284.52 359.5 289.52 362.5 293.52 362.5"/><polyline class="cls-1" points="294.52 351.5 293.25 363.35 291.52 379.5 291.38 380.48 290.83 384.5 290.83 404.5 293.52 406.5 296.52 408.5 303.52 408.5 307.52 405.5 309.52 401.5 309.52 393.5 304.52 393.5 304.52 391.5 307.52 389.5 307.52 387.5 304.52 387.5 304.52 384.5 306.52 382.5 308.52 378.5 308.52 372.5 309.52 371.5 317.52 311.5"/><path class="cls-1" d="M291.52,380.5a7.69,7.69,0,0,0,2,3c2.49,2.3,5.81,2.08,7,2a11.45,11.45,0,0,0,4-1"/><polyline class="cls-2" points="293.28 363.07 295.02 365 297.02 367 301.02 368 306.02 368 309.02 366 311.02 364 317.52 352.5 317.52 350.5 318.52 349.5 323.52 349.5 324.52 348.5 324.52 345.5 323.52 344.5 323.52 343.5 322.52 341.5 322.52 338.5 323.52 337.5 326.52 337.5 326.52 334.5 324.52 332.5 323.52 331.5 317.52 328.5 316.52 327.5 322.52 315.5 324.52 315.5 326.52 313.5 327.52 314.5 327.52 317.5 328.52 319.5 328.52 322.5 328.52 324.5 328.52 329.5 327.52 331.5 326.65 333.23 326.52 333.5"/><polyline class="cls-1" points="310.02 371 317.02 371 319.02 369 319.95 369 369.52 369 386.52 369"/><line class="cls-1" x1="309.52" y1="393.5" x2="369.52" y2="393.5"/><line class="cls-1" x1="307.52" y1="387.5" x2="369.52" y2="387.5"/><polyline class="cls-2" points="317.52 352.5 320.52 352.5 320.52 355.5 320.52 368.5"/><line class="cls-2" x1="321.52" y1="351.5" x2="320.52" y2="352.5"/><line class="cls-2" x1="323.52" y1="351.5" x2="323.52" y2="366.5"/><polyline class="cls-2" points="320.52 366.66 369.52 366.66 380.52 366.66"/><polyline class="cls-2" points="323.52 351.66 324.52 351.5 325.52 353.5 325.52 353.5 325.52 355.5 330.8 355.5 331.52 355.5 333.52 357.5 333.52 311.5"/><polyline class="cls-2" points="330.67 355.5 331.52 354.5 332.52 354.5 332.52 353.41 332.52 347.5 330.52 347.5 330.52 353.5 332.52 353.5"/><line class="cls-2" x1="318.64" y1="311.5" x2="318.64" y2="323.25"/><line class="cls-2" x1="320.58" y1="311.5" x2="320.58" y2="319.26"/><line class="cls-2" x1="318.64" y1="329.06" x2="318.64" y2="340.5"/><polyline class="cls-2" points="320.58 330.03 320.58 343.5 322.52 347.5 322.66 349.5"/><line class="cls-2" x1="318.52" y1="340.5" x2="320.52" y2="342.5"/><polyline class="cls-2" points="318.52 340.5 317.52 340.5 317.52 339.5 316.52 338.5 313.95 338.5"/><polyline class="cls-2" points="315.25 356.51 313.52 347.5 313.52 347.5 318.52 349.5"/><polyline class="cls-2" points="330.52 347.5 328.52 345.5 327.52 343.5 327.52 341.5 326.52 340.5 326.52 337.5"/><polyline class="cls-2" points="326.52 333.5 330.52 341.5 330.52 343.5 331.52 345.5 331.52 347.5"/><line class="cls-2" x1="330.83" y1="311.5" x2="330.83" y2="344.5"/><polyline class="cls-2" points="333.52 357.5 357.52 357.5 357.52 311.5"/><line class="cls-2" x1="333.52" y1="350.69" x2="357.52" y2="350.69"/><line class="cls-2" x1="333.52" y1="340.75" x2="357.52" y2="340.75"/><line class="cls-2" x1="333.52" y1="334.33" x2="357.52" y2="334.33"/><line class="cls-2" x1="350.45" y1="311.5" x2="350.45" y2="357.5"/><line class="cls-2" x1="357.52" y1="320.5" x2="369.52" y2="320.5"/><polyline class="cls-2" points="363.52 311.5 363.52 323.5 364.52 325.5 365.52 326.5 369.52 326.5"/><line class="cls-2" x1="350.52" y1="357.5" x2="350.52" y2="366.5"/><line class="cls-2" x1="357.52" y1="366.66" x2="357.52" y2="357.5"/><polyline class="cls-2" points="357.52 349.08 359.52 349.08 378.52 342.5 380.52 342.5 381.52 343.5 381.52 344.5 380.52 345.5 380.52 352.5"/><polyline class="cls-2" points="357.52 351.5 359.52 351.5 378.52 345.5"/><polyline class="cls-2" points="357.52 355.5 359.52 355.5 359.52 351.5"/><polyline class="cls-1" points="551.52 247.5 585.52 234.5 589.52 234.5 591.52 236.5 592.52 237.5 591.52 241.5 596.52 239.5 598.52 243.5 593.52 247.5 592.52 249.5 590.52 251.5 597.52 262.5 596.52 265.5 604.52 278.5 604.52 281.5 601.52 284.5 601.52 285.5 604.52 285.5 609.52 288.5 611.52 294.5 611.52 301.5 609.52 303.5 616.52 331.5 627.52 336.5 630.52 335.5 646.52 342.5 647.52 340.5 652.52 342.5 665.52 348.5 665.52 351.5 667.52 353.5 664.52 360.5 661.52 360.5 658.52 368.5 663.52 368.5 665.52 371.5 673.52 371.5 673.52 382.5 684.52 392.5 707.52 393.5 707.52 406.5 715.52 406.5 716.52 407.5 739.02 407 740.02 408 740.02 416 740.52 422.5 738.52 424.5 717.52 424.5 715.52 426.5 707.52 426.5 707.52 406.5"/><polyline class="cls-1" points="590.52 241.5 587.52 240.5 556.52 253.5 550.52 255.5 547.52 253.5 547.52 250.5 549.52 247.5 554.52 242.5"/><polyline class="cls-1" points="577.52 231.5 581.52 226.5 583.52 222.5 584.52 221.5 584.52 217.5 582.52 215.5 579.52 214.5 577.52 214.5 573.52 214.5 568.52 216.5 538.52 228.5"/><polyline class="cls-1" points="573.52 224.5 575.52 222.5 577.52 220.5 571.52 222.5 538.52 235.5 535.52 234.5 533.52 232.5 533.52 229.5 534.52 227.5 541.52 221.5 565.52 210.5 570.52 204.5 571.52 200.5 571.52 197.5 568.52 194.5 564.52 194.5 556.52 195.5 527.52 207.5 525.52 207.5"/><polyline class="cls-1" points="560.52 204.5 566.52 200.5 562.52 200.5 558.52 201.5 535.52 210.5 528.52 213.5 526.52 214.5 522.52 213.5 521.52 209.5 530.52 201.5"/><polyline class="cls-1" points="552.52 190.5 556.52 185.5 558.52 181.5 559.52 180.5 559.52 176.5 557.52 174.5 554.52 173.5 552.52 173.5 548.52 173.5 543.52 175.5 513.52 187.5"/><polyline class="cls-1" points="548.52 183.5 550.52 181.5 552.52 179.5 546.52 181.5 513.52 194.5 510.52 193.5 508.52 191.5 508.52 188.5 509.52 186.5 516.52 180.5 540.52 169.5 545.52 163.5 546.52 159.5 546.52 156.5 543.52 153.5 539.52 153.5 531.52 154.5 502.52 166.5 500.52 166.5"/><polyline class="cls-1" points="535.52 163.5 541.52 159.5 537.52 159.5 533.52 160.5 510.52 169.5 503.52 172.5 501.52 173.5 497.52 172.5 496.52 168.5 505.52 160.5 513.52 154.5"/><polyline class="cls-1" points="529.52 149.5 533.52 144.5 535.52 140.5 536.52 139.5 536.52 135.5 534.52 133.5 531.52 132.5 529.52 132.5 525.52 132.5 520.52 134.5 490.52 146.5"/><polyline class="cls-1" points="525.52 142.5 527.52 140.5 529.52 138.5 523.52 140.5 490.52 153.5 487.52 152.5 485.52 150.5 485.52 147.5 486.52 145.5 493.52 139.5 517.52 128.5 522.52 122.5 523.52 118.5 523.52 115.5 520.52 112.5 516.52 112.5 508.52 113.5 479.52 125.5 477.52 125.5"/><polyline class="cls-1" points="512.52 122.5 518.52 118.5 514.52 118.5 510.52 119.5 487.52 128.5 480.52 131.5 478.52 132.5 474.52 131.5 473.52 127.5 482.52 119.5 488.52 114.5"/><line class="cls-1" x1="519.52" y1="148.5" x2="525.89" y2="142.13"/><line class="cls-1" x1="522.52" y1="154.5" x2="529.52" y2="149.19"/><polyline class="cls-1" points="499.52 113.5 508.52 103.5 511.52 96.5 510.52 92.5 507.52 91.5 502.52 91.5 467.52 105.5"/><polyline class="cls-1" points="496.52 107.5 502.52 101.5 505.52 97.5 498.52 98.5 490.52 101.5 469.52 111.5 466.52 111.5 465.52 109.5 466.52 105.5 468.66 105.04"/><polyline class="cls-1" points="490.52 95.5 497.52 90.5 501.52 86.5 501.52 82.5 499.52 80.5 497.52 80.5 466.52 99.5 463.52 102.5 463.52 103.5 465.52 104.5 468.52 104.5"/><polyline class="cls-1" points="488.52 84.5 487.52 82.5 489.52 81.5 489.52 79.5 489.52 78.5 495.52 74.5 495.52 72.5 494.52 71.5 494.52 69.5 490.52 69.5 479.52 73.5 475.52 73.5 477.52 68.5 477.52 62.5 473.52 56.5 468.52 54.5 464.52 55.5 459.52 57.5 456.52 62.5 456.52 68.5 458.52 73.5 461.52 76.5 466.52 77.5 470.52 76.5 476.52 73.5"/><polyline class="cls-1" points="466.52 77.5 466.52 81.5 459.52 88.5 456.52 91.5 456.52 94.5 458.52 95.5 461.52 94.5 465.52 92.5 467.52 94.5 470.52 92.5 472.52 95.5"/><line class="cls-1" x1="556.52" y1="244.5" x2="548.11" y2="231.72"/><line class="cls-1" x1="544.68" y1="226.03" x2="535.52" y2="211.5"/><line class="cls-1" x1="532.52" y1="204.5" x2="524.27" y2="190.5"/><polyline class="cls-1" points="520.89 184.55 515.52 175.5 516.52 172.5 518.52 172.5 516.52 168.5"/><line class="cls-1" x1="579.52" y1="235.5" x2="571.52" y2="222.5"/><polyline class="cls-1" points="568.52 216.5 564.6 210.92 559.52 202.5"/><line class="cls-1" x1="555.52" y1="194.5" x2="547.52" y2="181.5"/><line class="cls-1" x1="544.68" y1="175.03" x2="537.52" y2="163.5"/><line class="cls-1" x1="524.27" y1="157.5" x2="515.97" y2="143.47"/><line class="cls-1" x1="511.52" y1="136.5" x2="505.52" y2="123.5"/><line class="cls-1" x1="500.52" y1="116.81" x2="492.12" y2="100.9"/><line class="cls-1" x1="492.52" y1="118.5" x2="484.52" y2="106.5"/><line class="cls-2" x1="603.67" y1="277.13" x2="582.52" y2="289.5"/><polyline class="cls-2" points="587.52 251.5 587.52 254.5 584.52 254.5 582.52 259.5 578.52 259.5 576.52 266.5 574.52 266.5 572.52 272.5"/><line class="cls-2" x1="555.52" y1="262.86" x2="590.52" y2="242.5"/><line class="cls-2" x1="560.52" y1="256.5" x2="588.64" y2="240.88"/><polyline class="cls-2" points="578.52 251.5 580.52 252.5 576.52 256.5 573.52 253.5"/><polyline class="cls-2" points="568.52 258.5 569.52 260.5 565.52 262.5 562.52 260.5"/><polyline class="cls-2" points="559.52 260.53 561.52 263.5 565.52 262.5"/><polygon class="cls-2" points="560.52 263.5 561.52 265.5 557.52 267.5 556.52 266.5 560.52 263.5"/><polygon class="cls-2" points="588.52 245.5 590.52 247.5 584.52 249.5 584.52 247.5 588.52 245.5"/><polyline class="cls-2" points="582.52 260.5 586.52 267.5 584.52 269.5 582.52 269.5 579.52 262.5 580.52 260.5 581.52 260.5"/><polygon class="cls-2" points="610.52 300.5 608.52 300.5 607.52 294.5 605.52 290.5 602.52 289.5 599.52 288.5 596.52 289.5 593.52 292.5 591.52 291.5 593.52 288.5 595.52 286.5 601.52 286.5 606.52 287.5 609.52 291.5 610.52 300.5"/><path class="cls-2" d="M607.52,298.5l-4,4s-5,1-4,1-4-2-4-2l-2-3v-3l1-2,3-3h5l3,2,2,6"/><polyline class="cls-2" points="604.52 294.5 604.77 295 605.52 296.5 603.52 298.5 602.52 299.5 597.52 300.5 595.52 295.5 597.52 291.5 602.52 291.5"/><line class="cls-2" x1="597.52" y1="292.5" x2="601.52" y2="299.5"/><line class="cls-2" x1="567.52" y1="288.5" x2="556.52" y2="304.5"/><polyline class="cls-1" points="658.52 366.5 654.52 365.5 647.52 364.5 639.52 359.5 639.52 356.5 635.52 358.5 630.52 358.5 629.52 356.5 628.52 353.5 459.52 277.5 459.52 275.5 462.52 273.5 464.52 270.5 463.52 266.5 465.52 265.5 476.52 269.5 553.52 302.5 565.52 284.5 568.52 287.5 580.52 289.5 574.52 278.5 573.52 278.5 566.52 264.5 561.52 268.5 559.52 268.5 556.52 270.5 553.52 265.5 555.52 263.5 555.52 260.5 559.52 256.5 557.52 253.5"/><polyline class="cls-1" points="629.52 356.5 458.52 284.5 458.52 282.5 460.52 280.5 462.16 278.69"/><polyline class="cls-2" points="627.52 337.5 630.52 338.5 628.52 343.5 636.52 347.5 633.52 353.5 629.52 352.5 631.52 357.5"/><polyline class="cls-2" points="664.52 351.5 650.52 346.5 654.52 352.5 655.52 355.5 657.52 357.5 659.98 359.14 660.52 359.5"/><polyline class="cls-2" points="643.52 342.5 647.52 345.5 651.52 350.5 652.52 353.5 647.52 351.5 645.52 352.5 642.52 354.5 639.52 356.5"/><line class="cls-2" x1="645.52" y1="353.5" x2="660.52" y2="359.5"/><line class="cls-2" x1="644.52" y1="354.5" x2="659.52" y2="360.5"/><polyline class="cls-2" points="658.52 363.5 653.52 361.5 647.52 358.5 642.52 356.5 649.52 357.5 655.52 360.5 659.52 363.5"/><polyline class="cls-2" points="641.52 357.5 648.52 360.5 657.52 363.5"/><polyline class="cls-2" points="657.52 364.5 651.52 362.5 642.52 359.5 641.52 357.5"/><line class="cls-1" x1="515.52" y1="159.5" x2="508.52" y2="146.5"/><line class="cls-1" x1="504.52" y1="139.5" x2="502.37" y2="135.44"/><polyline class="cls-1" points="501.52 134.5 496.52 125.5 468.52 103.5 475.52 98.5 491.52 89.5 497.52 86.5"/><line class="cls-1" x1="487.52" y1="95.5" x2="486.52" y2="93.5"/><line class="cls-1" x1="481.52" y1="98.5" x2="479.52" y2="97.5"/><polyline class="cls-2" points="486.52 82.5 485.52 82.5 483.52 80.5 479.52 81.5 477.52 83.5 479.52 85.5 470.52 91.5 466.52 91.5 466.52 89.5 472.52 84.5 476.52 82.5 474.52 80.5 477.52 78.5 479.52 80.5 481.52 76.5 480.52 74.5 485.52 74.5 485.52 76.5 482.52 79.5 480.52 80.5"/><polyline class="cls-2" points="489.52 77.5 492.52 74.5 493.22 73.1 493.52 72.5 492.52 71.5 488.52 72.5 486.52 73.5 487.52 75.5 490.52 74.5"/><polyline class="cls-2" points="487.52 78.5 485.52 79.5 485.52 80.5 487.52 80.5 487.52 78.5"/><polyline class="cls-2" points="464.52 91.5 464.52 90.5 461.52 93.5"/><polygon class="cls-2" points="459.52 93.5 457.52 91.5 465.52 85.5 466.52 88.5 459.52 93.5"/><polyline class="cls-2" points="466.52 87.5 466.52 85.5 473.52 81.5"/><polygon class="cls-2" points="463.52 85.5 463.77 85.3 468.52 81.5 473.52 78.5 475.52 78.5 469.52 82.5 463.52 85.5"/><polyline class="cls-2" points="479.52 77.5 479.52 75.5 475.52 75.5 471.52 76.5 473.52 77.5 480.52 77.5"/><polyline class="cls-2" points="471.52 77.5 468.52 79.5 470.52 79.5 472.52 78.5 471.52 77.5"/><line class="cls-1" x1="617.52" y1="332.5" x2="553.52" y2="302.5"/><path class="cls-1" d="M646.46,363.84l.06,4.66h-3a1,1,0,0,0-1,1h-6v13h2v1h6v7h8l2-1h8l3,3h1v-7l-1-1v-13"/><polyline class="cls-2" points="658.59 368.3 656.6 368.3 646.52 368.3"/><polyline class="cls-2" points="666.52 389.5 664.52 389.5 664.52 388.5 662.52 386.5 660.52 385.5 656.52 385.5 656.52 384.63 656.52 369.5"/><polyline class="cls-2" points="644.52 388.5 650.52 388.5 650.52 385.5 650.33 385.5 644.52 385.5"/><polyline class="cls-2" points="650.52 385.5 656.52 385.5 647.52 382.5 644.52 382.5 644.52 380.5"/><line class="cls-2" x1="650.52" y1="388.5" x2="664.52" y2="388.5"/><circle class="cls-2" cx="644.52" cy="375.5" r="3.5"/><circle class="cls-2" cx="644.52" cy="375.5" r="6"/><polyline class="cls-1" points="666.52 392.5 666.52 408.5 665.52 409.5 665.52 422.5 673.52 422.5 673.52 408.5 673.52 405.5 672.52 404.5 672.52 384.5 673.52 382.5"/><polyline class="cls-1" points="667.52 422.5 667.52 427.5 671.52 429.5 673.52 430.5 684.52 430.5 685.52 428.5 685.52 392.54"/><polyline class="cls-2" points="672.52 385.5 669.52 383.5 668.52 383.5 666.52 385.5"/><line class="cls-2" x1="673.52" y1="408.5" x2="667.52" y2="408.5"/><polyline class="cls-1" points="707.52 439.5 707.52 439.17 707.52 426.5"/><line class="cls-1" x1="688.52" y1="441.5" x2="687.52" y2="438.5"/><polyline class="cls-1" points="707.52 439.5 688.52 441.5 679.52 457.5 652.52 458.5 652.52 446.5 656.52 445.5 659.52 443.5 665.52 443.5 667.52 442.5 669.52 441.5 670.52 440.5 655.52 441.5 653.52 442.5 652.52 441.5 651.52 440.5 649.52 438.5 649.52 432.5 644.52 427.5 649.52 418.5 649.52 395.5 650.52 394.5 653.52 393.5 655.52 395.5 666.52 395.5"/><circle class="cls-2" cx="662.52" cy="450.5" r="3.5"/><circle class="cls-2" cx="662.52" cy="450.5" r="6"/><line class="cls-2" x1="669.52" y1="441.5" x2="669.52" y2="457.5"/><polyline class="cls-2" points="687.52 438.5 674.52 440.5 672.52 439.5 672.52 430.5"/><polyline class="cls-1" points="674.51 457.69 674.52 463.5 681.52 466.5 679.52 472.5 679.52 474.5 681.52 475.5 679.52 483.5 677.52 482.5 675.52 483.5 675.52 485.5 671.52 485.5 657.52 480.5 656.52 480.5 656.52 476.5 653.52 475.5 643.52 472.5 640.52 469.5 640.52 467.5 637.52 461.5 633.52 459.5 632.52 460.5 629.52 460.5 457.52 382.5"/><polyline class="cls-2" points="674.52 463.5 661.52 460.5 661.52 463.5 680.77 468.75"/><polyline class="cls-2" points="661.52 463.5 660.02 465 679.52 470.5"/><polyline class="cls-2" points="659.52 465.5 659.52 468.5 679.52 473.94"/><line class="cls-2" x1="672.52" y1="472.5" x2="670.52" y2="478.5"/><polyline class="cls-2" points="677.52 482.5 655.52 473.5 653.52 475.5 668.52 477.5 658.52 472.5 648.52 469.5 646.52 468.5 643.52 466.5 643.52 463.5 641.52 462.5 640.52 458.5 637.52 455.5 628.52 451.5"/><polyline class="cls-2" points="654.52 473.5 648.52 470.5 643.52 468.5 641.52 466.5 638.52 460.5 637.52 457.5 627.52 452.5"/><path class="cls-2" d="M660.44,468.75s-4.92-3.25-4.92-2.25-4-4-4-4l-5-7-3-2-13-5"/><polyline class="cls-2" points="634.52 444.5 643.52 448.5 647.52 450.5 649.52 453.5 655.52 463.5 659.27 467.25 648.32 453.12 645.52 449.5 644.52 453.5"/><line class="cls-2" x1="648.52" y1="453.5" x2="644.52" y2="453.5"/><line class="cls-2" x1="644.52" y1="454.44" x2="641.52" y2="462.5"/><line class="cls-2" x1="645.52" y1="455.5" x2="643.52" y2="462.5"/><polyline class="cls-1" points="475.52 369.5 625.52 448.5 629.52 447.5 632.52 446.5 634.52 442.5 636.52 435.5 636.52 432.5 634.52 428.5 627.52 424.5 625.52 421.5 625.52 418.5 629.52 404.5 631.52 376.5 631.52 372.5 475.52 307 475.52 306.49 475.52 291.66"/><line class="cls-1" x1="631.52" y1="459.5" x2="458.52" y2="369.5"/><polyline class="cls-1" points="630.52 454.5 630.52 456.5 627.52 457.5"/><line class="cls-1" x1="648.52" y1="419.5" x2="628.52" y2="410.5"/><line class="cls-2" x1="627.52" y1="411.49" x2="618.52" y2="407.5"/><line class="cls-2" x1="626.52" y1="414.63" x2="613.52" y2="407.5"/><line class="cls-2" x1="613.52" y1="407.5" x2="606.52" y2="406.5"/><polyline class="cls-1" points="572.52 394.5 529.52 369.5 527.52 369.5 528.52 368.5 508.52 355.5 493.52 345.5"/><polyline class="cls-2" points="590.52 428.5 596.52 417.5 596.52 411.5 594.52 408.5 592.52 405.5 590.52 404.5 586.52 404.5 582.52 404.5 579.52 407.5 572.52 421"/><path class="cls-2" d="M593.52,429.5l4-6,.83-2.5s2.17-3.5,2.17-4.5v-6l-2-4-4-3-7-2h-4l-3,3-5,4-3,6-2.32,4.87"/><line class="cls-2" x1="595.77" y1="418.88" x2="598.52" y2="420.5"/><line class="cls-2" x1="578.25" y1="409.94" x2="575.52" y2="408.5"/><polyline class="cls-2" points="503.52 385 510.52 371.5 513.52 368.5 517.52 368.5 521.52 368.5 523.52 369.5 525.52 372.5 527.52 375.5 527.52 381.5 521.52 392.5 520.85 393.5"/><path class="cls-2" d="M501.2,383.37l2.32-4.87,3-6,5-4,3-3h4l7,2,4,3,2,4v6c0,1-2.17,4.5-2.17,4.5l-.83,2.5-4,6-1,1.27"/><line class="cls-2" x1="526.77" y1="382.88" x2="529.52" y2="384.5"/><line class="cls-2" x1="509.25" y1="373.94" x2="506.52" y2="372.5"/><line class="cls-2" x1="536.52" y1="164.5" x2="516.52" y2="175.5"/><polyline class="cls-2" points="518.52 171.5 532.52 163.5 536.52 163.5"/><circle class="cls-1" cx="466.52" cy="66" r="6.5"/><polyline class="cls-1" points="474.52 21.5 470.52 25.5 471.52 35.5 472.52 35.5 473.52 36.5 480.52 30.5 482.52 25.5 483.52 21.5 481.52 18.5 478.52 18.5 475.52 21.5 473.52 12.5 468.52 3.5 440.52 1.5 440.52 4.5 442.52 4.5 442.52 14.5 439.52 15.5 435.52 16.5 427.52 0.5 416.52 0.5 429.52 28.5 416.52 50.5 377.52 50.5 377.52 45.5 375.52 40.5 372.52 39.5 371.52 39.5"/><polyline class="cls-2" points="472.52 34.5 477.52 30.5 479.52 28.5 481.52 24.5 481.52 20.5 478.52 19.5"/><polygon class="cls-2" points="479.52 22.5 477.52 22.5 476.52 24.5 476.52 25.5 476.52 27.5 477.52 27.5 479.52 25.5 479.52 22.5"/><polyline class="cls-2" points="476.52 25 478.52 25 479.77 23.75"/><line class="cls-2" x1="478.58" y1="26.44" x2="478.58" y2="24.5"/><polyline class="cls-1" points="445.52 2.5 450.52 7.5 453.52 13.5 455.52 17.5 456.52 23.5"/><line class="cls-1" x1="448.52" y1="6.5" x2="448.52" y2="18.5"/><line class="cls-1" x1="452.52" y1="12.5" x2="452.52" y2="20.5"/><polyline class="cls-1" points="457.52 44.5 455.52 44.5 449.52 40.5 436.52 32.5 434.52 28.5 434.52 25.5 435.52 22.5 438.52 18.5 441.52 17.5 446.52 17.5"/><polyline class="cls-1" points="435.52 16.5 432.52 20.5 431.52 22.5 431.52 26.5 432.52 28.5 436.52 32.5"/><line class="cls-1" x1="431.52" y1="26.5" x2="429.52" y2="28.5"/><polyline class="cls-1" points="434.83 30.81 419.52 55.5 417.52 53.5 416.52 50.5"/><line class="cls-1" x1="442.19" y1="35.99" x2="429.52" y2="57.5"/><polyline class="cls-1" points="444.08 37.15 431.52 57.5 457.52 57.5"/><line class="cls-1" x1="449.52" y1="40.5" x2="451.64" y2="57.5"/><polyline class="cls-1" points="474.12 15.21 471.52 12.5 469.52 11.5 463.52 11.5 461.52 12.5 459.52 15.5 458.52 19.5 457.52 24.5 446.52 17.5 446.01 17.12 442.52 14.5"/><line class="cls-1" x1="457.52" y1="57.5" x2="457.41" y2="24.5"/><line class="cls-1" x1="475.52" y1="58.5" x2="475.57" y2="34.74"/><polyline class="cls-1" points="419.52 55.5 419.52 57.5 431.52 57.5"/><polyline class="cls-1" points="371.52 57.81 404.45 57.59 418.52 57.5"/><polyline class="cls-1" points="404.52 57.5 404.52 55.5 406.52 53.5 407.52 52.5 409.52 52.5 411.52 54.5 412.52 55.5 412.52 57.5"/><polyline class="cls-1" points="457.52 76.5 450.02 76.5 371.52 76.5"/><polyline class="cls-1" points="449.52 126.88 451.52 130.5 454.52 159.5 439.52 180.5 434.52 140.5 431.52 134.5 431.52 76.5"/><polyline class="cls-1" points="431.82 135.1 433.52 134.5 433.52 130.5 435.52 128.5 439.52 129.5 444.52 129.5 447.52 127.5 449.52 127.5 449.52 76.5"/><line class="cls-1" x1="457.52" y1="72.5" x2="457.52" y2="89.5"/><line class="cls-1" x1="454.52" y1="76.5" x2="457.52" y2="89.5"/><polyline class="cls-1" points="457.52 95 457.52 129.5 455.52 157.5"/><line class="cls-1" x1="452.26" y1="137.65" x2="456.17" y2="148.41"/><line class="cls-1" x1="475.33" y1="108.85" x2="475.52" y2="125.5"/><polyline class="cls-1" points="475.33 131.7 475.52 145.5 474.52 150.5 471.52 164.5 466.52 173.5 451.52 196.5 445.52 190.5 433.52 190.5 439.52 180.5"/><polyline class="cls-1" points="473.52 128.92 470.52 128.5 463.52 128.5 459.52 128.5 457.52 130.5"/><polyline class="cls-2" points="469.52 154.5 472.52 154.5 470.52 158.5 460.52 153.5 462.52 150.5 464.52 150.5 463.52 153.5"/><polyline class="cls-2" points="460.52 153.5 454.52 165.5 455.52 167.5 459.52 170.5 462.52 170.5 469.52 159.5"/><line class="cls-2" x1="459.52" y1="169.5" x2="467.18" y2="156.83"/><line class="cls-2" x1="456.52" y1="167.5" x2="463.52" y2="154.5"/><polyline class="cls-1" points="433.52 190.5 421.52 191.5 419.52 192.5 419.52 194.5 419.52 206.5 419.52 208.5 420.52 210.5 420.52 212.5 421.52 213.5 423.52 214.5 424.52 211.5 424.52 210.5 424.52 198.5 425.52 196.5 442.52 196.5 443.52 198.5 438.52 201.5 438.52 203.5 438.52 206.5 439.52 210.5 440.52 213.5 441.52 214.5 443.52 213.5 443.52 209.5 443.52 207.5 445.52 205.5 448.52 202.5 449.52 202.5 450.52 200.5 450.97 195.96"/><polyline class="cls-2" points="424.52 198.5 421.02 195 419.52 195"/><polyline class="cls-2" points="425.52 196.5 422.52 193.5 421.52 191.5"/><polyline class="cls-2" points="422.52 193.5 421.52 193.5 420.68 195"/><line class="cls-2" x1="443.52" y1="207.5" x2="438.52" y2="202.5"/><line class="cls-2" x1="444.52" y1="205.5" x2="439.52" y2="200.9"/><line class="cls-2" x1="449.52" y1="202.5" x2="444.52" y2="198.5"/><polyline class="cls-2" points="450.56 200.03 446.52 196.13 446.52 191.63"/><line class="cls-2" x1="444.52" y1="198.5" x2="443.52" y2="198.5"/><line class="cls-2" x1="446.52" y1="196.5" x2="443.27" y2="198.02"/><polyline class="cls-1" points="457.43 187.44 457.52 205.5 457.52 207.5 456.52 208.5 456.52 210.5 476.52 228.5 510.52 228.5 511.52 233.5 514.52 240.5 514.52 244.5 514.52 246.5 512.52 248.5 509.52 250.5 478.52 258.5 475.52 258.5"/><line class="cls-1" x1="475.52" y1="234.5" x2="511.52" y2="234.5"/><circle class="cls-2" cx="507.02" cy="243" r="3.5"/><polyline class="cls-2" points="457.52 205.5 466.52 205.5 470.52 206.5 472.52 207.5 473.52 210.5 473.52 218.5 470.17 230.95 466.52 244.5 462.52 244.5"/><polyline class="cls-2" points="460.52 222.5 463.52 223.5 466.52 225.5 469.52 228.5 470.32 230.38"/><line class="cls-1" x1="460.52" y1="235.5" x2="460.52" y2="213.68"/><polyline class="cls-1" points="462.52 244.5 462.52 240.5 462.52 239.5 460.52 236.5 460.52 235.5"/><polyline class="cls-2" points="456.52 210.81 450.52 210.5 450.52 207.5 447.52 204.5"/><polyline class="cls-2" points="456.52 210.5 456.52 213.04 456.52 213.5 450.52 213.5 450.52 210.5"/><polyline class="cls-2" points="460.52 236.25 457.52 234.5 457.52 213.5 456.52 213.5"/><polyline class="cls-2" points="449.52 232.5 453.52 232.5 456.52 233.5 457.52 234.5"/><polyline class="cls-2" points="462.52 244.5 461.52 247.5 459.52 249.5 456.52 251.5 452.52 251.5 449.52 251.5 447.52 250.5"/><polyline class="cls-1" points="462.52 244.5 462.52 249.5 459.52 249.5"/><polyline class="cls-2" points="460.52 249.5 458.52 252.5 456.52 253.5 451.52 253.5 449.52 252.5 447.75 250.62"/><polyline class="cls-1" points="441.52 214.5 441.52 218.5 440.52 219.5 440.52 222.5 442.52 222.5 444.52 224.04 447.52 227.5 449.52 230.5 450.52 229.5 450.52 213.5"/><polyline class="cls-2" points="466.52 244.5 466.52 264.5 468.52 265.5 474.52 265.5 475.52 264.5 475.32 146.5"/><line class="cls-2" x1="465.52" y1="244.5" x2="465.52" y2="265.5"/><line class="cls-2" x1="462.52" y1="249.5" x2="462.52" y2="266.5"/><polyline class="cls-2" points="461.52 249.5 461.52 266.5 461.52 268.5 459.52 271.5 456.52 273.5 455.52 274.5 452.52 274.5 450.52 273.5 447.52 271.5"/><polyline class="cls-1" points="459.52 276.42 456.52 277.5 451.52 277.5 448.52 275.5 446.52 273.5 444.52 270.5 443.52 268.5 443.52 265.5"/><polyline class="cls-1" points="458.52 284.5 455.52 285.5 451.52 285.5 447.52 283.5 444.52 279.5 443.52 277.5 443.52 268.5"/><polyline class="cls-1" points="459.52 268.5 454.52 272.5 448.52 268.5 448.52 262.5 453.52 259.5 459.52 262.5 459.52 268.5"/><line class="cls-2" x1="440.52" y1="266.5" x2="442.52" y2="266.5"/><polyline class="cls-1" points="419.52 208.5 401.52 205.5 371.52 205.5"/><line class="cls-1" x1="391.52" y1="205.5" x2="391.52" y2="210.5"/><line class="cls-1" x1="420.52" y1="210.5" x2="372.52" y2="210.5"/><line class="cls-1" x1="421.52" y1="213.5" x2="372.52" y2="213.5"/><line class="cls-1" x1="423.52" y1="220.5" x2="372.52" y2="220.5"/><line class="cls-1" x1="424.52" y1="224.04" x2="371.52" y2="224.04"/><polyline class="cls-1" points="424.52 208.5 426.52 201.5 429.52 197.5 430.52 196.5"/><polygon class="cls-1" points="419.52 232.5 417.52 229.5 414.52 227.5 409.52 227.5 406.52 228.5 403.52 232.5 403.52 238.5 404.52 241.5 407.52 243.5 409.52 245.5 414.52 245.5 417.52 242.5 419.52 239.5 419.52 232.5"/><polyline class="cls-2" points="415.52 243.5 415.52 238.5 413.52 236.5 410.52 236.5 408.52 238.5 408.52 243.5"/><polyline class="cls-1" points="399.52 237.5 399.52 271.5 399.52 272.5 399.52 273.5 396.52 275.5 395.52 276.5 385.52 276.5"/><line class="cls-1" x1="394.52" y1="238.5" x2="394.52" y2="276.5"/><line class="cls-1" x1="372.52" y1="245.5" x2="394.52" y2="245.5"/><polyline class="cls-2" points="389.52 252.5 388.52 253.5 387.52 254.5 371.52 254.5"/><polyline class="cls-2" points="394.52 259.19 383.52 259.19 382.52 260.5 371.52 260.5"/><line class="cls-2" x1="383.98" y1="259.19" x2="383.98" y2="275.5"/><line class="cls-2" x1="385.67" y1="276.5" x2="383.98" y2="275.28"/><polyline class="cls-2" points="394.52 263.88 383.99 263.88 378.36 263.88"/><polyline class="cls-2" points="394.52 268.06 383.99 268.06 378.36 268.06"/><polyline class="cls-2" points="378.36 260.5 378.36 261.53 378.36 271.5 383.52 271.5 383.99 271.5"/><line class="cls-2" x1="383.98" y1="261.5" x2="378.52" y2="261.5"/><polyline class="cls-2" points="378.36 264.42 372.52 264.42 371.52 264.42"/><line class="cls-2" x1="378.52" y1="266.5" x2="371.52" y2="266.5"/><polyline class="cls-1" points="383.99 275.06 380.52 273.5 376.52 273.5 371.52 273.5"/><polyline class="cls-1" points="383.52 281.5 383.52 288.5 384.52 290.5 388.52 290.5 390.52 288.5 390.52 281.5 389.52 278.5 387.52 276.5"/><polyline class="cls-1" points="383.52 281.5 376.52 279.5 371.52 279.5"/><line class="cls-1" x1="390.52" y1="259.5" x2="390.52" y2="276.5"/><polyline class="cls-1" points="448.52 297.5 457.52 297.5 457.52 332.5"/><path class="cls-1" d="M471.52,298.5l-2-1-1,1-1-1-2,1-3-1v17s-3,18-4,18,3,3,3,3l12,7,2,4-2,21,2.62,2.5,13.38-26.5"/><polyline class="cls-1" points="457.52 297.5 459.52 297.5 462.52 297.5"/><line class="cls-1" x1="466.52" y1="298.5" x2="466.52" y2="305"/><path class="cls-1" d="M471.52,341.5a10.07,10.07,0,0,1-1,3l-2-1h-1l-1-5"/><polyline class="cls-1" points="467.52 343.5 464.52 342.5 462.52 343.5 462.52 336.5"/><polyline class="cls-1" points="462.52 343.5 460.52 343.5 459.52 343.5 459.52 334.5"/><polyline class="cls-1" points="458.52 343.5 457.52 344.5 457.52 331.81"/><polyline class="cls-1" points="457.52 344.5 445.52 344.5 435.52 344.5 435.52 342.5"/><polyline class="cls-1" points="443.52 266 443.52 250.5 446.52 250.5"/><polyline class="cls-2" points="473.52 359.5 472.52 357.5 470.52 361.5"/><polyline class="cls-2" points="473.52 362.5 471.52 362.5 461.52 356.5"/><polyline class="cls-2" points="472.52 357.5 471.52 355.5 469.52 353.5 466.52 353.5 462.52 351.5 459.52 350.5 457.52 348.5 457.52 344.5"/><polyline class="cls-1" points="482.52 382.5 482.52 385.5 480.52 387.5 477.52 389.5 474.52 389.5 470.52 386.5 470.52 375.5"/><path class="cls-1" d="M445.52,347.5a10.07,10.07,0,0,0,3-1h4l3,1L460,352l1.5,4.5v2l-1,3-7,15-3,4"/><polyline class="cls-1" points="446.52 349.5 448.52 348.5 453.52 348.5 457.52 352.5 458.52 355.5 458.52 358.5 457.52 360.5 449.52 375.5"/><polyline class="cls-1" points="461.52 371.5 461.52 375.5 454.52 387.5 449.52 395.5"/><polyline class="cls-1" points="458.52 383.5 452.52 397.5 449.52 398.5"/><polyline class="cls-1" points="458.52 369.5 451.52 384.5 449.52 384.5"/><polyline class="cls-2" points="491.52 398.5 491.52 401.5 475.52 402.5 475.52 398.5 491.52 398.5 488.49 396.55"/><line class="cls-2" x1="475.52" y1="395.5" x2="485.52" y2="395.5"/><line class="cls-2" x1="475.52" y1="397.5" x2="489.97" y2="397.5"/><polyline class="cls-1" points="475.52 390.5 475.52 403.5 470.52 408.5 464.52 408.5 461.52 408.5 458.52 405.5 457.52 402.5 457.52 386.5"/><polyline class="cls-2" points="474.52 390.5 472.52 392.5 468.52 393.5 463.52 393.5 460.52 391.5 457.52 388.5"/><polyline class="cls-1" points="371.52 393.5 431.52 393.5 431.52 399.5 432.52 403.5"/><line class="cls-1" x1="433.52" y1="387.5" x2="371.52" y2="387.5"/><line class="cls-2" x1="383.52" y1="320.5" x2="371.52" y2="320.5"/><polyline class="cls-2" points="377.52 311.5 377.52 323.5 376.52 325.5 375.52 326.5 371.52 326.5"/><path class="cls-1" d="M432.52,403.5a11.35,11.35,0,0,0,5,4c1.18.48,4.68,1.89,8,0a8.75,8.75,0,0,0,4-6"/><polyline class="cls-1" points="448.52 362.5 449.52 375.5 449.52 380.5"/><polyline class="cls-1" points="431.52 393.5 436.52 393.5 436.52 391.5 433.52 387.5"/><path class="cls-1" d="M433.33,387.5h3.19v-3a11.4,11.4,0,0,0,4,1c1.18.08,4.5.3,7-2a7.93,7.93,0,0,0,2-3v21"/><path class="cls-1" d="M436.52,384.5a17.73,17.73,0,0,1-5-7v-12"/><polyline class="cls-1" points="386.27 369 387.52 370.5 395.52 370.5 395.52 368.5 431.52 368.5"/><polyline class="cls-2" points="395.52 368.5 395.52 365.5 386.52 352.5 383.52 352.5 382.52 351.5 381.52 351.5 380.52 352.5 359.52 352.5"/><line class="cls-2" x1="380.31" y1="366.51" x2="380.31" y2="352.5"/><polyline class="cls-2" points="384.52 352.5 384.52 366.5 387.52 369.5"/><line class="cls-2" x1="378.52" y1="345.5" x2="378.52" y2="352.5"/><line class="cls-2" x1="378.01" y1="342.67" x2="378.01" y2="345.66"/><line class="cls-2" x1="378.14" y1="345.66" x2="380.69" y2="345.33"/><line class="cls-1" x1="369.18" y1="279.5" x2="371.52" y2="279.5"/><polyline class="cls-1" points="427.52 229.5 434.52 230.5 449.52 230.5"/><line class="cls-2" x1="448.37" y1="228.78" x2="428.52" y2="228.78"/><polyline class="cls-2" points="447.08 227 429.52 226.5 446.52 205.5 446.52 213.5"/><polyline class="cls-2" points="443.52 213.5 446.52 213.04 450.52 214.5"/><path class="cls-1" d="M433.52,196.5c-.85,2.68-1.5,5.05-2,7-.36,1.37-1.13,4.66-2,9a34,34,0,0,0-1,7,23.77,23.77,0,0,0,1,7l-10,13-7.15,11.27-3.85,8.73-3,8-4,8-2,8-2,7-2,4"/><line class="cls-1" x1="368.52" y1="294.5" x2="395.52" y2="294.5"/><polyline class="cls-1" points="369.18 311.5 392.52 311.5 395.7 294.13"/><circle class="cls-1" cx="444.52" cy="241.5" r="8"/><path class="cls-1" d="M448.52,234.5c-4.42,0-8,3.13-8,7s3.58,7,8,7"/><path class="cls-1" d="M448.49,248.55a6.61,6.61,0,0,1,.21-12.21,8.48,8.48,0,0,1,1-.39"/><path class="cls-2" d="M448.52,233.5l2,1,2,1,1,1,1,2v5l-1,2-1,2-2,2-3,1a8.24,8.24,0,0,0,5-1,8.07,8.07,0,0,0,3-3,9.92,9.92,0,0,0,1-4,9.73,9.73,0,0,0,0-3,9.52,9.52,0,0,0-2-4,14.93,14.93,0,0,0-3-3"/><polyline class="cls-2" points="388.94 356.01 402.52 356.01 402.52 350.5"/><polyline class="cls-2" points="403.52 350.5 403.52 356.5 408.52 356.5 408.52 368.5"/><polyline class="cls-2" points="389.81 357.26 405.52 357.26 405.52 368.5"/><polyline class="cls-2" points="411.52 368.5 411.52 360 411.52 356.5 408.52 356.5"/><polyline class="cls-2" points="412.52 359.5 412.52 360.38 412.52 368.5 412.52 359.5 428.52 356.5 428.52 359.5 429.52 361.5 430.52 364.5 431.52 365.5 432.52 367.5 434.52 368.5 436.52 369.5 440.52 369.5 443.52 367.5 445.52 365.5 446.52 363.5 446.52 359.5 446.52 356.5 446.52 352.5 445.81 351.8 444.52 350.5 442.52 347.5 440.52 345.5 438.93 344.5 435.52 344.5 433.52 345.5 431.52 347.5 429.52 349.5 429.52 351.5 428.52 353.5 428.52 356.5"/><polyline class="cls-2" points="412.52 360.5 414.52 360.5 419.52 368.5"/><line class="cls-2" x1="424.46" y1="357.26" x2="422.81" y2="368.5"/><line class="cls-2" x1="388.19" y1="354.92" x2="413.52" y2="344.5"/><line class="cls-2" x1="389.22" y1="356.01" x2="413.11" y2="344.67"/><line class="cls-2" x1="403.52" y1="356.25" x2="419.52" y2="343.5"/><line class="cls-2" x1="405.77" y1="356.5" x2="419.52" y2="343.5"/><polyline class="cls-1" points="383.52 352.5 383.52 351.5 390.52 351.5 392.52 350.5 392.52 349.5 394.52 349.5 394.52 346.5 397.52 346.5 398.52 345.5 399.52 345.5 399.52 346.5 402.52 346.5 402.52 345.5 411.52 343.5 413.52 343.5 413.52 342.5 419.52 342.5 420.52 342.5 420.52 340.5 422.52 340.5 422.52 339.5 423.52 339.5 423.52 338.5 425.52 338.5 425.52 336.5 423.52 336.5 423.52 300.5 418.52 297.5 417.52 296.5 413.52 296.5 413.52 295.5 411.52 295.5 401.52 292.5 400.85 292.17 397.52 290.5"/><polyline class="cls-1" points="357.52 335.56 382.52 332.5 382.52 351.5"/><polyline class="cls-2" points="419.52 325.5 419.52 327.5 418.52 327.5 414.52 329.5 413.52 329.5 408.52 330.5 394.52 330.5 392.52 332.5 385.7 332.5 382.52 332.5"/><line class="cls-2" x1="385.45" y1="351.5" x2="385.45" y2="332.5"/><line class="cls-2" x1="390.58" y1="332.5" x2="390.58" y2="351.34"/><line class="cls-2" x1="392.52" y1="332.5" x2="392.52" y2="349.5"/><line class="cls-2" x1="394.83" y1="330.5" x2="394.83" y2="346.5"/><line class="cls-1" x1="398.52" y1="330.5" x2="398.52" y2="345.49"/><line class="cls-2" x1="411.52" y1="329.9" x2="411.52" y2="343.5"/><polyline class="cls-2" points="414.08 329.5 414.08 342.5 419.52 342.5 419.52 297.5 421.14 298.75 423.52 300.79"/><line class="cls-2" x1="421.14" y1="340.5" x2="421.14" y2="298.5"/><polyline class="cls-2" points="409.05 294.76 408.52 291.5 406.52 290.5 404.52 289.5 402.52 290.5 401.52 292.5"/><polyline class="cls-2" points="357.52 333.5 408.52 327.5 415.52 327.5 416.52 325.5 406.52 325.5 402.52 326.5 393.52 327.5 391.52 328.5 385.52 328.5 357.52 331.67"/><polyline class="cls-2" points="357.52 329 382.52 325.5 390.52 325.5 393.52 324.5 414.52 324.5"/><line class="cls-2" x1="413.67" y1="325.5" x2="413.52" y2="296.5"/><line class="cls-2" x1="411.52" y1="324.5" x2="411.52" y2="295.5"/><polyline class="cls-2" points="377.52 314.5 383.52 314.5 385.52 315.5 392.52 315.5 395.52 316.5 399.52 316.5 401.52 316.5 414.52 316.5 418.52 315.5 419.52 313.5 415.52 311.5 407.52 310.5 403.52 309.5 399.83 309.5 392.88 309.5"/><polyline class="cls-2" points="392.52 311.5 402.52 312.5 410.52 313.5 416.9 315.9"/><line class="cls-2" x1="385.52" y1="312.5" x2="385.45" y2="325.5"/><line class="cls-2" x1="382.52" y1="314.5" x2="382.52" y2="325.5"/><line class="cls-2" x1="390.52" y1="315.5" x2="390.52" y2="325.5"/><polyline class="cls-2" points="392.52 315.5 392.52 324.5 394.52 324.5"/><line class="cls-2" x1="395" y1="316.33" x2="395" y2="324.5"/><polyline class="cls-2" points="398.33 316.5 398.33 324.5 394.83 309.5 394.83 307.53 394.83 307.27 394.83 302.5 398.52 302.5 398.52 307.08 398.52 309.5 398.52 307.5"/><polyline class="cls-2" points="395 297.96 409.52 302.5 414.52 303.5 418.52 305.5 417.52 306.5 406.52 306.5 402.52 305.5 402.52 303.5 394.52 300.5"/><line class="cls-1" x1="411.52" y1="266.5" x2="405.09" y2="289.79"/><polyline class="cls-1" points="411.52 266.5 423.52 266.5 417.83 296.81"/><line class="cls-1" x1="402.89" y1="272.75" x2="402.89" y2="290.31"/><polyline class="cls-1" points="408.52 259.5 413.52 259.5 413.52 264.5"/><polyline class="cls-2" points="412.3 266.5 412.3 264.5 440.52 264.5 442.52 264.5"/><line class="cls-1" x1="423.52" y1="266.5" x2="425.52" y2="264.5"/><line class="cls-1" x1="423.52" y1="303.5" x2="425.52" y2="304.5"/><polyline class="cls-1" points="425.52 304.5 425.52 306.5 424.52 307.5 423.52 308.5"/><polyline class="cls-1" points="425.37 304.43 428.52 299.5 434.52 299.5 435.52 299.5 435.52 342.5 429.52 342.5 425.52 338.5"/><polyline class="cls-1" points="435.52 300.75 435.52 297.5 448.52 297.5"/><line class="cls-1" x1="428.93" y1="299.5" x2="428.93" y2="341.5"/><polyline class="cls-1" points="436.17 264.5 438.52 266.5 440.52 266.5"/><polyline class="cls-1" points="435.67 297.5 433.52 297.5 438.52 266.5"/><line class="cls-1" x1="452.64" y1="285.5" x2="454.02" y2="297.5"/><line class="cls-1" x1="456.52" y1="285.5" x2="456.68" y2="297.5"/><polyline class="cls-2" points="411.74 252.5 440.52 252.5 440.67 252.5 442.52 252.5"/><polyline class="cls-2" points="412.52 250.5 442.33 250.5 442.52 264.5 442.52 266.5"/><line class="cls-2" x1="415.81" y1="245.35" x2="437.52" y2="245.5"/><line class="cls-2" x1="421.52" y1="236.5" x2="438.52" y2="236.5"/><polyline class="cls-2" points="444.52 250.5 444.52 266.5 445.52 269.5 447.52 271.5"/><polygon class="cls-2" points="434.52 346.5 439.52 346.5 441.52 348.5 442.52 350.5 444.52 352.5 444.52 355.5 444.52 361.5 443.52 364.5 441.52 366.5 439.52 367.5 436.52 367.5 433.52 365.5 432.52 363.5 430.52 360.5 430.52 353.5 430.52 350.5 432.52 348.5 434.52 346.5"/><polyline class="cls-1" points="446.08 352.06 448.52 350.5 451.52 350.5 452.52 351.5 453.52 352.5 455.52 356.5 455.52 358.5 454.52 360.5 452.52 362.5 448.52 362.5 446.52 362.5"/><polyline class="cls-1" points="342.35 393.5 342.35 397.5 404.52 397.5 404.52 393.5"/><polyline class="cls-1" points="303.52 408.5 347.31 408.5 441.52 408.5"/><polyline class="cls-1" points="347.52 408.5 347.52 410.5 392.52 410.5 392.52 408.5"/><line class="cls-1" x1="369.41" y1="387.5" x2="371.95" y2="387.5"/><line class="cls-1" x1="369.25" y1="393.5" x2="371.95" y2="393.5"/><polyline class="cls-1" points="475.52 306.5 466.52 304.5 462.52 307.5"/><line class="cls-2" x1="460.49" y1="325.5" x2="618.52" y2="407.5"/><polyline class="cls-2" points="459.85 328.49 607.52 405.5 613.72 407.61"/><line class="cls-2" x1="624.52" y1="369.5" x2="609.53" y2="402.84"/><polyline class="cls-2" points="626.52 371.5 611.27 403.74 596.44 433.19"/><polyline class="cls-2" points="628.52 371.5 612.92 404.6 597.99 434"/><polyline class="cls-2" points="630.52 372.5 615.52 405.5 600.04 435.08"/><polyline class="cls-2" points="590.15 355.13 575.9 385.39 561.25 414.66"/><polyline class="cls-2" points="592.52 356.5 577.96 386.45 563.2 415.5"/><polyline class="cls-2" points="593.52 357.5 579.52 386.5 564.76 416.5"/><polyline class="cls-2" points="594.52 357.5 581.1 388.08 566.05 417.18"/><polyline class="cls-2" points="553.52 339.75 540.52 367.02 526.04 396.11"/><polyline class="cls-2" points="554.92 340.34 542.39 368 527.52 397.5"/><polyline class="cls-2" points="556.95 341.19 543.52 368.5 528.95 397.5"/><polyline class="cls-2" points="559.02 342.06 546.4 370.08 532.18 399.35"/><polyline class="cls-1" points="521.31 326.23 507.88 355.08 495.27 380.14"/><line class="cls-2" x1="609.52" y1="402.5" x2="594.94" y2="432.4"/><line class="cls-3" x1="489.33" y1="343.87" x2="502.03" y2="318.13"/></g></g></svg>