<?xml version="1.0" encoding="utf-8"?>
<!-- Generator: Adobe Illustrator 22.1.0, SVG Export Plug-In . SVG Version: 6.00 Build 0)  -->
<svg version="1.1" id="Capa_1" xmlns="http://www.w3.org/2000/svg" xmlns:xlink="http://www.w3.org/1999/xlink" x="0px" y="0px"
	 viewBox="0 0 20 20" style="enable-background:new 0 0 20 20;" xml:space="preserve">
<style type="text/css">
	.st0{fill:#333333;}
	.st1{fill:#FFFFFF;}
</style>
<circle class="st0" cx="10" cy="10" r="10"/>
<g>
	<g>
		<path class="st1" d="M5.2,7.6c0.2,0.1,0.6,0.5,1.4,1c0.8,0.6,1.3,1,1.8,1.3c0,0,0.1,0.1,0.3,0.2c0.1,0.1,0.3,0.2,0.4,0.3
			c0.1,0.1,0.2,0.1,0.3,0.2c0.1,0.1,0.3,0.1,0.4,0.2c0.1,0,0.2,0.1,0.3,0.1h0h0c0.1,0,0.2,0,0.3-0.1c0.1,0,0.2-0.1,0.4-0.2
			c0.1-0.1,0.3-0.2,0.3-0.2c0.1-0.1,0.2-0.2,0.4-0.3c0.1-0.1,0.2-0.2,0.3-0.2c0.4-0.3,1.5-1.1,3.1-2.3c0.3-0.2,0.6-0.5,0.8-0.9
			C15.9,6.4,16,6,16,5.7c0-0.3-0.1-0.6-0.3-0.8c-0.2-0.2-0.5-0.3-0.8-0.3H5.1c-0.3,0-0.6,0.1-0.8,0.4C4.1,5.1,4,5.4,4,5.8
			c0,0.3,0.1,0.6,0.4,1C4.6,7.1,4.9,7.4,5.2,7.6z"/>
		<path class="st1" d="M15.3,8.4c-1.5,1.1-2.6,1.9-3.3,2.5c-0.3,0.2-0.5,0.4-0.6,0.5c-0.2,0.1-0.4,0.2-0.6,0.3
			c-0.3,0.1-0.5,0.2-0.7,0.2h0h0c-0.2,0-0.5-0.1-0.7-0.2c-0.3-0.1-0.5-0.2-0.6-0.3C8.5,11.2,8.3,11,8,10.8c-0.6-0.5-1.7-1.3-3.3-2.5
			C4.4,8.2,4.2,8,4,7.7v5.6c0,0.3,0.1,0.6,0.3,0.8c0.2,0.2,0.5,0.3,0.8,0.3h9.9c0.3,0,0.5-0.1,0.8-0.3c0.2-0.2,0.3-0.5,0.3-0.8V7.7
			C15.8,8,15.6,8.2,15.3,8.4z"/>
	</g>
</g>
</svg>
