<svg class="header__menu-icon menu-icon"  xmlns="http://www.w3.org/2000/svg"
	 viewBox="0 0 24 24" style="enable-background:new 0 0 24 24;">
<style type="text/css">
	.menu-icon__line{fill:#ffffff;}
  
</style>
<path class="menu-icon__line menu-icon__line-1" d="M24,3c0-0.6-0.4-1-1-1H1C0.4,2,0,2.4,0,3v2c0,0.6,0.4,1,1,1h22c0.6,0,1-0.4,1-1V3z"/>
<path class="menu-icon__line menu-icon__line-2" d="M24,11c0-0.6-0.4-1-1-1H1c-0.6,0-1,0.4-1,1v2c0,0.6,0.4,1,1,1h22c0.6,0,1-0.4,1-1V11z"/>
<path class="menu-icon__line menu-icon__line-3" d="M24,19c0-0.6-0.4-1-1-1H1c-0.6,0-1,0.4-1,1v2c0,0.6,0.4,1,1,1h22c0.6,0,1-0.4,1-1V19z"/>
<path class="menu-icon__line menu-icon__line-4" class="st0" d="M20.3,2.3c-0.4-0.4-1-0.4-1.5,0L2.4,18.8c-0.4,0.4-0.5,1,0,1.5l1.4,1.4c0.4,0.4,1,0.4,1.5,0L21.7,5.2
	c0.4-0.4,0.5-1,0-1.5L20.3,2.3z"/>
<path  class="menu-icon__line menu-icon__line-5" d="M3.7,2.3c0.4-0.4,1-0.4,1.5,0l16.5,16.5c0.4,0.4,0.5,1,0,1.5l-1.4,1.4c-0.4,0.4-1,0.4-1.5,0L2.4,5.2
	c-0.4-0.4-0.5-1,0-1.5L3.7,2.3z"/>
</svg>

