<svg xmlns="http://www.w3.org/2000/svg" viewBox="0 0 112.21 96.3"><defs><style>.cls-1{fill:none;stroke:#fff;stroke-miterlimit:10;stroke-width:0.75px;}</style></defs><title>protection-category-icon</title><g id="Слой_2" data-name="Слой 2"><g id="Слой_1-2" data-name="Слой 1"><polygon class="cls-1" points="74.98 43.22 89.56 30.63 92.4 27.97 102.15 16.55 88.56 5.63 84.98 1.63 82.73 2.47 79.81 13.8 81.15 18.22 81.98 18.55 79.31 22.42 77.81 20.55 67.4 30.38 63.15 31.22 63.69 33.8 63.15 34.36 61.75 31.42 59 32.05 58.25 30.55 49.31 31.74 50.25 38.42 49.31 39.49 46.63 36.86 47.63 32.8 36.63 23.67 32.94 22.8 32.94 21.3 31 19.42 14.94 32.86 20.38 42.05 27.19 48.36 29.88 49.42 32.56 49.42 43.44 39.99 46.06 42.8 33.88 52.74 34.56 54.55 31.94 57.42 30.25 56.61 26.13 60.05 27.38 61.74 24.25 61.74 7.81 73.34 7.81 74.76 5.4 73.84 5.98 76.76 18.02 86.42 18.52 86.88 39.15 72.09 45.35 69.13 52.73 68.26 68.65 55.8 72.65 52.8 74.98 43.22"/><polygon class="cls-1" points="60.65 45.13 56.23 48.67 56.23 49.59 57.4 49.8 62.02 46.13 61.77 45.13 60.65 45.13"/><polygon class="cls-1" points="58.15 41.13 53.73 44.67 53.73 45.59 54.9 45.8 59.52 42.13 59.27 41.13 58.15 41.13"/><polygon class="cls-1" points="52.15 52.63 47.73 56.17 47.73 57.09 48.9 57.3 53.52 53.63 53.27 52.63 52.15 52.63"/><polygon class="cls-1" points="41.16 54.97 36.74 58.51 36.74 59.42 37.91 59.63 42.53 55.97 42.28 54.97 41.16 54.97"/><polygon class="cls-1" points="43.65 59.24 39.24 62.78 39.24 63.7 40.4 63.91 45.03 60.24 44.78 59.24 43.65 59.24"/><polygon class="cls-1" points="48.17 61.57 43.76 65.11 43.76 66.03 44.92 66.24 49.55 62.57 49.3 61.57 48.17 61.57"/><polygon class="cls-1" points="56.74 54.16 52.32 57.7 52.32 58.62 53.49 58.82 58.12 55.16 57.87 54.16 56.74 54.16"/><polygon class="cls-1" points="65.58 46.99 62.61 49.63 62.61 50.31 63.39 50.47 66.5 47.73 66.33 46.99 65.58 46.99"/><polygon class="cls-1" points="24.79 66.97 20.37 70.52 20.37 71.43 21.54 71.64 26.16 67.97 25.91 66.97 24.79 66.97"/><polygon class="cls-1" points="28.95 68.46 24.54 72 24.54 72.92 25.7 73.13 30.33 69.46 30.08 68.46 28.95 68.46"/><polygon class="cls-1" points="31.01 71.64 26.6 75.18 26.6 76.1 27.76 76.31 32.39 72.64 32.14 71.64 31.01 71.64"/><circle class="cls-1" cx="47.25" cy="51.49" r="1.69"/><polygon class="cls-1" points="76.02 30.55 76.81 29.97 78.1 29.97 80.4 31.88 79.94 32.97 78.81 33.59 77.65 33.22 75.35 31.34 76.02 30.55"/><polygon class="cls-1" points="84.81 24.6 80.4 28.14 80.4 29.06 81.56 29.27 86.19 25.6 85.94 24.6 84.81 24.6"/><polygon class="cls-1" points="87.61 26.47 84.25 29.23 84.25 29.95 85.14 30.11 88.66 27.25 88.47 26.47 87.61 26.47"/><polygon class="cls-1" points="82.57 22.78 79.21 25.54 79.21 26.26 80.09 26.42 83.62 23.56 83.43 22.78 82.57 22.78"/><polygon class="cls-1" points="10.75 53.67 13.25 49.8 21.31 56.86 20.37 61.57 9 64.99 0.38 58.24 0.38 54.97 1.19 54.67 2.06 56.49 3.5 54.97 9.75 53.17 10.75 53.67"/><path class="cls-1" d="M6.63,57.39s4.12,3.72,4.21,3.72,2-.37,2-.37v-.82L9.25,56.49H7.13Z"/><line class="cls-1" x1="10.75" y1="53.67" x2="20.37" y2="61.57"/><polyline class="cls-1" points="9 64.99 6.63 59.63 2.06 56.49"/><polygon class="cls-1" points="45.56 95.92 45.91 95.58 47.73 93.8 50.63 88.3 50.06 81.11 41.88 74.55 40.44 74.86 39.63 80.17 37.5 85.86 35.75 84.55 32.69 84.17 35.44 89.17 44.25 95.92 45.56 95.92"/><line class="cls-1" x1="50.63" y1="88.3" x2="39.69" y2="79.82"/><polygon class="cls-1" points="42.27 85.59 47.23 89.42 46.65 90.34 45.56 90.55 41.1 87.34 40.85 86.01 42.27 85.59"/><polyline class="cls-1" points="37.5 85.86 43.31 91.09 44.04 95.76"/><polygon class="cls-1" points="65.56 4.34 67.31 0.55 76.56 6.51 76.56 12.01 74.6 15.55 63.9 24.6 57.19 7.72 59.27 6.67 62.56 3.01 63.94 2.97 65.56 4.34"/><line class="cls-1" x1="76.56" y1="12.01" x2="65.56" y2="4.34"/><polyline class="cls-1" points="74.72 15.34 63.31 7.51 60.79 4.98"/><polygon class="cls-1" points="61.31 11.09 62.44 14.13 64.56 12.61 61.31 10.16 61.31 11.09"/><polygon class="cls-1" points="101.56 30.11 100.73 23.63 108.48 31.13 109.23 37.55 111.81 40.38 111.23 44.26 108.73 46.99 89.15 42.05 100.48 32.72 101.56 30.11"/><line class="cls-1" x1="109.23" y1="37.55" x2="101.56" y2="30.11"/><polyline class="cls-1" points="94.06 38.99 97.06 40.61 102.5 35.86 106.44 39.05 108.5 38.67 109.23 40.36 108.75 42.3 110.75 44.26"/><polyline class="cls-1" points="103.06 40.67 105.06 43.47 100.81 42.36 101.31 40.67 103.38 40.67"/><polyline class="cls-1" points="28.97 62.17 32.69 59.39 39.06 64.61 39.06 66.24 35.28 68.95 28.97 64.17 28.97 62.02"/><polygon class="cls-1" points="71.31 60.42 75.63 56.11 86 64.99 87.81 69.8 86.19 73.13 73.19 83.17 69.44 82.74 60.75 75.8 58.12 70.8 71.31 60.42"/><polyline class="cls-1" points="73.44 63.91 73.57 63.75 77.88 58.82"/><polyline class="cls-1" points="73.19 83.17 71.38 79.24 85.94 68.17 86.19 73.13"/><line class="cls-1" x1="69.88" y1="74.55" x2="68.83" y2="82.26"/><polyline class="cls-1" points="61.25 76.31 66.5 70.24 71 73.13 77.88 67.36 71.81 63.36 66 67.61 61.25 73.97"/><polygon class="cls-1" points="27.96 29.27 24.74 31.82 24.74 32.48 25.59 32.63 28.97 29.99 28.79 29.27 27.96 29.27"/><polygon class="cls-1" points="22.96 33.27 19.74 35.82 19.74 36.48 20.59 36.63 23.97 33.99 23.79 33.27 22.96 33.27"/><polygon class="cls-1" points="25.46 34.77 22.24 37.32 22.24 37.98 23.09 38.13 26.47 35.49 26.29 34.77 25.46 34.77"/><ellipse class="cls-1" cx="21.15" cy="79.48" rx="1.67" ry="1.34"/><ellipse class="cls-1" cx="12.73" cy="76.59" rx="0.9" ry="2.23" transform="translate(-52.31 34.19) rotate(-47.47)"/><ellipse class="cls-1" cx="18.23" cy="81.59" rx="0.9" ry="2.23" transform="translate(-54.21 39.87) rotate(-47.47)"/></g></g></svg>