<?xml version="1.0" encoding="utf-8"?>
<!-- Generator: Adobe Illustrator 22.1.0, SVG Export Plug-In . SVG Version: 6.00 Build 0)  -->
<svg version="1.1" id="Слой_1" xmlns="http://www.w3.org/2000/svg" xmlns:xlink="http://www.w3.org/1999/xlink" x="0px" y="0px"
	 viewBox="0 0 196.6 52.9" style="enable-background:new 0 0 196.6 52.9;" xml:space="preserve">
<style type="text/css">
	.st0{fill:#FFFFFF;stroke:#FFFFFF;stroke-width:4.5;stroke-miterlimit:10;}
	.st1{fill:#FFFFFF;}
	.st2{fill:#CC3932;}
	.st3{fill:#E6CBF4;}
	.st4{fill:#D9B2EF;}
	.st5{font-family:'Calibri';}
	.st6{font-size:8px;}
</style>
<title>quadroparts logo</title>
<circle class="st0" cx="26.6" cy="26.5" r="15.6"/>
<polygon class="st1" points="28.9,0 24,0 20.5,12.9 32.4,12.9 "/>
<polygon class="st1" points="43.2,5.9 46.7,9.4 40,21 31.7,12.6 "/>
<polygon class="st1" points="53.1,23.8 53.1,28.7 40.3,32.2 40.3,20.3 "/>
<polygon class="st1" points="9.9,5.5 6.4,9 13.1,20.5 21.5,12.1 "/>
<polygon class="st1" points="0,23.3 0,28.3 12.9,31.7 12.9,19.9 "/>
<polygon class="st1" points="28.8,52.9 23.8,52.9 20.4,40.1 32.2,40.1 "/>
<polygon class="st1" points="43.1,47 46.6,43.5 39.9,32 31.5,40.4 "/>
<polygon class="st1" points="9.8,47.5 6.3,44 13,32.4 21.3,40.8 "/>
<path class="st2" d="M59.5,15.2h2.4l-0.6,4.4l4.1-4.4h3l-5.6,5.9l4.5,7h-2.7L61,22.4l-0.8,5.7h-2.4L59.5,15.2z"/>
<path class="st2" d="M69.1,15.2h2.4l2.3,9.3l5-9.3h2.6l-6.9,12.9h-2.2L69.1,15.2z"/>
<path class="st2" d="M87.6,15.2h2l3.3,12.9h-2.3l-0.7-2.8h-5.1l-1.5,2.8h-2.6L87.6,15.2z M89.2,23.1l-1-4.3l-2.3,4.3
	C85.9,23.1,89.2,23.1,89.2,23.1z"/>
<path class="st2" d="M96.5,15.2h2c1.5-0.1,2.9,0.1,4.3,0.7c1,0.5,1.8,1.2,2.3,2.1c0.6,1,0.9,2.2,0.9,3.4c0,1.3-0.3,2.5-0.9,3.6
	c-0.5,1-1.4,1.8-2.4,2.4c-1.3,0.6-2.6,0.8-4,0.8h-4L96.5,15.2z M98.6,17.4l-1.1,8.4h0.8c0.9,0,1.8-0.1,2.7-0.3
	c0.8-0.3,1.4-0.8,1.9-1.5c0.5-0.8,0.7-1.7,0.7-2.6c0-0.7-0.1-1.5-0.5-2.1c-0.3-0.6-0.8-1-1.4-1.3c-0.7-0.3-1.6-0.5-2.4-0.5
	L98.6,17.4z"/>
<path class="st2" d="M109.3,15.2h2.3c1-0.1,2,0.1,2.9,0.4c0.6,0.3,1.2,0.7,1.6,1.2c0.4,0.6,0.6,1.2,0.5,1.9c0,0.8-0.3,1.7-0.8,2.3
	c-0.6,0.7-1.5,1.2-2.4,1.3l2.8,5.8h-2.5l-2.8-5.6h-0.2l-0.8,5.6h-2.4L109.3,15.2z M111,20.3c0.9,0.1,1.8-0.1,2.6-0.4
	c0.4-0.3,0.6-0.7,0.6-1.2c0-0.3-0.1-0.5-0.2-0.8c-0.2-0.2-0.4-0.4-0.7-0.4c-0.6-0.1-1.2-0.1-1.8-0.1L111,20.3z"/>
<path class="st2" d="M125.5,14.8c1.6,0,3.2,0.6,4.4,1.7s1.8,2.7,1.7,4.4c0,1.3-0.3,2.6-1,3.8c-0.6,1.1-1.6,2.1-2.7,2.7
	c-1.2,0.7-2.5,1-3.9,1c-1.6,0.1-3.2-0.5-4.4-1.6c-1.1-1.1-1.7-2.7-1.7-4.3c0-1.9,0.7-3.8,2-5.2C121.3,15.7,123.4,14.8,125.5,14.8z
	 M125.4,17.1c-0.9,0-1.8,0.2-2.5,0.7c-0.8,0.5-1.4,1.1-1.9,1.9s-0.7,1.7-0.7,2.6c0,1,0.3,2,1,2.7c0.7,0.8,1.7,1.2,2.8,1.1
	c1.4,0,2.7-0.5,3.6-1.5c1-1,1.5-2.3,1.5-3.7c0.1-1-0.3-2.1-1-2.8C127.4,17.5,126.4,17.1,125.4,17.1z"/>
<path class="st1" d="M135.7,15.2h2.3c1-0.1,2,0.1,2.9,0.4c0.6,0.3,1.2,0.7,1.6,1.2c0.4,0.6,0.6,1.2,0.5,1.9c0,0.8-0.2,1.5-0.6,2.1
	c-0.4,0.6-1,1.1-1.7,1.4c-1.2,0.4-2.4,0.5-3.6,0.5l-0.8,5.5H134L135.7,15.2z M137.4,20.4c0.9,0.1,1.8-0.1,2.6-0.4
	c0.4-0.3,0.6-0.7,0.6-1.2c0-0.3-0.1-0.5-0.2-0.8c-0.2-0.2-0.4-0.4-0.7-0.4c-0.6-0.1-1.2-0.1-1.8-0.1L137.4,20.4z"/>
<path class="st1" d="M150.2,15.2h2l3.2,12.9h-2.3l-0.7-2.8h-5.1l-1.5,2.8h-2.6L150.2,15.2z M151.8,23.1l-1-4.3l-2.3,4.3
	C148.5,23.1,151.8,23.1,151.8,23.1z"/>
<path class="st1" d="M159.2,15.2h2.3c1-0.1,2,0.1,2.9,0.4c0.6,0.2,1.2,0.7,1.6,1.2c0.4,0.6,0.6,1.2,0.5,1.9c0,0.8-0.3,1.7-0.8,2.3
	c-0.6,0.7-1.5,1.2-2.4,1.3l2.8,5.8h-2.5l-2.8-5.6h-0.2l-0.8,5.6h-2.4L159.2,15.2z M161,20.3c0.9,0.1,1.8-0.1,2.6-0.4
	c0.4-0.3,0.6-0.7,0.6-1.2c0-0.3-0.1-0.5-0.2-0.8c-0.2-0.2-0.4-0.4-0.7-0.4c-0.6-0.1-1.2-0.1-1.8-0.1L161,20.3z"/>
<path class="st1" d="M167.9,15.2h7.9l-0.3,2.3h-2.7l-1.4,10.6H169l1.4-10.6h-2.8L167.9,15.2z"/>
<path class="st1" d="M183.7,17l-1.8,1.6c-0.7-0.9-1.4-1.4-2-1.4c-0.3,0-0.6,0.1-0.8,0.3c-0.2,0.2-0.3,0.4-0.3,0.7
	c0,0.3,0.1,0.6,0.3,0.8c0.5,0.7,1.1,1.3,1.7,1.9c0.4,0.4,0.7,0.7,1,1.1s0.6,0.9,0.8,1.5c0.2,0.4,0.3,0.9,0.3,1.4
	c0,1-0.4,1.9-1.1,2.6c-0.8,0.7-1.8,1.1-2.8,1c-1.8,0-3.4-1-4.3-2.5l1.9-1.5c0.5,1,1.4,1.6,2.4,1.7c0.4,0,0.8-0.1,1.1-0.4
	s0.4-0.6,0.4-1c0-0.3-0.1-0.6-0.3-0.9c-0.4-0.6-0.9-1.2-1.5-1.8c-0.6-0.6-1.2-1.3-1.7-2c-0.3-0.6-0.5-1.2-0.5-1.9
	c0-1.8,1.5-3.3,3.3-3.3h0.1C181.4,14.9,182.8,15.7,183.7,17z"/>
<path d="M22.4,21.6H21c-0.5,0-0.9-0.4-0.9-0.9c0-0.1,0-0.2,0-0.2l0.3-1.3c0.1-0.4,0.4-0.6,0.8-0.6h2.3l-0.7,2.6
	C22.8,21.4,22.6,21.6,22.4,21.6z"/>
<path d="M22.6,18.6l-0.7,2.6c-0.1,0.2-0.3,0.4-0.5,0.4h1c0.3,0,0.5-0.2,0.5-0.4l0.7-2.6H22.6z"/>
<path d="M23.9,19.1h-1.3c-0.3,0-0.6-0.3-0.6-0.6s0.3-0.6,0.6-0.6l0,0h1.3c0.3,0,0.6,0.3,0.6,0.6S24.2,19.1,23.9,19.1z"/>
<path d="M23.9,17.9h-1c0.3,0,0.6,0.3,0.6,0.6s-0.3,0.6-0.6,0.6h1c0.3,0,0.6-0.3,0.6-0.6S24.2,17.9,23.9,17.9z"/>
<path d="M20.4,23.8h13.9c1.3,0,2.4,1.1,2.4,2.4v1.3c0,1.3-1.1,2.4-2.4,2.4H20.4c-1.3,0-2.4-1.1-2.4-2.4v-1.3
	C18,24.9,19.1,23.8,20.4,23.8z"/>
<path d="M34.3,23.8h-2.2c1.3,0,2.4,1.1,2.4,2.4v1.3c0,1.3-1.1,2.4-2.4,2.4h2.2c1.3,0,2.4-1.1,2.4-2.4v-1.3
	C36.7,24.8,35.6,23.8,34.3,23.8z"/>
<path d="M33.7,22.5c0-0.6-0.5-1.1-1.1-1.1l0,0l0,0c-0.2,0-0.4,0.1-0.6,0.2c-0.3,0.2-0.7,0.3-1.1,0.4h-2.6c-0.5,0-1-0.2-1.3-0.5l0,0
	c-0.4-0.4-0.9-0.6-1.4-0.6h-2.3c-1.1,0-2,0.9-2,2c0,0.2,0,2,0.1,2.1h1.7c0.4,0,0.8,0.4,0.8,0.8l0,0v1.5h5.6v-1.5
	c0-0.4,0.4-0.8,0.8-0.8l0,0h3.4L33.7,22.5z"/>
<path d="M23.4,31.2c0,1.9-1.6,3.5-3.5,3.5s-3.5-1.6-3.5-3.5c0-1.9,1.6-3.5,3.5-3.5l0,0C21.9,27.8,23.4,29.3,23.4,31.2z"/>
<path d="M37.2,31.2c0,1.9-1.6,3.5-3.5,3.5c-1.9,0-3.5-1.6-3.5-3.5s1.6-3.5,3.5-3.5C35.6,27.7,37.2,29.3,37.2,31.2L37.2,31.2z"/>
<path class="st3" d="M21.5,31.2c0,0.9-0.7,1.6-1.6,1.6s-1.6-0.7-1.6-1.6s0.7-1.6,1.6-1.6l0,0C20.8,29.7,21.5,30.4,21.5,31.2z"/>
<path class="st3" d="M35.3,31.2c0,0.9-0.7,1.6-1.6,1.6c-0.9,0-1.6-0.7-1.6-1.6s0.7-1.6,1.6-1.6S35.3,30.4,35.3,31.2L35.3,31.2z"/>
<path class="st4" d="M20.1,29.7c0.3,0.3,0.5,0.7,0.5,1.2c0,0.9-0.7,1.6-1.6,1.6l0,0h-0.2c0.3,0.3,0.6,0.4,1,0.4
	c0.9,0,1.6-0.7,1.6-1.5C21.5,30.5,20.9,29.8,20.1,29.7L20.1,29.7z"/>
<path class="st4" d="M33.9,29.7c0.3,0.3,0.5,0.7,0.5,1.2c0,0.9-0.7,1.6-1.6,1.6l0,0h-0.2c0.6,0.6,1.6,0.5,2.2-0.1
	c0.3-0.3,0.4-0.6,0.4-1C35.3,30.4,34.7,29.8,33.9,29.7z"/>
<path d="M21.3,28c1.3,1.4,1.2,3.6-0.2,4.9c-0.6,0.6-1.5,0.9-2.3,0.9c-0.5,0-0.9-0.1-1.4-0.3c1.3,1.4,3.5,1.5,4.9,0.2
	s1.5-3.5,0.2-4.9C22.2,28.5,21.8,28.2,21.3,28z"/>
<path d="M35.1,28c1.3,1.4,1.2,3.6-0.2,4.9c-1,0.9-2.4,1.2-3.7,0.6c1.3,1.4,3.5,1.5,4.9,0.2s1.5-3.5,0.2-4.9
	C35.9,28.5,35.5,28.2,35.1,28z"/>
<path d="M32.6,21.3L32.6,21.3c-0.2,0-0.4,0.1-0.6,0.2c-0.3,0.2-0.7,0.3-1.1,0.4h-2.6c-0.5,0-0.9-0.2-1.3-0.5l-0.4,0.8
	c-0.2,0.3,0,0.8,0.3,0.9l3.4,1.7h3.4v-2.4C33.7,21.8,33.2,21.3,32.6,21.3z"/>
<path d="M32.6,21.3L32.6,21.3c-0.2,0-0.3,0-0.5,0.1c0.4,0.2,0.6,0.6,0.6,1v2.4h1.1v-2.4C33.7,21.8,33.2,21.3,32.6,21.3L32.6,21.3z"
	/>
<path d="M37.9,23.4l-0.5-0.2c-0.5-0.2-1-0.3-1.5-0.3h-4.3c-1.5,0-2.9,1.1-3.1,2.6c0,0.1-0.1,0.1-0.1,0.1h-3c-0.1,0-0.1-0.1-0.1-0.1
	c-0.2-1.5-1.6-2.6-3.1-2.6H19c-1.7,0-3.2,1.4-3.2,3.1l0,0v0.3c0,0.2,0.2,0.4,0.4,0.4h1.4c0.2,0,0.4-0.1,0.4-0.3l0,0V26
	c0-0.6,0.4-1,1-1h3.2c0.5,0,0.9,0.4,1,0.9l0.1,1.8c0.1,1.2,1.1,2.1,2.3,2.1h2.6c1.2,0,2.2-0.9,2.3-2.1l0.1-1.8c0-0.5,0.5-0.9,1-0.9
	h4.3c0.2,0,0.4,0,0.6,0.1l0.5,0.2c0.2,0.1,0.4,0,0.5-0.2l0,0l0.5-1.2C38.2,23.7,38.1,23.5,37.9,23.4L37.9,23.4z"/>
<path d="M37.9,23.4l-0.5-0.2c-0.5-0.2-1-0.3-1.5-0.3h-4.3c-0.6,0-1.2,0.2-1.8,0.5h4.6c0.5,0,1,0.1,1.5,0.3l0.5,0.2
	c0.2,0.1,0.3,0.3,0.2,0.5l0,0L36.3,25l0.2,0.1l0.5,0.2c0.2,0.1,0.4,0,0.5-0.2l0,0l0.5-1.2C38.2,23.7,38.1,23.5,37.9,23.4z"/>
<path d="M20,29.3c-1,0-1.9,0.9-1.9,1.9c0,1,0.9,1.9,1.9,1.9s1.9-0.9,1.9-1.9S21.1,29.3,20,29.3L20,29.3z M20,32.5
	c-0.7,0-1.2-0.6-1.2-1.2c0-0.7,0.6-1.2,1.2-1.2c0.7,0,1.2,0.6,1.2,1.2l0,0C21.2,31.9,20.7,32.5,20,32.5z"/>
<path d="M20.4,31.2c0,0.2-0.2,0.4-0.4,0.4l0,0c-0.2,0-0.4-0.2-0.4-0.4c0-0.2,0.2-0.4,0.4-0.4l0,0C20.2,30.8,20.3,31,20.4,31.2
	L20.4,31.2z"/>
<path d="M34.1,31.2c0,0.2-0.2,0.4-0.4,0.4s-0.4-0.2-0.4-0.4s0.2-0.4,0.4-0.4l0,0C33.9,30.8,34.1,31,34.1,31.2L34.1,31.2z"/>
<path d="M35.6,31.2c0-1-0.8-1.9-1.9-1.9c-1,0-1.9,0.8-1.9,1.9c0,1,0.8,1.9,1.9,1.9l0,0C34.8,33.1,35.6,32.3,35.6,31.2z M32.5,31.2
	c0-0.7,0.6-1.2,1.2-1.2c0.7,0,1.2,0.6,1.2,1.2c0,0.7-0.6,1.2-1.2,1.2l0,0C33,32.5,32.5,31.9,32.5,31.2z"/>
<path d="M38,23.1l-0.5-0.2c-0.5-0.2-1.1-0.3-1.6-0.3H34v-0.1c0-0.1,0-0.1,0-0.2h4c0.2,0,0.4-0.1,0.4-0.3c0-0.2-0.1-0.4-0.3-0.4H38
	h-4.3C33.5,21.2,33,21,32.6,21l0,0c-0.3,0-0.5,0.1-0.8,0.2c-0.3,0.2-0.6,0.3-0.9,0.3h-2.6c-0.4,0-0.8-0.2-1.1-0.4l0,0
	c-0.4-0.4-1-0.7-1.6-0.7h-2.1l0.3-1H24c0.4,0,0.7-0.2,0.9-0.6h1.6c0.2,0,0.3-0.1,0.3-0.3s-0.1-0.3-0.3-0.3h-1.6
	c-0.1-0.4-0.5-0.6-0.9-0.6h-1.3c-0.4,0-0.8,0.3-0.9,0.7h-0.5c-0.5,0-1,0.4-1.1,0.9l-0.4,1.3c-0.1,0.3,0,0.7,0.2,1l0.1,0.1h-3
	c-0.2,0-0.3,0.2-0.3,0.4c0,0.1,0.1,0.3,0.3,0.3h4c0,0.1,0,0.2,0,0.3H19c-0.4,0-0.9,0.1-1.3,0.3c-0.2,0.1-0.3,0.2-0.2,0.4l0,0
	c0.1,0.2,0.3,0.3,0.4,0.2c0.3-0.1,0.7-0.2,1.1-0.2h3.2c1.4,0,2.5,1,2.8,2.4c0,0.2,0.2,0.4,0.5,0.4H27c0.2,0,0.3-0.2,0.3-0.4
	c0-0.1-0.1-0.3-0.3-0.3h-1.4c-0.3-1.6-1.8-2.8-3.4-2.8h-0.4c0.1-0.9,0.8-1.5,1.6-1.5h2.2c0.4,0,0.8,0.2,1.1,0.4L26.4,22
	c-0.1,0.2-0.1,0.5-0.1,0.8c0.1,0.3,0.3,0.5,0.5,0.6l1.7,0.9c-0.2,0.4-0.4,0.8-0.4,1.2c0,0.2,0.1,0.3,0.3,0.4c0.2,0,0.3-0.1,0.4-0.3
	l0,0c0.2-1.4,1.4-2.3,2.8-2.4h4.3c0.5,0,0.9,0.1,1.4,0.3l0.5,0.2c0,0,0,0,0,0.1L37.2,25l0,0l0,0l-0.5-0.2c-0.2-0.1-0.5-0.2-0.8-0.2
	h-4.3c-0.7,0-1.3,0.5-1.3,1.3l-0.1,1.8c-0.1,1-0.9,1.8-2,1.8h-2.7c-1,0-1.9-0.8-2-1.8l-0.1-1.8l0,0c-0.1-0.7-0.6-1.2-1.3-1.2H19
	c-0.7,0-1.4,0.5-1.4,1.3v0.1v0.3v0.1h-1.4c0,0,0,0,0-0.1V26c0-0.6,0.2-1.2,0.6-1.7c0.1-0.1,0.1-0.3,0-0.5l0,0
	c-0.1-0.1-0.4-0.1-0.5,0c-0.5,0.6-0.8,1.4-0.8,2.2v0.3c0,0.4,0.3,0.7,0.7,0.7h1.4v0.5c0,0.2,0,0.5,0.1,0.7c-1.7,1.2-2.1,3.6-0.8,5.3
	c1.2,1.7,3.6,2.1,5.3,0.8c1-0.7,1.6-1.9,1.5-3.1c0-0.3-0.1-0.7-0.1-1H30c-0.1,0.3-0.1,0.7-0.1,1c0,0.4,0.1,0.8,0.2,1.2
	c0.1,0.2,0.3,0.3,0.4,0.2c0.2-0.1,0.3-0.3,0.2-0.4l0,0c-0.1-0.3-0.2-0.7-0.2-1c0-1.7,1.4-3.1,3.1-3.1c1.7,0,3.1,1.4,3.1,3.1
	s-1.4,3.1-3.1,3.1l0,0c-0.8,0-1.6-0.3-2.2-0.9c-0.2-0.1-0.4-0.1-0.5,0.1c-0.1,0.1-0.1,0.3,0,0.4c1.5,1.5,3.9,1.5,5.4,0
	c1.4-1.4,1.5-3.6,0.2-5.1c0.2-0.4,0.3-0.9,0.3-1.4v-1.3c0-0.1,0-0.3,0-0.4c0.2,0.1,0.3,0.1,0.5,0s0.3-0.2,0.4-0.4l0.5-1.2
	C38.6,23.7,38.4,23.3,38,23.1L38,23.1z M22.6,18.2h1.3c0.1,0,0.3,0.1,0.3,0.3s-0.1,0.3-0.3,0.3h-1.3c-0.1,0-0.3-0.1-0.3-0.3
	S22.5,18.2,22.6,18.2z M21.5,21.2h-0.6c-0.2,0-0.3-0.1-0.4-0.2s-0.1-0.3-0.1-0.5l0.3-1.3c0.1-0.2,0.3-0.4,0.5-0.4h0.5
	c0.2,0.3,0.5,0.5,0.8,0.5H23l-0.3,1C22.2,20.5,21.8,20.8,21.5,21.2L21.5,21.2z M29.3,23.3c-0.1,0.1-0.2,0.2-0.4,0.4l-1.8-0.9
	c-0.2-0.1-0.2-0.3-0.2-0.5l0.2-0.5c0.3,0.2,0.7,0.3,1.1,0.3h2.6c0.5,0,0.9-0.1,1.3-0.4c0.1-0.1,0.2-0.1,0.4-0.1l0,0
	c0.4,0,0.8,0.4,0.8,0.8v0.1h-1.8C30.7,22.5,29.9,22.8,29.3,23.3L29.3,23.3z M20,34.4c-1.7,0-3.1-1.4-3.1-3.1c0-1.7,1.4-3.1,3.1-3.1
	s3.1,1.4,3.1,3.1l0,0C23.1,33,21.7,34.4,20,34.4L20,34.4z M23.4,29.5c-0.6-1.3-2-2.1-3.4-2.1c-0.6,0-1.1,0.1-1.6,0.4
	c0-0.1,0-0.2,0-0.3V26c0-0.4,0.3-0.7,0.7-0.7l0,0h3.2c0.3,0,0.6,0.3,0.7,0.6l0.1,1.8c0,0.7,0.4,1.3,0.9,1.8L23.4,29.5z M33.8,27.4
	c-1.4,0-2.8,0.8-3.4,2.1H30c0.5-0.5,0.8-1.1,0.9-1.8L31,26c0-0.4,0.3-0.6,0.7-0.6H36c0.1,0,0.2,0,0.3,0c0.1,0.2,0.2,0.5,0.2,0.8v1.3
	c0,0.3-0.1,0.6-0.2,0.9C35.5,27.8,34.6,27.4,33.8,27.4L33.8,27.4z"/>
<text transform="matrix(1 0 0 1 46.8333 37.8333)" class="st1 st5 st6">Знай квадроцикл как свои пять пальцев</text>
</svg>
