<svg xmlns="http://www.w3.org/2000/svg" viewBox="0 0 631.18 261.01"><defs><style>.cls-1,.cls-2{fill:none;}.cls-1,.cls-2,.cls-3{stroke:#fff;stroke-miterlimit:10;}.cls-2{stroke-width:0.5px;}.cls-3{font-size:12px;fill:#ff0;font-family:MyriadPro-Regular, Myriad Pro;}</style></defs><title>reduction icon_1</title><g id="Слой_2" data-name="Слой 2"><g id="Слой_1-2" data-name="Слой 1"><rect class="cls-1" x="14" y="125.51" width="21" height="9"/><polyline class="cls-1" points="35 123.51 35 124.73 35 124.88 35 126.26 35 128.63 35 137.51 40 137.51 41 136.51 41 123.51 40 122.51 35 122.51 35 125.51"/><line class="cls-1" x1="35" y1="126.51" x2="41" y2="126.51"/><line class="cls-1" x1="35" y1="133.67" x2="41" y2="133.67"/><polyline class="cls-1" points="18.5 125.51 18.5 122.51 20 120.51 26 120.51 27.5 122.01 27.5 125.51"/><line class="cls-1" x1="18.33" y1="134.51" x2="18.33" y2="145.51"/><polyline class="cls-1" points="27 134.51 27 145.51 23 145.51 23 148.51"/><path class="cls-1" d="M41,167.51a15.5,15.5,0,0,0-2-6c-.61-1-.84-1.11-3-4-2.54-3.41-2.29-3.37-3-4-1.14-1-1.56-.89-6-3-1.19-.57-2.47-1.18-4-2-2.1-1.13-3.79-2.2-5-3"/><line class="cls-2" x1="20" y1="134.51" x2="27" y2="141.51"/><line class="cls-2" x1="18" y1="137.51" x2="27" y2="145.51"/><line class="cls-2" x1="18" y1="141.51" x2="23" y2="145.51"/><polyline class="cls-1" points="18.5 146.01 18.5 148.01 0 148.01"/><path class="cls-1" d="M0,148.51c3.87,0,7,15.65,7,35H18V148"/><polyline class="cls-1" points="18 169.51 14 169.51 14 179.51 18 179.51"/><line class="cls-1" x1="18" y1="183.51" x2="18" y2="191.51"/><path class="cls-1" d="M18,191.51c0-1.11-2.24-2-5-2"/><path class="cls-1" d="M8,191.51c0-1.11,2.24-2,5-2"/><path class="cls-1" d="M18,191.51c3.87,0,7,4,7,9h2v-50"/><polyline class="cls-1" points="27 200.51 32 200.51 32 235.51 9 235.51"/><path class="cls-1" d="M9,235.51c0-24.32-.45-44-1-44"/><line class="cls-2" x1="22.53" y1="120.51" x2="27" y2="125.51"/><line class="cls-2" x1="19.2" y1="121.58" x2="23" y2="125.51"/><polyline class="cls-1" points="28.08 151.01 35 151.01 35 137.51 24.19 149.13"/><polyline class="cls-1" points="35 151.51 41 151.51 41 160.51 47 160.51"/><line class="cls-1" x1="35.59" y1="156.96" x2="41" y2="156.96"/><polyline class="cls-1" points="35 163.51 35 167.38 35 183.51"/><polyline class="cls-1" points="35 167.51 41 167.51 41 181.51 35 181.51"/><line class="cls-1" x1="35" y1="173.76" x2="41" y2="173.76"/><line class="cls-1" x1="35" y1="186.51" x2="35" y2="190.51"/><polygon class="cls-1" points="35 193.51 35 208.51 40 208.51 41 207.51 41 194.51 40 193.51 35 193.51"/><line class="cls-1" x1="35" y1="197.51" x2="41" y2="197.51"/><line class="cls-1" x1="35" y1="204.26" x2="41" y2="204.26"/><polyline class="cls-1" points="32 210.13 34 210.13 35 208.51"/><line class="cls-1" x1="41" y1="196.19" x2="49" y2="196.19"/><path class="cls-1" d="M46,168.51c0,5.52,3.13,10,7,10"/><path class="cls-1" d="M47,189.51c0-6.08,2.68-11,6-11"/><path class="cls-1" d="M47,189.51c0,3.87.89,7,2,7"/><path class="cls-1" d="M49,196.51c0,2.76,4.92,5,11,5l21-4"/><path class="cls-1" d="M100,179.51c0,10-8.5,18-19,18"/><path class="cls-1" d="M40,142.51c0,7.18,4,13,9,13"/><path class="cls-1" d="M40,142.51c0-5.53,4-10,9-10l22-3"/><path class="cls-1" d="M71,129.51c7.74,0,14,.44,14,1l2,2,3,2,2,3,1,2,1,1h2l6,37-2,2v.5"/><path class="cls-1" d="M99,176.51c0,8.29-9.84,15-22,15"/><path class="cls-1" d="M77,191.51c0-2.77-5.37-5-12-5"/><path class="cls-1" d="M55,194.51c0-4.42,4.47-8,10-8"/><path class="cls-1" d="M55,194.51c0,2.21,5.37,4,12,4"/><path class="cls-1" d="M77,191.51c0,3.87-4.92,7-11,7"/><path class="cls-1" d="M55,193.51c0,1.1,4.47,2,10,2"/><path class="cls-1" d="M76,189.51c0,3.31-4.92,6-11,6"/><ellipse class="cls-1" cx="61.5" cy="151.01" rx="10.5" ry="9.5"/><path class="cls-1" d="M50,161.51c0,4.42,5.81,8,13,8"/><path class="cls-1" d="M63,169.51c5,0,9-3.58,9-8v-11"/><path class="cls-1" d="M50,161.51v-6c-2.21,0-4,5.81-4,13"/><path class="cls-1" d="M48,147.51c0,4.42.89,8,2,8"/><path class="cls-1" d="M48,147.51c0-1.11,2.24-2,5-2"/><path class="cls-1" d="M53,178.51c0-5,4.47-9,10-9"/><path class="cls-1" d="M53,178.51c0-3.87,10.73-7,24-7"/><path class="cls-1" d="M73,171.51c0-1.11-4.47-2-10-2"/><path class="cls-1" d="M77,171.51c0-9.4-2.24-17-5-17"/><path class="cls-1" d="M77,171.51c5.53,0,10-2.69,10-6l-2-9c0-.56-4.92-1-11-1"/><path class="cls-1" d="M95,150.51c-5.53,0-10,2.68-10,6l-1-6"/><polyline class="cls-1" points="97.78 151.51 95 151.51 95 148.51 97.3 148.51"/><polyline class="cls-1" points="96.27 142.16 148 133.51 153.73 168.55"/><line class="cls-1" x1="102" y1="177.51" x2="154" y2="168.51"/><line class="cls-1" x1="148" y1="166.51" x2="148" y2="169.55"/><line class="cls-1" x1="148" y1="166.51" x2="153" y2="166.51"/><polyline class="cls-1" points="153.73 168.55 154 170.51 160 169.51 154 129.51 148 130.51 148 133.82"/><path class="cls-1" d="M153,131.51a4.17,4.17,0,0,0,3-1c.76-.73,1-1.73,2-2a1.66,1.66,0,0,1,1,0c.5.17.72.59,1,1a8.82,8.82,0,0,0,2,2c.87.69,1.42,1.13,2,1s.64-.48,1-1c1.54-2.22,2.46-1.78,4-4,.36-.52.55-.89,1-1s1.17.25,2,1c2.32,2.11,2.53,3.51,4,4a3.45,3.45,0,0,0,2,0l4,30"/><path class="cls-1" d="M182,161.51a2.21,2.21,0,0,0-1,0c-.89.22-1.38,1-2,2a14.34,14.34,0,0,0-1,2,10.67,10.67,0,0,1-1,2c-.41.6-.63.9-1,1-.61.15-1.21-.34-2-1-1.06-.9-1-1.18-2-2a4.83,4.83,0,0,0-2-1,1.67,1.67,0,0,0-1,0c-.4.15-.53.44-1,1s-.63.54-1,1c-.71.87-.41,1.25-1,2-.1.13-1,1.26-2,1-.52-.14-.61-.63-1-1-.54-.52-1.66-.82-4.12,0"/><polyline class="cls-1" points="177.82 131.55 182 130.51 186 161.51 181.91 161.19"/><polyline class="cls-1" points="182 130.51 185 127.51 190 162.51 186 161.51"/><path class="cls-1" d="M189,122.51c0,2.76-1.79,5-4,5"/><path class="cls-1" d="M189,122.51c0-7.74,8.95-14,20-14"/><path class="cls-1" d="M209,108.51c13.27,0,24-1.79,24-4h5"/><path class="cls-1" d="M240,111.51c0-3.87-.89-7-2-7"/><path class="cls-1" d="M240,111.51c0,2.76-2.68,5-6,5"/><path class="cls-1" d="M234,116.51c0,1-21,6-21,6"/><path class="cls-1" d="M213,122.51c-7.19,0-13,2.68-13,6l4,27"/><path class="cls-1" d="M204,155.51c0,2.21,3.58,4,8,4,0,0,30-2,29-2"/><path class="cls-1" d="M193,164.51c0-1.11-1.34-2-3-2"/><path class="cls-1" d="M193,164.51c0,5.52,8.95,10,20,10l18-4,11-1,5-1,1-7c0-2.21-3.13-4-7-4"/><polyline class="cls-1" points="253 157.51 248 157.51 246.51 159"/><line class="cls-1" x1="253" y1="161.51" x2="248" y2="161.51"/><path class="cls-1" d="M253,168.41c0,.1-6,0-6,0"/><ellipse class="cls-1" cx="226" cy="139.01" rx="11" ry="10.5"/><path class="cls-1" d="M211,137.51c0-8.29,5.37-15,12-15h29l1-1v-15h-6v13h6"/><path class="cls-1" d="M211,137.51c0,8.29,3.13,15,7,15"/><path class="cls-1" d="M220,153.51c0,1.1,4,2,9,2h23l1,2v15h-5l-2-4"/><line class="cls-1" x1="217.31" y1="152.51" x2="218" y2="158.51"/><line class="cls-1" x1="247" y1="113.51" x2="253" y2="113.51"/><path class="cls-1" d="M253,172.51c0,.55,1.34,1,3,1"/><path class="cls-1" d="M256,173.51c2.21,0,4-.45,4-1v-53h-7"/><polyline class="cls-1" points="253 106.51 254 104.51 260 104.51 261 105.51 274 105.51 274 172.51 260 172.51"/><polyline class="cls-1" points="260 119.51 274 119.51 280 119.51"/><line class="cls-1" x1="253" y1="108.32" x2="274" y2="108.32"/><line class="cls-1" x1="261" y1="105.51" x2="261" y2="108.32"/><line class="cls-2" x1="255.78" y1="104.51" x2="260" y2="108.51"/><path class="cls-2" d="M271.53,105.51c.47,0-2.59,2.81-2.59,2.81"/><line class="cls-2" x1="268" y1="105.51" x2="265.13" y2="108.32"/><line class="cls-2" x1="263.5" y1="105.51" x2="261" y2="108.13"/><path class="cls-1" d="M234,130.51a15.45,15.45,0,0,0,3-1c.33-.15.43-.21,2-1l2-1a12.9,12.9,0,0,1,4-1c.14,0,.08,0,2,0h7a22.31,22.31,0,0,1,3,0,11.67,11.67,0,0,1,3,.75c1.46.54,4.24.92,10,.25l4-1"/><line class="cls-2" x1="266.22" y1="119.51" x2="260" y2="125.51"/><line class="cls-2" x1="269.81" y1="119.51" x2="261.89" y2="127.7"/><line class="cls-2" x1="273.69" y1="119.51" x2="266" y2="127.51"/><line class="cls-2" x1="274" y1="123.51" x2="270" y2="127.51"/><line class="cls-2" x1="249.69" y1="122.51" x2="253.38" y2="126.46"/><line class="cls-2" x1="241" y1="122.51" x2="245.31" y2="126.5"/><line class="cls-2" x1="226.44" y1="122.51" x2="234.31" y2="130.51"/><line class="cls-2" x1="219.06" y1="123.6" x2="224" y2="128.51"/><line class="cls-2" x1="211.6" y1="132.81" x2="215.66" y2="135.42"/><line class="cls-2" x1="260" y1="160.26" x2="274" y2="160.26"/><line class="cls-2" x1="260" y1="164.76" x2="274" y2="164.76"/><line class="cls-2" x1="260" y1="168.94" x2="274" y2="168.94"/><line class="cls-2" x1="274" y1="109.84" x2="280" y2="109.84"/><line class="cls-1" x1="274" y1="158.25" x2="280" y2="158.25"/><polygon class="cls-1" points="280 100.51 280 100.72 280 178.51 281 179.51 285 179.51 285 98.51 281 98.51 280 100.51"/><polyline class="cls-1" points="262.31 172.51 262.31 179.51 263.16 180.35 280 180.51 280 178.26 280 187.51"/><line class="cls-1" x1="285" y1="101.59" x2="315" y2="101.59"/><path class="cls-1" d="M315,101.51c2.21,0,4-.9,4-2v-4h56"/><polyline class="cls-1" points="294.33 101.59 294.33 97.51 295 95.51 301.46 95.51 313 95.51 314 96.51 314 101.59"/><line class="cls-1" x1="301.79" y1="101.59" x2="301.79" y2="95.51"/><polyline class="cls-1" points="309 101.51 309 97.51 314 97.51"/><path class="cls-1" d="M315,100.51c0-4.42,3.13-8,7-8"/><polyline class="cls-1" points="285 176.63 295 176.63 299 176.63 301 178.51 301 188.51"/><polyline class="cls-1" points="295 176.51 295 205.51 296 207.51 301 207.51 302 205.51 302 199.51"/><line class="cls-1" x1="295" y1="203.51" x2="302" y2="203.51"/><line class="cls-1" x1="295" y1="205.17" x2="302" y2="205.17"/><circle class="cls-1" cx="310" cy="192.51" r="10"/><path class="cls-1" d="M321,92.51c0-.56,2.24-1,5-1"/><path class="cls-1" d="M336,88.51c0,1.66-4.47,3-10,3"/><path class="cls-1" d="M394.14,66.66a62.57,62.57,0,0,1,26.32,7.46c9.65,5.13,17.77,12.43,22.91,20.59"/><path class="cls-1" d="M335.92,88.44A64.67,64.67,0,0,1,352,74.83a65.72,65.72,0,0,1,16.9-7.2"/><path class="cls-1" d="M372,63.51c0-5,3.13-9,7-9"/><path class="cls-1" d="M389,61.51c0-3.87-4.47-7-10-7"/><path class="cls-1" d="M372,63.51c0,2.21-1.34,4-3,4"/><path class="cls-1" d="M389,61.51a5,5,0,0,0,5,5"/><path class="cls-1" d="M459,100.51c0-3.32-7.16-6-16-6"/><path class="cls-1" d="M459,100.51c0,4.42-.45,8-1,8"/><path class="cls-1" d="M454,116.51c0-4.42,1.79-8,4-8"/><path class="cls-1" d="M453.63,116.64a66.08,66.08,0,0,1,.37,42.69"/><path class="cls-1" d="M460,174.51c0-5-2.24-9-5-9"/><path class="cls-1" d="M454,159.51c0,3.31.45,6,1,6"/><path class="cls-1" d="M460,174.51c0,3.31-2.24,6-5,6l-4,4h-2l-12-21,1-2"/><polyline class="cls-1" points="295 191.47 280 191.47 280 190.51"/><polyline class="cls-1" points="295 196.51 280 196.51 280 195.51"/><polyline class="cls-1" points="363 100.51 327 100.51 326 101.51 326 108.51 330 109.51 339 113.51"/><line class="cls-1" x1="330" y1="109.51" x2="330" y2="165.51"/><line class="cls-1" x1="435" y1="169.51" x2="441" y2="179.51"/><line class="cls-1" x1="346" y1="117.51" x2="365" y2="117.51"/><line class="cls-1" x1="351" y1="122.51" x2="359" y2="122.51"/><line class="cls-1" x1="351" y1="155.51" x2="360" y2="155.51"/><line class="cls-1" x1="346" y1="160.51" x2="366" y2="160.51"/><path class="cls-1" d="M369.48,115.9a28,28,0,1,1-1.11,44.36"/><circle class="cls-1" cx="387" cy="138.51" r="20"/><path class="cls-1" d="M387,120.51a18,18,0,0,0,0,36"/><path class="cls-1" d="M386.5,153.51a14.5,14.5,0,0,1,0-29"/><path class="cls-1" d="M386.5,151a12,12,0,0,1,0-24"/><path class="cls-1" d="M386.5,149.51a10.5,10.5,0,0,1,0-21"/><line class="cls-1" x1="320" y1="102.51" x2="320" y2="105.51"/><polyline class="cls-1" points="323 110.51 323 168.51 325 172.51 322 172.51"/><polyline class="cls-1" points="325 166.51 325 168.51 327 171.51"/><polyline class="cls-1" points="368 174.51 322 174.51 320 176.51 309 176.51"/><path class="cls-1" d="M307,179.51c0-1.66.89-3,2-3"/><path class="cls-1" d="M307,179.51c0,1.66.89,3,2,3"/><line class="cls-1" x1="340" y1="170.51" x2="357" y2="170.51"/><line class="cls-1" x1="301.29" y1="206.92" x2="318" y2="218.51"/><line class="cls-1" x1="322" y1="217.51" x2="303" y2="204.51"/><polyline class="cls-1" points="318 179.51 365 211.51 364 214.51 362 214.51 317 182.51"/><line class="cls-1" x1="318" y1="179.51" x2="315.04" y2="183.87"/><line class="cls-1" x1="317" y1="182.51" x2="316.29" y2="182.03"/><polygon class="cls-1" points="304 196.51 304 188.51 310 185.51 316 189.51 316 196.51 310 200.51 304 196.51"/><path class="cls-1" d="M362,205.51c0,2.21,7.6,4,17,4"/><polyline class="cls-1" points="358.6 207.15 373 211.51 373 213.51"/><path class="cls-1" d="M423,138.51c0-4.42,4-8,9-8"/><path class="cls-1" d="M432,130.51c5.53,0,10,3.58,10,8v6"/><circle class="cls-1" cx="432" cy="139.51" r="6"/><path class="cls-1" d="M437,142.51a5,5,0,0,0-5-5"/><path class="cls-1" d="M426,141.51c0-2.21,2.68-4,6-4"/><polyline class="cls-1" points="411 186.51 401 210.51 412 188.51 415 188.51"/><line class="cls-1" x1="411" y1="186.51" x2="415" y2="186.51"/><polyline class="cls-1" points="419 199.51 418 182.51 415 182.51 416 198.51"/><path class="cls-1" d="M416,198.51c0,.55-1.79,1-4,1l-9,24v5l11-1,3-6"/><path class="cls-1" d="M417,221.51c2.21,0,4-1.34,4-3l-2-19c0,1.1-2.68,2-6,2l-9.91,21.75"/><line class="cls-1" x1="429" y1="192.51" x2="418.3" y2="187.57"/><line class="cls-1" x1="432" y1="199.51" x2="418.61" y2="192.82"/><path class="cls-1" d="M420,204.51c0-2.21,4.92-4,11-4"/><polyline class="cls-1" points="431.82 199.42 431 200.51 429 202.51 432 207.51"/><line class="cls-1" x1="431" y1="200.51" x2="436" y2="207.51"/><circle class="cls-1" cx="441" cy="192.51" r="10"/><polygon class="cls-1" points="435 196.51 435 188.51 441 185.51 447 189.51 447 196.51 441 200.51 435 196.51"/><line class="cls-1" x1="464" y1="202.51" x2="452" y2="184.51"/><polyline class="cls-1" points="464 196.51 454 182.51 463 178.51 464 193.51"/><path class="cls-1" d="M464,193.51c0,1.1,3.13,2,7,2"/><polyline class="cls-1" points="463 178.51 465 178.51 465 181.51 470 181.51 483 202.51 470 183.51 466 183.51 467 193.51 471 193.51 485 215.51 470.56 195.51"/><line class="cls-1" x1="465" y1="214.51" x2="463.97" y2="193.01"/><path class="cls-1" d="M465,214.51c0,1.1,2.68,2,6,2l3,5,10-1,1-5"/><path class="cls-1" d="M71,224.51a87,87,0,0,1-28,10H32"/><path class="cls-1" d="M8,235.51v25H46a104.88,104.88,0,0,0,61-34l31-26,9,33"/><line class="cls-1" x1="70.5" y1="224.79" x2="133.05" y2="172.13"/><path class="cls-1" d="M139,180.51a25.09,25.09,0,0,0-2,19"/><path class="cls-1" d="M139,180.51c1.22-1.06,6.83-5.74,11-4a17,17,0,0,1,4,3,42.46,42.46,0,0,1,4,4l26.67-22"/><line class="cls-1" x1="166" y1="207.51" x2="143" y2="219.51"/><line class="cls-1" x1="71" y1="224.51" x2="106" y2="226.51"/><polyline class="cls-1" points="202 228.51 211 205.51 216 205.51 216 200.51 219 200.51 220 217.51 217 219.51 213 219.51 203 241.51 203 246.51 214 245.51 217 240.51 220 239.51 222 237.51 220 217.51"/><polyline class="cls-1" points="202 228.51 212 207.51 216 207.51 216 216.51 212 216.51 208.57 229.25"/><polyline class="cls-1" points="284 222.51 275 199.51 270 199.51 270 194.51 267 194.51 266 211.51 269 213.51 273 213.51 283 235.51 283 240.51 272 239.51 269 234.51 266 233.51 264 231.51 266 211.51"/><polyline class="cls-1" points="284 222.51 274 201.51 270 201.51 270 210.51 274 210.51 277.43 223.25"/><path class="cls-1" d="M98.41,235.16l32.59.35,16-2a34.39,34.39,0,0,0,5,9c2.09,2.68,3.51,4.46,6,5a9.71,9.71,0,0,0,6-1,12.34,12.34,0,0,0,4-3,14.58,14.58,0,0,0,3-6,27.69,27.69,0,0,0,1-6c.17-4.79-4.89-23.36-14-48"/><line class="cls-1" x1="172" y1="231.51" x2="209" y2="228.31"/><line class="cls-1" x1="220.92" y1="226.75" x2="264.83" y2="223.25"/><polyline class="cls-1" points="277 222.31 283.4 221.25 401 210.51 408 209.51"/><line class="cls-1" x1="420" y1="209.01" x2="465" y2="204.51"/><polyline class="cls-1" points="46 260.51 136 260.51 481 229.51 497 225.51 520 215.51 615 128.51"/><polyline class="cls-1" points="477.34 203.46 484 202.51 495 199.51 506 194.51 597 111.51"/><circle class="cls-1" cx="611.5" cy="114.01" r="12.5"/><circle class="cls-1" cx="611.5" cy="114.01" r="10.5"/><circle class="cls-1" cx="611" cy="114.51" r="4"/><line class="cls-1" x1="614.69" y1="128.79" x2="614" y2="126.51"/><polyline class="cls-1" points="599 112.51 596.57 111.9 572 42.51"/><polyline class="cls-1" points="619.5 104.41 620 102.51 618.04 97.18 591 23.51 568 14.51 558 11.51 557.59 11.41 529 4.51 531 13.51 532 17.51 546 18.51 562 22.51 558 15.51 558 11.51"/><line class="cls-1" x1="618" y1="97.51" x2="631" y2="92.51"/><line class="cls-1" x1="614.87" y1="88.54" x2="631" y2="82.51"/><polyline class="cls-1" points="591.72 98.2 589 99.51 592 107.51 594.6 106.32"/><polyline class="cls-1" points="575 21.51 566 17.51 561 16.51 558 11.51"/><polyline class="cls-1" points="575 21.51 579 29.51 580 35.51 572.13 42.87 492 43.51"/><polyline class="cls-1" points="481 63.51 481 74.51 478 74.51 477 63.51 479.94 63.51 481.31 63.51 484 63.51 494 37.51 494 32.51 482 33.51 479 40.51 475 40.51 477 63.51"/><polyline class="cls-1" points="532 16.51 515 16.51 491 18.51 454 21.51 411 25.51 371 29.51 353 30.51 343 0.51 339.56 0.58 294 1.51 290 3.51 294 9.51 299 13.51 311 23.51 319 26.51 327 30.51 336 31.51 344 31.51 346 32.51 350 31.51 353 30.51"/><line class="cls-1" x1="340" y1="0.51" x2="350.86" y2="31.22"/><polyline class="cls-1" points="291.95 2.53 294.57 9.96 314 18.51 311.6 23.73"/><line class="cls-1" x1="330" y1="25.51" x2="327.57" y2="30.57"/><line class="cls-1" x1="330" y1="25.51" x2="344" y2="31.51"/><polyline class="cls-1" points="290 3.51 289 2.51 247 4.51 242 37.51"/><path class="cls-1" d="M269,3.51a24.52,24.52,0,0,1,0,14c-2.35,16.53-4.69,32.16-7,47a94.18,94.18,0,0,1-4,17,91.37,91.37,0,0,1-11,22l-8,10.76"/><path class="cls-1" d="M235,71.51a24.19,24.19,0,0,1,25,3"/><polyline class="cls-1" points="224 34.51 247 38.51 245 56.51 222 52.51 220 51.51 219 49.51 220 37.51 222 35.51 224 34.51"/><circle class="cls-1" cx="228" cy="44.51" r="5"/><path class="cls-1" d="M235,72.51a64.36,64.36,0,0,1-26,35"/><polyline class="cls-1" points="239 55.46 238 64.51 235.47 71.3 234.88 72.91"/><path class="cls-1" d="M336,56.51a84,84,0,0,1-36-11A84.36,84.36,0,0,1,269.46,15"/><polyline class="cls-1" points="352 75.51 347 75.51 334 52.51 334 47.51 344 47.51 348 52.51 353 52.51 354.82 73.25"/><line class="cls-1" x1="353" y1="56.51" x2="475.43" y2="45.44"/><polyline class="cls-1" points="7 151.51 1 112.51 16 112.51"/><text class="cls-3" transform="translate(4.5 109.17)">1</text><polyline class="cls-1" points="123 147.51 117 108.51 132 108.51"/><text class="cls-3" transform="translate(120.5 105.17)">2</text><text class="cls-3" transform="translate(181.5 28.17)">3</text><polyline class="cls-1" points="253 20.51 193 30.51 173 30.51"/><text class="cls-3" transform="translate(473 112.17)">4</text><polyline class="cls-1" points="448 132.51 469 114.51 483 114.51"/></g></g></svg>