<svg xmlns="http://www.w3.org/2000/svg" viewBox="0 0 791 467.5"><defs><style>.cls-1{fill:none;stroke:#fff;stroke-miterlimit:10;}</style></defs><title>skeleton ATV_1</title><g id="Слой_2" data-name="Слой 2"><g id="Слой_1-2" data-name="Слой 1"><path class="cls-1" d="M93.17,183.5l64-37.67-4.34-10-.91-5.08,29.75-18.33h4.58l6.92,11.46,1.37-.21,2.71-9.25-.25-7.67-13.31-8.54-1.75-4.91L182,80.83l1.13-3.56L184.94,70l1.31-5.56,1.94-4.25,2.56-3.88h5.81l1.5,1.88,1.5,3.12,2,.13,2.19.56h9.06l.63,2.69V67.9l2.44-.13V75.9L250.56,91h1.69l23-13.87,11.19-5.38,11.48-2.52,29.5,1.17,44.5,3.66,35.75,2.59,31.12,3.5V64l5.71-2.83,8-.75,7.5.08,13.58,3.75L488,67.58l12.5,2.92,15.08,2.67,7.17,1.75,8.08.75,1.92,1.58,20.92-9.92,25.83-12.5,44.67-21.5,31.66-15.25,21.25-10.5s3.75-1.16,3.42-1.16h2.25l41.33,5.5L723.5.5h11.58l1.84,4.42.5,9.58,20.5,2.08,19.33,2.25,7.92,1,5.33,6v5.84l-3.83,3.5-1.92,9.66-4.08,10.84-6.5,8.75L762.75,78.17,748.67,92.75l-13.92,13.92-63.58,67.16-10,9.67,3.91,2.29,4.42.38,3.29-3.63,3.5.25,4.63,5-2.34,4-5.91,6.13.25,3.83-1.46,2.21h-5.13l-7-5-1-4.09L654,193.25l-9.21,10,2.06,2.21-.06,5.5-2.81,3.69-3.06,2.68h-4.13l-2.5-2.81L608.5,240.46l-1,5-5,3.25-14.12,13L590,271.83l-2.37,22.25-10,27.75v2.71h3.66l5.29,2.5,1.5,2.88-.08,6.41L583.63,340H580l0,3.67-5,5h-6.87l-2.46,10.08,3.42,3,.08,7.92-3.75,7.16h-8l-5.17-3.66-9.33.16-82.75,19.25L340.5,405.33l-38.75,3.75-53.5,10,.08,3.75-3.5,1.67-.33,6.42-2.83,4.16-3.5-.66L226.75,423.5l-23.92,4.67-.66,10-8.84,2.66-5.66-3.66-19.34-1.67-3.5-.83-46,7.83-2.16,4-6.84,4.67-.5,6.33H104l-4.33-6.17L93.17,447,63.5,452.5l-.67,10.83L58.17,467h-5l-5-2.83-9-2.17-8.34,2.17L24,462l-4.83-6.67L.5,426.33V419l4.83-5.33,6.5-1,13.5-50.5L20,359.5l-7.33-19L11.33,334l3.5-4.83,13.84-1.5,6-.84,3.5-8.66-5.84-9.67.84-16.33L39,287.83,46.33,290s19-68,19-68.5.17-10.83.17-10.83l-5.33-10-.67-17.5,6.17.83,1.83-4.5Z"/><path class="cls-1" d="M99.67,199.67l4.33-4.34h5.17s12.5,10.34,11.66,10.67-8.5-1.33-8.5-1.33l-12.66-4"/><polygon class="cls-1" points="132.33 199 135.67 177 194.5 142.5 202.83 142.5 202.83 149.17 198.17 152.67 197.5 157.17 199 165.17 135.5 201.83 132.33 199"/><line class="cls-1" x1="120.83" y1="206" x2="124.33" y2="208.83"/><polygon class="cls-1" points="118.33 187.5 125.67 180.33 124.33 195.33 118.33 187.5"/><path class="cls-1" d="M171.5,139.67c-.67,0-3-1.67-3-1.67l-.92-8.33h3.92l8,2,1.17,3Z"/><polygon class="cls-1" points="218.33 151 216 153.17 215 158.33 225.17 153 225.17 151 218.33 151"/><line class="cls-1" x1="194.5" y1="142.5" x2="180.67" y2="134.67"/><polyline class="cls-1" points="193.17 123.88 207.67 133.17 210 135.67 236.67 134.67 241.67 139.67 243.5 151 248.83 153.5 249.5 157.33 235.5 165.83 243.17 177.5 244.33 183.67 239.67 188.83 233.67 188.83 216.67 176.33 169.67 201.83 165.33 223.5"/><polyline class="cls-1" points="186 86.33 205.17 96.33 205.17 105.67 211.5 110.33 222.33 112.83 227.83 116.5 233.83 122.5 236.67 134.67"/><polyline class="cls-1" points="242.43 144.4 297.83 111.67 270.13 99.17 295.33 86.33 331.33 94 299 111.83"/><polyline class="cls-1" points="250.33 158.33 260.33 151 264 154.67 271.33 168.83 279.33 169.83 282.33 165.17 280.5 140.67 344.33 105.67 416.67 107.83 452.67 108.83 452.67 120 462.67 174.17 465.33 185.83 465.33 199.33 465.33 202.5 469.83 204 469 210 469.83 213.5 472.67 216.33 472.67 222.5 466.5 227.83 461.17 236.33 461.17 244.17 465.33 250 470.67 252.5 464.67 274.83 456.67 276.83 453.17 283.17 456.17 290.33 458.5 291.67 456 300.83 449.33 300.83 445.17 304.33 445.17 309.17 402.75 317.33 369.75 326.83 344.75 340.83 342.75 327.08 337.5 325.08 332.75 326.58 329 333.33 327.25 348.08 322 348.08 312.75 344.33 307.25 338.08 301.75 327.08 297 322.33 285 324.08 277.25 318.33 273.38 312.71 270.75 302.83 267.63 300.96 258 302.21 248.63 303.46 236.75 292.33 226.13 280.33 181.5 237.33 165.51 222.63"/><path class="cls-1" d="M459.17,82.17V74.83l3-2.33s17.75,1.83,17.41,2.75-.5,1.33-.5,1.33l-8.41.75L464,79.92l-1.33,1.66Z"/><polyline class="cls-1" points="479.08 76.58 486.83 79 497.97 82.75 503.67 84.67 508.33 87.67"/><polyline class="cls-1" points="497.67 80.63 503.67 82.17 504.5 84.67"/><polygon class="cls-1" points="335.33 87.67 350.67 87.67 350.67 91.33 343 93.67 335.33 87.67"/><line class="cls-1" x1="461.5" y1="93.67" x2="350.67" y2="87.67"/><polyline class="cls-1" points="350.67 91.33 508.33 96.33 508.33 80.63 530.33 77.33 531.94 76.58"/><line class="cls-1" x1="441.3" y1="65" x2="508.33" y2="80.63"/><polyline class="cls-1" points="472.67 95.2 472.67 93 479.59 93 481.33 95.2"/><polygon class="cls-1" points="530.67 93.67 607.5 56.17 610.67 55.5 617.17 63 617.17 82.13 569.67 128 561 126.83 554.17 125.67 545.83 110.33 540 101.5 530.67 93.67"/><polygon class="cls-1" points="599.75 114.08 668.67 48.33 676.75 37.83 682.25 27.5 682.25 21.58 760.25 32.08 758.75 34.33 707.75 60.33 599.75 114.08"/><polyline class="cls-1" points="610.67 55.5 656.83 32.67 668.67 27.5 668.67 32.67 662.75 39.17 658.33 37.17 657.83 33.33"/><line class="cls-1" x1="617.17" y1="82.13" x2="662.75" y2="39.17"/><polyline class="cls-1" points="668.67 27.5 670.75 23.33 682.25 21.58"/><polygon class="cls-1" points="592.5 143.58 609 220.08 722 102.83 723.25 84.67 717 70.58 597.5 130.83 595.5 137.83 592.5 143.58"/><polyline class="cls-1" points="715.75 70.58 766 41.5 790.5 30.33"/><line class="cls-1" x1="760.25" y1="30.33" x2="783" y2="21.58"/><polyline class="cls-1" points="770.5 58.58 768.25 53.33 766 43.58 773.25 39.17 771.63 48.08 770.5 58.58 722 102.83"/><polyline class="cls-1" points="577.25 142.33 565.75 153.58 565.75 162.33 575 198.83 582.25 196.08 589.5 198.83 589.5 206.33 578.75 213.58 582.75 238.58 593.25 235.58 599.75 228.33 599.75 224.58 581.75 141.08 573.92 141.08 568 136.33 570.75 131.83 606.76 110.59"/><polygon class="cls-1" points="469.38 123.08 489.5 114.08 490.75 110.59 493.71 111.83 501.08 182.08 477 170.83 469.38 123.08"/><path class="cls-1" d="M499.5,111.83l8.83,73,11.92-10.24v-6.26l4.5-5.5,5.92,3.25,8.58-9.25v-2a30.63,30.63,0,0,0-3.25-1.25c-1-.25-2.5,4.5-2.5,4.5l-7,.25-5-7.5,1.75-2.5H528l7.25-7.25,5.5,5.26,3,2-11.81-24.75-18.69-11.75Z"/><polyline class="cls-1" points="548 164.58 520 189.08 557.5 198.83 549 165.83"/><line class="cls-1" x1="492" y1="181.71" x2="470.5" y2="202.83"/><polyline class="cls-1" points="559.25 326.33 575 286.33 576.25 273.08 570.75 237.33 565.75 215.58"/><polyline class="cls-1" points="509.75 204.58 512.75 212.83 509.75 217.33 503.75 215.58 499.5 212.08 493.25 217.33 492 223.5 493.5 232.58 502.38 236.33 505.25 240.58 502.38 244.58 493.25 247.08 474.5 290.33 472.67 303.08 478.5 304.58 488.25 320.33 516.5 334.76"/><polyline class="cls-1" points="516.5 356.58 516.5 351.83 476 329.33 453 328.08 427.5 326.33 379.25 339.83 325 369.08 322.75 379.58 332.25 381.83 340.25 387.83 380.75 387.83 380.75 377.58 380.75 364.83 386.5 359.58 394.25 360.83 397.5 371.83 406.25 381.33 460 374.08 511 363.33 515 359.08 535.75 353.83 527.5 349.58 518.63 342.08 515.5 337.08 518.63 329.83 524.5 328.83 527.75 332.58 532.75 332.33 534.75 336.08 543.75 346.33 552.75 338.83 559.25 326.33 555.75 322.08 553.75 318.08 557.5 302.33 556.25 291.58 549 285.58 545.5 280.83 545.25 273.58 549.25 267.08 557.5 260.08 562 252.58 561.25 241.33 560.5 230.08 563.5 226.88 562.25 220.08 553.75 220.08 546 224.33 531.94 232.58 523.5 233.75 517.5 233.75 513 228.83 514.75 220.08 528 211.58 528 207.83 499.5 198.83 492 204.58 478.25 216.83 473.75 216.83"/><polyline class="cls-1" points="474.25 323.83 467 313.33 470.5 304.08 472.67 303.08"/><polygon class="cls-1" points="305 360.83 293.5 352.08 293.5 345.83 300.25 348.08 305 354.58 305 360.83"/><line class="cls-1" x1="322.75" y1="379.58" x2="305" y2="360.83"/><line class="cls-1" x1="292.25" y1="350.33" x2="248.63" y2="303.46"/><polygon class="cls-1" points="286.5 368.08 244.75 326.9 241 328.08 194.5 293.33 190.75 283.08 192 276.58 143.5 228.33 141.25 233.75 132.33 233.75 125.67 226.88 118.33 236.58 113.25 243.83 76.75 333.83 76.75 344.33 75.25 350.33 72.5 354.83 86.5 356.08 93.75 357.33 99.67 360.83 99.67 366.08 94.75 384.33 86.5 384.33 78.25 381.08 60.5 382.83 54.75 392.08 49.75 406.08 58.5 410.58 62.75 405.83 70.25 398.08 70.75 392.33 73.25 390.58 81 407.83 157 394.83 157 379.58 164.25 376.83 171.75 382.58 180 386.08 186.5 387.83 188.5 391.33 190.5 390.33 191.5 387.83 195.75 384.33 196.25 372.58 201.25 371.58 209.75 385.83 276.75 376.58 285.25 373.58 286.5 368.08"/><polyline class="cls-1" points="110.27 233.83 112.75 226.88 106.5 217.33 107.75 214.08 132.33 214.08"/><polyline class="cls-1" points="83.25 231.83 83.59 230.48 84.5 226.88 93.5 241.33 54.25 345.83 52.25 348.08 49.75 343.58 81.25 233.75"/><line class="cls-1" x1="64.75" y1="181.83" x2="106.95" y2="216.16"/><polyline class="cls-1" points="39.75 433.33 239.25 398.58 242 394.33 210.5 387.83 209.75 385.83"/><polyline class="cls-1" points="38 433.33 47 435.83 296.5 392.08 313.88 390.83 286.5 368.08"/><line class="cls-1" x1="333.5" y1="389.08" x2="340.25" y2="387.83"/><circle class="cls-1" cx="557.92" cy="276.31" r="6"/><circle class="cls-1" cx="472.49" cy="238.58" r="6"/><circle class="cls-1" cx="521.23" cy="226.48" r="4.6"/><circle class="cls-1" cx="639.87" cy="47.34" r="2.07"/><circle class="cls-1" cx="625.87" cy="53.34" r="2.07"/><circle class="cls-1" cx="734.87" cy="79.34" r="2.07"/><circle class="cls-1" cx="746.87" cy="66.34" r="2.07"/><circle class="cls-1" cx="762.87" cy="54.34" r="2.07"/><circle class="cls-1" cx="336.9" cy="331.99" r="3.59"/><circle class="cls-1" cx="388.9" cy="366.99" r="3.59"/><circle class="cls-1" cx="521.9" cy="336.99" r="3.59"/><circle class="cls-1" cx="68.9" cy="373.99" r="3.59"/></g></g></svg>