<?xml version="1.0" encoding="utf-8"?>
<!-- Generator: Adobe Illustrator 22.1.0, SVG Export Plug-In . SVG Version: 6.00 Build 0)  -->
<svg version="1.1" id="Слой_1" xmlns="http://www.w3.org/2000/svg" xmlns:xlink="http://www.w3.org/1999/xlink" x="0px" y="0px"
	 viewBox="0 0 140.8 140.8" enable-background="new 0 0 140.8 140.8" xml:space="preserve">
<title>vent-system-icon</title>
<g id="Слой_2_1_">
	<g id="Слой_1-2">
		<line fill="none" stroke="#FFFFFF" stroke-width="0.75" stroke-miterlimit="10" x1="95.7" y1="20.7" x2="122.7" y2="21"/>
		<line fill="none" stroke="#FFFFFF" stroke-width="0.75" stroke-miterlimit="10" x1="19.3" y1="19.8" x2="44.5" y2="20.1"/>
		<path fill="none" stroke="#FFFFFF" stroke-width="0.75" stroke-miterlimit="10" d="M40.5,25.9c1.2-2.1,2.6-4,4-5.8"/>
		<path fill="none" stroke="#FFFFFF" stroke-width="0.75" stroke-miterlimit="10" d="M95.8,21c8.1,10.3,12.7,25.4,12.8,41.2
			c-0.1,30.7-17.4,55.5-38.8,55.5S31.1,92.9,31.1,62.2c0-13.5,3.4-26.4,9.5-36.4"/>
		<path fill="none" stroke="#FFFFFF" stroke-width="0.75" stroke-miterlimit="10" d="M44.5,20.1C59.5,1.8,81.1,2.2,95.8,21"/>
		<ellipse fill="none" stroke="#FFFFFF" stroke-width="0.75" stroke-miterlimit="10" cx="69.8" cy="62.4" rx="35.7" ry="50.9"/>
		<ellipse fill="none" stroke="#FFFFFF" stroke-width="0.75" stroke-miterlimit="10" cx="69.7" cy="61.8" rx="31.8" ry="44.4"/>
		<ellipse fill="none" stroke="#FFFFFF" stroke-width="0.75" stroke-miterlimit="10" cx="70.2" cy="60.7" rx="26.8" ry="38.8"/>
		<ellipse fill="none" stroke="#FFFFFF" stroke-width="0.75" stroke-miterlimit="10" cx="70.2" cy="60.7" rx="19.6" ry="29.2"/>
		<ellipse fill="none" stroke="#FFFFFF" stroke-width="0.75" stroke-miterlimit="10" cx="69.9" cy="57.9" rx="12.1" ry="17.2"/>
		<ellipse fill="none" stroke="#FFFFFF" stroke-width="0.75" stroke-miterlimit="10" cx="70.2" cy="57.9" rx="4.6" ry="7.4"/>
		<polyline fill="none" stroke="#FFFFFF" stroke-width="0.75" stroke-miterlimit="10" points="86,11.8 86,4.6 89.8,4.6 91.6,2.8 
			93.7,2.8 95.3,4.8 98.2,4.8 98.2,11.8 114.3,11.8 120.4,13.7 122.7,13.7 124.1,16.6 129.6,16.6 131,15.1 133.9,15.1 136.1,18.5 
			136.1,25.1 133.2,28.4 133.2,40 134.6,40 136.1,37.8 137.8,37.8 139.2,40.7 139.2,47.5 140.4,49.1 140.4,57.9 139.5,59.8 
			139.5,72 139.4,81.1 134.6,85 134.6,100.9 138.9,104.8 138.9,110 137.3,114.8 126,114.8 122.4,122.3 99.8,122.3 99.8,127.3 
			98.8,128.4 98.8,139.3 96.3,140.4 94.2,140.4 94.2,129.1 88.4,129.1 86.6,127.2 86.6,121.4 53.3,121.4 50.6,129.7 45.1,129.7 
			45.1,139.3 40.1,139.3 40.1,128.6 38.9,126.2 38.9,120.2 16.9,120.2 12.5,116.6 4.6,116.6 4.6,114.2 0.8,111.9 0.4,106.2 
			3.2,101.4 4.6,99.4 5,82.3 0.4,82.3 0.4,44.9 0.4,38.8 2.1,36.3 4.8,36.3 6.8,38.2 6.8,28.4 4.8,22.8 4.8,17 6.8,13.7 16.6,13.7 
			18.3,11.5 19.6,11.5 41.7,11.5 41.7,4.4 44.1,2.7 45.7,2.7 47.6,0.4 50.3,0.4 51.9,2.7 53.6,5.4 55.4,5.4 55.4,10.3 		"/>
		<line fill="none" stroke="#FFFFFF" stroke-width="0.75" stroke-miterlimit="10" x1="19.6" y1="11.5" x2="16" y2="119.5"/>
		<line fill="none" stroke="#FFFFFF" stroke-width="0.75" stroke-miterlimit="10" x1="122.7" y1="13.7" x2="124.5" y2="117.7"/>
		<line fill="none" stroke="#FFFFFF" stroke-width="0.75" stroke-miterlimit="10" x1="16.6" y1="13.7" x2="13.3" y2="117.2"/>
		<line fill="none" stroke="#FFFFFF" stroke-width="0.75" stroke-miterlimit="10" x1="124.1" y1="16.6" x2="126" y2="114.8"/>
		<line fill="none" stroke="#FFFFFF" stroke-width="0.75" stroke-miterlimit="10" x1="133.2" y1="40" x2="134.6" y2="85"/>
		<line fill="none" stroke="#FFFFFF" stroke-width="0.75" stroke-miterlimit="10" x1="6.8" y1="37.4" x2="5" y2="82.3"/>
		<line fill="none" stroke="#FFFFFF" stroke-width="0.75" stroke-miterlimit="10" x1="19.1" y1="25.1" x2="40.5" y2="25.1"/>
		<line fill="none" stroke="#FFFFFF" stroke-width="0.75" stroke-miterlimit="10" x1="98.6" y1="25.1" x2="122.7" y2="25.1"/>
		<line fill="none" stroke="#FFFFFF" stroke-width="0.75" stroke-miterlimit="10" x1="19.6" y1="30.8" x2="37.5" y2="30.8"/>
		<line fill="none" stroke="#FFFFFF" stroke-width="0.75" stroke-miterlimit="10" x1="102.4" y1="30.8" x2="123" y2="30.8"/>
		<line fill="none" stroke="#FFFFFF" stroke-width="0.75" stroke-miterlimit="10" x1="18.8" y1="36" x2="35.6" y2="36"/>
		<line fill="none" stroke="#FFFFFF" stroke-width="0.75" stroke-miterlimit="10" x1="103.9" y1="36" x2="122.7" y2="36"/>
		<line fill="none" stroke="#FFFFFF" stroke-width="0.75" stroke-miterlimit="10" x1="18.6" y1="42" x2="33.7" y2="42"/>
		<line fill="none" stroke="#FFFFFF" stroke-width="0.75" stroke-miterlimit="10" x1="105.8" y1="42" x2="123" y2="42"/>
		<line fill="none" stroke="#FFFFFF" stroke-width="0.75" stroke-miterlimit="10" x1="18.4" y1="47.3" x2="31.9" y2="47.3"/>
		<line fill="none" stroke="#FFFFFF" stroke-width="0.75" stroke-miterlimit="10" x1="107" y1="47.3" x2="123" y2="47.3"/>
		<line fill="none" stroke="#FFFFFF" stroke-width="0.75" stroke-miterlimit="10" x1="18.2" y1="54.4" x2="31.2" y2="54.4"/>
		<line fill="none" stroke="#FFFFFF" stroke-width="0.75" stroke-miterlimit="10" x1="108.5" y1="54.4" x2="123.4" y2="54.4"/>
		<line fill="none" stroke="#FFFFFF" stroke-width="0.75" stroke-miterlimit="10" x1="18" y1="61.3" x2="31.2" y2="61.3"/>
		<line fill="none" stroke="#FFFFFF" stroke-width="0.75" stroke-miterlimit="10" x1="109.2" y1="61.3" x2="123.6" y2="61.3"/>
		<line fill="none" stroke="#FFFFFF" stroke-width="0.75" stroke-miterlimit="10" x1="17.8" y1="68.5" x2="31.1" y2="68.5"/>
		<line fill="none" stroke="#FFFFFF" stroke-width="0.75" stroke-miterlimit="10" x1="108.5" y1="68.5" x2="123.6" y2="68.5"/>
		<line fill="none" stroke="#FFFFFF" stroke-width="0.75" stroke-miterlimit="10" x1="17.5" y1="75.1" x2="32.3" y2="75.1"/>
		<line fill="none" stroke="#FFFFFF" stroke-width="0.75" stroke-miterlimit="10" x1="108" y1="75.1" x2="123.8" y2="75.1"/>
		<line fill="none" stroke="#FFFFFF" stroke-width="0.75" stroke-miterlimit="10" x1="17.3" y1="82.3" x2="33.7" y2="82.3"/>
		<line fill="none" stroke="#FFFFFF" stroke-width="0.75" stroke-miterlimit="10" x1="105.9" y1="82.3" x2="123.9" y2="82.3"/>
		<line fill="none" stroke="#FFFFFF" stroke-width="0.75" stroke-miterlimit="10" x1="103.9" y1="89.9" x2="123.9" y2="89.9"/>
		<line fill="none" stroke="#FFFFFF" stroke-width="0.75" stroke-miterlimit="10" x1="16.8" y1="97" x2="39.4" y2="97"/>
		<line fill="none" stroke="#FFFFFF" stroke-width="0.75" stroke-miterlimit="10" x1="100.8" y1="97" x2="123.9" y2="97"/>
		<line fill="none" stroke="#FFFFFF" stroke-width="0.75" stroke-miterlimit="10" x1="16.6" y1="103.6" x2="43.9" y2="103.6"/>
		<line fill="none" stroke="#FFFFFF" stroke-width="0.75" stroke-miterlimit="10" x1="95.6" y1="103.6" x2="124.1" y2="103.6"/>
		<line fill="none" stroke="#FFFFFF" stroke-width="0.75" stroke-miterlimit="10" x1="16.3" y1="111" x2="51.6" y2="111"/>
		<line fill="none" stroke="#FFFFFF" stroke-width="0.75" stroke-miterlimit="10" x1="89.8" y1="111" x2="124.4" y2="111"/>
		<line fill="none" stroke="#FFFFFF" stroke-width="0.75" stroke-miterlimit="10" x1="16.2" y1="115.8" x2="59.9" y2="115.8"/>
		<line fill="none" stroke="#FFFFFF" stroke-width="0.75" stroke-miterlimit="10" x1="81.1" y1="115.8" x2="123.9" y2="115.8"/>
		<ellipse fill="none" stroke="#FFFFFF" stroke-width="0.75" stroke-miterlimit="10" cx="4.7" cy="107.3" rx="2.4" ry="3.6"/>
		<ellipse fill="none" stroke="#FFFFFF" stroke-width="0.75" stroke-miterlimit="10" cx="9.2" cy="21" rx="2.4" ry="3.6"/>
		<ellipse fill="none" stroke="#FFFFFF" stroke-width="0.75" stroke-miterlimit="10" cx="48.5" cy="6.3" rx="2.4" ry="3.6"/>
		<ellipse fill="none" stroke="#FFFFFF" stroke-width="0.75" stroke-miterlimit="10" cx="92.5" cy="8.4" rx="2.4" ry="3.6"/>
		<ellipse fill="none" stroke="#FFFFFF" stroke-width="0.75" stroke-miterlimit="10" cx="132.3" cy="20.7" rx="2.4" ry="3.6"/>
		<ellipse fill="none" stroke="#FFFFFF" stroke-width="0.75" stroke-miterlimit="10" cx="134.6" cy="107.6" rx="2.4" ry="3.6"/>
		<line fill="none" stroke="#FFFFFF" stroke-miterlimit="10" x1="86.6" y1="76.8" x2="103.3" y2="89.9"/>
		<line fill="none" stroke="#FFFFFF" stroke-miterlimit="10" x1="89.7" y1="64.2" x2="108" y2="70.8"/>
		<line fill="none" stroke="#FFFFFF" stroke-miterlimit="10" x1="87.2" y1="46" x2="103.3" y2="34.5"/>
		<line fill="none" stroke="#FFFFFF" stroke-miterlimit="10" x1="89.7" y1="57.9" x2="108" y2="50.4"/>
		<line fill="none" stroke="#FFFFFF" stroke-miterlimit="10" x1="78.5" y1="34.1" x2="87.9" y2="13.1"/>
		<line fill="none" stroke="#FFFFFF" stroke-miterlimit="10" x1="71.3" y1="31.5" x2="74.4" y2="6.3"/>
		<line fill="none" stroke="#FFFFFF" stroke-miterlimit="10" x1="60.8" y1="35" x2="56.1" y2="10.2"/>
		<line fill="none" stroke="#FFFFFF" stroke-miterlimit="10" x1="55.9" y1="40.7" x2="43.8" y2="21"/>
		<line fill="none" stroke="#FFFFFF" stroke-miterlimit="10" x1="51.5" y1="52.2" x2="35.2" y2="37.2"/>
		<line fill="none" stroke="#FFFFFF" stroke-miterlimit="10" x1="50.6" y1="60.7" x2="31.2" y2="57.9"/>
		<polyline fill="none" stroke="#FFFFFF" stroke-width="0.75" stroke-miterlimit="10" points="52.5,73 36.2,89.9 17,89.9 		"/>
		<line fill="none" stroke="#FFFFFF" stroke-width="0.75" stroke-miterlimit="10" x1="55.6" y1="80.2" x2="44.9" y2="104.8"/>
		<line fill="none" stroke="#FFFFFF" stroke-width="0.75" stroke-miterlimit="10" x1="61.2" y1="86.6" x2="50.6" y2="110.5"/>
		<line fill="none" stroke="#FFFFFF" stroke-width="0.75" stroke-miterlimit="10" x1="66.4" y1="89.3" x2="62.4" y2="116.7"/>
		<line fill="none" stroke="#FFFFFF" stroke-width="0.75" stroke-miterlimit="10" x1="76.4" y1="88.4" x2="79.3" y2="116"/>
		<line fill="none" stroke="#FFFFFF" stroke-width="0.75" stroke-miterlimit="10" x1="81.5" y1="84.6" x2="92.5" y2="107.2"/>
	</g>
</g>
</svg>
