<?xml version="1.0" encoding="utf-8"?>
<!-- Generator: Adobe Illustrator 22.1.0, SVG Export Plug-In . SVG Version: 6.00 Build 0)  -->
<svg version="1.1" id="Слой_1" xmlns="http://www.w3.org/2000/svg" xmlns:xlink="http://www.w3.org/1999/xlink" x="0px" y="0px"
	 viewBox="0 0 141 141" enable-background="new 0 0 141 141" xml:space="preserve">
<title>transmission-icon</title>
<g id="Слой_2_1_">
	<g id="Слой_1-2">
		<line fill="none" stroke="#FFFFFF" stroke-miterlimit="10" x1="140.5" y1="34.6" x2="140.5" y2="137"/>
		<path fill="none" stroke="#FFFFFF" stroke-miterlimit="10" d="M140.5,137c0,1.9-10.5,3.5-23.4,3.5"/>
		<path fill="none" stroke="#FFFFFF" stroke-miterlimit="10" d="M93.8,137c0,1.9,10.5,3.5,23.4,3.5"/>
		<line fill="none" stroke="#FFFFFF" stroke-miterlimit="10" x1="93.8" y1="131.1" x2="93.8" y2="137"/>
		<line fill="none" stroke="#FFFFFF" stroke-miterlimit="10" x1="93.8" y1="103.6" x2="93.8" y2="116.9"/>
		<line fill="none" stroke="#FFFFFF" stroke-miterlimit="10" x1="93.8" y1="77.1" x2="93.8" y2="89.3"/>
		<line fill="none" stroke="#FFFFFF" stroke-miterlimit="10" x1="93.8" y1="49.7" x2="93.8" y2="62.9"/>
		<line fill="none" stroke="#FFFFFF" stroke-miterlimit="10" x1="93.8" y1="34.6" x2="93.8" y2="35.4"/>
		<path fill="none" stroke="#FFFFFF" stroke-miterlimit="10" d="M140.5,34.6c0-1.9-10.5-3.5-23.4-3.5"/>
		<path fill="none" stroke="#FFFFFF" stroke-miterlimit="10" d="M93.8,34.6c0-1.9,10.5-3.5,23.4-3.5"/>
		<line fill="none" stroke="#FFFFFF" stroke-miterlimit="10" x1="93.8" y1="131.1" x2="25.8" y2="131.1"/>
		<path fill="none" stroke="#FFFFFF" stroke-miterlimit="10" d="M25.8,116.9c-6.3,0-11.4,3.2-11.4,7.1"/>
		<path fill="none" stroke="#FFFFFF" stroke-miterlimit="10" d="M25.8,131.1c-6.3,0-11.4-3.2-11.4-7.1"/>
		<line fill="none" stroke="#FFFFFF" stroke-miterlimit="10" x1="93.8" y1="116.9" x2="25.8" y2="116.9"/>
		<line fill="none" stroke="#FFFFFF" stroke-miterlimit="10" x1="93.8" y1="103.6" x2="25.8" y2="103.6"/>
		<path fill="none" stroke="#FFFFFF" stroke-miterlimit="10" d="M25.8,89.3c-6.3,0-11.4,3.2-11.4,7.1"/>
		<path fill="none" stroke="#FFFFFF" stroke-miterlimit="10" d="M25.8,103.6c-6.3,0-11.4-3.2-11.4-7.1"/>
		<line fill="none" stroke="#FFFFFF" stroke-miterlimit="10" x1="93.8" y1="89.3" x2="25.8" y2="89.3"/>
		<line fill="none" stroke="#FFFFFF" stroke-miterlimit="10" x1="93.8" y1="77.1" x2="25.8" y2="77.1"/>
		<path fill="none" stroke="#FFFFFF" stroke-miterlimit="10" d="M25.8,63c-6.3,0-11.4,3.2-11.4,7.1"/>
		<path fill="none" stroke="#FFFFFF" stroke-miterlimit="10" d="M25.8,77.1c-6.3,0-11.4-3.2-11.4-7.1"/>
		<line fill="none" stroke="#FFFFFF" stroke-miterlimit="10" x1="93.8" y1="63" x2="25.8" y2="63"/>
		<line fill="none" stroke="#FFFFFF" stroke-miterlimit="10" x1="93.8" y1="49.7" x2="25.8" y2="49.7"/>
		<path fill="none" stroke="#FFFFFF" stroke-miterlimit="10" d="M25.8,35.4c-6.3,0-11.4,3.2-11.4,7.1"/>
		<path fill="none" stroke="#FFFFFF" stroke-miterlimit="10" d="M25.8,49.7c-6.3,0-11.4-3.2-11.4-7.1"/>
		<line fill="none" stroke="#FFFFFF" stroke-miterlimit="10" x1="93.8" y1="35.4" x2="25.8" y2="35.4"/>
		<line fill="none" stroke="#FFFFFF" stroke-miterlimit="10" x1="27" y1="42.6" x2="27" y2="15.7"/>
		<ellipse fill="none" stroke="#FFFFFF" stroke-miterlimit="10" cx="26.3" cy="8.3" rx="25.8" ry="7.8"/>
		<line fill="none" stroke="#FFFFFF" stroke-miterlimit="10" x1="114.9" y1="42.6" x2="114.9" y2="124"/>
		<line fill="none" stroke="#FFFFFF" stroke-miterlimit="10" x1="25.8" y1="124" x2="114.9" y2="124"/>
		<line fill="none" stroke="#FFFFFF" stroke-miterlimit="10" x1="25.8" y1="96.4" x2="113" y2="96.4"/>
		<line fill="none" stroke="#FFFFFF" stroke-miterlimit="10" x1="25.8" y1="70.1" x2="113" y2="70.1"/>
		<line fill="none" stroke="#FFFFFF" stroke-miterlimit="10" x1="25.8" y1="42.6" x2="113" y2="42.6"/>
	</g>
</g>
</svg>
