<?xml version="1.0" encoding="utf-8"?>
<!-- Generator: Adobe Illustrator 22.1.0, SVG Export Plug-In . SVG Version: 6.00 Build 0)  -->
<svg version="1.1" id="Слой_1" xmlns="http://www.w3.org/2000/svg" xmlns:xlink="http://www.w3.org/1999/xlink" x="0px" y="0px"
	 viewBox="0 0 141 141" enable-background="new 0 0 141 141" xml:space="preserve">
<path fill="none" stroke="#FFFFFF" stroke-miterlimit="10" d="M83,123.4c0.2,1.6,1.2,3.1,2.7,3.9c1.4,0.8,3.2,0.9,4.7,0.2l22.3-9.9
	c1.1-0.5,1.7-1.8,1.3-2.9l-11.2-33.4c-1.8-5.3-7.1-8.4-12.6-7.5l-3.5,0.6c-6,1-10,6.7-9.1,12.7L83,123.4z M88.5,123.2
	c-0.2,0.1-0.4,0.1-0.5,0c-0.2-0.1-0.3-0.3-0.3-0.5l-5.4-36.1c-0.1-0.8-0.1-1.6,0.1-2.3l3.9,3.1c1.9,1.5,3.3,3.5,4.1,5.8l8.6,25.5
	L88.5,123.2z M87.5,79.1l3.5-0.6c0.4-0.1,0.8-0.1,1.1-0.1c2.8,0,5.3,1.8,6.2,4.5l10.5,31.3l-5.7,2.5l-8.4-25.1c-1-3.2-3-5.9-5.6-8
	l-4.3-3.4C85.6,79.7,86.5,79.3,87.5,79.1z"/>
<path fill="none" stroke="#FFFFFF" stroke-miterlimit="10" d="M6.5,22.4l34.8,10.3c0.5,0.1,0.9,0.4,1.3,0.7l12.3,10.3l2,1.7
	L72.9,129c0.8,4.2,3.5,7.9,7.3,9.9c3.8,2,8.4,2.2,12.3,0.4l22.4-9.9c2.2,2.6,5.8,3.5,8.9,2.2l11.8-4.9c4-1.6,5.9-6.2,4.2-10.2
	l-21.5-52.6l1.6-1.8c3-3.5,2.6-8.7-0.8-11.7L94.5,29c-1.7-1.4-3.8-2.2-6-2c-2.2,0.2-4.2,1.2-5.7,2.9l-4,4.6L70,27h0L53.4,13.5
	c-0.8-0.7-1.8-1.2-2.9-1.5L12.8,0.8C8.4-0.5,3.9,2.1,2.6,6.5l-1.7,5.7c-0.6,2.1-0.4,4.4,0.7,6.3C2.6,20.4,4.4,21.8,6.5,22.4z
	 M81,39.3l5.5-6.4c0.6-0.7,1.5-1.2,2.5-1.2c1-0.1,1.9,0.2,2.6,0.9l24.6,21.4c1.5,1.3,1.7,3.6,0.4,5.1l-2.5,2.9
	c-0.6,0.7-0.7,1.6-0.4,2.4l22,53.9c0.7,1.6-0.1,3.4-1.7,4.1l-11.8,4.9c-0.8,0.3-1.6,0.3-2.4,0c-0.8-0.3-1.4-0.9-1.7-1.7
	c-0.2-0.6-0.7-1-1.3-1.3c-0.6-0.2-1.2-0.2-1.8,0L90.7,135c-2.7,1.2-5.7,1.1-8.3-0.3c-2.6-1.3-4.4-3.8-4.9-6.6L61.3,43.6
	c-0.1-0.5-0.4-1-0.8-1.3l-0.7-0.6l8.9-9.6l9,7.5C78.7,40.4,80.2,40.3,81,39.3L81,39.3z M5.4,13.4L7,7.7C7.3,6.8,7.9,6,8.8,5.6
	c0.8-0.5,1.8-0.5,2.7-0.3l37.7,11.1c0.5,0.1,0.9,0.4,1.3,0.7L65.1,29l-8.9,9.6l-10.6-8.9c-0.9-0.7-1.9-1.3-3-1.6L7.8,17.9
	C5.9,17.4,4.8,15.4,5.4,13.4z"/>
<path fill="none" stroke="#FFFFFF" stroke-miterlimit="10" d="M16.8,80.9c4.3,0.1,8.6-1.6,11.6-4.7s4.8-7.3,4.7-11.7
	c0-7.5-9.1-20.9-12.8-25.3c-0.9-1-2.2-1.5-3.5-1.5c-1.3,0-2.6,0.5-3.5,1.5C9.6,43.6,0.5,57.1,0.5,64.5c-0.1,4.4,1.6,8.6,4.7,11.7
	C8.3,79.3,12.5,81,16.8,80.9z M16.8,42.3c4.1,4.8,11.7,16.8,11.7,22.2c0.1,3.1-1.1,6.2-3.3,8.4s-5.3,3.4-8.4,3.3
	c-3.1,0.1-6.2-1.1-8.4-3.3S5,67.6,5.2,64.5C5.2,59.1,12.7,47.1,16.8,42.3z"/>
<path fill="none" stroke="#FFFFFF" stroke-miterlimit="10" d="M67.4,44.1c-0.6,0.2-1.1,0.5-1.4,1.1c-0.3,0.5-0.4,1.2-0.2,1.8
	l1.2,4.6c0.3,1,1.2,1.8,2.3,1.8c0.2,0,0.4,0,0.6-0.1c1.3-0.3,2-1.6,1.7-2.9l-1.2-4.6c-0.2-0.6-0.5-1.1-1.1-1.4
	C68.6,44.1,68,44,67.4,44.1z"/>
<path fill="none" stroke="#FFFFFF" stroke-miterlimit="10" d="M69.4,59.2l3.3,14c0.2,1,1.2,1.8,2.3,1.8c0.2,0,0.4,0,0.5-0.1
	c1.3-0.3,2-1.6,1.8-2.8l-3.3-14c-0.2-0.8-0.8-1.5-1.6-1.7c-0.8-0.2-1.7,0-2.3,0.5C69.5,57.5,69.2,58.4,69.4,59.2L69.4,59.2z"/>
</svg>
