<?xml version="1.0" encoding="utf-8"?>
<!-- Generator: Adobe Illustrator 22.1.0, SVG Export Plug-In . SVG Version: 6.00 Build 0)  -->
<svg version="1.1" id="Слой_1" xmlns="http://www.w3.org/2000/svg" xmlns:xlink="http://www.w3.org/1999/xlink" x="0px" y="0px"
	 viewBox="0 0 141 141" enable-background="new 0 0 141 141" xml:space="preserve">
<title>handlebars-icon</title>
<g id="Слой_2_1_">
	<g id="Слой_1-2">
		<line fill="none" stroke="#FFFFFF" stroke-miterlimit="10" x1="54" y1="109.8" x2="54" y2="136.2"/>
		<path fill="none" stroke="#FFFFFF" stroke-miterlimit="10" d="M54,136.2c0,2.4-1.9,4.3-4.3,4.3"/>
		<line fill="none" stroke="#FFFFFF" stroke-miterlimit="10" x1="45.4" y1="109.8" x2="45.4" y2="136.2"/>
		<path fill="none" stroke="#FFFFFF" stroke-miterlimit="10" d="M45.4,136.2c0,2.4,1.9,4.3,4.3,4.3"/>
		<path fill="none" stroke="#FFFFFF" stroke-miterlimit="10" d="M45.4,109.8c0-14.6,6.6-26.5,14.9-26.5V59"/>
		<path fill="none" stroke="#FFFFFF" stroke-miterlimit="10" d="M52.9,41.1c0,9.9,3.3,17.9,7.4,17.9"/>
		<path fill="none" stroke="#FFFFFF" stroke-miterlimit="10" d="M52.9,41.1c0-3.6,1.7-6.5,3.7-6.5h13.9"/>
		<path fill="none" stroke="#FFFFFF" stroke-miterlimit="10" d="M55,53.5C41.7,53.5,31,35,31,12H3.7"/>
		<path fill="none" stroke="#FFFFFF" stroke-miterlimit="10" d="M0.5,6.3c0-3.2,1.4-5.8,3.2-5.8H31"/>
		<path fill="none" stroke="#FFFFFF" stroke-miterlimit="10" d="M3.7,12c-1.8,0-3.2-2.6-3.2-5.8"/>
		<path fill="none" stroke="#FFFFFF" stroke-miterlimit="10" d="M41.1,12c0,12.8,6.2,23.2,13.9,23.2"/>
		<path fill="none" stroke="#FFFFFF" stroke-miterlimit="10" d="M41.1,12c0-6.4-4.5-11.5-10.1-11.5"/>
		<line fill="none" stroke="#FFFFFF" stroke-miterlimit="10" x1="87" y1="109.8" x2="87" y2="136.3"/>
		<path fill="none" stroke="#FFFFFF" stroke-miterlimit="10" d="M87,136.3c0,2.3,1.9,4.3,4.3,4.3"/>
		<line fill="none" stroke="#FFFFFF" stroke-miterlimit="10" x1="95.6" y1="109.8" x2="95.6" y2="136.3"/>
		<path fill="none" stroke="#FFFFFF" stroke-miterlimit="10" d="M95.5,136.3c0,2.3-1.9,4.3-4.3,4.3"/>
		<path fill="none" stroke="#FFFFFF" stroke-miterlimit="10" d="M95.5,109.8c0-14.7-6.7-26.5-14.9-26.5V59"/>
		<path fill="none" stroke="#FFFFFF" stroke-miterlimit="10" d="M88.1,41.1c0,9.9-3.3,17.9-7.5,17.9"/>
		<path fill="none" stroke="#FFFFFF" stroke-miterlimit="10" d="M88.1,41.1c0-3.6-1.7-6.5-3.7-6.5H70.5"/>
		<path fill="none" stroke="#FFFFFF" stroke-miterlimit="10" d="M86,53.5c13.2,0,24-18.5,24-41.5h27.3"/>
		<path fill="none" stroke="#FFFFFF" stroke-miterlimit="10" d="M140.5,6.3c0-3.2-1.4-5.8-3.2-5.8H110"/>
		<path fill="none" stroke="#FFFFFF" stroke-miterlimit="10" d="M137.3,12c1.7,0,3.2-2.6,3.2-5.8"/>
		<path fill="none" stroke="#FFFFFF" stroke-miterlimit="10" d="M99.9,12c0,12.8-6.2,23.2-13.9,23.2"/>
		<path fill="none" stroke="#FFFFFF" stroke-miterlimit="10" d="M99.9,12c0-6.3,4.5-11.5,10.1-11.5"/>
		<path fill="none" stroke="#FFFFFF" stroke-miterlimit="10" d="M54,110.8c0-10.8,7.4-19.5,16.5-19.5S87,100,87,110.8"/>
	</g>
</g>
</svg>
