<?xml version="1.0" encoding="utf-8"?>
<!-- Generator: Adobe Illustrator 22.1.0, SVG Export Plug-In . SVG Version: 6.00 Build 0)  -->
<svg version="1.1" id="Слой_1" xmlns="http://www.w3.org/2000/svg" xmlns:xlink="http://www.w3.org/1999/xlink" x="0px" y="0px"
	 viewBox="0 0 140.8 140.8" enable-background="new 0 0 140.8 140.8" xml:space="preserve">
<title>consumables-icon</title>
<g id="Слой_1-2">
	<path fill="none" stroke="#FFFFFF" stroke-width="0.75" stroke-miterlimit="10" d="M30.5,29.4c0.1,0.9,0.7,1.3,1.2,1.3h20.7
		c0.4,0,0.8-0.4,0.9-0.9L58.4,17c0.3-0.9,0.4-1.8,0.1-2.7C58.4,13.6,58,13,57.5,13H36.8c-0.4,0-0.8,0.4-1.1,0.9l-5.1,12.8
		C30.3,27.6,30.3,28.5,30.5,29.4z M37.5,18.1h17.4l-3,7.6H34.3L37.5,18.1z"/>
	<path fill="none" stroke="#FFFFFF" stroke-width="0.75" stroke-miterlimit="10" d="M65.3,0.4H31.5c-0.4,0-0.8,0.2-0.9,0.9
		l-5.4,12.1l-4.6-8.3c-0.4-0.9-1.2-0.9-1.6-0.2c-0.1,0-0.1,0.2-0.1,0.4L8.4,28.2c-0.5,1.1-0.4,2.5,0.1,3.6l4.6,8.3l-3.4,7.6
		c-0.3,0.4-0.3,1.1-0.3,1.8v10.3c-1.2,2.9-9.1,23.8-9.1,34.2s4,19.1,9.1,20.2v23.6c0,1.3,0.5,2.5,1.3,2.5l0,0h54.5
		c0.8,0,1.3-1.1,1.3-2.5l0,0V3.1C66.6,1.7,66.1,0.4,65.3,0.4L65.3,0.4z M19.8,10.3l3.7,6.7l-1.3,2.9l-3.6-6.3c0,0-0.1-0.2-0.3-0.2
		L19.8,10.3z M18.6,28l-3.7-6.5l2-4.3c-0.1,0.2,0,0.2,0.1,0.4l3.6,6.1L18.6,28z M11.2,29.8l2-4.5l3.8,6.5l-2.1,4.7L11.2,29.8z
		 M2.9,94.1c0-6.5,4.8-20.9,7.7-28.5c2.8,7.6,7.7,22,7.7,28.5c0,8.3-3.4,15.3-7.7,15.3S2.9,102.4,2.9,94.1z M64,135.2H12v-21.1
		c4.9-1.3,8.7-9.9,8.7-20.2c0-9.4-6.7-27.9-8.7-33v-0.2V50.5L32,5.3H64V135.2z"/>
	<path fill="none" stroke="#FFFFFF" stroke-width="0.75" stroke-miterlimit="10" d="M55.8,42.4c-0.4-0.9-1.2-0.9-1.6-0.2
		c-0.1,0.2-0.1,0.2-0.1,0.4l-16,36.9L22.3,42.6c-0.4-0.9-1.1-1.1-1.6-0.7c-0.1,0-0.1,0.2-0.3,0.2c-0.5,0.9-0.5,2.5-0.1,3.6
		l16.1,37.3l-16.1,37.5c-0.4,1.1-0.4,2.7,0.1,3.6c0.4,0.7,1.2,0.9,1.6,0c0,0,0.1-0.2,0.1-0.4l16-36.6l15.8,36.6
		c0.3,0.4,0.5,0.9,0.9,0.9c0.3,0,0.7-0.2,0.8-0.7c0.5-0.9,0.5-2.5,0.1-3.6l-16-37.1L55.9,46C56.3,44.9,56.3,43.5,55.8,42.4z"/>
	<path fill="none" stroke="#FFFFFF" stroke-width="0.75" stroke-miterlimit="10" d="M16.3,92.5c0-1.3-0.5-2.5-1.3-2.5l0,0
		c-0.8,0-1.3,1.1-1.3,2.5l0,0c0.1,3.6-1.3,6.7-3.4,7.2c-0.8,0.2-1.5,1.6-1.3,2.9c0.1,1.1,0.7,2,1.3,2.2
		C13.6,104.9,16.3,99.3,16.3,92.5z"/>
	<path fill="none" stroke="#FFFFFF" stroke-width="0.75" stroke-miterlimit="10" d="M112,58.8c-6.2,0-11.2,2.7-11.2,5.8l-18.2-36
		V15.9"/>
	<path fill="none" stroke="#FFFFFF" stroke-width="0.75" stroke-miterlimit="10" d="M122.7,64.6c0-3.1-5-5.8-11.2-5.8"/>
	<path fill="none" stroke="#FFFFFF" stroke-width="0.75" stroke-miterlimit="10" d="M82.6,15.9c0-5.2,2-9.2,4.6-9.2"/>
	<path fill="none" stroke="#FFFFFF" stroke-width="0.75" stroke-miterlimit="10" d="M94.2,27.8c0-11.7-3.2-20.9-7-20.9"/>
	<path fill="none" stroke="#FFFFFF" stroke-width="0.75" stroke-miterlimit="10" d="M94.2,27.8c0-3.1,7.8-5.6,17.3-5.6"/>
	<path fill="none" stroke="#FFFFFF" stroke-width="0.75" stroke-miterlimit="10" d="M110.9,58.8c6.2,0,11.2,2.7,11.2,5.8l18.2-36
		V15.9"/>
	<path fill="none" stroke="#FFFFFF" stroke-width="0.75" stroke-miterlimit="10" d="M140.4,15.9c0-5.2-2.1-9.2-4.6-9.2"/>
	<path fill="none" stroke="#FFFFFF" stroke-width="0.75" stroke-miterlimit="10" d="M128.8,27.8c0-11.7,3.2-20.9,7-20.9"/>
	<path fill="none" stroke="#FFFFFF" stroke-width="0.75" stroke-miterlimit="10" d="M128.8,27.8c0-3.1-7.8-5.6-17.3-5.6"/>
	<ellipse fill="none" stroke="#FFFFFF" stroke-width="0.75" stroke-miterlimit="10" cx="87.6" cy="19.9" rx="3.6" ry="7.6"/>
	<ellipse fill="none" stroke="#FFFFFF" stroke-width="0.75" stroke-miterlimit="10" cx="135.4" cy="19.9" rx="3.6" ry="7.6"/>
	<path fill="none" stroke="#FFFFFF" stroke-width="0.75" stroke-miterlimit="10" d="M111.5,81.9c-6.2,0-11.2-2.7-11.2-5.8l-18.2,36
		v12.8"/>
	<path fill="none" stroke="#FFFFFF" stroke-width="0.75" stroke-miterlimit="10" d="M122.2,76.1c0,3.1-5,5.8-11.2,5.8"/>
	<path fill="none" stroke="#FFFFFF" stroke-width="0.75" stroke-miterlimit="10" d="M82.1,124.6c0,5.2,2,9.2,4.6,9.2"/>
	<path fill="none" stroke="#FFFFFF" stroke-width="0.75" stroke-miterlimit="10" d="M93.7,113c0,11.7-3.2,20.9-7,20.9"/>
	<path fill="none" stroke="#FFFFFF" stroke-width="0.75" stroke-miterlimit="10" d="M93.7,113c0,3.1,7.8,5.6,17.3,5.6"/>
	<path fill="none" stroke="#FFFFFF" stroke-width="0.75" stroke-miterlimit="10" d="M110.4,81.9c6.2,0,11.2-2.7,11.2-5.8l18.2,36
		v12.8"/>
	<path fill="none" stroke="#FFFFFF" stroke-width="0.75" stroke-miterlimit="10" d="M139.8,124.6c0,5.2-2.1,9.2-4.6,9.2"/>
	<path fill="none" stroke="#FFFFFF" stroke-width="0.75" stroke-miterlimit="10" d="M128.2,113c0,11.7,3.2,20.9,7,20.9"/>
	<path fill="none" stroke="#FFFFFF" stroke-width="0.75" stroke-miterlimit="10" d="M128.2,113c0,3.1-7.8,5.6-17.3,5.6"/>
	<ellipse fill="none" stroke="#FFFFFF" stroke-width="0.75" stroke-miterlimit="10" cx="87.1" cy="120.6" rx="3.6" ry="7.6"/>
	<ellipse fill="none" stroke="#FFFFFF" stroke-width="0.75" stroke-miterlimit="10" cx="134.8" cy="120.6" rx="3.6" ry="7.6"/>
</g>
</svg>
