<?xml version="1.0" encoding="utf-8"?>
<!-- Generator: Adobe Illustrator 22.1.0, SVG Export Plug-In . SVG Version: 6.00 Build 0)  -->
<svg version="1.1" id="Слой_1" xmlns="http://www.w3.org/2000/svg" xmlns:xlink="http://www.w3.org/1999/xlink" x="0px" y="0px"
	 viewBox="0 0 141 141" enable-background="new 0 0 141 141" xml:space="preserve">
<title>electric-icon</title>
<g id="Слой_2_1_">
	<g id="Capa_1">
		<path fill="none" stroke="#FFFFFF" stroke-miterlimit="10" d="M134.6,140.5H6.4c-0.9,0-1.6-0.8-1.6-1.8V41.6H2.1
			c-0.9,0-1.6-0.8-1.6-1.8V19.1c0-1,0.7-1.8,1.6-1.8h12.8v-10c0-3.7,2.6-6.8,5.7-6.8h6.7c3.1,0,5.7,3,5.7,6.8v10h75v-10
			c0-3.7,2.5-6.8,5.7-6.8h6.7c3.1,0,5.7,3,5.7,6.8v10h12.8c0.9,0,1.6,0.8,1.6,1.8v20.6c0,1-0.7,1.8-1.6,1.8h-2.8v97.1
			C136.2,139.7,135.5,140.5,134.6,140.5z M7.9,136.8h125.1V41.6H7.9L7.9,136.8z M3.6,37.9h133.8V21H3.6V37.9z M111.1,17.3H123v-10
			c0-1.7-1.2-3.1-2.6-3.1h-6.7c-1.4,0-2.6,1.4-2.6,3.1V17.3z M18,17.3h11.9v-10c0-1.7-1.2-3.1-2.6-3.1h-6.7c-1.4,0-2.6,1.4-2.6,3.1
			c0,0,0,0,0,0V17.3z M57.8,124.4c-0.3,0-0.5-0.1-0.8-0.2c-0.7-0.5-0.9-1.4-0.7-2.3L66.2,92H52.7c-0.9,0-1.6-0.8-1.6-1.8
			c0-0.2,0-0.4,0.1-0.5l8.6-34.4c0.2-0.8,0.8-1.3,1.5-1.3h16.2c0.9,0,1.6,0.8,1.6,1.8c0,0.2,0,0.5-0.1,0.7l-6.2,19.3h15.6
			c0.9,0,1.6,0.8,1.6,1.8c0,0.4-0.1,0.8-0.3,1.2l-30.5,44.9C58.8,124.1,58.3,124.4,57.8,124.4z M54.7,88.4h13.7
			c0.9,0,1.6,0.8,1.5,1.9c0,0.2,0,0.4-0.1,0.7l-7,21.2l22.2-32.7H70.5c-0.9,0-1.5-0.8-1.5-1.9c0-0.2,0-0.4,0.1-0.6l6.2-19.4H62.5
			L54.7,88.4z M109.5,98c-0.9,0-1.6-0.8-1.6-1.8V91h-4.4c-0.9,0-1.6-0.8-1.6-1.8s0.7-1.8,1.6-1.8h4.4v-5.2c0-1,0.7-1.8,1.6-1.8
			s1.6,0.8,1.6,1.8v5.2h4.4c0.9,0,1.6,0.8,1.6,1.8s-0.7,1.8-1.6,1.8h-4.4v5.2C111.1,97.2,110.4,98,109.5,98L109.5,98z M37.4,91H25.5
			c-0.9,0-1.6-0.8-1.6-1.8s0.7-1.8,1.6-1.8h11.9c0.9,0,1.6,0.8,1.6,1.8S38.3,91,37.4,91z"/>
	</g>
</g>
</svg>
