<?xml version="1.0" encoding="utf-8"?>
<!-- Generator: Adobe Illustrator 22.1.0, SVG Export Plug-In . SVG Version: 6.00 Build 0)  -->
<svg version="1.1" id="Слой_1" xmlns="http://www.w3.org/2000/svg" xmlns:xlink="http://www.w3.org/1999/xlink" x="0px" y="0px"
	 viewBox="0 0 140.8 140.8" enable-background="new 0 0 140.8 140.8" xml:space="preserve">
<title>brake-system-icon</title>
<g id="Слой_2_1_">
	<g id="Слой_1-2">
		<ellipse fill="none" stroke="#FFFFFF" stroke-width="0.75" stroke-miterlimit="10" cx="58.9" cy="70.4" rx="58.5" ry="70"/>
		<path fill="none" stroke="#FFFFFF" stroke-width="0.75" stroke-miterlimit="10" d="M81.9,6c32.3,0,58.5,29.2,58.5,65.1
			s-26.2,65.2-58.5,65.2c-1,0-1.9,0-2.9-0.1"/>
		<ellipse fill="none" stroke="#FFFFFF" stroke-width="0.75" stroke-miterlimit="10" cx="55.9" cy="67.5" rx="39.1" ry="45.7"/>
		<ellipse fill="none" stroke="#FFFFFF" stroke-width="0.75" stroke-miterlimit="10" cx="49.5" cy="32.6" rx="3.6" ry="4.3"/>
		<ellipse fill="none" stroke="#FFFFFF" stroke-width="0.75" stroke-miterlimit="10" cx="26.3" cy="63.2" rx="3.6" ry="4.3"/>
		<ellipse fill="none" stroke="#FFFFFF" stroke-width="0.75" stroke-miterlimit="10" cx="30.1" cy="84.6" rx="3.6" ry="4.3"/>
		<ellipse fill="none" stroke="#FFFFFF" stroke-width="0.75" stroke-miterlimit="10" cx="67.6" cy="35.1" rx="3.5" ry="4.1"/>
		<ellipse fill="none" stroke="#FFFFFF" stroke-width="0.75" stroke-miterlimit="10" cx="81.7" cy="48.3" rx="4" ry="4.8"/>
		<ellipse fill="none" stroke="#FFFFFF" stroke-width="0.75" stroke-miterlimit="10" cx="43.1" cy="100.2" rx="4" ry="4.8"/>
		<ellipse fill="none" stroke="#FFFFFF" stroke-width="0.75" stroke-miterlimit="10" cx="61.8" cy="102.5" rx="4" ry="4.8"/>
		<ellipse fill="none" stroke="#FFFFFF" stroke-width="0.75" stroke-miterlimit="10" cx="77.9" cy="90.3" rx="4" ry="4.8"/>
		<ellipse fill="none" stroke="#FFFFFF" stroke-width="0.75" stroke-miterlimit="10" cx="55.5" cy="66.5" rx="23.5" ry="27.3"/>
		<ellipse fill="none" stroke="#FFFFFF" stroke-width="0.75" stroke-miterlimit="10" cx="11.7" cy="57.3" rx="1.9" ry="2.2"/>
		<ellipse fill="none" stroke="#FFFFFF" stroke-width="0.75" stroke-miterlimit="10" cx="3.3" cy="72.6" rx="1.9" ry="2.2"/>
		<ellipse fill="none" stroke="#FFFFFF" stroke-width="0.75" stroke-miterlimit="10" cx="13" cy="84.8" rx="1.9" ry="2.2"/>
		<ellipse fill="none" stroke="#FFFFFF" stroke-width="0.75" stroke-miterlimit="10" cx="11.7" cy="104.7" rx="1.9" ry="2.2"/>
		<ellipse fill="none" stroke="#FFFFFF" stroke-width="0.75" stroke-miterlimit="10" cx="25.2" cy="110" rx="1.9" ry="2.2"/>
		<ellipse fill="none" stroke="#FFFFFF" stroke-width="0.75" stroke-miterlimit="10" cx="30.4" cy="127.6" rx="1.9" ry="2.2"/>
		<ellipse fill="none" stroke="#FFFFFF" stroke-width="0.75" stroke-miterlimit="10" cx="45.8" cy="123" rx="1.9" ry="2.2"/>
		<ellipse fill="none" stroke="#FFFFFF" stroke-width="0.75" stroke-miterlimit="10" cx="58.7" cy="134.5" rx="1.9" ry="2.2"/>
		<ellipse fill="none" stroke="#FFFFFF" stroke-width="0.75" stroke-miterlimit="10" cx="69.6" cy="124.6" rx="1.9" ry="2.2"/>
		<ellipse fill="none" stroke="#FFFFFF" stroke-width="0.75" stroke-miterlimit="10" cx="87" cy="123.8" rx="1.9" ry="2.2"/>
		<ellipse fill="none" stroke="#FFFFFF" stroke-width="0.75" stroke-miterlimit="10" cx="91.5" cy="105.5" rx="1.9" ry="2.2"/>
		<ellipse fill="none" stroke="#FFFFFF" stroke-width="0.75" stroke-miterlimit="10" cx="105.7" cy="99.3" rx="1.9" ry="2.2"/>
		<ellipse fill="none" stroke="#FFFFFF" stroke-width="0.75" stroke-miterlimit="10" cx="104.4" cy="81.8" rx="1.9" ry="2.2"/>
		<ellipse fill="none" stroke="#FFFFFF" stroke-width="0.75" stroke-miterlimit="10" cx="112.8" cy="64.2" rx="1.9" ry="2.2"/>
		<ellipse fill="none" stroke="#FFFFFF" stroke-width="0.75" stroke-miterlimit="10" cx="101.8" cy="51.2" rx="1.9" ry="2.2"/>
		<ellipse fill="none" stroke="#FFFFFF" stroke-width="0.75" stroke-miterlimit="10" cx="11" cy="40.5" rx="1.9" ry="2.2"/>
		<ellipse fill="none" stroke="#FFFFFF" stroke-width="0.75" stroke-miterlimit="10" cx="22" cy="32.9" rx="1.9" ry="2.2"/>
		<ellipse fill="none" stroke="#FFFFFF" stroke-width="0.75" stroke-miterlimit="10" cx="27.8" cy="16.1" rx="1.9" ry="2.2"/>
		<ellipse fill="none" stroke="#FFFFFF" stroke-width="0.75" stroke-miterlimit="10" cx="43.9" cy="16.1" rx="1.9" ry="2.2"/>
		<ellipse fill="none" stroke="#FFFFFF" stroke-width="0.75" stroke-miterlimit="10" cx="54.2" cy="6.9" rx="1.9" ry="2.2"/>
		<ellipse fill="none" stroke="#FFFFFF" stroke-width="0.75" stroke-miterlimit="10" cx="62.6" cy="15.3" rx="1.9" ry="2.2"/>
		<ellipse fill="none" stroke="#FFFFFF" stroke-width="0.75" stroke-miterlimit="10" cx="103.8" cy="33.7" rx="1.9" ry="2.2"/>
		<ellipse fill="none" stroke="#FFFFFF" stroke-width="0.75" stroke-miterlimit="10" cx="89" cy="26.8" rx="1.9" ry="2.2"/>
		<ellipse fill="none" stroke="#FFFFFF" stroke-width="0.75" stroke-miterlimit="10" cx="80.6" cy="10.8" rx="1.9" ry="2.2"/>
		<ellipse fill="none" stroke="#FFFFFF" stroke-width="0.75" stroke-miterlimit="10" cx="56.1" cy="67.5" rx="41.3" ry="48.9"/>
		<path fill="none" stroke="#FFFFFF" stroke-width="0.75" stroke-miterlimit="10" d="M74.4,82.7c-1.9-4-2.9-8.6-2.9-13.2
			c0-5.9,1.6-11.6,4.6-16.3"/>
		<path fill="none" stroke="#FFFFFF" stroke-width="0.75" stroke-miterlimit="10" d="M64.3,91.9c-8.7-15.3-8.7-35.4,0-50.7"/>
		<path fill="none" stroke="#FFFFFF" stroke-width="0.75" stroke-miterlimit="10" d="M58.1,93.8c-7.9-17.1-6.4-38.2,3.7-53.6"/>
		<ellipse fill="none" stroke="#FFFFFF" stroke-width="0.75" stroke-miterlimit="10" cx="66.2" cy="63.2" rx="3.6" ry="4.3"/>
		<ellipse fill="none" stroke="#FFFFFF" stroke-width="0.75" stroke-miterlimit="10" cx="47.1" cy="63.5" rx="1.9" ry="2.2"/>
		<ellipse fill="none" stroke="#FFFFFF" stroke-width="0.75" stroke-miterlimit="10" cx="49" cy="88.7" rx="1.9" ry="2.2"/>
		<ellipse fill="none" stroke="#FFFFFF" stroke-width="0.75" stroke-miterlimit="10" cx="40" cy="77.2" rx="1.9" ry="2.2"/>
		<line fill="none" stroke="#FFFFFF" stroke-width="0.75" stroke-miterlimit="10" x1="30.6" y1="32.6" x2="36.6" y2="5.6"/>
		<line fill="none" stroke="#FFFFFF" stroke-width="0.75" stroke-miterlimit="10" x1="67.6" y1="23.8" x2="93.4" y2="13.9"/>
		<line fill="none" stroke="#FFFFFF" stroke-width="0.75" stroke-miterlimit="10" x1="116.8" y1="79.6" x2="93.8" y2="56.2"/>
		<line fill="none" stroke="#FFFFFF" stroke-width="0.75" stroke-miterlimit="10" x1="77.1" y1="136.9" x2="83.2" y2="100.2"/>
		<line fill="none" stroke="#FFFFFF" stroke-width="0.75" stroke-miterlimit="10" x1="19" y1="121.6" x2="46.2" y2="111.7"/>
		<line fill="none" stroke="#FFFFFF" stroke-width="0.75" stroke-miterlimit="10" x1="1.3" y1="57.9" x2="18" y2="78.5"/>
		<path fill="none" stroke="#FFFFFF" stroke-width="0.75" stroke-miterlimit="10" d="M107.1,31c18.4,12.3,24.9,40,14.5,61.9
			c-3.4,7.2-8.5,13.2-14.6,17.3"/>
		<path fill="none" stroke="#FFFFFF" stroke-width="0.75" stroke-miterlimit="10" d="M114.9,50.4h0.3c2.2,0,4,2.2,4,4.8
			c0,1.9-1,3.7-2.5,4.4"/>
		<path fill="none" stroke="#FFFFFF" stroke-width="0.75" stroke-miterlimit="10" d="M117.3,69.7c0.4-0.1,0.7-0.2,1.1-0.2
			c2.2,0,4,2.1,4,4.8s-1.8,4.8-4,4.8c-0.5,0-1-0.1-1.5-0.3"/>
		<ellipse fill="none" stroke="#FFFFFF" stroke-width="0.75" stroke-miterlimit="10" cx="111.5" cy="19.9" rx="1.9" ry="2.2"/>
		<ellipse fill="none" stroke="#FFFFFF" stroke-width="0.75" stroke-miterlimit="10" cx="116.7" cy="33.7" rx="1.9" ry="2.2"/>
		<ellipse fill="none" stroke="#FFFFFF" stroke-width="0.75" stroke-miterlimit="10" cx="128.2" cy="38.3" rx="1.9" ry="2.2"/>
		<ellipse fill="none" stroke="#FFFFFF" stroke-width="0.75" stroke-miterlimit="10" cx="127" cy="50.5" rx="1.9" ry="2.2"/>
		<ellipse fill="none" stroke="#FFFFFF" stroke-width="0.75" stroke-miterlimit="10" cx="136" cy="63.5" rx="1.9" ry="2.2"/>
		<ellipse fill="none" stroke="#FFFFFF" stroke-width="0.75" stroke-miterlimit="10" cx="130.2" cy="75.7" rx="1.9" ry="2.2"/>
		<ellipse fill="none" stroke="#FFFFFF" stroke-width="0.75" stroke-miterlimit="10" cx="131.5" cy="87.9" rx="1.9" ry="2.2"/>
		<ellipse fill="none" stroke="#FFFFFF" stroke-width="0.75" stroke-miterlimit="10" cx="108.3" cy="116.9" rx="1.9" ry="2.2"/>
		<ellipse fill="none" stroke="#FFFFFF" stroke-width="0.75" stroke-miterlimit="10" cx="125" cy="100.9" rx="1.9" ry="2.2"/>
		<ellipse fill="none" stroke="#FFFFFF" stroke-width="0.75" stroke-miterlimit="10" cx="98.6" cy="129.1" rx="1.9" ry="2.2"/>
		<ellipse fill="none" stroke="#FFFFFF" stroke-width="0.75" stroke-miterlimit="10" cx="120.5" cy="114.6" rx="1.9" ry="2.2"/>
		<line fill="none" stroke="#FFFFFF" stroke-width="0.75" stroke-miterlimit="10" x1="125.4" y1="81.8" x2="132.8" y2="103.2"/>
		<line fill="none" stroke="#FFFFFF" stroke-width="0.75" stroke-miterlimit="10" x1="135.4" y1="45" x2="116.7" y2="40.1"/>
		<line fill="none" stroke="#FFFFFF" stroke-width="0.75" stroke-miterlimit="10" x1="96.1" y1="16.4" x2="103.2" y2="10.5"/>
		<line fill="none" stroke="#FFFFFF" stroke-width="0.75" stroke-miterlimit="10" x1="87.4" y1="136" x2="93.4" y2="126.9"/>
	</g>
</g>
</svg>
