<?xml version="1.0" encoding="utf-8"?>
<!-- Generator: Adobe Illustrator 22.1.0, SVG Export Plug-In . SVG Version: 6.00 Build 0)  -->
<svg version="1.1" id="Слой_1" xmlns="http://www.w3.org/2000/svg" xmlns:xlink="http://www.w3.org/1999/xlink" x="0px" y="0px"
	 viewBox="0 0 140.8 140.8" enable-background="new 0 0 140.8 140.8" xml:space="preserve">
<title>exhaust-system-icon</title>
<g id="Слой_2_1_">
	<g id="Слой_1-2">
		<path fill="none" stroke="#FFFFFF" stroke-width="0.75" stroke-miterlimit="10" d="M14,75.6l93.6-72.9l6.2-2
			c5.8-1,11.8,0.3,16.6,3.7c9,6,12.5,16.4,8.1,23.8l-4.1,6.5l-70.3,87.7"/>
		
			<ellipse transform="matrix(0.6657 -0.7462 0.7462 0.6657 -89.3075 53.5848)" fill="none" stroke="#FFFFFF" stroke-width="0.75" stroke-miterlimit="10" cx="15.2" cy="126.5" rx="9.7" ry="17.8"/>
		<path fill="none" stroke="#FFFFFF" stroke-width="0.75" stroke-miterlimit="10" d="M1.5,115l9.5-10.5c-6.1-9.8-7.5-19.4-2.7-24.6
			c7-7.6,24.5-3.1,39.1,10s20.7,29.9,13.7,37.5c-4.9,5.4-15.2,4.8-25.8-0.7"/>
		<line fill="none" stroke="#FFFFFF" stroke-width="0.75" stroke-miterlimit="10" x1="28.9" y1="137.7" x2="35.7" y2="126.9"/>
		<path fill="none" stroke="#FFFFFF" stroke-width="0.75" stroke-miterlimit="10" d="M11.1,104.5l3-2.7c-0.2-1.8,0.3-3.7,1.5-5.1
			c3.6-3.9,12.5-1.8,19.8,4.8s10.3,15.1,6.6,19.1c-1,1.1-2.4,1.7-3.9,1.9l-2.8,4.8"/>
		<line fill="none" stroke="#FFFFFF" stroke-width="0.75" stroke-miterlimit="10" x1="139.1" y1="14.7" x2="58.9" y2="102.7"/>
		<line fill="none" stroke="#FFFFFF" stroke-width="0.75" stroke-miterlimit="10" x1="132.3" y1="5.8" x2="47.5" y2="90"/>
		<line fill="none" stroke="#FFFFFF" stroke-width="0.75" stroke-miterlimit="10" x1="123.3" y1="1.1" x2="31.6" y2="79.5"/>
	</g>
</g>
</svg>
