<?xml version="1.0" encoding="utf-8"?>
<!-- Generator: Adobe Illustrator 22.1.0, SVG Export Plug-In . SVG Version: 6.00 Build 0)  -->
<svg version="1.1" id="Слой_1" xmlns="http://www.w3.org/2000/svg" xmlns:xlink="http://www.w3.org/1999/xlink" x="0px" y="0px"
	 viewBox="0 0 140.8 141" enable-background="new 0 0 140.8 141" xml:space="preserve">
<title>protection-category-icon</title>
<g id="Слой_2_1_">
	<g id="Слой_1-2">
		<polygon fill="none" stroke="#FFFFFF" stroke-width="0.75" stroke-miterlimit="10" points="94.1,63.2 112.4,44.8 116,40.8 
			128.2,24.1 111.2,8.1 106.7,2.2 103.8,3.4 100.2,20 101.9,26.5 102.9,27 99.5,32.7 97.7,30 84.6,44.4 79.2,45.6 79.9,49.4 
			79.2,50.2 77.5,45.9 74,46.8 73.1,44.6 61.9,46.4 63,56.2 61.9,57.8 58.5,53.9 59.7,47.9 45.9,34.5 41.3,33.3 41.3,31.1 
			38.8,28.3 18.7,48 25.5,61.5 34.1,70.8 37.4,72.3 40.8,72.3 54.5,58.5 57.8,62.6 42.5,77.2 43.3,79.9 40,84.1 37.9,82.9 
			32.7,87.9 34.3,90.4 30.4,90.4 9.7,107.4 9.7,109.5 6.7,108.2 7.4,112.5 22.5,126.7 23.2,127.3 49.1,105.6 56.9,101.3 66.1,100 
			86.1,81.7 91.2,77.3 		"/>
		<polygon fill="none" stroke="#FFFFFF" stroke-width="0.75" stroke-miterlimit="10" points="76.1,66 70.5,71.2 70.5,72.6 72,72.9 
			77.8,67.5 77.5,66 		"/>
		<polygon fill="none" stroke="#FFFFFF" stroke-width="0.75" stroke-miterlimit="10" points="73,60.2 67.4,65.4 67.4,66.7 68.9,67 
			74.7,61.6 74.4,60.2 		"/>
		<polygon fill="none" stroke="#FFFFFF" stroke-width="0.75" stroke-miterlimit="10" points="65.4,77 59.9,82.2 59.9,83.6 
			61.3,83.9 67.1,78.5 66.8,77 		"/>
		<polygon fill="none" stroke="#FFFFFF" stroke-width="0.75" stroke-miterlimit="10" points="51.6,80.5 46.1,85.7 46.1,87 
			47.5,87.3 53.3,82 53,80.5 		"/>
		<polygon fill="none" stroke="#FFFFFF" stroke-width="0.75" stroke-miterlimit="10" points="54.7,86.8 49.2,91.9 49.2,93.3 
			50.7,93.6 56.5,88.2 56.2,86.8 		"/>
		<polygon fill="none" stroke="#FFFFFF" stroke-width="0.75" stroke-miterlimit="10" points="60.4,90.2 54.9,95.4 54.9,96.7 
			56.3,97 62.2,91.6 61.8,90.2 		"/>
		<polygon fill="none" stroke="#FFFFFF" stroke-width="0.75" stroke-miterlimit="10" points="71.2,79.3 65.6,84.5 65.6,85.8 
			67.1,86.1 72.9,80.8 72.6,79.3 		"/>
		<polygon fill="none" stroke="#FFFFFF" stroke-width="0.75" stroke-miterlimit="10" points="82.3,68.8 78.6,72.6 78.6,73.6 
			79.5,73.9 83.4,69.9 83.2,68.8 		"/>
		<polygon fill="none" stroke="#FFFFFF" stroke-width="0.75" stroke-miterlimit="10" points="31,98.1 25.5,103.3 25.5,104.6 27,105 
			32.8,99.6 32.5,98.1 		"/>
		<polygon fill="none" stroke="#FFFFFF" stroke-width="0.75" stroke-miterlimit="10" points="36.3,100.3 30.7,105.5 30.7,106.8 
			32.2,107.1 38,101.8 37.7,100.3 		"/>
		<polygon fill="none" stroke="#FFFFFF" stroke-width="0.75" stroke-miterlimit="10" points="38.9,105 33.3,110.2 33.3,111.5 
			34.8,111.8 40.6,106.4 40.3,105 		"/>
		<ellipse fill="none" stroke="#FFFFFF" stroke-width="0.75" stroke-miterlimit="10" cx="59.3" cy="75.4" rx="2.1" ry="2.5"/>
		<polygon fill="none" stroke="#FFFFFF" stroke-width="0.75" stroke-miterlimit="10" points="95.4,44.6 96.4,43.8 98,43.8 
			100.9,46.6 100.3,48.2 98.9,49.1 97.5,48.6 94.6,45.8 		"/>
		<polygon fill="none" stroke="#FFFFFF" stroke-width="0.75" stroke-miterlimit="10" points="106.5,35.9 100.9,41.1 100.9,42.4 
			102.4,42.8 108.2,37.4 107.9,35.9 		"/>
		<polygon fill="none" stroke="#FFFFFF" stroke-width="0.75" stroke-miterlimit="10" points="110,38.6 105.7,42.7 105.7,43.8 
			106.9,44 111.3,39.8 111.1,38.6 		"/>
		<polygon fill="none" stroke="#FFFFFF" stroke-width="0.75" stroke-miterlimit="10" points="103.6,33.2 99.4,37.3 99.4,38.3 
			100.5,38.6 105,34.4 104.7,33.2 		"/>
		<polygon fill="none" stroke="#FFFFFF" stroke-width="0.75" stroke-miterlimit="10" points="13.4,78.6 16.5,72.9 26.7,83.3 
			25.5,90.2 11.2,95.2 0.4,85.3 0.4,80.5 1.4,80 2.5,82.7 4.3,80.5 12.1,77.8 		"/>
		<path fill="none" stroke="#FFFFFF" stroke-width="0.75" stroke-miterlimit="10" d="M8.2,84c0,0,5.2,5.5,5.3,5.5
			c0.1,0,2.5-0.5,2.5-0.5v-1.2l-4.5-5H8.9L8.2,84z"/>
		<line fill="none" stroke="#FFFFFF" stroke-width="0.75" stroke-miterlimit="10" x1="13.4" y1="78.6" x2="25.5" y2="90.2"/>
		<polyline fill="none" stroke="#FFFFFF" stroke-width="0.75" stroke-miterlimit="10" points="11.2,95.2 8.2,87.3 2.5,82.7 		"/>
		<polygon fill="none" stroke="#FFFFFF" stroke-width="0.75" stroke-miterlimit="10" points="57.1,140.6 57.6,140.1 59.9,137.5 
			63.5,129.4 62.8,118.9 52.5,109.2 50.7,109.7 49.7,117.5 47,125.8 44.8,123.9 41,123.3 44.4,130.7 55.5,140.6 		"/>
		<line fill="none" stroke="#FFFFFF" stroke-width="0.75" stroke-miterlimit="10" x1="63.5" y1="129.4" x2="49.8" y2="117"/>
		<polygon fill="none" stroke="#FFFFFF" stroke-width="0.75" stroke-miterlimit="10" points="53,125.4 59.2,131.1 58.5,132.4 
			57.1,132.7 51.5,128 51.2,126 		"/>
		<polyline fill="none" stroke="#FFFFFF" stroke-width="0.75" stroke-miterlimit="10" points="47,125.8 54.3,133.5 55.2,140.4 		"/>
		<polygon fill="none" stroke="#FFFFFF" stroke-width="0.75" stroke-miterlimit="10" points="82.3,6.2 84.5,0.6 96.1,9.3 96.1,17.4 
			93.6,22.6 80.2,35.9 71.8,11.1 74.4,9.6 78.5,4.2 80.2,4.1 		"/>
		<line fill="none" stroke="#FFFFFF" stroke-width="0.75" stroke-miterlimit="10" x1="96.1" y1="17.4" x2="82.3" y2="6.2"/>
		<polyline fill="none" stroke="#FFFFFF" stroke-width="0.75" stroke-miterlimit="10" points="93.8,22.3 79.4,10.8 76.3,7.1 		"/>
		<polygon fill="none" stroke="#FFFFFF" stroke-width="0.75" stroke-miterlimit="10" points="76.9,16.1 78.3,20.5 81,18.3 
			76.9,14.7 		"/>
		<polygon fill="none" stroke="#FFFFFF" stroke-width="0.75" stroke-miterlimit="10" points="127.5,44 126.5,34.5 136.2,45.5 
			137.1,54.9 140.4,59.1 139.6,64.8 136.5,68.8 111.9,61.5 126.1,47.8 		"/>
		<line fill="none" stroke="#FFFFFF" stroke-width="0.75" stroke-miterlimit="10" x1="137.1" y1="54.9" x2="127.5" y2="44"/>
		<polyline fill="none" stroke="#FFFFFF" stroke-width="0.75" stroke-miterlimit="10" points="118.1,57 121.8,59.4 128.7,52.4 
			133.6,57.1 136.2,56.6 137.1,59 136.5,61.9 139,64.8 		"/>
		<polyline fill="none" stroke="#FFFFFF" stroke-width="0.75" stroke-miterlimit="10" points="129.4,59.5 131.9,63.6 126.6,62 
			127.2,59.5 129.8,59.5 		"/>
		<polyline fill="none" stroke="#FFFFFF" stroke-width="0.75" stroke-miterlimit="10" points="36.3,91.1 41,87 49,94.6 49,97 
			44.2,101 36.3,94 36.3,90.8 		"/>
		<polygon fill="none" stroke="#FFFFFF" stroke-width="0.75" stroke-miterlimit="10" points="89.5,88.5 94.9,82.2 107.9,95.2 
			110.2,102.3 108.2,107.1 91.9,121.9 87.1,121.2 76.2,111.1 72.9,103.7 		"/>
		<polyline fill="none" stroke="#FFFFFF" stroke-width="0.75" stroke-miterlimit="10" points="92.2,93.6 92.3,93.4 97.7,86.1 		"/>
		<polyline fill="none" stroke="#FFFFFF" stroke-width="0.75" stroke-miterlimit="10" points="91.9,121.9 89.6,116.1 107.9,99.9 
			108.2,107.1 		"/>
		<line fill="none" stroke="#FFFFFF" stroke-width="0.75" stroke-miterlimit="10" x1="87.7" y1="109.2" x2="86.4" y2="120.5"/>
		<polyline fill="none" stroke="#FFFFFF" stroke-width="0.75" stroke-miterlimit="10" points="76.9,111.8 83.4,102.9 89.1,107.1 
			97.7,98.7 90.1,92.8 82.8,99 76.9,108.4 		"/>
		<polygon fill="none" stroke="#FFFFFF" stroke-width="0.75" stroke-miterlimit="10" points="35,42.8 31,46.5 31,47.5 32,47.7 
			36.3,43.8 36.1,42.8 		"/>
		<polygon fill="none" stroke="#FFFFFF" stroke-width="0.75" stroke-miterlimit="10" points="28.7,48.6 24.7,52.4 24.7,53.3 
			25.8,53.6 30,49.7 29.8,48.6 		"/>
		<polygon fill="none" stroke="#FFFFFF" stroke-width="0.75" stroke-miterlimit="10" points="31.9,50.8 27.8,54.6 27.8,55.5 
			28.9,55.8 33.2,51.9 32.9,50.8 		"/>
		<ellipse fill="none" stroke="#FFFFFF" stroke-width="0.75" stroke-miterlimit="10" cx="26.5" cy="116.5" rx="2.1" ry="2"/>
		
			<ellipse transform="matrix(0.7514 -0.6598 0.6598 0.7514 -70.084 38.3817)" fill="none" stroke="#FFFFFF" stroke-width="0.75" stroke-miterlimit="10" cx="15.9" cy="112.2" rx="1.2" ry="3"/>
		
			<ellipse transform="matrix(0.7514 -0.6598 0.6598 0.7514 -73.215 44.7701)" fill="none" stroke="#FFFFFF" stroke-width="0.75" stroke-miterlimit="10" cx="22.8" cy="119.6" rx="1.2" ry="3"/>
	</g>
</g>
</svg>
