<?xml version="1.0" encoding="utf-8"?>
<!-- Generator: Adobe Illustrator 22.1.0, SVG Export Plug-In . SVG Version: 6.00 Build 0)  -->
<svg version="1.1" id="Слой_1" xmlns="http://www.w3.org/2000/svg" xmlns:xlink="http://www.w3.org/1999/xlink" x="0px" y="0px"
	 viewBox="0 0 140.8 141.1" enable-background="new 0 0 140.8 141.1" xml:space="preserve">
<title>engine icon</title>
<g id="Слой_2_1_">
	<g id="Слой_1-2">
		<path fill="none" stroke="#FFFFFF" stroke-miterlimit="10" d="M132.5,64.1l-0.5,1l-1-0.1l0,0.4l1.4,1l0.9,1.1l-0.3,1l-1,1.1
			l-0.3,1.6l0.8,1.2l-0.2,1.1c0,0-1.1,0.3-1,0.3s-1-0.9-1-0.9l-1.2-0.9l-1.3,1.2l-1.2,1l-1.1,0.9l-1.5,0.2l-1.1,1.5l-1.4,0.4l-1,2.1
			l-0.1,1.8l-1.3,1.4l0.9,0.9l0.6,2.4l0.6,1.6l4.5,0.4l0.3,0.7l-0.3,3l-0.6,1.3l-2.4-0.3l0,0.4l0.8,0.6l1,0.7l-0.1,1.8l-0.5,1.1
			l0.3,1.5l-0.6,2.4h-0.4l-0.9,2.1l-0.2,3.1l-0.2,1.5l-0.4,0.4l-1.5,0v0.5l0.5,0h1.9l0.1-0.7l0.4-1.2l1.5-0.3l1.7-0.1l0.1-1.8
			l0.2-2.1v-2.1l0.6-1.5l2.8,0.1l0.7,1l0.7,1.5l0.8,3.3l0.6,3.5l0.2,2.4l0.1,3.5l-0.1,3l0,3l-0.3,1.9l-0.8,1.7h-1.1l-1.8,0.2
			l-0.5-1.1l-0.5-1.5l-0.5-2.2l-0.2-2.4l-2.3,0.2l0.8,2.7l0.2,2.4l-0.5,1.3l-3.4,0.1l0,1.5l-0.5,0.2l-3.8,0.1l-3.1,4.9l-2.7,3.7
			l-0.2,1.5l-1,0.2l-1.8-0.2l-0.2-1.1l-6.5,0.3l-6,0.8l-1.1,1.4l-3.1,2.1l-1.3,0.1l-2.9,0.2l-0.1-1.4l-0.6-0.2l0.4,1.7l-1.1,0.2
			l-0.2-1.7l-1.6-0.2l-1.2-1.2l-1.3-0.2l-2,0.5l-2.5-0.4l-2.5,0.1l-1.7-0.5l-2.9-0.6l-5-1l-2.5-0.1c0,0-0.7,0.5-0.7,0.4
			c0-0.1-0.1,1.4-0.1,1.4l-0.2,2.5l-0.9,1.8l-1.5,0.4l-1.4-0.5l-2.7-0.5l-4.8-0.8l-4.8-0.8l-4-0.7l-3.3-0.5l-0.7-0.4l-0.7-1.3
			l-0.1-1.1l0.2-1.5l0.6-0.9l0.7-0.7l-0.1-2l-4.3,0.2l0,1.7l-0.8,0.2l-0.1,1l-0.6,0.9l-1.3,0.2l-0.7-0.4l-0.4-1.2l-0.3,0.1l-0.4,0.7
			h-3.3l-0.1-1.3l-1,0.1l-0.2-1.4v-2.1l0-2.1l-1.5,0l-0.1,1.3l-0.1,2.6l-0.4,1.6l-0.6,2.4l-1.3,0.3l-1.5-0.3l-0.9-2.3l-0.7-3l-0.6-5
			l-0.1-4.1l0.1-4l0.1-3.2l0.4-2.1l0.9-1.1l1.5-0.1l1,0.7l0.8,1.6l0.4,1.8l0.5,2.4h1.8l0-1.4l0-3.9l0.7-1.2l1.6,0l0-0.9l-2.6-0.1
			v0.9l-0.7,1.3h-1.5l-0.8-0.6l-1-2.8l-1.2-0.4l-1-0.6l-0.7-1.8h-0.6l-1.6-0.6l-0.4-0.6l0-1.3l0.3-2.4l1.6-3.5l0-1.4l-2.1-0.4
			L15,91.3l-5.1-4.1l-1,1.7l-2,1.6L3,89.9l-2.5-3.4v-3.9l1-2.2l3.9-6.7l2.1-1.3L9.6,72l1.2,1h3l0.7-1l-2.3-11.3l0.7-0.2l5.5-2.1
			L21,58l5,0l0.5,3.9l0.3,0.2l1.7-1.6l0.2-0.9l1.6-2.8l-0.1-1.9l0.7-1.1l-0.8-0.9L30,51.2V50l1.5-0.9l0.5,0.8l1.3-0.1v-1.1l3-5.2
			v-1.8l4.7-7.4l4.5-3.5l1.5-0.3l4-3.3l1.3-0.1L52,24.7v-1.4l0.7-0.8l0.7,0l0.3,0.5l1.9,0.2l0.3,1.3l2.8,3.6l0.9,0.4l0.5,0.9v-4.6
			l0.7-1.2V16l0.3-0.9l3.3-1.5v-2.8l2.1-0.1v1.5l0.3,0.1V14l0.7,0l-0.1,2.5l-0.5,0.4v0.9l0.7,0.2l-0.5,2.5l-0.2,3.1v0.9l1.1-0.2
			l1.3,1.3h0.6l9.8-11.3l-3.1-5.8V6.9L86,0.5l1.1,0.2l0.7,2.1l2.1-0.7l1-0.8l1.2,0.6L91.7,3l0.9,4.4l0.8,0.6l-0.7,0.7l-3.1,1.7v0.8
			L99,22.3V21l1,0.1l0-0.7l-0.4-6.1v-2l1-0.3l-0.2-1.1l-0.3-0.9v-2h2.2l0.3,0.9l0.5,0.3l0.4,0.9l0.3,1h1l0.3,6.3l0.3-1.2l0.6-1
			l1-0.4l2.1,1.5l0,1.4l1,0.3l-0.1,1.4l-2.9,5.4l1.1,0.2l5.7-7.3l0.5-0.2l2.2,0.8l0,0.6l-0.6,0.8l0.3,0.7l-0.4,1.4l1-0.2l0.8-0.4
			l3,1.7h1.1l7.7,5.2l7.5,7.2l0.1,2.4l0.8,1.2l0.4,1.9h0.5l0.4-0.4l1.2,0.7l-0.2,2.2l-1.1,1.7l-0.8,0.5V49l-0.2,0.7l-3.8,4.8
			l0.2,0.8h0.3l0.3-0.4l0.3-0.3h1.1l0.5-0.5l1.3,0.9v1.1l-0.3,0.4v0.9l-0.6,1.4h-1l0.2,0.8L132.5,64.1l-2.6-2.4l-1.5-0.3l-15.5-14.4
			l-0.9-1.9l-2.8-2.5l-0.2-1.1l-1.2-0.5l1.5-2.5l1.5,0.2l-0.9-4l0.8-3.1l-0.1-2.5l1.4-0.3l2.6-0.8l1.7-1.9l0.2-1.3l-1.2-1l-2.5-1.1
			l-2.8-0.2"/>
		<polyline fill="none" stroke="#FFFFFF" stroke-width="0.5" stroke-miterlimit="10" points="136.3,58.9 134.6,57.1 134.4,55.3 		
			"/>
		<polyline fill="none" stroke="#FFFFFF" stroke-width="0.5" stroke-miterlimit="10" points="113.1,41.9 114.9,44.1 130.7,58.6 
			133.4,55 133.7,56.4 134.6,57.1 		"/>
		<line fill="none" stroke="#FFFFFF" stroke-width="0.5" stroke-miterlimit="10" x1="133.5" y1="54.8" x2="134.2" y2="54.6"/>
		<polyline fill="none" stroke="#FFFFFF" stroke-width="0.5" stroke-miterlimit="10" points="115.4,44.5 117.6,39.2 124.5,38.2 
			128.8,32.6 136.7,38.8 133.5,44.8 133.8,54 		"/>
		<polyline fill="none" stroke="#FFFFFF" stroke-width="0.5" stroke-miterlimit="10" points="120.2,23.7 128.1,29.2 127.9,32.6 
			126.7,32.5 120.2,32 117.1,38.4 118.7,38.2 120.8,36.8 124.4,36.5 127.4,32.6 		"/>
		<polyline fill="none" stroke="#FFFFFF" stroke-width="0.5" stroke-miterlimit="10" points="138.2,45.4 138.3,40.8 136.7,38.8 
			136.9,35.2 		"/>
		<polyline fill="none" stroke="#FFFFFF" stroke-width="0.5" stroke-miterlimit="10" points="128.8,32.6 128.8,28.7 121.8,23.5 
			120.3,23.5 		"/>
		<polygon fill="none" stroke="#FFFFFF" stroke-width="0.5" stroke-miterlimit="10" points="113.1,36.4 114.1,38.1 116.3,38.8 
			117.1,38.4 117.3,36.8 117,36.5 117.4,35.8 116.5,34.5 115.8,34.2 115,34.7 114.3,34.5 113.6,35 113.1,35.7 		"/>
		<line fill="none" stroke="#FFFFFF" stroke-width="0.5" stroke-miterlimit="10" x1="109.1" y1="41.4" x2="113.1" y2="36.6"/>
		<polyline fill="none" stroke="#FFFFFF" stroke-width="0.5" stroke-miterlimit="10" points="114.7,43.8 116.7,40.5 116.2,39.4 
			115,39.1 113.8,38.5 113.1,36.8 		"/>
		<polyline fill="none" stroke="#FFFFFF" stroke-width="0.5" stroke-miterlimit="10" points="113.9,28.3 113.5,31.3 113.7,33.9 
			113.6,35 		"/>
		<path fill="none" stroke="#FFFFFF" stroke-width="0.5" stroke-miterlimit="10" d="M60,29.3l0.2,2.2l0.7,0.5l-0.8,1.1l0.1,0.9
			l4.5,5l4.1,5l1.6,0.3v1l0.5,0.3H72l0.8-0.5l0.8-1.3l-0.1-1l1.6-2.3v2.4l-0.3,1.7L74.7,47c0,0,0,1.5,0,1.7c0,0.2-0.1,0.4-0.1,0.5
			l0.1,1.4l0.4,1.4l1,1.3l1.1,0.5h2.2l0.6-0.6l1.2-0.5l0.9-0.8l0.8-0.2l-0.1-1.1l0.7-0.6l0.4-0.4l12.4,0.4v-0.7l-0.5-0.4v-1.1
			l0.5-0.7l0.3-0.4l0.8,0.8l0.7,0.5v-0.7l-0.6-0.8l-0.2-0.9l-0.1-1.3l-1-0.8l-1.2-1L94,41.5l-0.8-0.4L91.4,42L89,42.7l-2.4,1
			l-1.4,1.2l-1.7,2l-1.2,1.7l-0.1,0.7l-1.1,1.4l-1.4,1.8l-1.3,1.3"/>
		<polygon fill="none" stroke="#FFFFFF" stroke-width="0.5" stroke-miterlimit="10" points="84.4,22.8 84.4,22.2 86.2,20.2 
			93.5,29.5 94.1,30.3 95.8,30.9 96.4,31.3 96.4,32.2 95.1,31.8 93.3,32.2 93.4,33.1 89,34.6 85.9,36.1 83.6,37.6 82.2,38.9 
			81.2,40 80.8,39.7 82.5,37.4 84.2,34.8 84.8,32.6 85.2,30.8 85.5,27.9 85.3,25.1 85,23.7 		"/>
		<polygon fill="none" stroke="#FFFFFF" stroke-width="0.5" stroke-miterlimit="10" points="75,34 80.5,27.1 77.7,34.7 77.3,34.4 
			76.7,33.6 75.8,34.4 		"/>
		<polyline fill="none" stroke="#FFFFFF" stroke-width="0.5" stroke-miterlimit="10" points="75,34 74.2,34.4 74.2,36.7 71.1,40.4 
			68,38 66.3,36.2 65.1,34.4 69.3,29.3 68.3,28.4 67.2,27.3 66.8,26.8 66.2,25.8 63.6,29.1 62.3,31.4 62.4,32.1 63.3,33.3 
			64.2,34.2 65.1,34.4 		"/>
		<line fill="none" stroke="#FFFFFF" stroke-width="0.5" stroke-miterlimit="10" x1="60.9" y1="32" x2="62.4" y2="32.1"/>
		<polyline fill="none" stroke="#FFFFFF" stroke-width="0.5" stroke-miterlimit="10" points="68.1,28 69.1,27.4 69.6,26.7 
			69.3,26.1 68.6,25.9 67.7,24.8 66.3,25.3 66.3,25.7 		"/>
		<polyline fill="none" stroke="#FFFFFF" stroke-width="0.5" stroke-miterlimit="10" points="60,26.4 60.9,26.9 61.7,27.3 
			63.4,27.1 64.8,26.4 65.2,25.9 65.2,22.1 65,20.3 66.3,20.1 66.5,19.8 66.5,18.3 65.8,18.3 65.8,16 62.6,15.8 61.3,15.8 
			60.8,15.8 		"/>
		<line fill="none" stroke="#FFFFFF" stroke-width="0.5" stroke-miterlimit="10" x1="76.8" y1="9.4" x2="87.8" y2="2.8"/>
		<line fill="none" stroke="#FFFFFF" stroke-width="0.5" stroke-miterlimit="10" x1="76.3" y1="8.4" x2="87.1" y2="0.7"/>
		<polyline fill="none" stroke="#FFFFFF" stroke-width="0.5" stroke-miterlimit="10" points="89.6,10.5 89.3,7.9 89.1,6 88.6,4.5 
			87.7,2.8 		"/>
		<line fill="none" stroke="#FFFFFF" stroke-width="0.5" stroke-miterlimit="10" x1="78.8" y1="13.2" x2="89.1" y2="6.2"/>
		<polyline fill="none" stroke="#FFFFFF" stroke-width="0.5" stroke-miterlimit="10" points="79.4,14.3 84.6,14.3 85.6,16.3 
			85.8,18.1 86.2,20.2 		"/>
		<polyline fill="none" stroke="#FFFFFF" stroke-width="0.5" stroke-miterlimit="10" points="84.6,14.3 86.1,12.7 87.4,11.9 
			89.6,11.2 		"/>
		<line fill="none" stroke="#FFFFFF" stroke-width="0.5" stroke-miterlimit="10" x1="92.6" y1="28.4" x2="98.2" y2="21.3"/>
		<line fill="none" stroke="#FFFFFF" stroke-width="0.5" stroke-miterlimit="10" x1="84.4" y1="22.8" x2="80.4" y2="27.2"/>
		<polyline fill="none" stroke="#FFFFFF" stroke-width="0.5" stroke-miterlimit="10" points="99.6,12.7 100.3,14.5 104.9,12.7 		"/>
		<polyline fill="none" stroke="#FFFFFF" stroke-width="0.5" stroke-miterlimit="10" points="93.2,41.1 98.2,39.8 97.9,37.4 
			97.4,35.2 97.4,32.9 97.7,31.9 96.4,32.2 		"/>
		<polyline fill="none" stroke="#FFFFFF" stroke-width="0.5" stroke-miterlimit="10" points="97.9,47.9 97.9,48.8 99.4,50.2 
			100.4,49.1 100.9,48.5 103.7,45.5 104.4,44.5 105.2,42.4 104.4,41.9 103.6,40.4 102.2,39.8 101.6,39.8 100.9,40.4 100.8,39.3 
			100.3,39 100.2,38.4 98.8,38.4 98.8,40 98.5,41.9 96.7,43.8 		"/>
		<polyline fill="none" stroke="#FFFFFF" stroke-width="0.5" stroke-miterlimit="10" points="100.2,47.1 100.2,45.6 100.9,44.3 
			100,43.3 100,41.9 100.9,41.5 101.4,41.4 102.9,41.6 102.7,42.6 102.1,43.7 101.4,44.5 		"/>
		<polyline fill="none" stroke="#FFFFFF" stroke-width="0.5" stroke-miterlimit="10" points="97.6,45.9 99,46.1 99.7,45.1 100,44.1 
			99.7,43.3 99.6,41.5 98.5,41.5 		"/>
		<polygon fill="none" stroke="#FFFFFF" stroke-width="0.5" stroke-miterlimit="10" points="104,41.1 105.6,40.3 106.9,39.5 
			108.2,38.6 109.1,38.2 109.4,37.1 108.3,37.1 108.1,36 107.9,35 107.5,33.5 106.9,33.1 106.5,31.6 104.5,31.6 104.1,32.6 
			103.4,32.6 103.5,34.2 103.4,35.6 103.7,36.6 104.1,38 104.4,39.7 		"/>
		<polyline fill="none" stroke="#FFFFFF" stroke-width="0.5" stroke-miterlimit="10" points="103.4,35.6 104.7,35.9 106.2,35.6 
			107,35.4 107.9,35 		"/>
		<polyline fill="none" stroke="#FFFFFF" stroke-width="0.5" stroke-miterlimit="10" points="107.7,34.2 106.2,35 105.4,35 
			103.4,35 		"/>
		<polyline fill="none" stroke="#FFFFFF" stroke-width="0.5" stroke-miterlimit="10" points="98.2,38.4 101.4,37.7 101.5,36.1 
			101.5,34.4 99.4,32.8 97.3,32.8 		"/>
		<polyline fill="none" stroke="#FFFFFF" stroke-width="0.5" stroke-miterlimit="10" points="108.6,24.3 109.4,25 109.4,27.3 
			109.1,29.3 104.7,30.1 102.4,31.1 97.4,32.9 		"/>
		<polyline fill="none" stroke="#FFFFFF" stroke-width="0.5" stroke-miterlimit="10" points="109.4,20.4 105.2,17.9 104.9,18.8 
			104.5,21 102.4,23.7 102.4,25.8 105.4,26.4 106.7,24.8 		"/>
		<polyline fill="none" stroke="#FFFFFF" stroke-width="0.5" stroke-miterlimit="10" points="97.7,31.9 100,29.5 100.6,27.2 
			100.3,24.3 99.4,23 99,22.3 		"/>
		<path fill="none" stroke="#FFFFFF" stroke-width="0.5" stroke-miterlimit="10" d="M109.1,42.2l-0.7,1l-0.6,1l1.2,1.1v0.8l8.6,8.5
			l1.8,1l1.9,1.1c0,0,1.6,1.1,1.2,1.1s-0.5,2.6-0.5,2.6l3.3,2.8l1.2,0.9l0.5,0.7l1.4-1.5l-5.8-5.5"/>
		<line fill="none" stroke="#FFFFFF" stroke-width="0.5" stroke-miterlimit="10" x1="128.5" y1="63.4" x2="131" y2="65.5"/>
		<polygon fill="none" stroke="#FFFFFF" stroke-width="0.5" stroke-miterlimit="10" points="109.1,46.1 108.4,46.1 107.9,47.1 
			107,48.3 106.7,48.9 106.7,50.7 106.7,51.3 107.9,51.3 109.4,49.5 110.2,48.1 		"/>
		<polyline fill="none" stroke="#FFFFFF" stroke-width="0.5" stroke-miterlimit="10" points="114.1,58.7 114.1,56.9 114.2,56 
			115.8,56 118.2,56.7 119.7,57.6 121.1,58.3 121.5,59.7 121.5,61.2 		"/>
		<polygon fill="none" stroke="#FFFFFF" stroke-width="0.5" stroke-miterlimit="10" points="117.8,59.2 118.9,58.9 120,58.9 
			120.4,60.2 120.4,61.4 119.4,61.9 118.4,61.7 117.6,61.2 117.4,60.2 117.4,59.7 		"/>
		<polyline fill="none" stroke="#FFFFFF" stroke-width="0.5" stroke-miterlimit="10" points="107.9,51.3 107.9,52.3 109.4,53.6 
			111.6,50.2 112.1,51.3 113.1,51.9 114.5,53.3 114.8,53.7 114.8,54.6 		"/>
		<polyline fill="none" stroke="#FFFFFF" stroke-width="0.5" stroke-miterlimit="10" points="109.4,53.6 110.2,54 112.1,51.3 		"/>
		<polyline fill="none" stroke="#FFFFFF" stroke-width="0.5" stroke-miterlimit="10" points="110.2,54 112.1,55.6 113.6,56.7 		"/>
		<polyline fill="none" stroke="#FFFFFF" stroke-width="0.5" stroke-miterlimit="10" points="111.6,55.2 110.6,56.7 115.1,60.1 		
			"/>
		<polyline fill="none" stroke="#FFFFFF" stroke-width="0.5" stroke-miterlimit="10" points="122.4,60.7 121.8,61.9 120.8,63 
			123.6,65.5 124.6,66.9 125.6,68.1 127.1,69.7 129,71.3 129.1,72.1 		"/>
		<polyline fill="none" stroke="#FFFFFF" stroke-width="0.5" stroke-miterlimit="10" points="119,63.7 120.4,63 121.2,62 
			121.8,60.7 121.9,57.7 119.7,56.3 117.4,55 116.7,54.7 115.3,54.6 114,54.8 113.6,56 113.5,57.9 114.5,59.4 116.1,61.3 
			117.9,63.4 119,63.7 123.3,67.6 121.2,70.2 107.6,57.6 109.4,55.1 106.4,52.2 106.4,51.3 106.7,51.3 104.4,51.5 103.8,50.2 
			102.3,50 100.5,50.2 99.2,50 		"/>
		<line fill="none" stroke="#FFFFFF" stroke-width="0.5" stroke-miterlimit="10" x1="105.2" y1="42.4" x2="108.4" y2="46.1"/>
		<polyline fill="none" stroke="#FFFFFF" stroke-width="0.5" stroke-miterlimit="10" points="107.6,57.6 105.7,56.7 104.5,54.8 
			103.7,56.2 102.3,54.9 100.2,53 101.2,51.6 101.2,50 		"/>
		<line fill="none" stroke="#FFFFFF" stroke-width="0.5" stroke-miterlimit="10" x1="105.7" y1="51.3" x2="102.3" y2="54.9"/>
		<polyline fill="none" stroke="#FFFFFF" stroke-width="0.5" stroke-miterlimit="10" points="103.7,56.2 105.2,58 107.6,60.4 
			110.6,63 114.5,66.7 116.9,69.2 119.9,71.6 121.2,72.3 121.8,72.9 122.9,72.9 122.9,72.1 122,70.9 121.2,70.2 		"/>
		<line fill="none" stroke="#FFFFFF" stroke-width="0.5" stroke-miterlimit="10" x1="106.8" y1="59.6" x2="100.5" y2="69.2"/>
		<line fill="none" stroke="#FFFFFF" stroke-width="0.5" stroke-miterlimit="10" x1="100.5" y1="69.2" x2="115.1" y2="81.9"/>
		<line fill="none" stroke="#FFFFFF" stroke-width="0.5" stroke-miterlimit="10" x1="103.9" y1="75.3" x2="105.5" y2="73.5"/>
		<line fill="none" stroke="#FFFFFF" stroke-width="0.5" stroke-miterlimit="10" x1="109.1" y1="80.2" x2="110.7" y2="78.1"/>
		<line fill="none" stroke="#FFFFFF" stroke-width="0.5" stroke-miterlimit="10" x1="111.9" y1="84.1" x2="119.7" y2="71.4"/>
		<line fill="none" stroke="#FFFFFF" stroke-width="0.5" stroke-miterlimit="10" x1="117.1" y1="78.2" x2="120.4" y2="72.9"/>
		<line fill="none" stroke="#FFFFFF" stroke-width="0.5" stroke-miterlimit="10" x1="124.1" y1="74.7" x2="121.5" y2="72.9"/>
		<line fill="none" stroke="#FFFFFF" stroke-width="0.5" stroke-miterlimit="10" x1="120.4" y1="72.9" x2="121.5" y2="72.9"/>
		<line fill="none" stroke="#FFFFFF" stroke-width="0.5" stroke-miterlimit="10" x1="117.1" y1="78.2" x2="117.5" y2="78.9"/>
		<line fill="none" stroke="#FFFFFF" stroke-width="0.5" stroke-miterlimit="10" x1="120.7" y1="76.4" x2="118.6" y2="78.9"/>
		<line fill="none" stroke="#FFFFFF" stroke-width="0.5" stroke-miterlimit="10" x1="117.5" y1="78.9" x2="118.6" y2="78.9"/>
		<line fill="none" stroke="#FFFFFF" stroke-width="0.5" stroke-miterlimit="10" x1="120.7" y1="76.4" x2="121.3" y2="76.5"/>
		<line fill="none" stroke="#FFFFFF" stroke-width="0.5" stroke-miterlimit="10" x1="122.5" y1="76.8" x2="121.3" y2="76.5"/>
		<line fill="none" stroke="#FFFFFF" stroke-width="0.5" stroke-miterlimit="10" x1="103.3" y1="55.9" x2="98.2" y2="64.4"/>
		<line fill="none" stroke="#FFFFFF" stroke-width="0.5" stroke-miterlimit="10" x1="98.3" y1="68" x2="98.2" y2="64.4"/>
		<path fill="none" stroke="#FFFFFF" stroke-width="0.5" stroke-miterlimit="10" d="M96.6,70.2c0-1.2,0.8-2.2,1.7-2.1c0,0,0,0,0,0"
			/>
		<path fill="none" stroke="#FFFFFF" stroke-width="0.5" stroke-miterlimit="10" d="M96.6,70.2c0,1.1,0.7,2.1,1.6,2.1c0,0,0,0,0,0"
			/>
		<path fill="none" stroke="#FFFFFF" stroke-width="0.5" stroke-miterlimit="10" d="M100.1,70.4c0,1-0.9,1.9-1.9,1.9"/>
		<path fill="none" stroke="#FFFFFF" stroke-width="0.5" stroke-miterlimit="10" d="M100.1,70.4c0-1.3-0.8-2.4-1.8-2.4c0,0,0,0,0,0"
			/>
		<line fill="none" stroke="#FFFFFF" stroke-width="0.5" stroke-miterlimit="10" x1="100.5" y1="69.2" x2="98.4" y2="72.8"/>
		<line fill="none" stroke="#FFFFFF" stroke-width="0.5" stroke-miterlimit="10" x1="98.4" y1="75.2" x2="98.4" y2="72.8"/>
		<line fill="none" stroke="#FFFFFF" stroke-width="0.5" stroke-miterlimit="10" x1="109.6" y1="85.3" x2="98.4" y2="75.2"/>
		<line fill="none" stroke="#FFFFFF" stroke-width="0.5" stroke-miterlimit="10" x1="111.9" y1="84.1" x2="109.6" y2="85.3"/>
		<polyline fill="none" stroke="#FFFFFF" stroke-width="0.5" stroke-miterlimit="10" points="100,56.9 98.4,55.4 97.9,54.9 
			96.1,54.9 94.2,56.2 95.9,58.2 98.4,55.4 		"/>
		<polyline fill="none" stroke="#FFFFFF" stroke-width="0.5" stroke-miterlimit="10" points="95.9,58.2 98.3,61.2 100,56.9 		"/>
		<polygon fill="none" stroke="#FFFFFF" stroke-width="0.5" stroke-miterlimit="10" points="118.9,78.9 119.8,80 119.8,81.4 
			118.7,82.4 117.3,81.3 117.3,80 118,79.1 		"/>
		<polyline fill="none" stroke="#FFFFFF" stroke-width="0.5" stroke-miterlimit="10" points="93.9,72.3 95.4,64.6 95.4,63.6 
			94.2,62.3 89.8,70.5 90.1,73.6 90.1,75 89.8,76.1 89.2,77.3 88.2,77.8 86.8,77.8 86.2,77.8 85.3,76.6 85,75.6 84.4,72.3 
			83.7,66.7 84.9,66.2 87.1,65.8 88.6,65.6 89.8,76.1 		"/>
		<polyline fill="none" stroke="#FFFFFF" stroke-width="0.5" stroke-miterlimit="10" points="88.8,67.5 92.1,62.3 91.8,60.7 
			79.5,61.9 76.9,64.9 75.4,66.2 75.9,66.8 75,67.5 74.8,68.9 75,70 75.6,71 76.7,71 77.5,70.5 78.2,69.7 80.8,73.3 		"/>
		<line fill="none" stroke="#FFFFFF" stroke-width="0.5" stroke-miterlimit="10" x1="76.9" y1="64.9" x2="82.7" y2="72.1"/>
		<polyline fill="none" stroke="#FFFFFF" stroke-width="0.5" stroke-miterlimit="10" points="95.3,72.9 95.9,67.7 96.4,64 94,61.7 
			91.9,58.2 92.4,56.6 92.4,54.6 90.8,53.4 90.8,52 89.8,51.3 88.4,51.3 88.4,52.2 86.9,51 85.3,50.8 83.7,51.3 81.7,53.1 
			80.5,53.6 79,54.7 78.5,56.9 78.3,59.3 79,60.1 79.4,61.2 79.5,61.9 		"/>
		<ellipse fill="none" stroke="#FFFFFF" stroke-width="0.5" stroke-miterlimit="10" cx="81.2" cy="59.2" rx="1.4" ry="1.8"/>
		<ellipse fill="none" stroke="#FFFFFF" stroke-width="0.5" stroke-miterlimit="10" cx="90.5" cy="57.4" rx="1.4" ry="1.8"/>
		<polyline fill="none" stroke="#FFFFFF" stroke-width="0.5" stroke-miterlimit="10" points="92.4,55.3 90.7,54.2 89.7,53.8 
			87.8,52.9 86.7,52 85.7,52 84.3,52.6 82.8,53.7 81.5,54.9 80.1,55.3 78.5,56.4 		"/>
		<polyline fill="none" stroke="#FFFFFF" stroke-width="0.5" stroke-miterlimit="10" points="72.7,106.6 71.5,106.6 70.4,106.4 
			69.4,107.6 68.7,107.9 67.1,107.9 66.6,107.1 66.2,106.4 65.5,106.7 64.9,107.6 64.8,108.7 63.6,109 62.1,109 61.1,109.8 
			60.4,110.4 59.4,110.4 58.8,109.6 58,109.1 55,109.1 53.6,108.4 52.5,107.2 51.8,105.8 51.3,103.3 51.5,102 50.6,100.2 49.9,99 
			49.5,96.8 49.5,94.2 49.5,93.2 50.1,91.6 50.4,90.2 50.3,88.1 50.5,86.1 51.3,84.7 51.8,82.8 52.2,81.1 52.3,79.5 51.8,78.6 
			51.9,78.1 52.4,77.4 54.1,77.4 54.7,78.6 54.7,79.9 54.6,80.6 55.6,80.3 55.9,81.3 55.9,82.9 56.7,83.3 57.3,83.8 57.8,83 
			58.8,81.5 59.3,81.2 59.8,79.9 61.1,79.8 62.2,78.7 65.5,75.2 67,73.9 70.6,73.9 70.6,73.1 71.4,72.7 73.1,72.7 73.1,73.2 
			73.6,73.3 73.6,72.2 74.8,71.4 76.5,71.4 77.3,72.3 77.3,74.2 77.9,75 79.8,75.4 83.1,75.9 84.8,76.5 86.2,77.8 		"/>
		<polyline fill="none" stroke="#FFFFFF" stroke-width="0.5" stroke-miterlimit="10" points="89.2,77.3 90.3,77.3 91.2,75.2 
			93.4,76.6 94.5,77.3 94.3,79.1 96,79.1 97.9,80.6 97.1,83.1 97.9,83.1 98.8,81.6 99.7,81.2 100.6,80.9 101.2,80.6 102,79.8 
			103.7,80 		"/>
		<path fill="none" stroke="#FFFFFF" stroke-width="0.5" stroke-miterlimit="10" d="M51.5,102l0.8-1.7h1.4l0.7-0.2l1-0.8v-2.5
			c0,0-0.3-0.4-0.4-0.4c-0.2-0.2-0.5-0.4-0.7-0.7l0-2.3l1.1-1.5l1.4-2.2l1-0.9l0.5-0.3l0.5-1.4l0.5-1.5l1.1-0.8l1.6-0.3l0.9-1.7
			l1.4-1l1.6-2l0.2-2l1.4-0.7h3.2l0.7-1.2h1.5l0.8,1.1h0.5v-1.5l0.9-0.4l1.3,0.3l1.3,0.4v1.8l0.5,1l1.4,1.2l1.2-0.1l1.8,0.2l1.9,0.3
			h1.4l2.1-0.3l0.7-0.9l0.7,0.1l0.8,1.1l0.8-0.4l0.8-0.7h1.4l0.6,0.5l0.5,1L94,82.6l-0.2,0.9l1,0.3l1.7,0.2l0.8,2.4l0.4,2.5l0.5,2.4
			l1.4,0.1l1.1,0.8l1.1,0.9l1.1,1l0.7,0.1l1.5-3.2l0.9-2l-0.6-1.3l0.7-0.4v-0.8l1.3-1.8l0.2-1.2"/>
		<polyline fill="none" stroke="#FFFFFF" stroke-width="0.5" stroke-miterlimit="10" points="103.7,94.1 104.4,94.5 105.3,95.5 
			105.7,97.8 107.3,101.9 107.4,103.8 107.5,104.6 108,107.1 108,109.9 107.8,112.1 107.8,114.2 107.4,116.6 106.7,117.9 
			106.1,119.2 105.3,121.1 104.4,122.3 103.4,123.5 102.3,124.8 101.2,126.1 100.1,127.1 97.7,128 95.3,129.6 93.5,130.1 
			91.2,130.1 88.8,130.1 86.4,129.4 83.5,129.1 81.7,128.7 79.5,128.3 78,128 76.1,125.2 75,123.1 74.3,121.8 73.4,119.6 
			73.4,117.1 73.1,113.5 72.9,110.2 72.9,107.7 72.6,103.9 72.6,101.6 72.4,100.1 72.2,99.5 68.9,98 67.2,97 65,95.9 62.9,95.3 
			60.7,94.1 59.8,93.9 57.6,93.9 56.2,93.9 55.7,92.8 55,92.5 		"/>
		<polyline fill="none" stroke="#FFFFFF" stroke-width="0.5" stroke-miterlimit="10" points="72.1,100.8 69.4,99.6 67.5,98.5 
			65,97.2 62.9,95.9 60.5,94.9 59.8,93.9 		"/>
		<polyline fill="none" stroke="#FFFFFF" stroke-width="0.5" stroke-miterlimit="10" points="70.5,98.7 71.7,96.9 73.5,94.7 
			75.5,92.5 76.7,91.2 79.2,90.9 83.7,90.9 92.7,90.9 94.7,90.9 96.8,91.1 99,92.5 101.2,94.4 103,95.9 104.5,97.6 105.5,99 
			107.1,101.6 		"/>
		<polyline fill="none" stroke="#FFFFFF" stroke-width="0.5" stroke-miterlimit="10" points="58.7,88 59.6,88.6 61.1,88.6 
			61.9,87.7 61.9,86.2 61.5,85.2 59.9,85.2 		"/>
		<ellipse fill="none" stroke="#FFFFFF" stroke-width="0.5" stroke-miterlimit="10" cx="60.4" cy="86.8" rx="0.8" ry="1"/>
		<polygon fill="none" stroke="#FFFFFF" stroke-width="0.5" stroke-miterlimit="10" points="53.1,96.4 54.7,96.4 55.2,97.4 55.2,99 
			54.4,99.9 52.8,99.9 51.9,99.2 51.9,97.3 		"/>
		<ellipse fill="none" stroke="#FFFFFF" stroke-width="0.5" stroke-miterlimit="10" cx="53.6" cy="98.1" rx="0.8" ry="1"/>
		<polygon fill="none" stroke="#FFFFFF" stroke-width="0.5" stroke-miterlimit="10" points="75.4,76.4 77,76.4 77.5,77.4 77.5,79 
			76.7,79.9 75.1,79.9 74.3,79.2 74.3,77.8 74.6,76.4 		"/>
		<ellipse fill="none" stroke="#FFFFFF" stroke-width="0.5" stroke-miterlimit="10" cx="75.9" cy="78.1" rx="0.8" ry="1"/>
		<polyline fill="none" stroke="#FFFFFF" stroke-width="0.5" stroke-miterlimit="10" points="53.7,92.5 52.8,92.5 52.8,93.1 
			52.4,93.1 51.9,92.8 51.5,91.8 		"/>
		<polyline fill="none" stroke="#FFFFFF" stroke-width="0.5" stroke-miterlimit="10" points="52.4,93.1 52.6,94.1 52.8,95.9 
			51.7,97.1 51.5,97.7 51.3,98.7 50.7,99.1 50.6,97.3 50.1,97.1 50.1,94.9 50.1,93.3 50.8,92.1 51.4,90.7 51.9,90 53.2,90 
			53.9,90.5 54.4,91.6 54.4,92.2 53.7,92.5 53.8,93.4 54.4,93.2 		"/>
		<polyline fill="none" stroke="#FFFFFF" stroke-width="0.5" stroke-miterlimit="10" points="52.4,89.8 52.4,88.6 52.8,87.5 
			54,87.5 54.8,87.9 55.4,88.4 55.4,89.4 55,90.3 54.8,90.9 54.2,91.1 		"/>
		<polyline fill="none" stroke="#FFFFFF" stroke-width="0.5" stroke-miterlimit="10" points="51.5,90 51.8,88.6 52.2,87.3 53,86.5 
			53.7,86.3 54.8,86.5 55.8,86.8 55.8,85.7 56.3,85.2 57.3,83.8 		"/>
		<polyline fill="none" stroke="#FFFFFF" stroke-width="0.5" stroke-miterlimit="10" points="58,109.1 58,107.5 58.8,106.6 
			60.4,106.4 61.3,107.2 61.4,108.8 61.1,109.8 		"/>
		<ellipse fill="none" stroke="#FFFFFF" stroke-width="0.5" stroke-miterlimit="10" cx="59.9" cy="108.3" rx="1" ry="1.2"/>
		<ellipse fill="none" stroke="#FFFFFF" stroke-width="0.5" stroke-miterlimit="10" cx="90.5" cy="111" rx="6.5" ry="8.5"/>
		<ellipse fill="none" stroke="#FFFFFF" stroke-width="0.5" stroke-miterlimit="10" cx="90.4" cy="111" rx="4.5" ry="5.8"/>
		<polyline fill="none" stroke="#FFFFFF" stroke-width="0.5" stroke-miterlimit="10" points="69.7,107.3 70.1,108.6 70.2,109.8 
			71.5,109.6 72.5,108.8 72.6,107.3 71.9,106.6 		"/>
		<ellipse fill="none" stroke="#FFFFFF" stroke-width="0.5" stroke-miterlimit="10" cx="114.7" cy="98.1" rx="5.5" ry="7.1"/>
		<polyline fill="none" stroke="#FFFFFF" stroke-width="0.5" stroke-miterlimit="10" points="121.4,87.4 120.4,87.4 119.9,86.5 
			117.7,86 116.5,87.8 112.8,87.8 112.6,86 111.7,85.3 114.7,82.4 116.5,82.1 117.3,81.3 		"/>
		<polyline fill="none" stroke="#FFFFFF" stroke-width="0.5" stroke-miterlimit="10" points="111.7,85.3 110.7,85.3 109.9,85.9 
			109.6,86.4 109.6,88.6 108.8,89.9 107.5,92.2 107.1,93.4 106.6,91.7 105.2,91.9 104.7,93.4 105.4,95.1 106,95.1 105.9,98.1 
			106.4,99.6 107.3,101.9 107.5,102.6 108.4,103.3 109.2,104.4 110.2,105.2 111.1,106.2 112.4,106.2 114,106.6 115.3,106.6 
			116.3,106.1 117.3,105.5 118.4,104.8 119.6,103.9 120.7,102.6 121.4,101.3 121.5,100.6 122.8,100.4 123.2,100.1 124.4,98.7 		"/>
		<polyline fill="none" stroke="#FFFFFF" stroke-width="0.5" stroke-miterlimit="10" points="116.5,87.8 118.5,88.3 119.6,89 
			120.9,89.9 121.5,90.9 122.1,92.3 121.9,94.2 121.9,95.9 121.4,96.9 120.9,98.5 121.5,100 		"/>
		<line fill="none" stroke="#FFFFFF" stroke-width="0.5" stroke-miterlimit="10" x1="107.1" y1="93.4" x2="106" y2="95.1"/>
		<polyline fill="none" stroke="#FFFFFF" stroke-width="0.5" stroke-miterlimit="10" points="55.9,82.9 58.7,80.3 63.8,74.7 
			68.6,68.9 72.4,64.6 73.9,63 76.4,59.7 77.5,58 78.3,59.3 		"/>
		<polyline fill="none" stroke="#FFFFFF" stroke-width="0.5" stroke-miterlimit="10" points="67,73.9 73.6,66.4 77.5,62.6 
			78.5,61.6 78.7,60.7 78,60.7 77.8,59.7 77.5,58.5 		"/>
		<polygon fill="none" stroke="#FFFFFF" stroke-width="0.5" stroke-miterlimit="10" points="73.2,63.8 67.1,56.6 66.3,57.3 
			54.9,70.8 60.6,77.8 61.1,76.4 56.2,70.4 66.4,58.3 71.9,64 		"/>
		<polyline fill="none" stroke="#FFFFFF" stroke-width="0.5" stroke-miterlimit="10" points="58.2,80.8 55.4,77.3 55.2,80.4 		"/>
		<polyline fill="none" stroke="#FFFFFF" stroke-width="0.5" stroke-miterlimit="10" points="30.3,56.8 31.6,58 33.5,57.7 
			34.5,59.2 35.6,60 36.9,61 38.2,59.8 39.3,60.7 39.3,62.3 38.2,62.7 38.2,63.7 38.7,64.9 37.6,65.5 37,66.7 34.8,69.6 35,71.1 
			35.7,71.4 38.7,67.6 39.4,68.3 39.7,69.4 41.1,70.9 42.3,71.2 43.4,70.5 44.8,68.7 45.4,68 45.6,68.3 44.9,69.4 43.7,71 
			42.5,71.9 41.5,72.1 42.4,73.4 43.4,73.9 43.9,73.2 44.7,73.7 45.7,73.9 46.8,74.2 46.8,73.2 47.8,73.1 48.2,72.2 49.1,72.3 
			50,72.5 50.5,73.1 50.8,73.3 51,74.2 51.9,74.2 51.9,75 52.2,75.9 52.6,76.4 53.7,77.1 53.7,76 54.4,76.4 55.2,77.3 		"/>
		<polygon fill="none" stroke="#FFFFFF" stroke-width="0.5" stroke-miterlimit="10" points="50.9,63.2 49.5,64.3 51.2,66.4 
			52.4,65.1 		"/>
		<polyline fill="none" stroke="#FFFFFF" stroke-width="0.5" stroke-miterlimit="10" points="50.9,63 60.5,51.8 60.9,50.3 
			63.3,52.8 62.3,53.6 52.4,65.1 		"/>
		<line fill="none" stroke="#FFFFFF" stroke-width="0.5" stroke-miterlimit="10" x1="62.3" y1="53.6" x2="60.7" y2="51.6"/>
		<polygon fill="none" stroke="#FFFFFF" stroke-width="0.5" stroke-miterlimit="10" points="52,67.8 53.4,66.7 62.9,55.4 63.8,54.2 
			65.5,56 64.1,57.2 60.4,62.7 58.8,62.9 58.5,64.3 55.2,68.3 54.4,70 		"/>
		<line fill="none" stroke="#FFFFFF" stroke-width="0.5" stroke-miterlimit="10" x1="53.4" y1="66.7" x2="55.2" y2="68.3"/>
		<line fill="none" stroke="#FFFFFF" stroke-width="0.5" stroke-miterlimit="10" x1="62.9" y1="55.4" x2="64.2" y2="57"/>
		<polyline fill="none" stroke="#FFFFFF" stroke-width="0.5" stroke-miterlimit="10" points="72.7,45.1 73.4,46.1 73.7,47.4 
			73.7,48.4 74,49.1 74.6,49.2 		"/>
		<polyline fill="none" stroke="#FFFFFF" stroke-width="0.5" stroke-miterlimit="10" points="34.5,59.2 34.8,57.7 35.3,57 36,56.2 
			36.2,56.2 36.4,54.4 37.1,53.6 37.9,52.4 38.6,51.4 39.1,51.4 39.4,49.8 40,48.8 41,47.6 42.1,46.6 43,45.9 43.8,45.4 44.8,44.6 
			45.8,44.2 46.5,43 46.6,41.5 46.9,40.4 48.1,39.2 49.5,37.7 50.4,36.3 51.3,36.3 51.5,35.2 52.8,34 54.4,32.6 55.2,31.9 56,31.6 
			56.9,30.6 58,29.6 58.8,29 59.7,29.3 		"/>
		<polyline fill="none" stroke="#FFFFFF" stroke-width="0.5" stroke-miterlimit="10" points="38.2,59.8 39.7,58 40.5,58 41.5,58.5 
			41.5,59.2 39.7,62.1 39.3,62.3 		"/>
		<polyline fill="none" stroke="#FFFFFF" stroke-width="0.5" stroke-miterlimit="10" points="39.7,57.7 39.7,56.2 39.4,55 
			39.9,53.7 41.2,52.6 43.1,51.2 44.2,50 45.1,48.9 46,47.8 47.6,47.6 48.8,48 49.7,48 49.9,47.1 49.5,45.5 49.9,44.4 49.9,42.9 
			50.5,41.9 51.2,40.4 52.2,38.9 53.4,37.5 54.9,36.2 56.2,35.4 57.3,33.7 58,32.4 59,31.4 60,31.1 		"/>
		<polyline fill="none" stroke="#FFFFFF" stroke-width="0.5" stroke-miterlimit="10" points="41.7,59.2 42.2,59.8 42.9,60.1 
			43.1,61 43.1,62.1 41.7,63.2 41.5,64.1 40.9,64.8 40.3,65.8 39.6,66.4 39.3,66.7 38.7,67.6 		"/>
		<polyline fill="none" stroke="#FFFFFF" stroke-width="0.5" stroke-miterlimit="10" points="41.5,64.1 42.4,63.9 43.1,64.1 
			43.6,64.8 44.4,65.7 44.7,66.4 45.2,67.2 45.4,68 		"/>
		<path fill="none" stroke="#FFFFFF" stroke-width="0.5" stroke-miterlimit="10" d="M41.9,59.2c0.1-0.3-0.2-1-0.2-1l1.7-2l0.8,0.3
			l0.8,1.1l1.1,0.3v1.9L44,62.1h-0.9"/>
		<path fill="none" stroke="#FFFFFF" stroke-width="0.5" stroke-miterlimit="10" d="M39.4,56.6c-0.2,0-1.5,0-1.5,0l-1.4-0.3"/>
		<polyline fill="none" stroke="#FFFFFF" stroke-width="0.5" stroke-miterlimit="10" points="39.4,51.2 40,52.1 40.2,53.4 		"/>
		<polyline fill="none" stroke="#FFFFFF" stroke-width="0.5" stroke-miterlimit="10" points="42.7,46.1 43.8,47 44,48.5 44.2,50 		
			"/>
		<polyline fill="none" stroke="#FFFFFF" stroke-width="0.5" stroke-miterlimit="10" points="44.3,45 45,47.1 46.8,47.1 47.6,47.6 
			47.9,45.9 48.8,44.7 47.5,42.7 46.5,42.3 		"/>
		<line fill="none" stroke="#FFFFFF" stroke-width="0.5" stroke-miterlimit="10" x1="48.8" y1="44.9" x2="49.7" y2="44.9"/>
		<polyline fill="none" stroke="#FFFFFF" stroke-width="0.5" stroke-miterlimit="10" points="40.5,67.5 42.3,65.7 44,67 44,68.6 
			43.1,69.7 41.8,69.5 40.7,68.8 40.7,67.6 		"/>
		<polyline fill="none" stroke="#FFFFFF" stroke-width="0.5" stroke-miterlimit="10" points="47.2,65.1 59.1,51.1 60,50 62.1,47.6 
			64.2,46.5 65.1,44.9 65.4,43.2 65.2,41.9 64.2,40.9 63.1,40.4 61.5,40.4 60.7,40.9 60.2,41.3 59.3,40.9 58.6,40 58,39.3 57,40 
			56.2,40.9 55.7,41.5 55.9,42.5 56.5,43.2 57.1,44.1 57.2,44.6 56.6,45.1 56.8,46.3 57.5,46.8 58.2,47.6 58.8,48.1 59.2,48.8 
			59.1,49.8 59.2,50.9 		"/>
		<polyline fill="none" stroke="#FFFFFF" stroke-width="0.5" stroke-miterlimit="10" points="59.7,40.7 60.4,39.8 61.3,38.9 
			62.1,38.3 63.2,38.3 63.8,38.3 64.4,39.3 65.1,40.4 65.8,41.1 65.8,42.3 65.8,43 65.2,44.4 		"/>
		<polyline fill="none" stroke="#FFFFFF" stroke-width="0.5" stroke-miterlimit="10" points="64.4,46.2 65.4,47 65.8,47.9 
			66.7,45.9 68.1,44.9 69.6,45.4 70.7,46.8 71.3,47.9 71.4,49.4 71.3,51.6 70.3,52.6 69.3,53.7 		"/>
		<polygon fill="none" stroke="#FFFFFF" stroke-width="0.5" stroke-miterlimit="10" points="67.5,49.5 68.6,49.2 69.2,49.5 
			69.5,50.3 69.2,51.2 68.9,51.7 68.5,51.9 67.9,51.6 67.5,50.9 67.3,50.3 		"/>
		<polyline fill="none" stroke="#FFFFFF" stroke-width="0.5" stroke-miterlimit="10" points="48.2,72.2 46.8,70.7 45.9,70 
			45.4,68.6 		"/>
		<polyline fill="none" stroke="#FFFFFF" stroke-width="0.5" stroke-miterlimit="10" points="50.2,72.7 50,71.2 49.5,70.9 
			48.8,71.1 48.4,70 48.4,69.1 47.8,68.3 47.2,67.6 45.9,67.5 45.6,68.3 		"/>
		<polyline fill="none" stroke="#FFFFFF" stroke-width="0.5" stroke-miterlimit="10" points="43.8,62.3 44.6,63.4 45.4,64.2 
			46.1,64.6 47.2,65.4 47.7,67 47.5,67.7 		"/>
		<polyline fill="none" stroke="#FFFFFF" stroke-width="0.5" stroke-miterlimit="10" points="49.7,61.9 46.5,57.9 47.9,57 
			49.2,54.9 50.2,53.2 50.7,52.6 53.7,56.3 54.3,54.9 50.9,51.9 50.8,51.6 52,51.3 52.1,50 52,49 52.4,48.6 53.4,48.6 54,48.6 
			54.9,48.1 55.9,48.1 56.3,49.2 56.7,50.3 55.9,51.2 55.4,51.9 56.3,52.6 54.3,54.9 		"/>
		<polyline fill="none" stroke="#FFFFFF" stroke-width="0.5" stroke-miterlimit="10" points="63.9,46.7 64.5,48.1 65.5,49.6 
			66.5,48.1 67.5,47.2 68.3,46.8 69.3,47.2 70,48.2 70.8,49.3 70.8,50.9 70.5,52.3 		"/>
		<polyline fill="none" stroke="#FFFFFF" stroke-width="0.5" stroke-miterlimit="10" points="71.6,48.6 72.3,49.2 72.2,50.8 
			71.4,52.9 70.6,53.6 72,55.2 72.3,54.7 73.8,54.7 74.1,56.6 73.6,57.3 75.8,59.8 76.1,60.1 		"/>
		<polyline fill="none" stroke="#FFFFFF" stroke-width="0.5" stroke-miterlimit="10" points="70.8,57.5 72.4,55.6 72.1,55 		"/>
		<line fill="none" stroke="#FFFFFF" stroke-width="0.5" stroke-miterlimit="10" x1="72" y1="59" x2="73.6" y2="57"/>
		<polyline fill="none" stroke="#FFFFFF" stroke-width="0.5" stroke-miterlimit="10" points="51.5,27.2 52.9,30.1 54,30.1 
			55.2,31.9 		"/>
		<line fill="none" stroke="#FFFFFF" stroke-width="0.5" stroke-miterlimit="10" x1="38.7" y1="38.2" x2="43" y2="45.9"/>
		<line fill="none" stroke="#FFFFFF" stroke-width="0.5" stroke-miterlimit="10" x1="42.7" y1="32.9" x2="47.4" y2="39.9"/>
		<line fill="none" stroke="#FFFFFF" stroke-width="0.5" stroke-miterlimit="10" x1="47" y1="30.5" x2="50.3" y2="36"/>
		<line fill="none" stroke="#FFFFFF" stroke-width="0.5" stroke-miterlimit="10" x1="49.2" y1="28.6" x2="52.6" y2="34.2"/>
		<line fill="none" stroke="#FFFFFF" stroke-width="0.5" stroke-miterlimit="10" x1="33.2" y1="49.7" x2="36.2" y2="56.2"/>
		<line fill="none" stroke="#FFFFFF" stroke-width="0.5" stroke-miterlimit="10" x1="35.1" y1="45.4" x2="38.6" y2="51.4"/>
		<line fill="none" stroke="#FFFFFF" stroke-width="0.5" stroke-miterlimit="10" x1="36.4" y1="43.5" x2="39.4" y2="49.8"/>
		<line fill="none" stroke="#FFFFFF" stroke-width="0.5" stroke-miterlimit="10" x1="55.9" y1="48.1" x2="57.3" y2="46.7"/>
		<path fill="none" stroke="#FFFFFF" stroke-width="0.5" stroke-miterlimit="10" d="M43.8,50.6c0,0,3.1,2.6,3,2.4s1.4-0.4,1.4-0.4
			l-0.1-0.1L46,47.8"/>
		<line fill="none" stroke="#FFFFFF" stroke-width="0.5" stroke-miterlimit="10" x1="50.9" y1="51.9" x2="48.2" y2="52.6"/>
		<polyline fill="none" stroke="#FFFFFF" stroke-width="0.5" stroke-miterlimit="10" points="49.9,44.4 52.9,45.7 52.7,47.4 
			52.6,48.6 		"/>
		<polyline fill="none" stroke="#FFFFFF" stroke-width="0.5" stroke-miterlimit="10" points="55.8,48.1 54,47.8 52.9,45.7 		"/>
		<polyline fill="none" stroke="#FFFFFF" stroke-width="0.5" stroke-miterlimit="10" points="54.6,80.6 53,81.6 51.9,82.2 		"/>
		<polyline fill="none" stroke="#FFFFFF" stroke-width="0.5" stroke-miterlimit="10" points="34.8,69.6 33.9,69.7 33.5,69.3 
			31.7,69.3 31.2,70.7 29.9,71.4 29.2,70.1 26.7,70.1 24.7,70.8 23.9,71 23.9,70.2 16.8,70.4 16.2,71.6 16.2,74.5 19.4,74.5 
			19.4,75.5 21.9,75.5 23.6,73.2 23.6,71.9 21.2,71.9 19.6,74.5 		"/>
		<path fill="none" stroke="#FFFFFF" stroke-width="0.5" stroke-miterlimit="10" d="M34.8,71.4l-0.1,0.5H34v0.5l0.4,0.2l0.7,0.5
			l0.5-0.5v-0.5l0.6-0.4l0.6-0.1l0.3,1l1.8,0.5h1c0,0-0.6-1.1,0.2-0.9c0.5,0.2,1.1,0.2,1.7,0.2v1.2l1,1l0.7-0.5l0.5-0.5l1.1,0.7
			l-0.4,0.9l-1.3,1.4h1.2l0.5,0.2V78l0.3,0.8l-0.5,0.9l-0.5,0.9l0.9,0.2l0.5,0.2l1.4-0.2h0.8l1,0.8l0.3,1.2V84l0.2,1.2l0.4,1
			l0.7,0.7"/>
		<polyline fill="none" stroke="#FFFFFF" stroke-miterlimit="10" points="34,71.9 33.5,72.6 33.5,73.7 34.1,74.5 35.6,74.5 
			36.2,73.7 36.2,72.6 35.9,72.1 		"/>
		<polyline fill="none" stroke="#FFFFFF" stroke-width="0.5" stroke-miterlimit="10" points="36.4,71.8 36.7,73.2 37.4,75.2 
			38,75.7 39.1,75.7 40.2,75.2 41.3,75.2 42,76.2 42.2,77.9 42,78.5 42.2,79.7 42.7,80.6 43.5,81.6 44.5,82.9 44.9,83.3 46.8,83.3 
			47.9,83.3 48.5,83.8 48.5,84.6 48.5,85.5 48.5,86.8 48.8,87.5 49.3,88.1 49.8,89 50.2,90 50.4,90.4 		"/>
		<line fill="none" stroke="#FFFFFF" stroke-width="0.5" stroke-miterlimit="10" x1="47.9" y1="80.8" x2="47.9" y2="83"/>
		<line fill="none" stroke="#FFFFFF" stroke-width="0.5" stroke-miterlimit="10" x1="48.5" y1="83.8" x2="48.9" y2="81.6"/>
		<line fill="none" stroke="#FFFFFF" stroke-width="0.5" stroke-miterlimit="10" x1="42" y1="76.2" x2="42.5" y2="74.5"/>
		<line fill="none" stroke="#FFFFFF" stroke-width="0.5" stroke-miterlimit="10" x1="41.3" y1="75.2" x2="41.8" y2="73.7"/>
		<line fill="none" stroke="#FFFFFF" stroke-width="0.5" stroke-miterlimit="10" x1="45.4" y1="80.8" x2="45.4" y2="83"/>
		<line fill="none" stroke="#FFFFFF" stroke-width="0.5" stroke-miterlimit="10" x1="49.4" y1="85.4" x2="48.7" y2="86.9"/>
		<line fill="none" stroke="#FFFFFF" stroke-width="0.5" stroke-miterlimit="10" x1="38.7" y1="73.2" x2="38.2" y2="75.5"/>
		<line fill="none" stroke="#FFFFFF" stroke-width="0.5" stroke-miterlimit="10" x1="23.6" y1="73.2" x2="25.5" y2="71"/>
		<polyline fill="none" stroke="#FFFFFF" stroke-width="0.5" stroke-miterlimit="10" points="34.9,70.5 34.4,70.5 33.7,71 
			33.2,71.6 32.8,72.7 31,72.7 29.6,73.2 31.2,75.8 38.2,75.8 48.2,89.1 49.4,91.8 49.5,93.2 		"/>
		<line fill="none" stroke="#FFFFFF" stroke-width="0.5" stroke-miterlimit="10" x1="38.2" y1="75.8" x2="37.8" y2="80.1"/>
		<line fill="none" stroke="#FFFFFF" stroke-width="0.5" stroke-miterlimit="10" x1="49" y1="96.5" x2="49.4" y2="91.8"/>
		<polyline fill="none" stroke="#FFFFFF" stroke-width="0.5" stroke-miterlimit="10" points="29.6,79.9 28.6,78.4 28.1,78 26.2,78 
			23.4,77.7 21.8,78.3 17.3,78.2 16.2,76.7 15.2,75.8 14.3,75.2 13.2,75.2 12.5,75.8 11.7,76.9 11.7,77.6 11.5,77.6 11.5,78.5 
			9.8,78.5 8.1,78.4 6.8,78.4 5.8,78.6 4,78.7 2.9,79.1 2.1,80.4 1.2,81 		"/>
		<ellipse fill="none" stroke="#FFFFFF" stroke-width="0.5" stroke-miterlimit="10" cx="5.2" cy="85" rx="1.8" ry="2.3"/>
		<polyline fill="none" stroke="#FFFFFF" stroke-width="0.5" stroke-miterlimit="10" points="9.8,86.9 9.7,85.2 9.1,82.7 8.3,80.7 
			6.6,79.6 3.4,79.8 2.3,80.6 1.2,82.2 0.3,82.7 		"/>
		<polyline fill="none" stroke="#FFFFFF" stroke-width="0.5" stroke-miterlimit="10" points="24.3,71 25.7,69 26.9,67.6 28.3,65.9 
			29.9,64.3 32.4,63 34.5,61.2 36.2,61.9 36.9,62.3 37.3,61.9 38,61.2 39.4,61.2 		"/>
		<polyline fill="none" stroke="#FFFFFF" stroke-width="0.5" stroke-miterlimit="10" points="31.1,57.7 30.8,58.4 30.3,59.4 
			30,60.7 30,62.9 29.9,64.3 		"/>
		<polyline fill="none" stroke="#FFFFFF" stroke-width="0.5" stroke-miterlimit="10" points="26.4,68.2 26.1,65.7 25.9,63.7 
			26.5,61.9 		"/>
		<polygon fill="none" stroke="#FFFFFF" stroke-width="0.5" stroke-miterlimit="10" points="9.8,85.8 10.9,85.8 11.8,85.5 12.3,85 
			12.9,83.7 12.9,85.3 13.2,86.3 13.7,87.5 14.3,88.6 15,89.6 15.6,90.4 15.6,90.9 13.9,89.3 13.1,88.8 11.9,88.2 11,87.6 
			10.2,86.9 9.8,86.2 		"/>
		<path fill="none" stroke="#FFFFFF" stroke-width="0.5" stroke-miterlimit="10" d="M22.2,78.1l0.7,0.5l0.8,0.8l0.9,0.9l0.9,0.8v1.9
			l0.7,0.6l0.6,0.7l0.6,0.8l-0.2,1l-0.7,1.1L26,88l-0.5,0.9L25,89.4l-0.7-0.5l-0.5-0.6l-0.9-0.6l-0.6-0.2L21.7,88l-1.1-0.4
			c0,0-0.6-0.7-0.7-0.8l-1.3-1.4L18.1,85l-0.7-1.2l-0.8-1.1l-0.8-1.3l-0.3-0.6l-1.2-0.1l-0.6-0.2v1.7L13.2,83l-0.3,0.8"/>
		<ellipse fill="none" stroke="#FFFFFF" stroke-width="0.5" stroke-miterlimit="10" cx="24.1" cy="85.1" rx="1.2" ry="1.6"/>
		<polyline fill="none" stroke="#FFFFFF" stroke-width="0.5" stroke-miterlimit="10" points="18,84.3 18.4,83.5 19.2,82.4 
			19.7,81.9 21.4,81.9 22.8,81.9 23.3,81.8 24.2,81.9 25.4,81.9 		"/>
		<path fill="none" stroke="#FFFFFF" stroke-width="0.5" stroke-miterlimit="10" d="M29.7,83.3c0-3-1.9-5.3-4.1-5.3c0,0,0,0,0,0"/>
		<path fill="none" stroke="#FFFFFF" stroke-width="0.5" stroke-miterlimit="10" d="M29.7,83.3c0,3.1-1.9,5.5-4.2,5.6"/>
		<path fill="none" stroke="#FFFFFF" stroke-width="0.5" stroke-miterlimit="10" d="M28,83.4c0-2.3-2-4.1-4.5-4.1"/>
		<path fill="none" stroke="#FFFFFF" stroke-width="0.5" stroke-miterlimit="10" d="M28,83.4c0,2.1-0.7,3.8-1.6,3.8"/>
		<line fill="none" stroke="#FFFFFF" stroke-width="0.5" stroke-miterlimit="10" x1="116.5" y1="82.1" x2="117.7" y2="86"/>
		<line fill="none" stroke="#FFFFFF" stroke-width="0.5" stroke-miterlimit="10" x1="119.2" y1="82.6" x2="119.9" y2="86.5"/>
		<polyline fill="none" stroke="#FFFFFF" stroke-width="0.5" stroke-miterlimit="10" points="15.6,90.9 17.3,92.7 18,91.5 17.3,90 
			16.2,88.6 14.6,86.7 14.1,84.6 14.6,83 15.1,81.9 16,81.9 		"/>
		<line fill="none" stroke="#FFFFFF" stroke-width="0.5" stroke-miterlimit="10" x1="13.7" y1="87.5" x2="14.6" y2="86.7"/>
		<line fill="none" stroke="#FFFFFF" stroke-width="0.5" stroke-miterlimit="10" x1="15.6" y1="90.2" x2="16.5" y2="89"/>
		<polyline fill="none" stroke="#FFFFFF" stroke-width="0.5" stroke-miterlimit="10" points="17.3,92.7 18,95 18.9,98.4 19.7,101.5 
			20.2,103.3 20.9,104.9 22.3,106.1 23.6,107.2 24.9,107.4 		"/>
		<path fill="none" stroke="#FFFFFF" stroke-width="0.5" stroke-miterlimit="10" d="M17.5,92.3c0,0,11.8,0,11.9,0l1.2,2l0.7,1.2v1.4
			l0.1,1.5v1.3l0.3,1.3v1.1l0.2,1.3v2.4l0.2,1.3v0.9l-2.4,0.2l-1.2,0.2h-0.6l-0.3-1"/>
		<ellipse fill="none" stroke="#FFFFFF" stroke-width="0.5" stroke-miterlimit="10" cx="16.7" cy="101.4" rx="1.1" ry="1.4"/>
		<ellipse fill="none" stroke="#FFFFFF" stroke-width="0.5" stroke-miterlimit="10" cx="22" cy="98.9" rx="0.7" ry="1"/>
		<polygon fill="none" stroke="#FFFFFF" stroke-width="0.5" stroke-miterlimit="10" points="20.4,99.7 20.4,98.1 21.2,97.1 
			22.8,97.1 23.5,98 23.5,99.7 22.8,100.7 21.1,100.7 		"/>
		<ellipse fill="none" stroke="#FFFFFF" stroke-width="0.5" stroke-miterlimit="10" cx="27.5" cy="97.8" rx="0.7" ry="1"/>
		<polygon fill="none" stroke="#FFFFFF" stroke-width="0.5" stroke-miterlimit="10" points="26,98.6 26,97.1 26.8,96 28.4,96 
			29.1,97 29.1,98.6 28.4,99.6 26.7,99.6 		"/>
		<ellipse fill="none" stroke="#FFFFFF" stroke-width="0.5" stroke-miterlimit="10" cx="24.3" cy="102.8" rx="0.7" ry="1"/>
		<polygon fill="none" stroke="#FFFFFF" stroke-width="0.5" stroke-miterlimit="10" points="22.7,103.6 22.7,102.1 23.5,101 
			25.1,101 25.8,102 25.8,103.6 25.1,104.6 23.4,104.6 		"/>
		<polyline fill="none" stroke="#FFFFFF" stroke-width="0.5" stroke-miterlimit="10" points="19.8,99.6 19.8,97.6 20.9,96.6 
			22.2,96 23.1,96.4 24.6,98.5 25.8,99.9 27,101.9 26.8,103.5 26,104.2 24.8,105.4 23.3,105.4 21.7,103.8 20.5,101.9 19.5,99.6 		
			"/>
		<polyline fill="none" stroke="#FFFFFF" stroke-width="0.5" stroke-miterlimit="10" points="25.5,97.1 24.9,96.1 25,94.7 
			28.5,94.7 30,95.9 30,97.4 29.1,98.6 		"/>
		<path fill="none" stroke="#FFFFFF" stroke-width="0.5" stroke-miterlimit="10" d="M31.2,75.8l-0.1,1l-1.5,1v2.1l7.6,0l0.7,0.3
			l0.4,0.7l10.5,15l0.3,0.7v2.6l-1.1-1c0,0-0.7-1.6-0.8-1.7S46,95.1,46,95.1l-1-0.9l-1-1.4v-1.6l-1.8-0.7L41,91.8h-0.8L38.6,92
			l-1.8,1.1l-1.4,1.4l-1.1,1.6l-1,0.3l-0.6,0.9l-0.5,1.3l-0.2,1.4l0.2,1.4l0.6,0.6l1.2,0.6v1.8l0.2,0.8l0.7,1.2l0.7,1.2l0.9,1
			l1.3,0.5l0.3,0.6"/>
		<polyline fill="none" stroke="#FFFFFF" stroke-width="0.5" stroke-miterlimit="10" points="49,99.1 49.2,101.4 48.9,102.8 
			48.3,103.8 47.8,104.1 47.6,104.8 47.4,106.1 46.3,106.1 45.2,106.1 43.4,106.3 42.7,106.6 42.2,108.1 41.8,109.1 41.2,110.1 
			40.9,111 		"/>
		<path fill="none" stroke="#FFFFFF" stroke-width="0.5" stroke-miterlimit="10" d="M37.8,108.3l-1.4-1.2l-0.9-1.3
			c0,0-0.7-1.2-0.7-1.4s-0.3-1.8-0.3-1.8v-0.7l0.4-1.1l0-1.2l0.5-2.1l0.7-0.5l0.6-0.9l0.8-0.2l0.8-0.4h1.4l0.4,0.9l0.6,0.5l1.3,0.6
			l1-0.3h1l0.5,0.8l1.2,1.2l0.2,1.5c0,0-0.4,0.5-0.4,0.8s0.1,1.3,0.1,1.3c0.2,0.3,0.3,0.6,0.4,1c0,0.2,0.5,0.4,0.5,0.4l1.2,0"/>
		<polyline fill="none" stroke="#FFFFFF" stroke-width="0.5" stroke-miterlimit="10" points="34.9,97.1 35.5,96.4 36.1,95.2 
			37.4,94.2 39,93.5 40.4,93.5 40.7,93.5 41.9,92.8 42.6,93.1 43.4,93.9 43.8,94.9 44.6,96 45.6,96.7 46.3,97.8 46.7,98.4 
			46.9,99.4 47.2,100.1 47.8,101 48.5,102 48.5,103.4 		"/>
		<polyline fill="none" stroke="#FFFFFF" stroke-width="0.5" stroke-miterlimit="10" points="32.1,99.3 33.6,98.8 35.3,99.3 		"/>
		<ellipse fill="none" stroke="#FFFFFF" stroke-width="0.5" stroke-miterlimit="10" cx="42.2" cy="94.9" rx="1" ry="1.3"/>
		<ellipse fill="none" stroke="#FFFFFF" stroke-width="0.5" stroke-miterlimit="10" cx="33.3" cy="100.7" rx="1.2" ry="1.4"/>
		<ellipse fill="none" stroke="#FFFFFF" stroke-width="0.5" stroke-miterlimit="10" cx="47.1" cy="102.4" rx="1.1" ry="1.4"/>
		<polyline fill="none" stroke="#FFFFFF" stroke-width="0.5" stroke-miterlimit="10" points="32.1,108 32.6,107.4 34.2,107.7 
			34.7,108 34.9,109.6 35.6,109.8 37,109.8 37.9,109.8 		"/>
		<polyline fill="none" stroke="#FFFFFF" stroke-width="0.5" stroke-miterlimit="10" points="47.4,106.1 47.1,106.4 45.6,107.1 
			44.4,107.1 43.6,107.4 43.1,108.3 42.6,109.6 41.5,111 40.7,112.3 40,113.7 40,116.9 40,119.4 40.6,121.1 41.5,122.7 41.5,123.8 
			40.5,124.1 40.6,122.8 40,121.4 39,119.6 37.2,117.8 36,116.6 34.5,116.7 33.3,118.3 33.1,120.1 33.1,122 34.1,123.4 35.5,125 
			36,126.1 36.2,127.4 37.5,127.8 39.2,127.8 40,126.5 41.2,125.9 42.5,126.1 43.3,127 43.7,127.8 44.4,127.6 45,126.9 44.2,125.5 
			42.8,124.4 40.9,124.4 39.9,124.7 40.5,124.1 		"/>
		<ellipse fill="none" stroke="#FFFFFF" stroke-width="0.5" stroke-miterlimit="10" cx="34.5" cy="121.3" rx="1.1" ry="1.5"/>
		<polyline fill="none" stroke="#FFFFFF" stroke-width="0.5" stroke-miterlimit="10" points="40.6,123.2 39.8,122.1 38.7,121.3 
			38,121.8 36.6,119.8 35.6,118.9 34.5,118.6 33.8,119 33.1,120.1 		"/>
		<polyline fill="none" stroke="#FFFFFF" stroke-width="0.5" stroke-miterlimit="10" points="23.8,125.4 22.7,125.4 21.2,125.2 
			20.7,123.7 20.9,121.8 20.9,119.5 21.1,117.7 21.7,116.9 23,115.9 25.1,114.9 		"/>
		<path fill="none" stroke="#FFFFFF" stroke-width="0.5" stroke-miterlimit="10" d="M19.5,119.8c0,7.5,0.9,13.6,2.1,13.6"/>
		<path fill="none" stroke="#FFFFFF" stroke-width="0.5" stroke-miterlimit="10" d="M19.5,119.8c0-6.3,0.4-11.4,0.9-11.4"/>
		<path fill="none" stroke="#FFFFFF" stroke-width="0.5" stroke-miterlimit="10" d="M25.1,109.8h2.2c0.6,0,1.1-0.1,1.7-0.2
			c0.5-0.2,1.8,0,1.8,0l1.1-0.2l1.4-0.4l1.1,1l0.1,1.6h3.3l1,0.7l1.1,1.5l3.7-1.6"/>
		<path fill="none" stroke="#FFFFFF" stroke-width="0.5" stroke-miterlimit="10" d="M26.6,120.1c0-5.7,0.3-10.4,0.6-10.4"/>
		<path fill="none" stroke="#FFFFFF" stroke-width="0.5" stroke-miterlimit="10" d="M26.6,120.1c0,5.7,0.6,10.4,1.3,10.4h1.5V128"/>
		<path fill="none" stroke="#FFFFFF" stroke-width="0.5" stroke-miterlimit="10" d="M28,117.8c0,5.6,0.6,10.2,1.4,10.2"/>
		<path fill="none" stroke="#FFFFFF" stroke-width="0.5" stroke-miterlimit="10" d="M32.6,117.4c0,0.2-2,0.4-4.5,0.4"/>
		<path fill="none" stroke="#FFFFFF" stroke-width="0.5" stroke-miterlimit="10" d="M33.3,114.9c0-0.7-0.7-1.2-1.6-1.2"/>
		<path fill="none" stroke="#FFFFFF" stroke-width="0.5" stroke-miterlimit="10" d="M31.7,113.7c0-2.3-0.6-4.2-1.3-4.2"/>
		<path fill="none" stroke="#FFFFFF" stroke-width="0.5" stroke-miterlimit="10" d="M31.7,113.7c0,0.7-1.5,1.2-3.4,1.2"/>
		<path fill="none" stroke="#FFFFFF" stroke-width="0.5" stroke-miterlimit="10" d="M28,117.8c0-1.6,0.1-2.9,0.2-2.9"/>
		<path fill="none" stroke="#FFFFFF" stroke-width="0.5" stroke-miterlimit="10" d="M28.1,111v3.9"/>
		<path fill="none" stroke="#FFFFFF" stroke-width="0.5" stroke-miterlimit="10" d="M28.1,111c0-0.8,0.7-1.5,1.6-1.5"/>
		<ellipse fill="none" stroke="#FFFFFF" stroke-width="0.5" stroke-miterlimit="10" cx="30" cy="112" rx="1.1" ry="1.4"/>
		<line fill="none" stroke="#FFFFFF" stroke-width="0.5" stroke-miterlimit="10" x1="28.7" y1="118.4" x2="31.9" y2="118.4"/>
		<polyline fill="none" stroke="#FFFFFF" stroke-width="0.5" stroke-miterlimit="10" points="28.1,117.8 28.7,118.6 28.9,124.9 
			29.4,127.9 		"/>
		<line fill="none" stroke="#FFFFFF" stroke-width="0.5" stroke-miterlimit="10" x1="28.9" y1="124.9" x2="28.5" y2="125.1"/>
		<path fill="none" stroke="#FFFFFF" stroke-width="0.5" stroke-miterlimit="10" d="M31.7,115.8l0.8,1.6c0.4,0,0.8-1.1,0.8-2.5"/>
		<line fill="none" stroke="#FFFFFF" stroke-width="0.5" stroke-miterlimit="10" x1="38.7" y1="121.3" x2="38.7" y2="119.4"/>
		<path fill="none" stroke="#FFFFFF" stroke-width="0.5" stroke-miterlimit="10" d="M32.9,114.1c0,0.9-0.5,1.6-1.2,1.7"/>
		<path fill="none" stroke="#FFFFFF" stroke-width="0.5" stroke-miterlimit="10" d="M31.7,115.8c0,0.3-1.6,0.6-3.7,0.6"/>
		<polyline fill="none" stroke="#FFFFFF" stroke-width="0.5" stroke-miterlimit="10" points="29.7,127.3 32.3,127.2 32.2,124.7 
			33.2,124.2 34.8,124.2 		"/>
		<polyline fill="none" stroke="#FFFFFF" stroke-width="0.5" stroke-miterlimit="10" points="34.5,129 33.6,128.4 32.8,128 
			32.3,127.2 		"/>
		<path fill="none" stroke="#FFFFFF" stroke-width="0.5" stroke-miterlimit="10" d="M43.7,117.1c0-5.2-0.1-9.3-0.3-9.3"/>
		<path fill="none" stroke="#FFFFFF" stroke-width="0.5" stroke-miterlimit="10" d="M43.7,117.1c0,4.4-0.1,7.9-0.1,7.9"/>
		<line fill="none" stroke="#FFFFFF" stroke-width="0.5" stroke-miterlimit="10" x1="41.5" y1="122.7" x2="43.6" y2="123.2"/>
		<path fill="none" stroke="#FFFFFF" stroke-width="0.5" stroke-miterlimit="10" d="M47.5,115.8c0-5.3,0-9.7-0.1-9.7"/>
		<path fill="none" stroke="#FFFFFF" stroke-width="0.5" stroke-miterlimit="10" d="M38.9,130.7l3.6-1.7l3.8-2.4l1.1-0.3
			c0.1,0,0.1-4.7,0.1-10.6"/>
		<polyline fill="none" stroke="#FFFFFF" stroke-width="0.5" stroke-miterlimit="10" points="47.4,126.3 57.2,118.8 59.1,117.3 
			60.4,117.3 61.8,117.3 62.5,117.3 63.1,118.7 62.6,134.4 		"/>
		<ellipse fill="none" stroke="#FFFFFF" stroke-width="0.5" stroke-miterlimit="10" cx="39.6" cy="134" rx="1.8" ry="2.2"/>
		<ellipse fill="none" stroke="#FFFFFF" stroke-width="0.5" stroke-miterlimit="10" cx="60.9" cy="119.8" rx="1.8" ry="2.2"/>
		<ellipse fill="none" stroke="#FFFFFF" stroke-width="0.5" stroke-miterlimit="10" cx="59.9" cy="137.8" rx="1.8" ry="2.2"/>
		<line fill="none" stroke="#FFFFFF" stroke-width="0.5" stroke-miterlimit="10" x1="40.9" y1="125.9" x2="39.1" y2="130.5"/>
		<path fill="none" stroke="#FFFFFF" stroke-width="0.5" stroke-miterlimit="10" d="M47.5,120.3c0-2.8,1.6-5,3.5-5l1,1
			c-2.2,0-3.9,4-3.9,9.1"/>
		<path fill="none" stroke="#FFFFFF" stroke-width="0.5" stroke-miterlimit="10" d="M51.9,119.2c-0.5,0-0.9,0.1-1.3,0.4
			c-1.4,0.9-2.4,3.2-2.4,5.8l0.5-0.1c0-3.3,3.4-5.9,7.6-5.9l1-0.7"/>
		<path fill="none" stroke="#FFFFFF" stroke-width="0.5" stroke-miterlimit="10" d="M51.9,119.2c0-0.3,2.4-0.5,5.4-0.5"/>
		<line fill="none" stroke="#FFFFFF" stroke-width="0.5" stroke-miterlimit="10" x1="50.4" y1="119.7" x2="51.3" y2="120.9"/>
		<line fill="none" stroke="#FFFFFF" stroke-width="0.5" stroke-miterlimit="10" x1="48.5" y1="116.8" x2="49.5" y2="118.2"/>
		<polyline fill="none" stroke="#FFFFFF" stroke-width="0.5" stroke-miterlimit="10" points="70.5,134.4 70.9,133 69.9,132.3 
			68.9,131.8 68.6,124.2 67.8,123.5 66.8,123.3 65.9,122 65,119 64.4,118.2 64.4,115.8 65,113.7 64.9,112.1 64.4,109.8 64.8,108.7 
					"/>
		<polyline fill="none" stroke="#FFFFFF" stroke-width="0.5" stroke-miterlimit="10" points="67.1,107.9 67.8,109.3 68.5,111 
			69.7,111 71.3,111.7 72.1,113.4 72.5,115.8 73.1,116.9 73.4,119.6 78.1,129.8 78.8,131.5 78.5,133.4 77.9,134.8 76.7,136.1 		"/>
		<line fill="none" stroke="#FFFFFF" stroke-width="0.5" stroke-miterlimit="10" x1="73" y1="135.4" x2="68.6" y2="124.2"/>
		<polyline fill="none" stroke="#FFFFFF" stroke-width="0.5" stroke-miterlimit="10" points="59.1,110.1 55.6,110.4 55.6,111.3 
			55.8,114.6 56.6,114.6 56.4,115.8 56.5,117.1 57.6,117.9 58.7,117.1 59.5,116.4 59.5,115.1 58.7,114.5 60.4,114.5 60.5,115.1 
			61.2,114.5 62,114.7 61.8,112.4 64,112.4 64.7,112.4 64.7,109.8 		"/>
		<line fill="none" stroke="#FFFFFF" stroke-width="0.5" stroke-miterlimit="10" x1="61.4" y1="109.6" x2="64.4" y2="109.6"/>
		<polygon fill="none" stroke="#FFFFFF" stroke-width="0.5" stroke-miterlimit="10" points="63.7,133.2 66.4,131.3 67.8,129.8 
			68.1,127 66.5,127 65.4,127.8 64.7,128.8 63.1,129.8 		"/>
		<polyline fill="none" stroke="#FFFFFF" stroke-width="0.5" stroke-miterlimit="10" points="62.4,116.9 62.4,114.8 63.8,115.3 
			64.4,116.1 		"/>
		<ellipse fill="none" stroke="#FFFFFF" stroke-width="0.5" stroke-miterlimit="10" cx="72.9" cy="129.8" rx="1.4" ry="1.8"/>
		<ellipse fill="none" stroke="#FFFFFF" stroke-width="0.5" stroke-miterlimit="10" cx="74.6" cy="133.9" rx="1.4" ry="1.8"/>
		<polyline fill="none" stroke="#FFFFFF" stroke-width="0.5" stroke-miterlimit="10" points="72.6,127.8 71.1,125 71.9,128.8 		"/>
		<ellipse fill="none" stroke="#FFFFFF" stroke-width="0.5" stroke-miterlimit="10" cx="89.7" cy="133.7" rx="2.5" ry="3"/>
		<path fill="none" stroke="#FFFFFF" stroke-width="0.5" stroke-miterlimit="10" d="M86,133.7c0-2.2,0.6-3.9,1.3-3.9"/>
		<ellipse fill="none" stroke="#FFFFFF" stroke-width="0.5" stroke-miterlimit="10" cx="98.5" cy="131.4" rx="2.2" ry="2"/>
		<path fill="none" stroke="#FFFFFF" stroke-width="0.5" stroke-miterlimit="10" d="M102,131.1c0-1.5-0.9-2.7-2-2.8c0,0,0,0,0,0"/>
		<path fill="none" stroke="#FFFFFF" stroke-width="0.5" stroke-miterlimit="10" d="M102,131.1c0,1.9-0.7,3.4-1.6,3.4"/>
		<path fill="none" stroke="#FFFFFF" stroke-width="0.5" stroke-miterlimit="10" d="M117.9,125l-6.4,1.6l-6.1,0.6l-4.4-1l-1.1,2.1
			l-1.8,0.9l-2,1.2l-0.8,1.3l-1.5,2l-0.7,1.7l-1.3,1.7h-2.3c-2,0-3.5-1.5-3.5-3.4"/>
		<path fill="none" stroke="#FFFFFF" stroke-width="0.5" stroke-miterlimit="10" d="M124.9,116.8l-1.1-0.9c0,0-1.6-0.2-1.8,0
			s-1.4,0.8-1.4,0.8l-1.4-1.7h-0.9l-0.3-3.4v-1.9l-0.5-1.1h-3.4l-0.7,0.8l-0.2,1.6v2.6l0.1,1.3l0.1,1.5l-1.3,0.3l-0.8,0.8l-1.4,1.2
			l-1.7,1.4l-1.2,1l-2,0.3"/>
		<path fill="none" stroke="#FFFFFF" stroke-width="0.5" stroke-miterlimit="10" d="M120.7,116.7c0,3.6,0.7,6.5,1.5,6.5"/>
		<path fill="none" stroke="#FFFFFF" stroke-width="0.5" stroke-miterlimit="10" d="M123.8,115.9c0,4,0.8,7.3,1.7,7.3"/>
		<polyline fill="none" stroke="#FFFFFF" stroke-width="0.5" stroke-miterlimit="10" points="113.4,114.6 112.4,114.4 110.6,113.2 
			110.6,111.6 111.1,111 110.7,110.1 110.2,109.5 110.2,108.6 112.4,108.6 113.9,107.3 117.9,107.3 119.1,109 120.2,108.7 		"/>
		<polyline fill="none" stroke="#FFFFFF" stroke-width="0.5" stroke-miterlimit="10" points="110.6,113.2 111.1,114 111.1,114.8 
			107.7,114.9 		"/>
		<polyline fill="none" stroke="#FFFFFF" stroke-width="0.5" stroke-miterlimit="10" points="110,109.2 108.5,109.1 108,109.7 		"/>
		<path fill="none" stroke="#FFFFFF" stroke-width="0.5" stroke-miterlimit="10" d="M124,115.9c0-4-0.6-7.2-1.4-7.2"/>
		<path fill="none" stroke="#FFFFFF" stroke-width="0.5" stroke-miterlimit="10" d="M129.3,111.7c0-2.9-1.4-5.3-3.1-5.3"/>
		<path fill="none" stroke="#FFFFFF" stroke-width="0.5" stroke-miterlimit="10" d="M129.3,111.7c0,2.7-0.9,4.9-2.1,4.9"/>
		<path fill="none" stroke="#FFFFFF" stroke-width="0.5" stroke-miterlimit="10" d="M130.7,112.3c0-7.4-1.2-13.5-2.8-13.5"/>
		<path fill="none" stroke="#FFFFFF" stroke-width="0.5" stroke-miterlimit="10" d="M130.7,112.3c0,6.3-0.3,11.5-0.8,11.5"/>
	</g>
</g>
</svg>
