<?xml version="1.0" encoding="utf-8"?>
<!-- Generator: Adobe Illustrator 22.1.0, SVG Export Plug-In . SVG Version: 6.00 Build 0)  -->
<svg version="1.1" id="Слой_1" xmlns="http://www.w3.org/2000/svg" xmlns:xlink="http://www.w3.org/1999/xlink" x="0px" y="0px"
	 viewBox="0 0 141.4 141.1" enable-background="new 0 0 141.4 141.1" xml:space="preserve">
<title>skeleton ATV_1</title>
<g id="Слой_1-2">
	<path fill="none" stroke="#FFFFFF" stroke-miterlimit="10" d="M17.5,55.6l11.3-11.3l-0.8-3l-0.2-1.5l5.3-5.5h0.8l1.2,3.4l0.2-0.1
		l0.5-2.8v-2.3l-2.4-2.6l-0.3-1.5v-3.7l0.2-1.1l0.3-2.2l0.2-1.7l0.3-1.3l0.5-1.2h1l0.3,0.6l0.3,0.9h0.4l0.4,0.2h1.6l0.1,0.8v1h0.4
		v2.4l6.1,4.5h0.3l4.1-4.2l2-1.6l2-0.8l5.2,0.4l7.9,1.1l6.3,0.8l5.5,1.1v-4.8l1-0.8l1.4-0.2h1.3l2.4,1.1l2.6,1l2.2,0.9l2.7,0.8
		l1.3,0.5l1.4,0.2l0.3,0.5l3.7-3l4.6-3.8l7.9-6.5l5.6-4.6l3.8-3.2c0,0,0.7-0.3,0.6-0.3h0.4l7.3,1.7l-0.1-3.4h2.1l0.3,1.3l0.1,2.9
		l3.6,0.6l3.4,0.7l1.4,0.3l0.9,1.8v1.8L140,11l-0.3,2.9l-0.7,3.3l-1.2,2.6l-2,4.1l-2.5,4.4l-2.5,4.2l-11.3,20.2l-1.8,2.9l0.7,0.7
		l0.8,0.1l0.6-1.1l0.6,0.1l0.8,1.5l-0.4,1.2l-1,1.8V61l-0.3,0.7h-0.9l-1.2-1.5l-0.2-1.2l-0.8-0.5l-1.6,3l0.4,0.7v1.7l-0.5,1.1
		l-0.5,0.8h-0.7l-0.4-0.8l-4.6,7.8l-0.2,1.5l-0.9,1l-2.5,3.9l0.3,3l-0.4,6.7l-1.8,8.3V98h0.6l0.9,0.8l0.3,0.9v1.9l-0.8,1.1h-0.6v1.1
		l-0.9,1.5h-1.2l-0.4,3l0.6,0.9v2.4l-0.7,2.1h-1.4l-0.9-1.1h-1.7l-14.7,5.8l-21.2,3.8l-6.9,1.1l-9.5,3v1.1l-0.6,0.5l-0.1,1.9
		l-0.5,1.2l-0.6-0.2l-2-3.3l-4.2,1.4l-0.1,3l-1.6,0.8l-1-1.1l-3.4-0.5l-0.6-0.2l-8.2,2.3l-0.4,1.2l-1.2,1.4l-0.1,1.9H19l-0.8-1.9
		l-1.2-1.3l-5.3,1.7l-0.1,3.3l-0.8,1.1H9.9L9,139.8l-1.6-0.7l-1.5,0.7l-1.2-0.7l-0.9-2l-3.3-8.7v-2.2l0.9-1.6l1.2-0.3L5,109.1
		l-0.9-0.8l-1.3-5.7l-0.2-2l0.6-1.4l2.5-0.5l1.1-0.3l0.6-2.6l-1-2.9L6.5,88l1-1.3l1.3,0.7c0,0,3.4-20.4,3.4-20.6s0-3.3,0-3.3l-0.9-3
		l-0.1-5.3l1.1,0.2l0.3-1.4L17.5,55.6z"/>
	<path fill="none" stroke="#FFFFFF" stroke-miterlimit="10" d="M18.6,60.4l0.8-1.3h0.9c0,0,2.2,3.1,2.1,3.2
		c-0.1,0.1-1.5-0.4-1.5-0.4l-2.2-1.2"/>
	<polygon fill="none" stroke="#FFFFFF" stroke-miterlimit="10" points="24.4,60.2 25,53.6 35.4,43.3 36.9,43.3 36.9,45.3 36.1,46.3 
		36,47.7 36.2,50.1 25,61.1 	"/>
	<line fill="none" stroke="#FFFFFF" stroke-miterlimit="10" x1="22.4" y1="62.3" x2="23" y2="63.2"/>
	<polygon fill="none" stroke="#FFFFFF" stroke-miterlimit="10" points="22,56.8 23.3,54.6 23,59.1 	"/>
	<path fill="none" stroke="#FFFFFF" stroke-miterlimit="10" d="M31.4,42.4c-0.1,0-0.5-0.5-0.5-0.5l-0.2-2.5h0.7l1.4,0.6l0.2,0.9
		L31.4,42.4z"/>
	<polygon fill="none" stroke="#FFFFFF" stroke-miterlimit="10" points="39.7,45.8 39.3,46.5 39.1,48 40.9,46.4 40.9,45.8 	"/>
	<line fill="none" stroke="#FFFFFF" stroke-miterlimit="10" x1="35.4" y1="43.3" x2="33" y2="40.9"/>
	<polyline fill="none" stroke="#FFFFFF" stroke-miterlimit="10" points="35.2,37.7 37.8,40.5 38.2,41.2 42.9,40.9 43.8,42.4 
		44.1,45.8 45.1,46.6 45.2,47.7 42.7,50.3 44.1,53.8 44.3,55.6 43.5,57.2 42.4,57.2 39.4,53.4 31,61.1 30.3,67.6 	"/>
	<polyline fill="none" stroke="#FFFFFF" stroke-miterlimit="10" points="33.9,26.4 37.3,29.4 37.3,32.2 38.5,33.6 40.4,34.4 
		41.4,35.5 42.4,37.3 42.9,40.9 	"/>
	<polyline fill="none" stroke="#FFFFFF" stroke-miterlimit="10" points="43.9,43.8 53.8,34 48.9,30.3 53.3,26.4 59.7,28.7 54,34.1 	
		"/>
	<polyline fill="none" stroke="#FFFFFF" stroke-miterlimit="10" points="45.3,48 47.1,45.8 47.8,46.9 49.1,51.2 50.5,51.5 51,50.1 
		50.7,42.7 62,32.2 74.8,32.9 81.2,33.2 81.2,36.5 83,52.8 83.4,56.3 83.4,60.3 83.4,61.3 84.2,61.7 84.1,63.5 84.2,64.6 84.7,65.4 
		84.7,67.3 83.7,68.9 82.7,71.4 82.7,73.8 83.4,75.5 84.4,76.3 83.3,83 81.9,83.6 81.3,85.5 81.8,87.6 82.2,88 81.8,90.8 80.6,90.8 
		79.9,91.8 79.9,93.3 72.4,95.7 66.5,98.6 62.1,102.8 61.7,98.7 60.8,98.1 59.9,98.5 59.3,100.5 59,105 58,105 56.4,103.8 55.4,102 
		54.5,98.7 53.6,97.2 51.5,97.8 50.1,96 49.4,94.4 49,91.4 48.4,90.8 46.7,91.2 45,91.6 42.9,88.2 41.1,84.6 33.1,71.7 30.3,67.3 	
		"/>
	<path fill="none" stroke="#FFFFFF" stroke-miterlimit="10" d="M82.4,25.2V23l0.5-0.7c0,0,3.1,0.5,3.1,0.8c-0.1,0.3-0.1,0.4-0.1,0.4
		l-1.5,0.2l-1.2,0.8L83,25L82.4,25.2z"/>
	<polyline fill="none" stroke="#FFFFFF" stroke-miterlimit="10" points="85.9,23.5 87.3,24.2 89.2,25.3 90.2,25.9 91.1,26.8 	"/>
	<polyline fill="none" stroke="#FFFFFF" stroke-miterlimit="10" points="89.2,24.7 90.2,25.2 90.4,25.9 	"/>
	<polygon fill="none" stroke="#FFFFFF" stroke-miterlimit="10" points="60.4,26.8 63.1,26.8 63.1,27.9 61.8,28.6 	"/>
	<line fill="none" stroke="#FFFFFF" stroke-miterlimit="10" x1="82.8" y1="28.6" x2="63.1" y2="26.8"/>
	<polyline fill="none" stroke="#FFFFFF" stroke-miterlimit="10" points="63.1,27.9 91.1,29.4 91.1,24.7 95,23.7 95.2,23.5 	"/>
	<line fill="none" stroke="#FFFFFF" stroke-miterlimit="10" x1="79.2" y1="20" x2="91.1" y2="24.7"/>
	<polyline fill="none" stroke="#FFFFFF" stroke-miterlimit="10" points="84.7,29.1 84.7,28.4 86,28.4 86.3,29.1 	"/>
	<polygon fill="none" stroke="#FFFFFF" stroke-miterlimit="10" points="95,28.6 108.6,17.4 109.2,17.2 110.4,19.4 110.4,25.2 
		101.9,38.9 100.4,38.6 99.2,38.2 97.7,33.6 96.7,31 	"/>
	<polygon fill="none" stroke="#FFFFFF" stroke-miterlimit="10" points="107.3,34.7 119.5,15 120.9,11.9 121.9,8.8 121.9,7 
		135.7,10.1 135.4,10.8 126.4,18.6 	"/>
	<polyline fill="none" stroke="#FFFFFF" stroke-miterlimit="10" points="109.2,17.2 117.4,10.3 119.5,8.8 119.5,10.3 118.4,12.3 
		117.6,11.7 117.6,10.5 	"/>
	<line fill="none" stroke="#FFFFFF" stroke-miterlimit="10" x1="110.4" y1="25.2" x2="118.4" y2="12.3"/>
	<polyline fill="none" stroke="#FFFFFF" stroke-miterlimit="10" points="119.5,8.8 119.8,7.5 121.9,7 	"/>
	<polygon fill="none" stroke="#FFFFFF" stroke-miterlimit="10" points="106,43.6 108.9,66.6 128.9,31.4 129.2,25.9 128,21.7 
		106.9,39.8 106.5,41.9 	"/>
	<polyline fill="none" stroke="#FFFFFF" stroke-miterlimit="10" points="127.8,21.7 136.7,13 141.1,9.6 	"/>
	<line fill="none" stroke="#FFFFFF" stroke-miterlimit="10" x1="135.7" y1="9.6" x2="139.7" y2="7"/>
	<polyline fill="none" stroke="#FFFFFF" stroke-miterlimit="10" points="137.5,18.1 137.1,16.5 136.7,13.6 138,12.3 137.7,14.9 
		137.5,18.1 128.9,31.4 	"/>
	<polyline fill="none" stroke="#FFFFFF" stroke-miterlimit="10" points="103.3,43.2 101.2,46.6 101.2,49.2 102.9,60.2 104.2,59.3 
		105.4,60.2 105.4,62.4 103.5,64.6 104.3,72.1 106.1,71.2 107.3,69 107.3,67.9 104.1,42.8 102.7,42.8 101.6,41.4 102.1,40.1 
		108.5,33.7 	"/>
	<polygon fill="none" stroke="#FFFFFF" stroke-miterlimit="10" points="84.2,37.4 87.7,34.7 87.9,33.7 88.5,34.1 89.8,55.1 
		85.5,51.8 	"/>
	<path fill="none" stroke="#FFFFFF" stroke-miterlimit="10" d="M89.5,34.1L91.1,56l2.1-3.1V51l0.8-1.7l1,1l1.5-2.8v-0.6
		c-0.2-0.1-0.4-0.3-0.6-0.4c-0.2-0.1-0.4,1.4-0.4,1.4L94.3,48l-0.9-2.3l0.3-0.8h0.8l1.3-2.2l1,1.6l0.5,0.6l-2.1-7.4L91.9,34
		L89.5,34.1z"/>
	<polyline fill="none" stroke="#FFFFFF" stroke-miterlimit="10" points="98.1,49.9 93.1,57.2 99.8,60.2 98.3,50.3 	"/>
	<line fill="none" stroke="#FFFFFF" stroke-miterlimit="10" x1="88.2" y1="55" x2="84.4" y2="61.4"/>
	<polyline fill="none" stroke="#FFFFFF" stroke-miterlimit="10" points="100.1,98.4 102.9,86.4 103.1,82.5 102.1,71.7 101.2,65.2 	
		"/>
	<polyline fill="none" stroke="#FFFFFF" stroke-miterlimit="10" points="91.3,61.9 91.8,64.4 91.3,65.7 90.3,65.2 89.5,64.2 
		88.4,65.7 88.2,67.6 88.4,70.3 90,71.4 90.5,72.7 90,73.9 88.4,74.7 85.1,87.6 84.7,91.5 85.8,91.9 87.5,96.6 92.5,101 	"/>
	<polyline fill="none" stroke="#FFFFFF" stroke-miterlimit="10" points="92.5,107.5 92.5,106.1 85.3,99.3 81.3,99 76.7,98.4 
		68.2,102.5 58.6,111.3 58.2,114.4 59.9,115.1 61.3,116.9 68.5,116.9 68.5,113.8 68.5,110 69.5,108.4 70.8,108.8 71.4,112.1 
		73,114.9 82.5,112.8 91.5,109.5 92.2,108.3 95.9,106.7 94.5,105.4 92.9,103.2 92.3,101.7 92.9,99.5 93.9,99.2 94.5,100.3 
		95.4,100.2 95.7,101.4 97.3,104.4 98.9,102.2 100.1,98.4 99.5,97.2 99.1,96 99.8,91.2 99.6,88 98.3,86.2 97.7,84.8 97.6,82.6 
		98.3,80.7 99.8,78.6 100.6,76.3 100.4,72.9 100.3,69.6 100.8,68.6 100.6,66.6 99.1,66.6 97.7,67.8 95.2,70.3 93.8,70.7 92.7,70.7 
		91.9,69.2 92.2,66.6 94.6,64 94.6,62.9 89.5,60.2 88.2,61.9 85.7,65.6 84.9,65.6 	"/>
	<polyline fill="none" stroke="#FFFFFF" stroke-miterlimit="10" points="85,97.7 83.7,94.5 84.4,91.8 84.7,91.5 	"/>
	<polygon fill="none" stroke="#FFFFFF" stroke-miterlimit="10" points="55,108.8 53,106.2 53,104.3 54.2,105 55,106.9 	"/>
	<line fill="none" stroke="#FFFFFF" stroke-miterlimit="10" x1="58.2" y1="114.4" x2="55" y2="108.8"/>
	<line fill="none" stroke="#FFFFFF" stroke-miterlimit="10" x1="52.8" y1="105.6" x2="45" y2="91.6"/>
	<polygon fill="none" stroke="#FFFFFF" stroke-miterlimit="10" points="51.8,111 44.4,98.6 43.7,99 35.4,88.5 34.8,85.5 35,83.5 
		26.4,69 26,70.7 24.4,70.7 23.3,68.6 22,71.5 21.1,73.7 14.6,100.7 14.6,103.8 14.3,105.6 13.8,107 16.3,107.4 17.6,107.7 
		18.6,108.8 18.6,110.4 17.8,115.8 16.3,115.8 14.8,114.9 11.7,115.4 10.7,118.2 9.8,122.4 11.3,123.7 12.1,122.3 13.4,120 
		13.5,118.2 14,117.7 15.3,122.9 28.8,119 28.8,114.4 30.1,113.6 31.4,115.3 32.9,116.4 34,116.9 34.4,117.9 34.7,117.6 34.9,116.9 
		35.7,115.8 35.8,112.3 36.6,112 38.2,116.3 50,113.5 51.5,112.6 	"/>
	<polyline fill="none" stroke="#FFFFFF" stroke-miterlimit="10" points="20.5,70.7 21,68.6 19.9,65.7 20.1,64.8 24.4,64.8 	"/>
	<polyline fill="none" stroke="#FFFFFF" stroke-miterlimit="10" points="15.7,70.1 15.8,69.7 16,68.6 17.6,72.9 10.6,104.3 
		10.2,105 9.8,103.6 15.4,70.7 	"/>
	<line fill="none" stroke="#FFFFFF" stroke-miterlimit="10" x1="12.5" y1="55.1" x2="19.9" y2="65.4"/>
	<polyline fill="none" stroke="#FFFFFF" stroke-miterlimit="10" points="8,130.6 43.4,120.1 43.9,118.8 38.3,116.9 38.2,116.3 	"/>
	<polyline fill="none" stroke="#FFFFFF" stroke-miterlimit="10" points="7.7,130.6 9.3,131.3 53.5,118.2 56.6,117.8 51.8,111 	"/>
	<line fill="none" stroke="#FFFFFF" stroke-miterlimit="10" x1="60.1" y1="117.3" x2="61.3" y2="116.9"/>
	<ellipse fill="none" stroke="#FFFFFF" stroke-miterlimit="10" cx="99.9" cy="83.4" rx="1.1" ry="1.8"/>
	<ellipse fill="none" stroke="#FFFFFF" stroke-miterlimit="10" cx="84.7" cy="72.1" rx="1.1" ry="1.8"/>
	<ellipse fill="none" stroke="#FFFFFF" stroke-miterlimit="10" cx="93.4" cy="68.5" rx="0.8" ry="1.4"/>
	<ellipse fill="none" stroke="#FFFFFF" stroke-miterlimit="10" cx="114.4" cy="14.7" rx="0.4" ry="0.6"/>
	<ellipse fill="none" stroke="#FFFFFF" stroke-miterlimit="10" cx="111.9" cy="16.5" rx="0.4" ry="0.6"/>
	<ellipse fill="none" stroke="#FFFFFF" stroke-miterlimit="10" cx="131.2" cy="24.3" rx="0.4" ry="0.6"/>
	<ellipse fill="none" stroke="#FFFFFF" stroke-miterlimit="10" cx="133.3" cy="20.4" rx="0.4" ry="0.6"/>
	<ellipse fill="none" stroke="#FFFFFF" stroke-miterlimit="10" cx="136.2" cy="16.8" rx="0.4" ry="0.6"/>
	<ellipse fill="none" stroke="#FFFFFF" stroke-miterlimit="10" cx="60.7" cy="100.1" rx="0.6" ry="1.1"/>
	<ellipse fill="none" stroke="#FFFFFF" stroke-miterlimit="10" cx="69.9" cy="110.6" rx="0.6" ry="1.1"/>
	<ellipse fill="none" stroke="#FFFFFF" stroke-miterlimit="10" cx="93.5" cy="101.6" rx="0.6" ry="1.1"/>
	<ellipse fill="none" stroke="#FFFFFF" stroke-miterlimit="10" cx="13.2" cy="112.7" rx="0.6" ry="1.1"/>
</g>
</svg>
