<?xml version="1.0" encoding="utf-8"?>
<!-- Generator: Adobe Illustrator 22.1.0, SVG Export Plug-In . SVG Version: 6.00 Build 0)  -->
<svg version="1.1" id="Capa_1" xmlns="http://www.w3.org/2000/svg" xmlns:xlink="http://www.w3.org/1999/xlink" x="0px" y="0px"
	 viewBox="0 0 20 20" style="enable-background:new 0 0 20 20;" xml:space="preserve">
<style type="text/css">
	.st0{fill:#333333;}
	.st1{fill:#FFFFFF;}
</style>
<circle class="st0" cx="10" cy="10" r="10"/>
<g>
	<g>
		<path class="st1" d="M16.8,5.2c-0.5,0.2-1,0.4-1.6,0.5c0.6-0.4,1-1,1.2-1.7c-0.5,0.3-1.1,0.6-1.7,0.7c-0.5-0.6-1.2-0.9-2-0.9
			c-1.5,0-2.7,1.3-2.7,3c0,0.2,0,0.5,0.1,0.7C7.9,7.4,5.9,6.2,4.5,4.4c-0.2,0.4-0.4,1-0.4,1.5c0,1,0.5,2,1.2,2.5
			C4.9,8.4,4.5,8.2,4.1,8v0c0,1.4,0.9,2.7,2.2,2.9c-0.2,0.1-0.5,0.1-0.7,0.1c-0.2,0-0.3,0-0.5-0.1c0.3,1.2,1.3,2.1,2.5,2.1
			c-0.9,0.8-2.1,1.3-3.4,1.3c-0.2,0-0.4,0-0.6,0c1.2,0.8,2.6,1.3,4.1,1.3c5,0,7.7-4.6,7.7-8.5l0-0.4C16,6.4,16.4,5.8,16.8,5.2z"/>
	</g>
</g>
</svg>
