<?xml version="1.0" encoding="utf-8"?>
<!-- Generator: Adobe Illustrator 22.1.0, SVG Export Plug-In . SVG Version: 6.00 Build 0)  -->
<svg version="1.1" id="Слой_1" xmlns="http://www.w3.org/2000/svg" xmlns:xlink="http://www.w3.org/1999/xlink" x="0px" y="0px"
	 viewBox="0 0 452.2 240.2" style="enable-background:new 0 0 452.2 240.2;" xml:space="preserve">
<style type="text/css">
	.st0{fill:#FFE02A;}
	.st1{fill:#FF7D0A;}
	.st2{fill:none;stroke:#FFFFFF;stroke-width:0.5;stroke-miterlimit:10;}
	.st3{fill:none;stroke:#BF00B7;stroke-miterlimit:10;}
	.st4{fill:none;stroke:#007F03;stroke-miterlimit:10;}
	.st5{fill:none;stroke:#0AD2FF;stroke-miterlimit:10;}
	.st6{fill:none;stroke:#000000;stroke-miterlimit:10;}
	.st7{fill:none;stroke:#FF7D0A;stroke-miterlimit:10;}
	.st8{fill:none;stroke:#0ACCCB;stroke-miterlimit:10;}
	.st9{fill:none;stroke:#0ACCCB;stroke-width:0.5;stroke-miterlimit:10;}
	.st10{fill:none;stroke:#0B0DD6;stroke-width:0.5;stroke-miterlimit:10;}
	.st11{fill:#62CC17;}
	.st12{stroke:#FFFFFF;stroke-miterlimit:10;}
	.st13{font-family:'ArialMT';}
	.st14{font-size:12px;}
	.st15{font-size:11.46px;}
</style>
<title>Variator icon_1</title>
<polygon class="st0" points="25.3,211.3 42.7,211.3 42.7,225.3 36.6,238.7 31,238.5 "/>
<polygon class="st1" points="13.1,43.5 29.2,43.5 27.8,50.8 15.1,50.8 "/>
<line class="st2" x1="13.1" y1="43.6" x2="29.5" y2="43.6"/>
<line class="st2" x1="13.6" y1="46.1" x2="29" y2="46.1"/>
<line class="st2" x1="14.2" y1="48.4" x2="28.7" y2="48.4"/>
<polygon class="st3" points="7.3,24.3 12.8,43.5 14.9,50.8 28.2,50.8 33.8,24.3 40.3,24.3 "/>
<polyline class="st4" points="45.6,51.3 45.6,40 40.3,29.8 "/>
<line class="st5" x1="14.3" y1="51.8" x2="56.6" y2="51.8"/>
<path class="st5" d="M59.2,58.8L59.2,58.8"/>
<path class="st5" d="M59.2,56.9c0-2.8-1.2-5.1-2.6-5.1"/>
<path class="st5" d="M59.2,56.9c0,3.1-1.2,5.7-2.6,5.7"/>
<polyline class="st5" points="26.8,51.8 26.8,53.5 14.6,53.5 14.6,51.8 "/>
<polyline class="st5" points="14.6,53.5 14.6,57.3 9.6,57.3 9.6,68.5 15.8,68.5 "/>
<polyline class="st5" points="26.8,53.5 46.6,53.5 46.6,62.8 "/>
<polyline class="st0" points="30.3,42.6 28.4,51.3 45.1,51.3 45.1,39.9 43.4,36.5 31.5,36.5 30.3,42.6 30.2,42.8 "/>
<circle class="st6" cx="37.5" cy="44.3" r="5"/>
<polygon class="st1" points="13.1,82.4 29.2,82.4 27.8,75 15.1,75 "/>
<line class="st2" x1="13.1" y1="82.2" x2="29.5" y2="82.2"/>
<line class="st2" x1="13.6" y1="79.8" x2="29" y2="79.8"/>
<line class="st2" x1="14.2" y1="77.4" x2="28.7" y2="77.4"/>
<polygon class="st3" points="7.3,101.5 12.8,82.4 14.9,75 28.2,75 33.8,101.5 40.3,101.5 "/>
<polyline class="st4" points="45.6,74.5 45.6,85.8 40.3,96 "/>
<line class="st5" x1="14.3" y1="74" x2="56.6" y2="74"/>
<path class="st5" d="M59.2,67L59.2,67"/>
<path class="st5" d="M54.1,68.6c0,3,1.2,5.4,2.6,5.4"/>
<path class="st5" d="M54.1,68.6c0-3.3,1.2-6,2.6-6"/>
<polyline class="st5" points="26.8,74 26.8,72.3 14.6,72.3 14.6,74 "/>
<polyline class="st5" points="14.6,72.3 14.6,68.5 9.6,68.5 9.6,57.3 15.8,57.3 "/>
<polyline class="st5" points="26.8,72.3 46.6,72.3 46.6,62.4 "/>
<polyline class="st0" points="30.3,83.3 28.4,74.5 45.1,74.5 45.1,85.9 43.4,89.3 31.5,89.3 30.3,83.3 30.2,83.1 "/>
<circle class="st6" cx="37.5" cy="81.6" r="5"/>
<circle class="st3" cx="304.6" cy="63.4" r="39.8"/>
<circle class="st3" cx="107.9" cy="63.4" r="39.8"/>
<circle class="st3" cx="107.6" cy="62.8" r="13.5"/>
<path class="st7" d="M107.4,77.2c-8,0-14.5-6.5-14.5-14.5s6.5-14.5,14.5-14.5l171-18.8h31.8c15,0,27.2,14.6,27.2,32.6"/>
<path class="st7" d="M341.9,62.1c0-20.2-14.2-36.6-31.7-36.6h-32.5L110.3,44.5c-11,0-20,8.1-20,18.1s8.9,18.1,20,18.1l168.2,17.9
	h31.8C327.8,98.7,341.9,82.3,341.9,62.1"/>
<path class="st7" d="M107.2,77.2l170.6,18.2h32.5c15,0,27.2-14.9,27.2-33.3"/>
<circle class="st3" cx="304.6" cy="62.1" r="13.5"/>
<circle class="st8" cx="107.6" cy="62.8" r="12.5"/>
<circle class="st8" cx="304.6" cy="62.1" r="12.5"/>
<polygon class="st1" points="397.9,26.1 416.4,26.1 414.8,33.5 400.2,33.5 "/>
<line class="st2" x1="397.9" y1="26.3" x2="416.7" y2="26.3"/>
<line class="st2" x1="398.4" y1="28.7" x2="416.2" y2="28.7"/>
<line class="st2" x1="399.1" y1="31" x2="415.8" y2="31"/>
<polyline class="st3" points="417.3,24.8 408.5,57.2 379,57.2 379,29.5 391.8,29.5 391.8,41.5 379,41.6 "/>
<polyline class="st3" points="397.4,24.8 405.3,54 392.5,54 "/>
<polyline class="st9" points="371.3,62.8 371.3,23.5 391.7,23.5 391.7,25.5 373.6,25.5 373.6,57.2 373.6,58.1 384.4,58.1 442,58.1 
	442,62.8 "/>
<circle class="st10" cx="382.5" cy="47.9" r="2"/>
<circle class="st10" cx="388" cy="47.9" r="2"/>
<circle class="st10" cx="393.5" cy="47.9" r="2"/>
<circle class="st10" cx="399" cy="47.9" r="2"/>
<polygon class="st1" points="397.9,99.3 416.4,99.3 414.8,91.9 400.2,91.9 "/>
<line class="st2" x1="397.9" y1="99.1" x2="416.7" y2="99.1"/>
<line class="st2" x1="398.4" y1="96.6" x2="416.2" y2="96.6"/>
<line class="st2" x1="399.1" y1="94.3" x2="415.8" y2="94.3"/>
<polyline class="st3" points="417.3,100.5 408.5,68.2 379,68.2 379,95.9 391.8,95.9 391.8,83.9 379,83.8 "/>
<polyline class="st3" points="397.4,100.5 405.3,71.3 392.5,71.3 "/>
<polyline class="st9" points="371.3,62.5 371.3,101.8 391.7,101.8 391.7,99.9 373.6,99.9 373.6,68.2 373.6,67.3 384.4,67.3 
	442,67.3 442,62.5 "/>
<circle class="st10" cx="382.5" cy="77.4" r="2"/>
<circle class="st10" cx="388" cy="77.4" r="2"/>
<circle class="st10" cx="393.5" cy="77.4" r="2"/>
<circle class="st10" cx="399" cy="77.4" r="2"/>
<circle class="st3" cx="107.9" cy="199.9" r="39.8"/>
<circle class="st3" cx="304.6" cy="199.9" r="39.8"/>
<circle class="st3" cx="305" cy="199.3" r="13.5"/>
<path class="st7" d="M305.1,213.7c8,0,14.5-6.5,14.5-14.5s-6.5-14.5-14.5-14.5l-171-18.7h-31.8c-15,0-27.2,14.6-27.2,32.6"/>
<path class="st7" d="M70.6,198.6c0-20.2,14.2-36.6,31.7-36.6h32.5l167.5,19c11,0,20,8.1,20,18.1s-8.9,18.1-20,18.1l-168.2,18h-31.8
	C84.8,235.2,70.6,218.8,70.6,198.6"/>
<path class="st7" d="M305.3,213.7l-170.6,18.2h-32.5c-15,0-27.2-14.9-27.2-33.3"/>
<circle class="st3" cx="107.9" cy="198.6" r="13.5"/>
<circle class="st8" cx="305" cy="199.3" r="12.5"/>
<circle class="st8" cx="107.9" cy="198.6" r="12.5"/>
<polygon class="st0" points="25,188.5 42.4,188.5 42.4,174.4 36.3,161 30.6,161.3 "/>
<polygon class="st11" points="3.6,161.9 30.7,161.9 28.3,169.2 7,169.2 "/>
<line class="st2" x1="4.1" y1="162" x2="30.6" y2="162"/>
<line class="st2" x1="4.8" y1="164.5" x2="29.9" y2="164.5"/>
<line class="st2" x1="5.4" y1="166.8" x2="29.8" y2="166.8"/>
<line class="st5" x1="11.1" y1="188.8" x2="53.4" y2="188.8"/>
<path class="st5" d="M56,195.8L56,195.8"/>
<path class="st5" d="M56,193.9c0-2.8-1.2-5.1-2.6-5.1"/>
<path class="st5" d="M56,193.9c0,3.1-1.2,5.7-2.6,5.7"/>
<polyline class="st5" points="23.5,188.8 23.5,190.5 11.4,190.5 11.4,188.8 "/>
<polyline class="st5" points="11.4,190.5 11.4,194.2 6.4,194.2 6.4,205.4 12.6,205.4 "/>
<polyline class="st5" points="23.5,190.5 43.4,190.5 43.4,199.7 "/>
<circle class="st6" cx="34.8" cy="171.7" r="5"/>
<line class="st5" x1="11.1" y1="210.9" x2="53.4" y2="210.9"/>
<path class="st5" d="M50.9,205.5c0,3,1.2,5.4,2.6,5.4"/>
<path class="st5" d="M50.9,205.5c0-3.3,1.2-6,2.6-6"/>
<polyline class="st5" points="23.5,210.9 23.5,209.2 11.4,209.2 11.4,210.9 "/>
<polyline class="st5" points="11.4,209.2 11.4,205.5 6.4,205.5 6.4,194.3 12.6,194.3 "/>
<polyline class="st5" points="23.5,209.2 43.4,209.2 43.4,199.4 "/>
<polygon class="st3" points="4.1,161.3 9.6,180.4 11.7,187.8 25,187.8 30.6,161.3 37.1,161.3 "/>
<polyline class="st4" points="42.4,188.8 42.4,174.1 36.6,161.2 42.4,174.1 42.4,188.3 "/>
<polygon class="st11" points="3.9,237.9 31,237.9 28.6,230.5 7.3,230.5 "/>
<line class="st2" x1="4.4" y1="237.7" x2="31" y2="237.7"/>
<line class="st2" x1="5.2" y1="235.3" x2="30.2" y2="235.3"/>
<line class="st2" x1="5.7" y1="232.9" x2="30.1" y2="232.9"/>
<circle class="st6" cx="35.1" cy="228" r="5"/>
<polygon class="st3" points="4.4,238.5 9.9,219.3 12,212 25.3,212 31,238.5 37.5,238.5 "/>
<polyline class="st4" points="42.7,211 42.7,225.7 37,238.6 42.7,225.7 42.7,211.5 "/>
<polygon class="st1" points="398.3,181.5 411.3,181.5 410.1,188.9 399.9,188.9 "/>
<line class="st2" x1="398.3" y1="181.7" x2="411.5" y2="181.7"/>
<line class="st2" x1="398.7" y1="184.2" x2="411.1" y2="184.2"/>
<line class="st2" x1="399.2" y1="186.5" x2="410.8" y2="186.5"/>
<polyline class="st3" points="403.8,193.1 374.3,193.1 374.3,165.4 387.1,165.4 387.1,177.4 374.3,177.5 "/>
<line class="st3" x1="417.3" y1="160.8" x2="408.5" y2="193.1"/>
<polyline class="st3" points="392.7,160.8 400.6,190 387.8,190 "/>
<polyline class="st9" points="371.3,198.8 371.3,159.5 391.7,159.5 391.7,161.4 373.6,161.4 373.6,193.1 373.6,194 384.4,194 
	442,194 442,198.8 "/>
<circle class="st10" cx="377.5" cy="183.9" r="2"/>
<circle class="st10" cx="383" cy="183.9" r="2"/>
<circle class="st10" cx="388.5" cy="183.9" r="2"/>
<circle class="st10" cx="394" cy="183.9" r="2"/>
<polygon class="st1" points="398.3,215.7 411.3,215.7 410.1,208.3 399.9,208.3 "/>
<line class="st2" x1="398.3" y1="215.5" x2="411.5" y2="215.5"/>
<line class="st2" x1="398.7" y1="213.1" x2="411.1" y2="213.1"/>
<line class="st2" x1="399.2" y1="210.8" x2="410.8" y2="210.8"/>
<polyline class="st3" points="403.8,204.1 374.3,204.1 374.3,231.8 387.1,231.8 387.1,219.8 374.3,219.7 "/>
<line class="st3" x1="417.3" y1="236.5" x2="408.5" y2="204.1"/>
<polyline class="st3" points="392.7,236.5 400.6,207.3 387.8,207.3 "/>
<polyline class="st9" points="371.3,198.5 371.3,237.8 391.7,237.8 391.7,235.8 373.6,235.8 373.6,204.1 373.6,203.2 384.4,203.2 
	442,203.2 442,198.5 "/>
<circle class="st10" cx="377.5" cy="213.4" r="2"/>
<circle class="st10" cx="383" cy="213.4" r="2"/>
<circle class="st10" cx="388.5" cy="213.4" r="2"/>
<circle class="st10" cx="394" cy="213.4" r="2"/>
<polyline class="st2" points="17.9,23.5 25.3,11.3 34.6,11.3 "/>
<text transform="matrix(1 0 0 1 26.28 10.04)" class="st12 st13 st14">1</text>
<polyline class="st2" points="16.7,47.9 9.3,35.6 0,35.6 "/>
<text transform="matrix(1 0 0 1 0 34.4099)" class="st12 st13 st14">2</text>
<polyline class="st2" points="50.8,51.8 58.2,39.5 67.5,39.5 "/>
<text transform="matrix(1 0 0 1 59.88 38.54)" class="st12 st13 st14">3</text>
<polyline class="st2" points="41.2,38.5 48.5,26.3 57.9,26.3 "/>
<text transform="matrix(1 0 0 1 50.8 24.3401)" class="st12 st13 st14">4</text>
<polyline class="st2" points="114.6,24.1 121.9,11.9 131.2,11.9 "/>
<text transform="matrix(1 0 0 1 122.9 10.6499)" class="st12 st13 st14">1</text>
<polyline class="st2" points="118.9,70.3 126.2,58.6 135.6,58.6 "/>
<text transform="matrix(1.05 0 0 1 127.2402 57.4399)" class="st12 st13 st15">1</text>
<polyline class="st2" points="121.1,47.3 113.8,35 104.4,35 "/>
<text transform="matrix(1 0 0 1 105.9 33.8101)" class="st12 st13 st14">2</text>
<polyline class="st2" points="95.4,60.8 88,48.5 78.7,48.5 "/>
<text transform="matrix(1 0 0 1 80.17 47.3201)" class="st12 st13 st14">3</text>
<polyline class="st2" points="435.5,58.7 442.8,46.4 452.2,46.4 "/>
<text transform="matrix(1 0 0 1 444.5 45.1599)" class="st12 st13 st14">5</text>
<polyline class="st2" points="412.5,43 419.8,30.7 429.2,30.7 "/>
<text transform="matrix(1 0 0 1 421.5 29.48)" class="st12 st13 st14">6</text>
</svg>
